<svg width="44" height="43" viewBox="0 0 44 43" fill="none" xmlns="http://www.w3.org/2000/svg">
<path fill-rule="evenodd" clip-rule="evenodd" d="M25.5726 2.64458L29.2121 11.5537C29.4913 12.2459 30.1053 12.6813 30.8421 12.7371L40.4434 13.4516C42.0288 13.5633 43.3127 14.5792 43.8039 16.0864C44.2951 17.5936 43.8486 19.1678 42.6316 20.1949L35.2744 26.4134C34.705 26.8935 34.4705 27.608 34.6492 28.3337L36.9378 37.6893C37.3174 39.23 36.7592 40.7707 35.4642 41.6973C34.1803 42.6351 32.5503 42.691 31.1994 41.8536L22 36.1598L12.8006 41.8536C11.4497 42.691 9.81974 42.6351 8.53584 41.6973C7.25195 40.7595 6.69373 39.23 7.06215 37.6893L9.35084 28.3337C9.52947 27.608 9.29501 26.8935 8.72563 26.4134L1.36835 20.1949C0.151445 19.1678 -0.295127 17.5936 0.196102 16.0864C0.687332 14.5792 1.97123 13.5633 3.55656 13.4516L13.1579 12.7371C13.9059 12.6813 14.5087 12.2459 14.7879 11.5537L18.4274 2.64458C19.0303 1.17089 20.3812 0.26658 21.9777 0.26658C23.6188 0.255416 24.9697 1.17089 25.5726 2.64458Z" fill="url(#paint0_linear_2116_3937)"/>
<defs>
<linearGradient id="paint0_linear_2116_3937" x1="22" y1="0.266479" x2="22" y2="42.4435" gradientUnits="userSpaceOnUse">
<stop stop-color="#F0C21A"/>
<stop offset="0.15" stop-color="#966B28"/>
<stop offset="0.325" stop-color="#D0AD6A"/>
<stop offset="0.5" stop-color="#FDEECA"/>
<stop offset="0.64" stop-color="#EED46A"/>
<stop offset="0.8" stop-color="#966B28"/>
<stop offset="1" stop-color="#EED46A"/>
</linearGradient>
</defs>
</svg>
