<svg width="44" height="46" viewBox="0 0 44 46" fill="none" xmlns="http://www.w3.org/2000/svg">
<path fill-rule="evenodd" clip-rule="evenodd" d="M1.47794 26.5124C4.04522 17.8338 10.0041 10.5278 17.4699 5.89071C21.1664 3.59214 24.9211 2.07066 28.8973 1.24274L43.5239 15.8693C42.9066 19.7729 41.6393 23.4949 39.4424 27.2133C34.5076 35.5578 26.2828 40.9357 18.3849 43.4194L1.47794 26.5124ZM14.7392 28.6621L16.533 26.8683L15.5199 25.8515C15.0878 25.4194 15.0878 24.7077 15.5199 24.2756C15.952 23.8435 16.6637 23.8435 17.0958 24.2756L18.109 25.2887L19.9028 23.4949L18.886 22.4818C18.4539 22.0497 18.4539 21.3379 18.886 20.9058C19.3181 20.4737 20.0299 20.4737 20.462 20.9058L21.4751 21.9226L23.2689 20.1287L22.2522 19.1156C21.8201 18.6835 21.8201 17.9718 22.2522 17.5397C22.6843 17.1076 23.396 17.1076 23.8281 17.5397L24.8412 18.5564L26.6351 16.7626L25.6183 15.7495C25.1862 15.3174 25.1862 14.6056 25.6183 14.1735C26.0504 13.7414 26.7622 13.7414 27.1943 14.1735L28.2074 15.1903L30.0012 13.3964L28.9881 12.3833C28.556 11.9512 28.556 11.2395 28.9881 10.8074C29.4202 10.3753 30.1319 10.3753 30.5641 10.8074L34.3914 14.6347C34.8235 15.0668 34.8235 15.7785 34.3914 16.2106C33.9592 16.6428 33.2475 16.6428 32.8154 16.2106L31.6534 15.0487L29.8596 16.8425L31.0216 18.0045C31.4537 18.4366 31.4537 19.1483 31.0216 19.5804C30.5895 20.0125 29.8778 20.0125 29.4456 19.5804L28.2836 18.4184L26.4898 20.2123L27.6518 21.3742C28.0839 21.8064 28.0839 22.5181 27.6518 22.9502C27.2197 23.3823 26.508 23.3823 26.0759 22.9502L24.9139 21.7882L23.12 23.582L24.282 24.744C24.7141 25.1761 24.7141 25.8879 24.282 26.32C23.8499 26.7521 23.1382 26.7521 22.7061 26.32L21.5441 25.158L19.7503 26.9518L20.9123 28.1138C21.3444 28.5459 21.3444 29.2576 20.9123 29.6898C20.4801 30.1219 19.7684 30.1219 19.3363 29.6898L18.1743 28.5278L16.3805 30.3216L17.5425 31.4836C17.9746 31.9157 17.9746 32.6274 17.5425 33.0595C17.1104 33.4916 16.3986 33.4916 15.9665 33.0595L12.1465 29.225C11.7144 28.7928 11.7144 28.0811 12.1465 27.649C12.5786 27.2169 13.2903 27.2169 13.7224 27.649L14.7392 28.6621ZM34.1481 0.556436C35.2411 0.491074 36.3522 0.472918 37.4888 0.498337C40.0924 0.552805 41.6466 0.872353 42.5761 1.79832C43.5239 2.73517 43.8253 4.30023 43.9415 6.83846C43.996 8.05128 44.0141 9.23506 43.9887 10.4007L34.1481 0.556436ZM13.6026 44.5705C9.17251 45.3549 3.56226 45.6018 1.44889 43.0018C-0.370354 40.765 -0.177899 35.4561 0.421254 31.3892L13.6026 44.5705Z" fill="url(#paint0_linear_2116_3941)"/>
<defs>
<linearGradient id="paint0_linear_2116_3941" x1="22" y1="0.487305" x2="22" y2="45.1061" gradientUnits="userSpaceOnUse">
<stop stop-color="#F0C21A"/>
<stop offset="0.15" stop-color="#966B28"/>
<stop offset="0.325" stop-color="#D0AD6A"/>
<stop offset="0.5" stop-color="#FDEECA"/>
<stop offset="0.64" stop-color="#EED46A"/>
<stop offset="0.8" stop-color="#966B28"/>
<stop offset="1" stop-color="#EED46A"/>
</linearGradient>
</defs>
</svg>
