<svg width="44" height="45" viewBox="0 0 44 45" fill="none" xmlns="http://www.w3.org/2000/svg">
<path d="M21.8157 0.528374C21.0882 2.20864 18.9301 4.773 16.4692 6.87334C15.898 7.36179 15.5611 7.64021 15.3218 7.82093C14.5455 8.41684 13.9742 8.83691 13.5396 9.12509C13.0123 9.47678 11.0983 10.6686 10.7077 10.8884C10.5856 10.9568 10.4343 11.0496 10.3659 11.0935C10.2975 11.1424 10.1364 11.2401 9.9997 11.3133C9.86787 11.3915 9.67744 11.4941 9.58467 11.5478C8.31518 12.2609 6.05939 13.7507 5.04379 14.5567C4.27233 15.1672 3.12491 16.2858 2.52434 17.0038C1.84565 17.8244 1.18649 18.9136 0.82517 19.8124C0.747048 19.998 0.664042 20.208 0.639629 20.2764C0.610333 20.3448 0.571272 20.4376 0.546858 20.4816C0.522445 20.5304 0.502914 20.6134 0.502914 20.6623C0.502914 20.716 0.483384 20.7697 0.45897 20.7844C0.434557 20.799 0.405261 20.8723 0.390613 20.9456C0.375965 21.0237 0.327139 21.224 0.283195 21.3998C0.200189 21.7369 0.136715 22.0641 0.0537093 22.5721C0.0244133 22.748 0 23.549 0 24.355C0 25.9473 0.0390613 26.426 0.283195 27.7008C0.327139 27.9304 0.375965 28.1991 0.390613 28.3016C0.405261 28.3993 0.434557 28.497 0.45897 28.5117C0.483384 28.5263 0.502914 28.5996 0.502914 28.6777C0.502914 28.7559 0.527328 28.8341 0.551741 28.8487C0.581037 28.8634 0.600568 28.9317 0.600568 29.0001C0.600568 29.0636 0.620098 29.1564 0.644512 29.2053C0.668925 29.2492 0.747048 29.4837 0.82517 29.7279C0.89841 29.9673 0.976533 30.2017 0.996064 30.2408C1.01559 30.2799 1.11325 30.5241 1.21578 30.7781C1.95307 32.6195 3.33486 34.4219 4.89731 35.5844C6.79179 36.9912 8.6765 37.6164 11.0153 37.6164C11.9381 37.6164 12.1334 37.5968 13.0855 37.4161C14.0084 37.2403 14.8335 36.9472 15.7124 36.4929C16.4399 36.1168 16.5571 36.0485 17.021 35.7261C18.5883 34.632 19.7455 33.4011 20.8636 31.6329C21.0833 31.2812 21.2738 30.9881 21.2884 30.9735C21.3372 30.9295 21.2103 32.4632 21.0785 33.489C20.971 34.3438 20.888 34.8811 20.7757 35.4184C20.7464 35.5405 20.7025 35.77 20.6732 35.9312C20.6439 36.0924 20.5951 36.3073 20.5707 36.405C20.4047 37.0449 20.3265 37.3038 20.2777 37.4454C20.2582 37.4992 20.1801 37.7385 20.1019 37.9827C20.0287 38.2221 19.9506 38.4565 19.931 38.4956C19.9115 38.5347 19.8773 38.6226 19.848 38.691C19.4867 39.6141 18.935 40.6106 18.5053 41.1137C18.0219 41.6852 17.3628 42.1443 16.7622 42.3348C16.3862 42.452 16.186 42.6083 16.147 42.8233C16.1079 43.0479 16.2007 43.1505 16.6157 43.341C17.1479 43.5852 17.6167 43.7269 18.3246 43.8637C19.5502 44.0932 19.9066 44.1177 22.2454 44.147C24.3938 44.1714 25.2776 44.1421 26.5275 44.0102C27.7287 43.8881 28.1681 43.7464 28.3536 43.4338C28.4415 43.2824 28.4415 43.2726 28.3536 43.0773C28.2853 42.9258 28.1779 42.8233 27.8947 42.6376C27.172 42.159 26.4738 41.4996 25.966 40.8157C25.883 40.7083 25.8049 40.6057 25.7854 40.591C25.7023 40.5324 25.0822 39.453 24.7502 38.7838C24.5549 38.393 24.2913 37.802 24.1643 37.465C24.0374 37.1328 23.9153 36.8202 23.886 36.7762C23.8616 36.7274 23.8421 36.6444 23.8421 36.5955C23.8421 36.5418 23.8225 36.4881 23.7981 36.4734C23.7737 36.4588 23.7444 36.3953 23.7298 36.3366C23.6956 36.1901 23.5589 35.6821 23.4954 35.4672C23.2805 34.7394 23.0852 33.7527 22.9827 32.9273C22.9729 32.8345 22.9388 32.5805 22.9143 32.3655C22.846 31.8038 22.8216 31.2616 22.8704 31.2763C22.8899 31.2861 23.1048 31.5889 23.344 31.9504C23.9251 32.8247 24.3352 33.3278 24.9846 33.9774C26.6789 35.6675 28.8224 36.8495 30.9707 37.2745C32.6504 37.6066 34.4667 37.5138 36.1464 37.0058C37.8162 36.4978 39.6228 35.306 40.8337 33.9139C41.4294 33.2301 42.0886 32.2679 42.4352 31.5791C42.7038 31.0418 43.1969 29.8061 43.3288 29.3372C43.7096 27.9646 43.8512 27.2466 43.9635 26.1427C44.0319 25.454 43.9977 22.6991 43.9147 22.3767C43.8854 22.2546 43.8366 22.0446 43.8073 21.9127C43.7243 21.4829 43.4118 20.4767 43.236 20.0566C42.8796 19.2018 42.2351 18.1223 41.6394 17.3701C41.2976 16.9354 40.0037 15.6312 39.491 15.2014C38.3436 14.2343 36.5321 12.9985 34.2519 11.6357C33.8418 11.3915 33.4951 11.1912 33.4853 11.1912C33.4707 11.1912 33.3388 11.1082 33.1826 11.0007C33.0263 10.8982 32.4404 10.5123 31.8789 10.1411C30.5801 9.28628 30.3653 9.13486 29.2374 8.23123C27.05 6.48746 25.2092 4.68508 23.7102 2.83385C22.9632 1.9058 22.3333 0.909363 22.1429 0.357414C22.1136 0.27438 22.0599 0.201111 22.0257 0.201111C21.9866 0.201111 21.8939 0.347645 21.8157 0.528374Z" fill="url(#paint0_linear_2116_3931)"/>
<defs>
<linearGradient id="paint0_linear_2116_3931" x1="22" y1="44.1548" x2="22" y2="0.201111" gradientUnits="userSpaceOnUse">
<stop stop-color="#BB9A51"/>
<stop offset="1" stop-color="#664807"/>
<stop offset="1.0001" stop-color="#005C56"/>
</linearGradient>
</defs>
</svg>
