<svg width="44" height="30" viewBox="0 0 44 30" fill="none" xmlns="http://www.w3.org/2000/svg">
<g clip-path="url(#clip0_2116_3950)">
<path fill-rule="evenodd" clip-rule="evenodd" d="M8.36099 26.343C9.8076 24.8713 11.5192 23.3781 12.7903 21.4445H31.206C32.4808 23.3745 34.1924 24.8713 35.6354 26.343C46.7178 37.6294 45.973 11.1893 38.1419 3.24725H37.5403C36.5556 1.60012 34.6328 0.486511 32.4235 0.486511C30.2142 0.486511 28.2949 1.60012 27.3102 3.24725H16.6898C15.7051 1.60012 13.7822 0.486511 11.5729 0.486511C9.36359 0.486511 7.44432 1.60012 6.45604 3.24725H5.85448C-1.97658 11.1893 -2.72137 37.6258 8.36099 26.343ZM10.6885 5.08417H14.6666V8.25311H17.8356V12.2313H14.6666V15.4002H10.6885V12.2313H7.51951V8.25311H10.6885V5.08417ZM29.7773 13.6994C30.7405 13.6994 31.5211 14.48 31.5211 15.4432C31.5211 16.4064 30.7405 17.1906 29.7773 17.1906C28.8141 17.1906 28.0335 16.41 28.0335 15.4432C28.0335 14.48 28.8141 13.6994 29.7773 13.6994ZM30.7298 5.9328C32.1263 5.9328 33.2578 7.06431 33.2578 8.45721C33.2578 9.8537 32.1263 10.9816 30.7298 10.9816C29.3333 10.9816 28.2054 9.85012 28.2054 8.45721C28.2054 7.06431 29.3333 5.9328 30.7298 5.9328ZM37.2539 9.8358C38.2171 9.8358 38.9977 10.6164 38.9977 11.5796C38.9977 12.5428 38.2171 13.3234 37.2539 13.3234C36.2907 13.3234 35.5065 12.5428 35.5065 11.5796C35.5065 10.6164 36.2907 9.8358 37.2539 9.8358Z" fill="url(#paint0_linear_2116_3950)"/>
</g>
<defs>
<linearGradient id="paint0_linear_2116_3950" x1="21.9982" y1="0.486511" x2="21.9982" y2="29.1046" gradientUnits="userSpaceOnUse">
<stop stop-color="#F0C21A"/>
<stop offset="0.15" stop-color="#966B28"/>
<stop offset="0.325" stop-color="#D0AD6A"/>
<stop offset="0.5" stop-color="#FDEECA"/>
<stop offset="0.64" stop-color="#EED46A"/>
<stop offset="0.8" stop-color="#966B28"/>
<stop offset="1" stop-color="#EED46A"/>
</linearGradient>
<clipPath id="clip0_2116_3950">
<rect width="44" height="28.6172" fill="white" transform="translate(0 0.486511)"/>
</clipPath>
</defs>
</svg>
