<svg width="44" height="43" viewBox="0 0 44 43" fill="none" xmlns="http://www.w3.org/2000/svg">
<path fill-rule="evenodd" clip-rule="evenodd" d="M25.5726 2.46752L29.2121 11.3766C29.4913 12.0688 30.1053 12.5042 30.8421 12.5601L40.4434 13.2746C42.0288 13.3862 43.3127 14.4022 43.8039 15.9093C44.2951 17.4165 43.8486 18.9907 42.6316 20.0178L35.2744 26.2363C34.705 26.7164 34.4705 27.4309 34.6492 28.1566L36.9378 37.5123C37.3174 39.053 36.7592 40.5936 35.4642 41.5203C34.1803 42.4581 32.5503 42.5139 31.1994 41.6766L22 35.9828L12.8006 41.6766C11.4497 42.5139 9.81974 42.4581 8.53584 41.5203C7.25195 40.5825 6.69373 39.053 7.06215 37.5123L9.35084 28.1566C9.52947 27.4309 9.29501 26.7164 8.72563 26.2363L1.36835 20.0178C0.151445 18.9907 -0.295127 17.4165 0.196102 15.9093C0.687332 14.4022 1.97123 13.3862 3.55656 13.2746L13.1579 12.5601C13.9059 12.5042 14.5087 12.0688 14.7879 11.3766L18.4274 2.46752C19.0303 0.993826 20.3812 0.0895175 21.9777 0.0895175C23.6188 0.0783532 24.9697 0.993826 25.5726 2.46752Z" fill="url(#paint0_linear_2116_3935)"/>
<defs>
<linearGradient id="paint0_linear_2116_3935" x1="22" y1="0.0894165" x2="22" y2="42.2665" gradientUnits="userSpaceOnUse">
<stop stop-color="#BB9A51"/>
<stop offset="1" stop-color="#664807"/>
<stop offset="1.0001" stop-color="#005C56"/>
</linearGradient>
</defs>
</svg>
