<svg width="44" height="30" viewBox="0 0 44 30" fill="none" xmlns="http://www.w3.org/2000/svg">
<g clip-path="url(#clip0_2116_3948)">
<path fill-rule="evenodd" clip-rule="evenodd" d="M8.36099 26.7258C9.8076 25.2541 11.5192 23.7609 12.7903 21.8273H31.206C32.4808 23.7573 34.1924 25.2541 35.6354 26.7258C46.7178 38.0122 45.973 11.5721 38.1419 3.63007H37.5403C36.5556 1.98293 34.6328 0.869324 32.4235 0.869324C30.2142 0.869324 28.2949 1.98293 27.3102 3.63007H16.6898C15.7051 1.98293 13.7822 0.869324 11.5729 0.869324C9.36359 0.869324 7.44432 1.98293 6.45604 3.63007H5.85448C-1.97658 11.5721 -2.72137 38.0086 8.36099 26.7258ZM10.6885 5.46698H14.6666V8.63593H17.8356V12.6141H14.6666V15.7831H10.6885V12.6141H7.51951V8.63593H10.6885V5.46698ZM29.7773 14.0822C30.7405 14.0822 31.5211 14.8628 31.5211 15.826C31.5211 16.7892 30.7405 17.5734 29.7773 17.5734C28.8141 17.5734 28.0335 16.7928 28.0335 15.826C28.0335 14.8628 28.8141 14.0822 29.7773 14.0822ZM30.7298 6.31561C32.1263 6.31561 33.2578 7.44712 33.2578 8.84003C33.2578 10.2365 32.1263 11.3644 30.7298 11.3644C29.3333 11.3644 28.2054 10.2329 28.2054 8.84003C28.2054 7.44712 29.3333 6.31561 30.7298 6.31561ZM37.2539 10.2186C38.2171 10.2186 38.9977 10.9992 38.9977 11.9624C38.9977 12.9256 38.2171 13.7062 37.2539 13.7062C36.2907 13.7062 35.5065 12.9256 35.5065 11.9624C35.5065 10.9992 36.2907 10.2186 37.2539 10.2186Z" fill="url(#paint0_linear_2116_3948)"/>
</g>
<defs>
<linearGradient id="paint0_linear_2116_3948" x1="21.9982" y1="0.869324" x2="21.9982" y2="29.4874" gradientUnits="userSpaceOnUse">
<stop stop-color="#BB9A51"/>
<stop offset="1" stop-color="#664807"/>
<stop offset="1.0001" stop-color="#005C56"/>
</linearGradient>
<clipPath id="clip0_2116_3948">
<rect width="44" height="28.6172" fill="white" transform="translate(0 0.869324)"/>
</clipPath>
</defs>
</svg>
