<svg width="44" height="46" viewBox="0 0 44 46" fill="none" xmlns="http://www.w3.org/2000/svg">
<path fill-rule="evenodd" clip-rule="evenodd" d="M1.47794 26.8937C4.04522 18.215 10.0041 10.909 17.4699 6.27193C21.1664 3.97337 24.9211 2.45188 28.8973 1.62396L43.5239 16.2505C42.9066 20.1541 41.6393 23.8761 39.4424 27.5945C34.5076 35.939 26.2828 41.3169 18.3849 43.8006L1.47794 26.8937ZM14.7392 29.0433L16.533 27.2495L15.5199 26.2328C15.0878 25.8007 15.0878 25.0889 15.5199 24.6568C15.952 24.2247 16.6637 24.2247 17.0958 24.6568L18.109 25.6699L19.9028 23.8761L18.886 22.863C18.4539 22.4309 18.4539 21.7192 18.886 21.287C19.3181 20.8549 20.0299 20.8549 20.462 21.287L21.4751 22.3038L23.2689 20.51L22.2522 19.4969C21.8201 19.0647 21.8201 18.353 22.2522 17.9209C22.6843 17.4888 23.396 17.4888 23.8281 17.9209L24.8412 18.9376L26.6351 17.1438L25.6183 16.1307C25.1862 15.6986 25.1862 14.9869 25.6183 14.5548C26.0504 14.1226 26.7622 14.1226 27.1943 14.5548L28.2074 15.5715L30.0012 13.7777L28.9881 12.7646C28.556 12.3324 28.556 11.6207 28.9881 11.1886C29.4202 10.7565 30.1319 10.7565 30.5641 11.1886L34.3914 15.0159C34.8235 15.448 34.8235 16.1598 34.3914 16.5919C33.9592 17.024 33.2475 17.024 32.8154 16.5919L31.6534 15.4299L29.8596 17.2237L31.0216 18.3857C31.4537 18.8178 31.4537 19.5295 31.0216 19.9617C30.5895 20.3938 29.8778 20.3938 29.4456 19.9617L28.2836 18.7997L26.4898 20.5935L27.6518 21.7555C28.0839 22.1876 28.0839 22.8993 27.6518 23.3314C27.2197 23.7635 26.508 23.7635 26.0759 23.3314L24.9139 22.1694L23.12 23.9633L24.282 25.1253C24.7141 25.5574 24.7141 26.2691 24.282 26.7012C23.8499 27.1333 23.1382 27.1333 22.7061 26.7012L21.5441 25.5392L19.7503 27.333L20.9123 28.495C21.3444 28.9271 21.3444 29.6389 20.9123 30.071C20.4801 30.5031 19.7684 30.5031 19.3363 30.071L18.1743 28.909L16.3805 30.7028L17.5425 31.8648C17.9746 32.2969 17.9746 33.0086 17.5425 33.4408C17.1104 33.8729 16.3986 33.8729 15.9665 33.4408L12.1465 29.6062C11.7144 29.1741 11.7144 28.4623 12.1465 28.0302C12.5786 27.5981 13.2903 27.5981 13.7224 28.0302L14.7392 29.0433ZM34.1481 0.937662C35.2411 0.8723 36.3522 0.854144 37.4888 0.879562C40.0924 0.934031 41.6466 1.25358 42.5761 2.17954C43.5239 3.1164 43.8253 4.68146 43.9415 7.21968C43.996 8.43251 44.0141 9.61629 43.9887 10.7819L34.1481 0.937662ZM13.6026 44.9517C9.17251 45.7361 3.56226 45.983 1.44889 43.3831C-0.370354 41.1462 -0.177899 35.8374 0.421254 31.7704L13.6026 44.9517Z" fill="url(#paint0_linear_2116_3939)"/>
<defs>
<linearGradient id="paint0_linear_2116_3939" x1="22" y1="0.86853" x2="22" y2="45.4873" gradientUnits="userSpaceOnUse">
<stop stop-color="#BB9A51"/>
<stop offset="1" stop-color="#664807"/>
<stop offset="1.0001" stop-color="#005C56"/>
</linearGradient>
</defs>
</svg>
