<svg width="44" height="45" viewBox="0 0 44 45" fill="none" xmlns="http://www.w3.org/2000/svg">
<path d="M21.8157 0.482048C21.0882 2.16232 18.9301 4.72668 16.4692 6.82701C15.898 7.31546 15.5611 7.59388 15.3218 7.7746C14.5455 8.37051 13.9742 8.79058 13.5396 9.07877C13.0123 9.43045 11.0983 10.6223 10.7077 10.8421C10.5856 10.9105 10.4343 11.0033 10.3659 11.0472C10.2975 11.0961 10.1364 11.1938 9.9997 11.267C9.86787 11.3452 9.67744 11.4478 9.58467 11.5015C8.31518 12.2146 6.05939 13.7044 5.04379 14.5103C4.27233 15.1209 3.12491 16.2394 2.52434 16.9575C1.84565 17.7781 1.18649 18.8673 0.82517 19.7661C0.747048 19.9517 0.664042 20.1617 0.639629 20.2301C0.610333 20.2985 0.571272 20.3913 0.546858 20.4352C0.522445 20.4841 0.502914 20.5671 0.502914 20.616C0.502914 20.6697 0.483384 20.7234 0.45897 20.7381C0.434557 20.7527 0.405261 20.826 0.390613 20.8993C0.375965 20.9774 0.327139 21.1777 0.283195 21.3535C0.200189 21.6905 0.136715 22.0178 0.0537093 22.5258C0.0244133 22.7016 0 23.5027 0 24.3086C0 25.901 0.0390613 26.3797 0.283195 27.6545C0.327139 27.8841 0.375965 28.1527 0.390613 28.2553C0.405261 28.353 0.434557 28.4507 0.45897 28.4653C0.483384 28.48 0.502914 28.5533 0.502914 28.6314C0.502914 28.7096 0.527328 28.7877 0.551741 28.8024C0.581037 28.817 0.600568 28.8854 0.600568 28.9538C0.600568 29.0173 0.620098 29.1101 0.644512 29.1589C0.668925 29.2029 0.747048 29.4374 0.82517 29.6816C0.89841 29.9209 0.976533 30.1554 0.996064 30.1945C1.01559 30.2335 1.11325 30.4778 1.21578 30.7318C1.95307 32.5732 3.33486 34.3756 4.89731 35.5381C6.79179 36.9448 8.6765 37.5701 11.0153 37.5701C11.9381 37.5701 12.1334 37.5505 13.0855 37.3698C14.0084 37.194 14.8335 36.9009 15.7124 36.4466C16.4399 36.0705 16.5571 36.0021 17.021 35.6798C18.5883 34.5856 19.7455 33.3547 20.8636 31.5865C21.0833 31.2349 21.2738 30.9418 21.2884 30.9271C21.3372 30.8832 21.2103 32.4169 21.0785 33.4427C20.971 34.2974 20.888 34.8347 20.7757 35.372C20.7464 35.4941 20.7025 35.7237 20.6732 35.8849C20.6439 36.0461 20.5951 36.261 20.5707 36.3587C20.4047 36.9986 20.3265 37.2574 20.2777 37.3991C20.2582 37.4528 20.1801 37.6922 20.1019 37.9364C20.0287 38.1757 19.9506 38.4102 19.931 38.4493C19.9115 38.4883 19.8773 38.5763 19.848 38.6446C19.4867 39.5678 18.935 40.5643 18.5053 41.0674C18.0219 41.6388 17.3628 42.098 16.7622 42.2885C16.3862 42.4057 16.186 42.562 16.147 42.7769C16.1079 43.0016 16.2007 43.1042 16.6157 43.2947C17.1479 43.5389 17.6167 43.6806 18.3246 43.8173C19.5502 44.0469 19.9066 44.0713 22.2454 44.1006C24.3938 44.1251 25.2776 44.0957 26.5275 43.9639C27.7287 43.8418 28.1681 43.7001 28.3536 43.3875C28.4415 43.2361 28.4415 43.2263 28.3536 43.0309C28.2853 42.8795 28.1779 42.7769 27.8947 42.5913C27.172 42.1126 26.4738 41.4532 25.966 40.7694C25.883 40.6619 25.8049 40.5594 25.7854 40.5447C25.7023 40.4861 25.0823 39.4066 24.7502 38.7375C24.5549 38.3467 24.2913 37.7557 24.1643 37.4186C24.0374 37.0865 23.9153 36.7739 23.886 36.7299C23.8616 36.6811 23.8421 36.598 23.8421 36.5492C23.8421 36.4955 23.8225 36.4417 23.7981 36.4271C23.7737 36.4124 23.7444 36.3489 23.7298 36.2903C23.6956 36.1438 23.5589 35.6358 23.4954 35.4209C23.2805 34.6931 23.0852 33.7064 22.9827 32.8809C22.9729 32.7881 22.9388 32.5341 22.9143 32.3192C22.846 31.7575 22.8216 31.2153 22.8704 31.23C22.8899 31.2397 23.1048 31.5426 23.344 31.904C23.9251 32.7784 24.3352 33.2815 24.9846 33.9311C26.6789 35.6211 28.8224 36.8032 30.9707 37.2281C32.6504 37.5603 34.4667 37.4675 36.1464 36.9595C37.8162 36.4515 39.6228 35.2597 40.8337 33.8676C41.4294 33.1838 42.0886 32.2215 42.4352 31.5328C42.7038 30.9955 43.1969 29.7597 43.3288 29.2908C43.7096 27.9183 43.8512 27.2003 43.9635 26.0964C44.0319 25.4076 43.9977 22.6528 43.9147 22.3304C43.8854 22.2083 43.8366 21.9983 43.8073 21.8664C43.7243 21.4366 43.4118 20.4303 43.236 20.0103C42.8796 19.1555 42.2351 18.076 41.6394 17.3238C41.2976 16.8891 40.0037 15.5849 39.491 15.1551C38.3436 14.188 36.5321 12.9522 34.2519 11.5894C33.8418 11.3452 33.4951 11.1449 33.4853 11.1449C33.4707 11.1449 33.3388 11.0619 33.1826 10.9544C33.0263 10.8518 32.4404 10.466 31.8789 10.0947C30.5801 9.23996 30.3653 9.08854 29.2374 8.1849C27.05 6.44114 25.2092 4.63876 23.7102 2.78753C22.9632 1.85947 22.3333 0.863037 22.1429 0.311089C22.1136 0.22805 22.0599 0.154785 22.0257 0.154785C21.9866 0.154785 21.8939 0.301323 21.8157 0.482048Z" fill="url(#paint0_linear_2116_3933)"/>
<defs>
<linearGradient id="paint0_linear_2116_3933" x1="22" y1="44.1085" x2="22" y2="0.154785" gradientUnits="userSpaceOnUse">
<stop stop-color="#F0C21A"/>
<stop offset="0.15" stop-color="#966B28"/>
<stop offset="0.325" stop-color="#D0AD6A"/>
<stop offset="0.5" stop-color="#FDEECA"/>
<stop offset="0.64" stop-color="#EED46A"/>
<stop offset="0.8" stop-color="#966B28"/>
<stop offset="1" stop-color="#EED46A"/>
</linearGradient>
</defs>
</svg>
