<svg width="54" height="24" viewBox="0 0 54 24" fill="none" xmlns="http://www.w3.org/2000/svg">
<path d="M24.1772 2.23697C27.4133 2.23697 29.6666 4.46756 29.6666 7.71515C29.6666 10.9743 27.3669 13.2164 24.096 13.2164H20.5132V18.9144H17.9246V2.23697H24.1772ZM20.5132 11.0438H23.4835C25.7373 11.0438 27.0199 9.83031 27.0199 7.72681C27.0199 5.62342 25.7373 4.42139 23.495 4.42139H20.5132V11.0438ZM30.3392 15.4587C30.3392 13.3317 31.9689 12.0259 34.8591 11.8641L38.187 11.6676V10.7317C38.187 9.37923 37.2739 8.57033 35.7482 8.57033C34.3037 8.57033 33.402 9.26369 33.1826 10.3502H30.8249C30.9632 8.15411 32.8363 6.53609 35.8408 6.53609C38.7882 6.53609 40.6716 8.09629 40.6716 10.535V18.9141H38.2796V16.9147H38.2213C37.5173 18.2669 35.9791 19.1221 34.3848 19.1221C32.0043 19.1221 30.3392 17.6427 30.3392 15.4587ZM38.187 14.3606V13.4013L35.1939 13.5861C33.7025 13.6902 32.8591 14.349 32.8591 15.3892C32.8591 16.4523 33.7368 17.1459 35.0785 17.1459C36.8236 17.1459 38.187 15.9439 38.187 14.3606ZM42.9332 23.3866V21.364C43.1184 21.4101 43.5344 21.4101 43.7423 21.4101C44.8978 21.4101 45.5217 20.9248 45.9035 19.6767C45.9035 19.6534 46.1229 18.9369 46.1229 18.9254L41.731 6.7554H44.4349L47.5103 16.6486H47.556L50.6302 6.7554H53.2656L48.7114 19.5493C47.6714 22.4967 46.4703 23.4443 43.9503 23.4443C43.7423 23.4443 43.1184 23.4211 42.9332 23.3866ZM10.2852 3.86448C10.9092 3.08416 11.3326 2.03652 11.2209 0.965683C10.3077 1.01117 9.19308 1.56819 8.54784 2.34908C7.96842 3.01799 7.45575 4.10962 7.58946 5.13543C8.61469 5.22434 9.63879 4.62298 10.2852 3.86448ZM11.2094 5.33497C9.72062 5.24617 8.4547 6.17987 7.74363 6.17987C7.03233 6.17987 5.94344 5.37954 4.76597 5.40114C3.23309 5.42377 1.81106 6.29015 1.03313 7.66864C-0.566611 10.426 0.610972 14.516 2.1666 16.7617C2.92224 17.8728 3.83274 19.0961 5.03237 19.0521C6.16595 19.0076 6.61028 18.3181 7.98808 18.3181C9.36497 18.3181 9.76508 19.0521 10.9651 19.0299C12.2094 19.0076 12.9873 17.9183 13.7428 16.8062C14.6094 15.5397 14.9642 14.3167 14.9866 14.2498C14.9642 14.2274 12.5871 13.3155 12.5651 10.581C12.5426 8.29148 14.4314 7.20247 14.5203 7.13493C13.4537 5.55736 11.7872 5.37954 11.2094 5.33497Z" fill="white"/>
</svg>
