<svg width="270" height="101" viewBox="0 0 270 101" fill="none" xmlns="http://www.w3.org/2000/svg">
<rect x="0.5" width="268.78" height="100" rx="50" fill="url(#paint0_linear_2173_1263)"/>
<rect opacity="0.05" x="0.5" width="268.78" height="100.051" rx="50.0253" fill="url(#paint1_linear_2173_1263)"/>
<rect x="8.2998" y="7.8" width="253.18" height="84.4" rx="42.2" fill="url(#paint2_linear_2173_1263)"/>
<rect x="8.2998" y="7.8" width="253.18" height="84.4" rx="42.2" stroke="#1A1C1E" stroke-width="6"/>
<path d="M53.7852 46.843C53.5015 46.3203 53.0908 45.9246 52.5532 45.6558C52.0305 45.3721 51.4108 45.2302 50.694 45.2302C49.4545 45.2302 48.4615 45.6409 47.7148 46.4622C46.9681 47.2686 46.5948 48.3513 46.5948 49.7102C46.5948 51.1587 46.9831 52.2937 47.7596 53.115C48.5511 53.9214 49.6337 54.3246 51.0076 54.3246C51.9484 54.3246 52.7399 54.0857 53.382 53.6078C54.0391 53.1299 54.5169 52.443 54.8156 51.547H49.9548V48.7246H58.2876V52.2862C58.0039 53.2419 57.5185 54.1305 56.8316 54.9518C56.1596 55.7731 55.3009 56.4377 54.2556 56.9454C53.2103 57.4531 52.0305 57.707 50.7164 57.707C49.1633 57.707 47.7745 57.371 46.55 56.699C45.3404 56.0121 44.3921 55.0638 43.7052 53.8542C43.0332 52.6446 42.6972 51.2633 42.6972 49.7102C42.6972 48.1571 43.0332 46.7758 43.7052 45.5662C44.3921 44.3417 45.3404 43.3934 46.55 42.7214C47.7596 42.0345 49.1409 41.691 50.694 41.691C52.5756 41.691 54.1585 42.1465 55.4428 43.0574C56.742 43.9683 57.6007 45.2302 58.0188 46.843H53.7852ZM72.1917 51.1438C72.1917 51.5022 72.1693 51.8755 72.1245 52.2638H63.4557C63.5154 53.0403 63.7618 53.6377 64.1949 54.0558C64.6429 54.459 65.188 54.6606 65.8301 54.6606C66.7858 54.6606 67.4504 54.2574 67.8237 53.451H71.9005C71.6914 54.2723 71.3106 55.0115 70.7581 55.6686C70.2205 56.3257 69.541 56.8409 68.7197 57.2142C67.8984 57.5875 66.98 57.7742 65.9645 57.7742C64.74 57.7742 63.6498 57.5129 62.6941 56.9902C61.7384 56.4675 60.9917 55.7209 60.4541 54.7502C59.9165 53.7795 59.6477 52.6446 59.6477 51.3454C59.6477 50.0462 59.909 48.9113 60.4317 47.9406C60.9693 46.9699 61.716 46.2233 62.6717 45.7006C63.6274 45.1779 64.725 44.9166 65.9645 44.9166C67.1741 44.9166 68.2493 45.1705 69.1901 45.6782C70.1309 46.1859 70.8626 46.9102 71.3853 47.851C71.9229 48.7918 72.1917 49.8894 72.1917 51.1438ZM68.2717 50.1358C68.2717 49.4787 68.0477 48.9561 67.5997 48.5678C67.1517 48.1795 66.5917 47.9854 65.9197 47.9854C65.2776 47.9854 64.7325 48.1721 64.2845 48.5454C63.8514 48.9187 63.5826 49.4489 63.4781 50.1358H68.2717ZM81.1788 54.347V57.595H79.23C77.8412 57.595 76.7586 57.259 75.982 56.587C75.2055 55.9001 74.8172 54.7875 74.8172 53.2494V48.2766H73.294V45.0958H74.8172V42.0494H78.6476V45.0958H81.1564V48.2766H78.6476V53.2942C78.6476 53.6675 78.7372 53.9363 78.9164 54.1006C79.0956 54.2649 79.3943 54.347 79.8124 54.347H81.1788ZM93.7489 57.7518C92.599 57.7518 91.5686 57.5651 90.6577 57.1918C89.7468 56.8185 89.015 56.2659 88.4625 55.5342C87.9249 54.8025 87.6412 53.9214 87.6113 52.891H91.6881C91.7478 53.4734 91.9494 53.9214 92.2929 54.235C92.6364 54.5337 93.0844 54.683 93.6369 54.683C94.2044 54.683 94.6524 54.5561 94.9809 54.3022C95.3094 54.0334 95.4737 53.6675 95.4737 53.2046C95.4737 52.8163 95.3393 52.4953 95.0705 52.2414C94.8166 51.9875 94.4956 51.7785 94.1073 51.6142C93.734 51.4499 93.1964 51.2633 92.4945 51.0542C91.479 50.7406 90.6502 50.427 90.0081 50.1134C89.366 49.7998 88.8134 49.3369 88.3505 48.7246C87.8876 48.1123 87.6561 47.3134 87.6561 46.3278C87.6561 44.8643 88.1862 43.7219 89.2465 42.9006C90.3068 42.0643 91.6881 41.6462 93.3905 41.6462C95.1228 41.6462 96.519 42.0643 97.5793 42.9006C98.6396 43.7219 99.207 44.8718 99.2817 46.3502H95.1377C95.1078 45.8425 94.9212 45.4467 94.5777 45.163C94.2342 44.8643 93.7937 44.715 93.2561 44.715C92.7932 44.715 92.4198 44.8419 92.1361 45.0958C91.8524 45.3347 91.7105 45.6857 91.7105 46.1486C91.7105 46.6563 91.9494 47.0521 92.4273 47.3358C92.9052 47.6195 93.6518 47.9257 94.6673 48.2542C95.6828 48.5977 96.5041 48.9262 97.1313 49.2398C97.7734 49.5534 98.326 50.0089 98.7889 50.6062C99.2518 51.2035 99.4833 51.9726 99.4833 52.9134C99.4833 53.8094 99.2518 54.6233 98.7889 55.355C98.3409 56.0867 97.6838 56.6691 96.8177 57.1022C95.9516 57.5353 94.9286 57.7518 93.7489 57.7518ZM108.807 54.347V57.595H106.858C105.469 57.595 104.387 57.259 103.61 56.587C102.834 55.9001 102.445 54.7875 102.445 53.2494V48.2766H100.922V45.0958H102.445V42.0494H106.276V45.0958H108.785V48.2766H106.276V53.2942C106.276 53.6675 106.365 53.9363 106.545 54.1006C106.724 54.2649 107.022 54.347 107.441 54.347H108.807ZM110.179 51.323C110.179 50.0387 110.418 48.9113 110.896 47.9406C111.389 46.9699 112.053 46.2233 112.889 45.7006C113.726 45.1779 114.659 44.9166 115.689 44.9166C116.57 44.9166 117.339 45.0958 117.997 45.4542C118.669 45.8126 119.184 46.283 119.542 46.8654V45.0958H123.373V57.595H119.542V55.8254C119.169 56.4078 118.646 56.8782 117.974 57.2366C117.317 57.595 116.548 57.7742 115.667 57.7742C114.651 57.7742 113.726 57.5129 112.889 56.9902C112.053 56.4526 111.389 55.6985 110.896 54.7278C110.418 53.7422 110.179 52.6073 110.179 51.323ZM119.542 51.3454C119.542 50.3897 119.273 49.6355 118.736 49.083C118.213 48.5305 117.571 48.2542 116.809 48.2542C116.048 48.2542 115.398 48.5305 114.861 49.083C114.338 49.6206 114.077 50.3673 114.077 51.323C114.077 52.2787 114.338 53.0403 114.861 53.6078C115.398 54.1603 116.048 54.4366 116.809 54.4366C117.571 54.4366 118.213 54.1603 118.736 53.6078C119.273 53.0553 119.542 52.3011 119.542 51.3454ZM129.974 47.179C130.422 46.4921 130.982 45.9545 131.654 45.5662C132.326 45.163 133.073 44.9614 133.894 44.9614V49.0158H132.841C131.886 49.0158 131.169 49.2249 130.691 49.643C130.213 50.0462 129.974 50.763 129.974 51.7934V57.595H126.144V45.0958H129.974V47.179ZM142.691 54.347V57.595H140.743C139.354 57.595 138.271 57.259 137.495 56.587C136.718 55.9001 136.33 54.7875 136.33 53.2494V48.2766H134.807V45.0958H136.33V42.0494H140.16V45.0958H142.669V48.2766H140.16V53.2942C140.16 53.6675 140.25 53.9363 140.429 54.1006C140.608 54.2649 140.907 54.347 141.325 54.347H142.691ZM156.607 51.1438C156.607 51.5022 156.585 51.8755 156.54 52.2638H147.871C147.931 53.0403 148.177 53.6377 148.611 54.0558C149.059 54.459 149.604 54.6606 150.246 54.6606C151.201 54.6606 151.866 54.2574 152.239 53.451H156.316C156.107 54.2723 155.726 55.0115 155.174 55.6686C154.636 56.3257 153.957 56.8409 153.135 57.2142C152.314 57.5875 151.396 57.7742 150.38 57.7742C149.156 57.7742 148.065 57.5129 147.11 56.9902C146.154 56.4675 145.407 55.7209 144.87 54.7502C144.332 53.7795 144.063 52.6446 144.063 51.3454C144.063 50.0462 144.325 48.9113 144.847 47.9406C145.385 46.9699 146.132 46.2233 147.087 45.7006C148.043 45.1779 149.141 44.9166 150.38 44.9166C151.59 44.9166 152.665 45.1705 153.606 45.6782C154.547 46.1859 155.278 46.9102 155.801 47.851C156.339 48.7918 156.607 49.8894 156.607 51.1438ZM152.687 50.1358C152.687 49.4787 152.463 48.9561 152.015 48.5678C151.567 48.1795 151.007 47.9854 150.335 47.9854C149.693 47.9854 149.148 48.1721 148.7 48.5454C148.267 48.9187 147.998 49.4489 147.894 50.1358H152.687ZM157.866 51.323C157.866 50.0387 158.105 48.9113 158.583 47.9406C159.076 46.9699 159.741 46.2233 160.577 45.7006C161.413 45.1779 162.346 44.9166 163.377 44.9166C164.198 44.9166 164.945 45.0883 165.617 45.4318C166.304 45.7753 166.841 46.2382 167.23 46.8206V41.019H171.06V57.595H167.23V55.803C166.871 56.4003 166.356 56.8782 165.684 57.2366C165.027 57.595 164.258 57.7742 163.377 57.7742C162.346 57.7742 161.413 57.5129 160.577 56.9902C159.741 56.4526 159.076 55.6985 158.583 54.7278C158.105 53.7422 157.866 52.6073 157.866 51.323ZM167.23 51.3454C167.23 50.3897 166.961 49.6355 166.423 49.083C165.901 48.5305 165.258 48.2542 164.497 48.2542C163.735 48.2542 163.086 48.5305 162.548 49.083C162.025 49.6206 161.764 50.3673 161.764 51.323C161.764 52.2787 162.025 53.0403 162.548 53.6078C163.086 54.1603 163.735 54.4366 164.497 54.4366C165.258 54.4366 165.901 54.1603 166.423 53.6078C166.961 53.0553 167.23 52.3011 167.23 51.3454Z" fill="#1A1C1E"/>
<g clip-path="url(#clip0_2173_1263)">
<rect x="191.9" y="22" width="56" height="56" rx="28" fill="#1A1C1E"/>
<path d="M221.219 39.2903L231.974 50.0452M231.974 50.0452L221.219 60.8M231.974 50.0452H206.163" stroke="url(#paint3_linear_2173_1263)" stroke-width="4.5" stroke-linecap="round" stroke-linejoin="round"/>
</g>
<defs>
<linearGradient id="paint0_linear_2173_1263" x1="134.89" y1="0" x2="134.89" y2="100" gradientUnits="userSpaceOnUse">
<stop stop-color="#F0C21A"/>
<stop offset="0.15" stop-color="#966B28"/>
<stop offset="0.325" stop-color="#D0AD6A"/>
<stop offset="0.5" stop-color="#FDEECA"/>
<stop offset="0.64" stop-color="#EED46A"/>
<stop offset="0.8" stop-color="#966B28"/>
<stop offset="1" stop-color="#EED46A"/>
</linearGradient>
<linearGradient id="paint1_linear_2173_1263" x1="134.89" y1="0" x2="134.89" y2="100.051" gradientUnits="userSpaceOnUse">
<stop stop-color="#F0C21A"/>
<stop offset="0.15" stop-color="#966B28"/>
<stop offset="0.325" stop-color="#D0AD6A"/>
<stop offset="0.5" stop-color="#FDEECA"/>
<stop offset="0.64" stop-color="#EED46A"/>
<stop offset="0.8" stop-color="#966B28"/>
<stop offset="1" stop-color="#EED46A"/>
</linearGradient>
<linearGradient id="paint2_linear_2173_1263" x1="134.89" y1="4.8" x2="134.89" y2="95.2" gradientUnits="userSpaceOnUse">
<stop stop-color="#F0C21A"/>
<stop offset="0.15" stop-color="#966B28"/>
<stop offset="0.325" stop-color="#D0AD6A"/>
<stop offset="0.5" stop-color="#FDEECA"/>
<stop offset="0.64" stop-color="#EED46A"/>
<stop offset="0.8" stop-color="#966B28"/>
<stop offset="1" stop-color="#EED46A"/>
</linearGradient>
<linearGradient id="paint3_linear_2173_1263" x1="219.068" y1="39.2903" x2="219.068" y2="60.8" gradientUnits="userSpaceOnUse">
<stop stop-color="#F0C21A"/>
<stop offset="0.15" stop-color="#966B28"/>
<stop offset="0.325" stop-color="#D0AD6A"/>
<stop offset="0.5" stop-color="#FDEECA"/>
<stop offset="0.64" stop-color="#EED46A"/>
<stop offset="0.8" stop-color="#966B28"/>
<stop offset="1" stop-color="#EED46A"/>
</linearGradient>
<clipPath id="clip0_2173_1263">
<rect x="191.9" y="22" width="56" height="56" rx="28" fill="white"/>
</clipPath>
</defs>
</svg>
