<svg width="56" height="23" viewBox="0 0 56 23" fill="none" xmlns="http://www.w3.org/2000/svg">
<mask id="mask0_2092_1430" style="mask-type:luminance" maskUnits="userSpaceOnUse" x="-1" y="0" width="57" height="23">
<path d="M55.654 0.235298H-0.00489807V22.7639H55.654V0.235298Z" fill="white"/>
</mask>
<g mask="url(#mask0_2092_1430)">
<path d="M26.0723 11.0178V17.4319H24.0369V1.59299H29.4334C30.8002 1.59299 31.9671 2.04886 32.9213 2.96062C33.8962 3.87237 34.3842 4.98549 34.3842 6.30009C34.3842 7.64658 33.8962 8.7597 32.9213 9.66083C31.9773 10.562 30.8117 11.0073 29.4334 11.0073H26.0723V11.0178ZM26.0723 3.54369V9.06713H29.4757C30.2814 9.06713 30.9602 8.79147 31.4893 8.2508C32.0311 7.71012 32.3065 7.05288 32.3065 6.31072C32.3065 5.57919 32.0311 4.93246 31.4893 4.39179C30.9602 3.82997 30.2917 3.55432 29.4757 3.55432H26.0723V3.54369ZM39.7086 6.23644C41.2149 6.23644 42.4023 6.63929 43.2708 7.44499C44.1405 8.25069 44.5748 9.35329 44.5748 10.7527V17.4318H42.6354V15.9263H42.5497C41.7132 17.1667 40.5886 17.7816 39.1898 17.7816C37.9909 17.7816 36.9944 17.4318 36.1887 16.7215C35.383 16.0111 34.9807 15.1312 34.9807 14.071C34.9807 12.9473 35.4047 12.0567 36.2527 11.3994C37.1007 10.7316 38.2355 10.4029 39.6458 10.4029C40.8537 10.4029 41.8503 10.6255 42.624 11.0707V10.6042C42.624 9.89397 42.3486 9.30026 41.7874 8.80199C41.2252 8.30371 40.568 8.05983 39.8149 8.05983C38.6801 8.05983 37.7795 8.53697 37.1224 9.50175L35.3304 8.37788C36.3167 6.94671 37.7795 6.23644 39.7086 6.23644ZM37.0801 14.1028C37.0801 14.633 37.3029 15.0782 37.7578 15.428C38.2035 15.7779 38.7338 15.9581 39.3383 15.9581C40.1966 15.9581 40.96 15.64 41.6274 15.0039C42.296 14.3679 42.6354 13.6258 42.6354 12.7671C41.9989 12.2688 41.1189 12.0143 39.9852 12.0143C39.1578 12.0143 38.4686 12.2158 37.9178 12.608C37.3555 13.0214 37.0801 13.5197 37.0801 14.1028ZM55.6432 6.5858L48.8581 22.1916H46.7588L49.2821 16.7317L44.8079 6.5858H47.0239L50.2467 14.3675H50.2901L53.4272 6.5858H55.6432Z" fill="white"/>
<path d="M17.973 9.723C17.973 9.05936 17.9136 8.4244 17.8039 7.81355H9.27151V11.3121L14.1857 11.3131C13.9857 12.4772 13.3446 13.4697 12.3617 14.1311V16.401H15.2874C16.9948 14.8204 17.973 12.4839 17.973 9.723Z" fill="#4285F4"/>
<path d="M12.3572 14.1319C11.5435 14.6811 10.4943 15.0023 9.26807 15.0023C6.89783 15.0023 4.88874 13.4056 4.16876 11.2536H1.15167V13.5945C2.6465 16.5608 5.71843 18.5963 9.26807 18.5963C11.7206 18.5963 13.7823 17.7895 15.2817 16.4007L12.3572 14.1319Z" fill="#34A853"/>
<path d="M3.8899 9.51649C3.8899 8.91227 3.99046 8.32806 4.17446 7.77893V5.43806H1.15738C0.539104 6.66466 0.191681 8.04921 0.191681 9.51649C0.191681 10.9838 0.540247 12.3683 1.15738 13.595L4.17446 11.2542C3.98704 10.6941 3.89105 10.1072 3.8899 9.51649Z" fill="#FABB05"/>
<path d="M9.26807 4.03088C10.6063 4.03088 11.8063 4.49202 12.7526 5.39314L15.3445 2.80314C13.7708 1.33699 11.7183 0.436897 9.26807 0.436897C5.71957 0.436897 2.6465 2.4724 1.15167 5.43874L4.16876 7.77972C4.88874 5.62765 6.89783 4.03088 9.26807 4.03088Z" fill="#E94235"/>
</g>
</svg>
