<svg width="47" height="37" viewBox="0 0 47 37" fill="none" xmlns="http://www.w3.org/2000/svg">
<mask id="mask0_2092_1421" style="mask-type:luminance" maskUnits="userSpaceOnUse" x="0" y="0" width="47" height="37">
<path d="M46.892 0.608757H0.675323V36.3894H46.892V0.608757Z" fill="white"/>
</mask>
<g mask="url(#mask0_2092_1421)">
<path d="M45.767 35.9001V35.9919H45.8527C45.8687 35.9922 45.8847 35.9882 45.8984 35.9803C45.9041 35.9763 45.9087 35.9711 45.911 35.9649C45.9144 35.9587 45.9156 35.952 45.9156 35.9451C45.9156 35.9384 45.9144 35.9318 45.911 35.9257C45.9087 35.9198 45.9041 35.9146 45.8984 35.9109C45.8847 35.9025 45.8687 35.8984 45.8527 35.8991L45.767 35.9001ZM45.8539 35.835C45.8904 35.8327 45.927 35.8433 45.9567 35.8649C45.9681 35.8746 45.9784 35.8871 45.9841 35.9013C45.991 35.9154 45.9933 35.9308 45.9921 35.9463C45.9933 35.9595 45.991 35.9728 45.9853 35.9851C45.9807 35.9975 45.9727 36.0086 45.9636 36.0177C45.9407 36.0377 45.9121 36.0498 45.8813 36.052L45.9967 36.1831H45.9076L45.8013 36.0529H45.767V36.1831H45.6939V35.8352L45.8539 35.835ZM45.8298 36.3031C45.8687 36.3034 45.9076 36.2956 45.943 36.2801C46.0127 36.2503 46.0676 36.1951 46.0973 36.1258C46.1121 36.0897 46.1201 36.0511 46.1201 36.012C46.1201 35.9729 46.1121 35.9343 46.0973 35.8982C46.0824 35.8639 46.0618 35.8327 46.0356 35.8062C46.0093 35.7798 45.9773 35.7586 45.943 35.7439C45.9076 35.7293 45.8687 35.7219 45.8298 35.7223C45.791 35.7219 45.7521 35.7293 45.7156 35.7439C45.6801 35.7585 45.6481 35.7797 45.6207 35.8062C45.5807 35.8479 45.5533 35.9006 45.5418 35.9578C45.5316 36.0151 45.5373 36.0743 45.5601 36.128C45.5739 36.1626 45.5944 36.1939 45.6207 36.22C45.6481 36.2467 45.6801 36.2679 45.7156 36.2824C45.7521 36.2978 45.791 36.3057 45.8298 36.3055M45.8298 35.6386C45.9316 35.6385 46.0287 35.6781 46.1007 35.7489C46.135 35.783 46.1636 35.8235 46.1818 35.8683C46.2013 35.9143 46.2116 35.9638 46.2116 36.0138C46.2116 36.0638 46.2013 36.1132 46.1818 36.1592C46.1624 36.2038 46.135 36.2442 46.1007 36.2785C46.0653 36.3123 46.0241 36.3395 45.9796 36.359C45.9327 36.379 45.8813 36.3891 45.8298 36.3888C45.7784 36.3892 45.727 36.3791 45.679 36.359C45.6344 36.34 45.5921 36.3127 45.5579 36.2785C45.5224 36.2428 45.4961 36.201 45.4767 36.1552C45.4573 36.1092 45.447 36.0598 45.447 36.0097C45.447 35.9598 45.4573 35.9103 45.4767 35.8643C45.4961 35.8195 45.5236 35.779 45.559 35.745C45.5933 35.7102 45.6344 35.6829 45.6801 35.6646C45.7281 35.6445 45.7796 35.6344 45.831 35.6347M10.6134 34.2952C10.6134 33.6317 11.0488 33.0868 11.7597 33.0868C12.4385 33.0868 12.8956 33.6084 12.8956 34.2952C12.8956 34.9818 12.4385 35.5034 11.7597 35.5034C11.0488 35.5034 10.6134 34.9584 10.6134 34.2952ZM13.6705 34.2952V32.4075H12.8488V32.8673C12.5894 32.5275 12.1939 32.3142 11.6568 32.3142C10.5985 32.3142 9.76886 33.1438 9.76886 34.296C9.76886 35.4482 10.5985 36.2777 11.6568 36.2777C12.1939 36.2777 12.5894 36.0643 12.8488 35.7248V36.1831H13.6693L13.6705 34.2952ZM41.4048 34.2952C41.4048 33.6317 41.8402 33.0868 42.5511 33.0868C43.2299 33.0868 43.6882 33.6084 43.6882 34.2952C43.6882 34.9818 43.2299 35.5034 42.5511 35.5034C41.8402 35.5034 41.4048 34.9584 41.4048 34.2952ZM44.4619 34.2952V30.8921H43.6413V32.8673C43.3808 32.5275 42.9853 32.3142 42.4482 32.3142C41.3911 32.3142 40.5602 33.1438 40.5602 34.296C40.5602 35.4482 41.3899 36.2777 42.4482 36.2777C42.9853 36.2777 43.3808 36.0643 43.6413 35.7248V36.1831H44.4619V34.2952ZM23.8577 33.0479C24.3868 33.0479 24.7263 33.3795 24.8131 33.9633H22.8543C22.9423 33.4184 23.2726 33.0479 23.8577 33.0479ZM23.8748 32.3122C22.7686 32.3122 21.9937 33.117 21.9937 34.294C21.9937 35.4939 22.7994 36.2758 23.9297 36.2758C24.4977 36.2758 25.0188 36.1338 25.4771 35.7469L25.0748 35.1387C24.7583 35.3917 24.3548 35.5335 23.9766 35.5335C23.4474 35.5335 22.9652 35.2887 22.8475 34.6092H25.6497C25.6577 34.5072 25.6668 34.4041 25.6668 34.2937C25.6577 33.1173 24.9308 32.3122 23.8748 32.3122ZM33.7844 34.2937C33.7844 33.6304 34.2186 33.0855 34.9295 33.0855C35.6083 33.0855 36.0666 33.607 36.0666 34.2937C36.0666 34.9806 35.6083 35.5021 34.9295 35.5021C34.2186 35.5021 33.7844 34.9572 33.7844 34.2937ZM36.8403 34.2937V32.4075H36.0197V32.8673C35.758 32.5275 35.3649 32.3142 34.8278 32.3142C33.7695 32.3142 32.9387 33.1438 32.9387 34.296C32.9387 35.4482 33.7695 36.2777 34.8278 36.2777C35.3649 36.2777 35.758 36.0643 36.0197 35.7248V36.1831H36.8403V34.2952V34.2937ZM29.149 34.2937C29.149 35.4385 29.9456 36.2755 31.1627 36.2755C31.7307 36.2755 32.1101 36.149 32.5193 35.8256L32.125 35.1621C31.8176 35.3837 31.493 35.5021 31.1364 35.5021C30.4816 35.4939 29.9993 35.0204 29.9993 34.2937C29.9993 33.5672 30.4816 33.0936 31.1364 33.0855C31.493 33.0855 31.8164 33.2038 32.125 33.4253L32.5193 32.762C32.109 32.4385 31.7307 32.3118 31.1627 32.3118C29.9456 32.3118 29.149 33.1487 29.149 34.2937ZM39.7305 32.3118C39.2574 32.3118 38.9488 32.5334 38.7351 32.865V32.4075H37.9214V36.181H38.7443V34.0656C38.7443 33.4412 39.0117 33.0941 39.5488 33.0941C39.7248 33.0916 39.8985 33.1239 40.062 33.1891L40.3157 32.4156C40.1328 32.3441 39.8974 32.3118 39.7305 32.3118ZM17.7287 32.7074C17.3333 32.4471 16.7893 32.3126 16.1893 32.3126C15.2327 32.3126 14.6167 32.7709 14.6167 33.5207C14.6167 34.1359 15.075 34.5157 15.9196 34.6341L16.307 34.6892C16.7573 34.7525 16.9698 34.8708 16.9698 35.084C16.9698 35.3758 16.6704 35.5423 16.1093 35.5423C15.5413 35.5423 15.131 35.3606 14.8533 35.1476L14.4682 35.7874C14.9185 36.119 15.4864 36.2771 16.1024 36.2771C17.1927 36.2771 17.8247 35.764 17.8247 35.0454C17.8247 34.3821 17.3276 34.035 16.5059 33.9166L16.1184 33.8606C15.763 33.8145 15.4784 33.7431 15.4784 33.4901C15.4784 33.2141 15.747 33.0482 16.1973 33.0482C16.6796 33.0482 17.1459 33.2298 17.3744 33.3717L17.7298 32.7083L17.7287 32.7074ZM28.3193 32.3133C27.8462 32.3133 27.5376 32.5348 27.3251 32.8663V32.4075H26.5125V36.181H27.3331V34.0656C27.3331 33.4412 27.6016 33.0941 28.1376 33.0941C28.3136 33.0916 28.4873 33.1239 28.6508 33.1891L28.9045 32.4156C28.7228 32.3441 28.4862 32.3133 28.3193 32.3133ZM21.3149 32.4075H19.9732V31.2626H19.1424V32.4075H18.3778V33.1573H19.1424V34.8789C19.1424 35.7544 19.4829 36.276 20.4543 36.276C20.8098 36.276 21.22 36.1656 21.4806 35.9842L21.2441 35.2815C20.9983 35.4233 20.7309 35.4949 20.5172 35.4949C20.1069 35.4949 19.9732 35.2421 19.9732 34.8632V33.1581H21.3149V32.4075ZM9.04314 36.1818V33.8136C9.04314 32.9218 8.47401 32.3215 7.55746 32.3135C7.07632 32.3054 6.57919 32.4555 6.23063 32.985C5.97006 32.5666 5.55978 32.3135 4.98379 32.3135C4.58037 32.3135 4.18609 32.4321 3.87753 32.8739V32.4075H3.05699V36.181H3.8844V34.0887C3.8844 33.4336 4.24781 33.0855 4.80894 33.0855C5.35407 33.0855 5.6295 33.4406 5.6295 34.0804V36.1806H6.45919V34.0881C6.45919 33.4332 6.83861 33.0851 7.3826 33.0851C7.94373 33.0851 8.21116 33.4402 8.21116 34.0799V36.1801L9.04314 36.1818Z" fill="white"/>
<path d="M46.2356 23.6314V23.0797H46.0927L45.9259 23.4583L45.7601 23.0797H45.6161V23.6314H45.7179V23.2158L45.8744 23.5745H45.9796L46.135 23.2149V23.6314H46.2356ZM45.3236 23.6314V23.1742H45.5076V23.0811H45.0379V23.1742H45.2219V23.6314H45.3236Z" fill="#F79410"/>
<path d="M29.8976 25.9968H17.4578V3.64748H29.8976V25.9968Z" fill="#FF5F00"/>
<path d="M18.2464 14.8224C18.2464 10.289 20.3698 6.25041 23.676 3.64775C21.1732 1.67474 18.0773 0.603992 14.8899 0.608781C7.03976 0.608781 0.675323 6.97234 0.675323 14.8224C0.675323 22.6725 7.03976 29.0361 14.8899 29.0361C18.0773 29.0409 21.1732 27.9701 23.676 25.997C20.3698 23.395 18.2464 19.3562 18.2464 14.8224Z" fill="#EB001B"/>
<path d="M46.6813 14.8224C46.6813 22.6725 40.3168 29.0361 32.4656 29.0361C29.2782 29.0408 26.1822 27.97 23.6794 25.997C26.9857 23.3945 29.109 19.3562 29.109 14.8224C29.109 10.2886 26.9857 6.25041 23.6794 3.64775C26.1822 1.67483 29.2782 0.604106 32.4656 0.60878C40.3168 0.60878 46.6813 6.97234 46.6813 14.8224Z" fill="#F79E1B"/>
</g>
</svg>
