<svg width="55" height="19" viewBox="0 0 55 19" fill="none" xmlns="http://www.w3.org/2000/svg">
<path d="M39.6169 1.43375C38.7509 1.09021 37.3775 0.710907 35.6793 0.710907C31.3439 0.710907 28.291 3.02275 28.2723 6.32805C28.2363 8.76663 30.4581 10.1211 32.1198 10.9341C33.8182 11.7651 34.3956 12.3074 34.3956 13.0479C34.3783 14.1854 33.0232 14.7097 31.7593 14.7097C30.0064 14.7097 29.0674 14.4394 27.6401 13.8065L27.0621 13.5353L26.4476 17.3466C27.4773 17.8157 29.3744 18.232 31.3439 18.2502C35.9503 18.2502 38.9492 15.9741 38.9849 12.4518C39.0022 10.5191 37.829 9.03817 35.2998 7.82791C33.7643 7.05113 32.824 6.52725 32.824 5.73241C32.842 5.00979 33.6193 4.26969 35.3525 4.26969C36.7798 4.23347 37.8284 4.57643 38.6227 4.91974L39.0198 5.10008L39.6169 1.43375Z" fill="white"/>
<path d="M23.7019 17.9973H19.3117L22.0575 1.01878H26.4474L23.7019 17.9973Z" fill="white"/>
<path fill-rule="evenodd" clip-rule="evenodd" d="M50.8706 1.0189H47.475C46.4277 1.0189 45.6323 1.32575 45.1804 2.42767L38.6595 17.9972H43.2658C43.2658 17.9972 44.0243 15.9017 44.1872 15.4504H49.8238C49.9498 16.0464 50.3475 17.9972 50.3475 17.9972H54.4125L50.8706 1.0189ZM45.4516 11.9826C45.8131 11.0072 47.2043 7.23215 47.2043 7.23215C47.1972 7.24666 47.2536 7.08975 47.3381 6.85593L47.3391 6.85307L47.3397 6.85124C47.4657 6.50188 47.6528 5.98337 47.782 5.60658L48.0888 7.06964C48.0888 7.06964 48.9201 11.1337 49.1007 11.9826H45.4516Z" fill="white"/>
<path d="M15.6433 1.0189L11.3439 12.5966L10.8741 10.2485L10.8737 10.2471L9.3386 2.44618C9.08581 1.36175 8.30894 1.05467 7.35157 1.0189H0.288311L0.216049 1.36198C1.93876 1.80254 3.47956 2.43727 4.8296 3.22663L8.74251 17.9795H13.3849L20.2854 1.0189H15.6433Z" fill="white"/>
</svg>
