<svg width="295" height="176" viewBox="0 0 295 176" fill="none" xmlns="http://www.w3.org/2000/svg">
<g filter="url(#filter0_d_2185_4311)">
<path d="M70.7428 63.6028V52.1548H90.6868V104.715H77.8708V63.6028H70.7428ZM98.6771 94.8508C100.309 93.5548 101.053 92.9548 100.909 93.0508C105.613 89.1628 109.309 85.9708 111.997 83.4748C114.733 80.9788 117.037 78.3628 118.909 75.6268C120.781 72.8908 121.717 70.2268 121.717 67.6348C121.717 65.6668 121.261 64.1308 120.349 63.0268C119.437 61.9228 118.069 61.3708 116.245 61.3708C114.421 61.3708 112.981 62.0668 111.925 63.4588C110.917 64.8028 110.413 66.7228 110.413 69.2188H98.5331C98.6291 65.1388 99.4931 61.7308 101.125 58.9948C102.805 56.2588 104.989 54.2428 107.677 52.9468C110.413 51.6508 113.437 51.0028 116.749 51.0028C122.461 51.0028 126.757 52.4668 129.637 55.3948C132.565 58.3228 134.029 62.1388 134.029 66.8428C134.029 71.9788 132.277 76.7548 128.773 81.1708C125.269 85.5388 120.805 89.8108 115.381 93.9868H134.821V103.995H98.6771V94.8508ZM140.242 77.7148C140.242 69.4588 141.826 62.9548 144.994 58.2028C148.21 53.4508 153.37 51.0748 160.474 51.0748C167.578 51.0748 172.714 53.4508 175.882 58.2028C179.098 62.9548 180.706 69.4588 180.706 77.7148C180.706 86.0668 179.098 92.6188 175.882 97.3708C172.714 102.123 167.578 104.499 160.474 104.499C153.37 104.499 148.21 102.123 144.994 97.3708C141.826 92.6188 140.242 86.0668 140.242 77.7148ZM168.61 77.7148C168.61 72.8668 168.082 69.1468 167.026 66.5548C165.97 63.9148 163.786 62.5948 160.474 62.5948C157.162 62.5948 154.978 63.9148 153.922 66.5548C152.866 69.1468 152.338 72.8668 152.338 77.7148C152.338 80.9788 152.53 83.6908 152.914 85.8508C153.298 87.9628 154.066 89.6908 155.218 91.0348C156.418 92.3308 158.17 92.9788 160.474 92.9788C162.778 92.9788 164.506 92.3308 165.658 91.0348C166.858 89.6908 167.65 87.9628 168.034 85.8508C168.418 83.6908 168.61 80.9788 168.61 77.7148ZM224.939 85.0588H212.411V97.8748H200.747V85.0588H188.219V74.0428H200.747V61.1548H212.411V74.0428H224.939V85.0588Z" fill="url(#paint0_linear_2185_4311)"/>
</g>
<defs>
<filter id="filter0_d_2185_4311" x="0.742676" y="-17.9971" width="294.196" height="193.712" filterUnits="userSpaceOnUse" color-interpolation-filters="sRGB">
<feFlood flood-opacity="0" result="BackgroundImageFix"/>
<feColorMatrix in="SourceAlpha" type="matrix" values="0 0 0 0 0 0 0 0 0 0 0 0 0 0 0 0 0 0 127 0" result="hardAlpha"/>
<feOffset dy="1"/>
<feGaussianBlur stdDeviation="35"/>
<feComposite in2="hardAlpha" operator="out"/>
<feColorMatrix type="matrix" values="0 0 0 0 1 0 0 0 0 1 0 0 0 0 1 0 0 0 0.38 0"/>
<feBlend mode="normal" in2="BackgroundImageFix" result="effect1_dropShadow_2185_4311"/>
<feBlend mode="normal" in="SourceGraphic" in2="effect1_dropShadow_2185_4311" result="shape"/>
</filter>
<linearGradient id="paint0_linear_2185_4311" x1="148.99" y1="36.7148" x2="148.99" y2="123.715" gradientUnits="userSpaceOnUse">
<stop stop-color="#F0C21A"/>
<stop offset="0.15" stop-color="#966B28"/>
<stop offset="0.325" stop-color="#D0AD6A"/>
<stop offset="0.5" stop-color="#FDEECA"/>
<stop offset="0.64" stop-color="#EED46A"/>
<stop offset="0.8" stop-color="#966B28"/>
<stop offset="1" stop-color="#EED46A"/>
</linearGradient>
</defs>
</svg>
