<svg width="483" height="237" viewBox="0 0 483 237" fill="none" xmlns="http://www.w3.org/2000/svg">
<g filter="url(#filter0_d_2505_1641)">
<path d="M66.9407 144.896C70.1593 142.34 71.6267 141.156 71.3427 141.346C80.62 133.678 87.9093 127.382 93.2107 122.46C98.6067 117.537 103.151 112.378 106.843 106.982C110.535 101.586 112.381 96.3316 112.381 91.2196C112.381 87.3383 111.481 84.3089 109.683 82.1316C107.884 79.9543 105.186 78.8656 101.589 78.8656C97.9913 78.8656 95.1513 80.2383 93.0687 82.9836C91.0807 85.6343 90.0867 89.4209 90.0867 94.3436H66.6567C66.846 86.2969 68.55 79.5756 71.7687 74.1796C75.082 68.7836 79.3893 64.8076 84.6907 62.2516C90.0867 59.6956 96.0507 58.4176 102.583 58.4176C113.848 58.4176 122.321 61.3049 128.001 67.0796C133.775 72.8543 136.663 80.3803 136.663 89.6576C136.663 99.7869 133.207 109.206 126.297 117.916C119.386 126.53 110.582 134.956 99.8847 143.192H138.225V162.93H66.9407V144.896ZM138.976 111.1C138.976 94.8169 142.1 81.9896 148.348 72.6176C154.69 63.2456 164.867 58.5596 178.878 58.5596C192.888 58.5596 203.018 63.2456 209.266 72.6176C215.608 81.9896 218.78 94.8169 218.78 111.1C218.78 127.572 215.608 140.494 209.266 149.866C203.018 159.238 192.888 163.924 178.878 163.924C164.867 163.924 154.69 159.238 148.348 149.866C142.1 140.494 138.976 127.572 138.976 111.1ZM194.924 111.1C194.924 101.538 193.882 94.2016 191.8 89.0896C189.717 83.8829 185.41 81.2796 178.878 81.2796C172.346 81.2796 168.038 83.8829 165.956 89.0896C163.873 94.2016 162.832 101.538 162.832 111.1C162.832 117.537 163.21 122.886 163.968 127.146C164.725 131.311 166.24 134.719 168.512 137.37C170.878 139.926 174.334 141.204 178.878 141.204C183.422 141.204 186.83 139.926 189.102 137.37C191.468 134.719 193.03 131.311 193.788 127.146C194.545 122.886 194.924 117.537 194.924 111.1ZM221.669 111.1C221.669 94.8169 224.793 81.9896 231.041 72.6176C237.383 63.2456 247.56 58.5596 261.571 58.5596C275.581 58.5596 285.711 63.2456 291.959 72.6176C298.301 81.9896 301.473 94.8169 301.473 111.1C301.473 127.572 298.301 140.494 291.959 149.866C285.711 159.238 275.581 163.924 261.571 163.924C247.56 163.924 237.383 159.238 231.041 149.866C224.793 140.494 221.669 127.572 221.669 111.1ZM277.617 111.1C277.617 101.538 276.575 94.2016 274.493 89.0896C272.41 83.8829 268.103 81.2796 261.571 81.2796C255.039 81.2796 250.731 83.8829 248.649 89.0896C246.566 94.2016 245.525 101.538 245.525 111.1C245.525 117.537 245.903 122.886 246.661 127.146C247.418 131.311 248.933 134.719 251.205 137.37C253.571 139.926 257.027 141.204 261.571 141.204C266.115 141.204 269.523 139.926 271.795 137.37C274.161 134.719 275.723 131.311 276.481 127.146C277.238 122.886 277.617 117.537 277.617 111.1ZM302.373 86.8176C302.373 79.1496 304.551 73.2329 308.905 69.0676C313.355 64.9023 319.082 62.8196 326.087 62.8196C333.093 62.8196 338.773 64.9023 343.127 69.0676C347.482 73.2329 349.659 79.1496 349.659 86.8176C349.659 94.4856 347.482 100.402 343.127 104.568C338.773 108.733 333.093 110.816 326.087 110.816C319.082 110.816 313.355 108.733 308.905 104.568C304.551 100.402 302.373 94.4856 302.373 86.8176ZM398.791 64.3816L344.121 164.35H320.691L375.361 64.3816H398.791ZM325.945 77.0196C321.401 77.0196 319.129 80.2856 319.129 86.8176C319.129 93.2549 321.401 96.4736 325.945 96.4736C328.123 96.4736 329.827 95.6689 331.057 94.0596C332.288 92.4503 332.903 90.0363 332.903 86.8176C332.903 80.2856 330.584 77.0196 325.945 77.0196ZM369.965 141.914C369.965 134.246 372.143 128.329 376.497 124.164C380.852 119.998 386.532 117.916 393.537 117.916C400.543 117.916 406.223 119.998 410.577 124.164C414.932 128.329 417.109 134.246 417.109 141.914C417.109 149.582 414.932 155.498 410.577 159.664C406.223 163.829 400.543 165.912 393.537 165.912C386.532 165.912 380.852 163.829 376.497 159.664C372.143 155.498 369.965 149.582 369.965 141.914ZM393.395 132.116C391.218 132.116 389.514 132.92 388.283 134.53C387.147 136.139 386.579 138.6 386.579 141.914C386.579 148.351 388.851 151.57 393.395 151.57C395.573 151.57 397.277 150.765 398.507 149.156C399.738 147.546 400.353 145.132 400.353 141.914C400.353 138.695 399.738 136.281 398.507 134.672C397.277 132.968 395.573 132.116 393.395 132.116Z" fill="url(#paint0_linear_2505_1641)"/>
</g>
<defs>
<filter id="filter0_d_2505_1641" x="-3.34326" y="-10.582" width="490.453" height="247.493" filterUnits="userSpaceOnUse" color-interpolation-filters="sRGB">
<feFlood flood-opacity="0" result="BackgroundImageFix"/>
<feColorMatrix in="SourceAlpha" type="matrix" values="0 0 0 0 0 0 0 0 0 0 0 0 0 0 0 0 0 0 127 0" result="hardAlpha"/>
<feOffset dy="1"/>
<feGaussianBlur stdDeviation="35"/>
<feComposite in2="hardAlpha" operator="out"/>
<feColorMatrix type="matrix" values="0 0 0 0 1 0 0 0 0 1 0 0 0 0 1 0 0 0 0.38 0"/>
<feBlend mode="normal" in2="BackgroundImageFix" result="effect1_dropShadow_2505_1641"/>
<feBlend mode="normal" in="SourceGraphic" in2="effect1_dropShadow_2505_1641" result="shape"/>
</filter>
<linearGradient id="paint0_linear_2505_1641" x1="241.465" y1="71.3496" x2="241.465" y2="158.35" gradientUnits="userSpaceOnUse">
<stop stop-color="#F0C21A"/>
<stop offset="0.15" stop-color="#966B28"/>
<stop offset="0.325" stop-color="#D0AD6A"/>
<stop offset="0.5" stop-color="#FDEECA"/>
<stop offset="0.64" stop-color="#EED46A"/>
<stop offset="0.8" stop-color="#966B28"/>
<stop offset="1" stop-color="#EED46A"/>
</linearGradient>
</defs>
</svg>
