<svg width="409" height="237" viewBox="0 0 409 237" fill="none" xmlns="http://www.w3.org/2000/svg">
<g filter="url(#filter0_d_2505_1649)">
<path d="M70.9555 144.896C74.1742 142.34 75.6415 141.156 75.3575 141.346C84.6349 133.678 91.9242 127.382 97.2255 122.46C102.622 117.537 107.166 112.378 110.858 106.982C114.55 101.586 116.396 96.3316 116.396 91.2196C116.396 87.3383 115.496 84.3089 113.698 82.1316C111.899 79.9543 109.201 78.8656 105.604 78.8656C102.006 78.8656 99.1662 80.2383 97.0835 82.9836C95.0955 85.6343 94.1015 89.4209 94.1015 94.3436H70.6715C70.8609 86.2969 72.5649 79.5756 75.7835 74.1796C79.0969 68.7836 83.4042 64.8076 88.7055 62.2516C94.1015 59.6956 100.066 58.4176 106.598 58.4176C117.863 58.4176 126.336 61.3049 132.016 67.0796C137.79 72.8543 140.678 80.3803 140.678 89.6576C140.678 99.7869 137.222 109.206 130.312 117.916C123.401 126.53 114.597 134.956 103.9 143.192H142.24V162.93H70.9555V144.896ZM215.979 81.8476H171.675V101.444C173.568 99.3609 176.219 97.6569 179.627 96.3316C183.035 95.0063 186.727 94.3436 190.703 94.3436C197.803 94.3436 203.672 95.9529 208.311 99.1716C213.044 102.39 216.499 106.556 218.677 111.668C220.854 116.78 221.943 122.318 221.943 128.282C221.943 139.358 218.819 148.162 212.571 154.694C206.323 161.131 197.519 164.35 186.159 164.35C178.585 164.35 172.006 163.072 166.421 160.516C160.835 157.865 156.528 154.22 153.499 149.582C150.469 144.943 148.813 139.594 148.529 133.536H172.243C172.811 136.47 174.183 138.932 176.361 140.92C178.538 142.813 181.52 143.76 185.307 143.76C189.756 143.76 193.069 142.34 195.247 139.5C197.424 136.66 198.513 132.873 198.513 128.14C198.513 123.501 197.377 119.951 195.105 117.49C192.833 115.028 189.519 113.798 185.165 113.798C181.946 113.798 179.295 114.602 177.213 116.212C175.13 117.726 173.757 119.762 173.095 122.318H149.665V60.5476H215.979V81.8476ZM223.418 86.8176C223.418 79.1496 225.595 73.2329 229.95 69.0676C234.399 64.9023 240.127 62.8196 247.132 62.8196C254.137 62.8196 259.817 64.9023 264.172 69.0676C268.527 73.2329 270.704 79.1496 270.704 86.8176C270.704 94.4856 268.527 100.402 264.172 104.568C259.817 108.733 254.137 110.816 247.132 110.816C240.127 110.816 234.399 108.733 229.95 104.568C225.595 100.402 223.418 94.4856 223.418 86.8176ZM319.836 64.3816L265.166 164.35H241.736L296.406 64.3816H319.836ZM246.99 77.0196C242.446 77.0196 240.174 80.2856 240.174 86.8176C240.174 93.2549 242.446 96.4736 246.99 96.4736C249.167 96.4736 250.871 95.6689 252.102 94.0596C253.333 92.4503 253.948 90.0363 253.948 86.8176C253.948 80.2856 251.629 77.0196 246.99 77.0196ZM291.01 141.914C291.01 134.246 293.187 128.329 297.542 124.164C301.897 119.998 307.577 117.916 314.582 117.916C321.587 117.916 327.267 119.998 331.622 124.164C335.977 128.329 338.154 134.246 338.154 141.914C338.154 149.582 335.977 155.498 331.622 159.664C327.267 163.829 321.587 165.912 314.582 165.912C307.577 165.912 301.897 163.829 297.542 159.664C293.187 155.498 291.01 149.582 291.01 141.914ZM314.44 132.116C312.263 132.116 310.559 132.92 309.328 134.53C308.192 136.139 307.624 138.6 307.624 141.914C307.624 148.351 309.896 151.57 314.44 151.57C316.617 151.57 318.321 150.765 319.552 149.156C320.783 147.546 321.398 145.132 321.398 141.914C321.398 138.695 320.783 136.281 319.552 134.672C318.321 132.968 316.617 132.116 314.44 132.116Z" fill="url(#paint0_linear_2505_1649)"/>
</g>
<defs>
<filter id="filter0_d_2505_1649" x="0.671387" y="-10.582" width="407.483" height="247.493" filterUnits="userSpaceOnUse" color-interpolation-filters="sRGB">
<feFlood flood-opacity="0" result="BackgroundImageFix"/>
<feColorMatrix in="SourceAlpha" type="matrix" values="0 0 0 0 0 0 0 0 0 0 0 0 0 0 0 0 0 0 127 0" result="hardAlpha"/>
<feOffset dy="1"/>
<feGaussianBlur stdDeviation="35"/>
<feComposite in2="hardAlpha" operator="out"/>
<feColorMatrix type="matrix" values="0 0 0 0 1 0 0 0 0 1 0 0 0 0 1 0 0 0 0.38 0"/>
<feBlend mode="normal" in2="BackgroundImageFix" result="effect1_dropShadow_2505_1649"/>
<feBlend mode="normal" in="SourceGraphic" in2="effect1_dropShadow_2505_1649" result="shape"/>
</filter>
<linearGradient id="paint0_linear_2505_1649" x1="203.995" y1="71.3496" x2="203.995" y2="158.35" gradientUnits="userSpaceOnUse">
<stop stop-color="#F0C21A"/>
<stop offset="0.15" stop-color="#966B28"/>
<stop offset="0.325" stop-color="#D0AD6A"/>
<stop offset="0.5" stop-color="#FDEECA"/>
<stop offset="0.64" stop-color="#EED46A"/>
<stop offset="0.8" stop-color="#966B28"/>
<stop offset="1" stop-color="#EED46A"/>
</linearGradient>
</defs>
</svg>
