<svg width="482" height="185" viewBox="0 0 482 185" fill="none" xmlns="http://www.w3.org/2000/svg">
<g filter="url(#filter0_d_2185_4304)">
<path d="M108.489 90.0268C108.489 92.6668 107.793 95.1148 106.401 97.3708C105.057 99.5788 103.041 101.403 100.353 102.843C97.713 104.235 94.569 105.003 90.921 105.147V110.979H86.313V105.075C81.225 104.643 77.121 103.131 74.001 100.539C70.881 97.8988 69.225 94.3228 69.033 89.8108H82.137C82.425 92.6908 83.817 94.5388 86.313 95.3548V83.9788C82.569 83.0188 79.569 82.0828 77.313 81.1708C75.105 80.2588 73.161 78.7948 71.481 76.7788C69.801 74.7628 68.961 72.0028 68.961 68.4988C68.961 64.1308 70.569 60.6268 73.785 57.9868C77.049 55.3468 81.225 53.8588 86.313 53.5228V47.6908H90.921V53.5228C95.961 53.9068 99.945 55.3708 102.873 57.9148C105.801 60.4588 107.433 63.9868 107.769 68.4988H94.593C94.305 65.9068 93.081 64.2268 90.921 63.4588V74.6188C94.905 75.7228 97.977 76.7068 100.137 77.5708C102.297 78.4348 104.217 79.8748 105.897 81.8908C107.625 83.8588 108.489 86.5708 108.489 90.0268ZM81.993 67.9228C81.993 69.1228 82.353 70.1308 83.073 70.9468C83.841 71.7628 84.921 72.4828 86.313 73.1068V63.0988C84.969 63.3388 83.913 63.8668 83.145 64.6828C82.377 65.4508 81.993 66.5308 81.993 67.9228ZM90.921 95.5708C92.361 95.3308 93.489 94.7548 94.305 93.8428C95.169 92.9308 95.601 91.8028 95.601 90.4588C95.601 89.2108 95.193 88.2028 94.377 87.4348C93.609 86.6188 92.457 85.9228 90.921 85.3468V95.5708ZM153.432 62.8828H130.968V72.8188C131.928 71.7628 133.272 70.8988 135 70.2268C136.728 69.5548 138.6 69.2188 140.616 69.2188C144.216 69.2188 147.192 70.0348 149.544 71.6668C151.944 73.2988 153.696 75.4108 154.8 78.0028C155.904 80.5948 156.456 83.4028 156.456 86.4268C156.456 92.0428 154.872 96.5068 151.704 99.8188C148.536 103.083 144.072 104.715 138.312 104.715C134.472 104.715 131.136 104.067 128.304 102.771C125.472 101.427 123.288 99.5788 121.752 97.2268C120.216 94.8748 119.376 92.1628 119.232 89.0908H131.256C131.544 90.5788 132.24 91.8268 133.344 92.8348C134.448 93.7948 135.96 94.2748 137.88 94.2748C140.136 94.2748 141.816 93.5548 142.92 92.1148C144.024 90.6748 144.576 88.7548 144.576 86.3548C144.576 84.0028 144 82.2028 142.848 80.9548C141.696 79.7068 140.016 79.0828 137.808 79.0828C136.176 79.0828 134.832 79.4908 133.776 80.3068C132.72 81.0748 132.024 82.1068 131.688 83.4028H119.808V52.0828H153.432V62.8828ZM163.252 77.7148C163.252 69.4588 164.836 62.9548 168.004 58.2028C171.22 53.4508 176.38 51.0748 183.484 51.0748C190.588 51.0748 195.724 53.4508 198.892 58.2028C202.108 62.9548 203.716 69.4588 203.716 77.7148C203.716 86.0668 202.108 92.6188 198.892 97.3708C195.724 102.123 190.588 104.499 183.484 104.499C176.38 104.499 171.22 102.123 168.004 97.3708C164.836 92.6188 163.252 86.0668 163.252 77.7148ZM191.62 77.7148C191.62 72.8668 191.092 69.1468 190.036 66.5548C188.98 63.9148 186.796 62.5948 183.484 62.5948C180.172 62.5948 177.988 63.9148 176.932 66.5548C175.876 69.1468 175.348 72.8668 175.348 77.7148C175.348 80.9788 175.54 83.6908 175.924 85.8508C176.308 87.9628 177.076 89.6908 178.228 91.0348C179.428 92.3308 181.18 92.9788 183.484 92.9788C185.788 92.9788 187.516 92.3308 188.668 91.0348C189.868 89.6908 190.66 87.9628 191.044 85.8508C191.428 83.6908 191.62 80.9788 191.62 77.7148ZM210.22 77.7148C210.22 69.4588 211.804 62.9548 214.972 58.2028C218.188 53.4508 223.348 51.0748 230.452 51.0748C237.556 51.0748 242.692 53.4508 245.86 58.2028C249.076 62.9548 250.684 69.4588 250.684 77.7148C250.684 86.0668 249.076 92.6188 245.86 97.3708C242.692 102.123 237.556 104.499 230.452 104.499C223.348 104.499 218.188 102.123 214.972 97.3708C211.804 92.6188 210.22 86.0668 210.22 77.7148ZM238.588 77.7148C238.588 72.8668 238.06 69.1468 237.004 66.5548C235.948 63.9148 233.764 62.5948 230.452 62.5948C227.14 62.5948 224.956 63.9148 223.9 66.5548C222.844 69.1468 222.316 72.8668 222.316 77.7148C222.316 80.9788 222.508 83.6908 222.892 85.8508C223.276 87.9628 224.044 89.6908 225.196 91.0348C226.396 92.3308 228.148 92.9788 230.452 92.9788C232.756 92.9788 234.484 92.3308 235.636 91.0348C236.836 89.6908 237.628 87.9628 238.012 85.8508C238.396 83.6908 238.588 80.9788 238.588 77.7148ZM271.661 93.3388L263.669 114.003H255.821L259.997 93.3388H271.661ZM277.861 77.7148C277.861 69.4588 279.445 62.9548 282.613 58.2028C285.829 53.4508 290.989 51.0748 298.093 51.0748C305.197 51.0748 310.333 53.4508 313.501 58.2028C316.717 62.9548 318.325 69.4588 318.325 77.7148C318.325 86.0668 316.717 92.6188 313.501 97.3708C310.333 102.123 305.197 104.499 298.093 104.499C290.989 104.499 285.829 102.123 282.613 97.3708C279.445 92.6188 277.861 86.0668 277.861 77.7148ZM306.229 77.7148C306.229 72.8668 305.701 69.1468 304.645 66.5548C303.589 63.9148 301.405 62.5948 298.093 62.5948C294.781 62.5948 292.597 63.9148 291.541 66.5548C290.485 69.1468 289.957 72.8668 289.957 77.7148C289.957 80.9788 290.149 83.6908 290.533 85.8508C290.917 87.9628 291.685 89.6908 292.837 91.0348C294.037 92.3308 295.789 92.9788 298.093 92.9788C300.397 92.9788 302.125 92.3308 303.277 91.0348C304.477 89.6908 305.269 87.9628 305.653 85.8508C306.037 83.6908 306.229 80.9788 306.229 77.7148ZM324.83 77.7148C324.83 69.4588 326.414 62.9548 329.582 58.2028C332.798 53.4508 337.958 51.0748 345.062 51.0748C352.166 51.0748 357.302 53.4508 360.47 58.2028C363.686 62.9548 365.294 69.4588 365.294 77.7148C365.294 86.0668 363.686 92.6188 360.47 97.3708C357.302 102.123 352.166 104.499 345.062 104.499C337.958 104.499 332.798 102.123 329.582 97.3708C326.414 92.6188 324.83 86.0668 324.83 77.7148ZM353.198 77.7148C353.198 72.8668 352.67 69.1468 351.614 66.5548C350.558 63.9148 348.374 62.5948 345.062 62.5948C341.75 62.5948 339.566 63.9148 338.51 66.5548C337.454 69.1468 336.926 72.8668 336.926 77.7148C336.926 80.9788 337.118 83.6908 337.502 85.8508C337.886 87.9628 338.654 89.6908 339.806 91.0348C341.006 92.3308 342.758 92.9788 345.062 92.9788C347.366 92.9788 349.094 92.3308 350.246 91.0348C351.446 89.6908 352.238 87.9628 352.622 85.8508C353.006 83.6908 353.198 80.9788 353.198 77.7148ZM371.799 77.7148C371.799 69.4588 373.383 62.9548 376.551 58.2028C379.767 53.4508 384.927 51.0748 392.031 51.0748C399.135 51.0748 404.271 53.4508 407.439 58.2028C410.655 62.9548 412.263 69.4588 412.263 77.7148C412.263 86.0668 410.655 92.6188 407.439 97.3708C404.271 102.123 399.135 104.499 392.031 104.499C384.927 104.499 379.767 102.123 376.551 97.3708C373.383 92.6188 371.799 86.0668 371.799 77.7148ZM400.167 77.7148C400.167 72.8668 399.639 69.1468 398.583 66.5548C397.527 63.9148 395.343 62.5948 392.031 62.5948C388.719 62.5948 386.535 63.9148 385.479 66.5548C384.423 69.1468 383.895 72.8668 383.895 77.7148C383.895 80.9788 384.087 83.6908 384.471 85.8508C384.855 87.9628 385.623 89.6908 386.775 91.0348C387.975 92.3308 389.727 92.9788 392.031 92.9788C394.335 92.9788 396.063 92.3308 397.215 91.0348C398.415 89.6908 399.207 87.9628 399.591 85.8508C399.975 83.6908 400.167 80.9788 400.167 77.7148Z" fill="url(#paint0_linear_2185_4304)"/>
</g>
<defs>
<filter id="filter0_d_2185_4304" x="-1.03906" y="-21.3091" width="483.302" height="206.312" filterUnits="userSpaceOnUse" color-interpolation-filters="sRGB">
<feFlood flood-opacity="0" result="BackgroundImageFix"/>
<feColorMatrix in="SourceAlpha" type="matrix" values="0 0 0 0 0 0 0 0 0 0 0 0 0 0 0 0 0 0 127 0" result="hardAlpha"/>
<feOffset dy="1"/>
<feGaussianBlur stdDeviation="35"/>
<feComposite in2="hardAlpha" operator="out"/>
<feColorMatrix type="matrix" values="0 0 0 0 1 0 0 0 0 1 0 0 0 0 1 0 0 0 0.38 0"/>
<feBlend mode="normal" in2="BackgroundImageFix" result="effect1_dropShadow_2185_4304"/>
<feBlend mode="normal" in="SourceGraphic" in2="effect1_dropShadow_2185_4304" result="shape"/>
</filter>
<linearGradient id="paint0_linear_2185_4304" x1="240.66" y1="36.7148" x2="240.66" y2="123.715" gradientUnits="userSpaceOnUse">
<stop stop-color="#F0C21A"/>
<stop offset="0.15" stop-color="#966B28"/>
<stop offset="0.325" stop-color="#D0AD6A"/>
<stop offset="0.5" stop-color="#FDEECA"/>
<stop offset="0.64" stop-color="#EED46A"/>
<stop offset="0.8" stop-color="#966B28"/>
<stop offset="1" stop-color="#EED46A"/>
</linearGradient>
</defs>
</svg>
