<svg width="383" height="190" viewBox="0 0 383 190" fill="none" xmlns="http://www.w3.org/2000/svg">
<g filter="url(#filter0_d_2185_4322)">
<path d="M83.5608 89.3068C84.2808 93.0988 86.4888 94.9948 90.1848 94.9948C92.7288 94.9948 94.5288 93.8668 95.5848 91.6108C96.6408 89.3548 97.1688 85.6828 97.1688 80.5948C96.1128 82.0828 94.6728 83.2348 92.8488 84.0508C91.0248 84.8668 88.9848 85.2748 86.7288 85.2748C83.6568 85.2748 80.9208 84.6508 78.5208 83.4028C76.1208 82.1068 74.2248 80.2108 72.8328 77.7148C71.4888 75.1708 70.8168 72.0988 70.8168 68.4988C70.8168 64.9468 71.5368 61.8508 72.9768 59.2108C74.4648 56.5708 76.5528 54.5308 79.2408 53.0908C81.9768 51.6508 85.1928 50.9308 88.8888 50.9308C95.9928 50.9308 100.961 53.1388 103.793 57.5548C106.625 61.9708 108.041 68.4748 108.041 77.0668C108.041 83.3068 107.465 88.4668 106.313 92.5468C105.209 96.5788 103.313 99.6508 100.625 101.763C97.9848 103.875 94.3608 104.931 89.7528 104.931C86.1048 104.931 82.9848 104.211 80.3928 102.771C77.8488 101.331 75.8808 99.4348 74.4888 97.0828C73.1448 94.7308 72.3768 92.1388 72.1848 89.3068H83.5608ZM89.5368 75.5548C91.5528 75.5548 93.1608 74.9548 94.3608 73.7548C95.5608 72.5068 96.1608 70.8268 96.1608 68.7148C96.1608 66.4108 95.5368 64.6348 94.2888 63.3868C93.0408 62.1388 91.3608 61.5148 89.2488 61.5148C87.1368 61.5148 85.4568 62.1628 84.2088 63.4588C83.0088 64.7068 82.4088 66.4348 82.4088 68.6428C82.4088 70.7068 83.0088 72.3868 84.2088 73.6828C85.4568 74.9308 87.2328 75.5548 89.5368 75.5548ZM121.594 105.291C119.434 105.291 117.658 104.667 116.266 103.419C114.922 102.123 114.25 100.539 114.25 98.6668C114.25 96.7468 114.922 95.1388 116.266 93.8428C117.658 92.5468 119.434 91.8988 121.594 91.8988C123.706 91.8988 125.434 92.5468 126.778 93.8428C128.17 95.1388 128.866 96.7468 128.866 98.6668C128.866 100.539 128.17 102.123 126.778 103.419C125.434 104.667 123.706 105.291 121.594 105.291ZM143.57 76.4908C139.058 74.0908 136.802 70.3228 136.802 65.1868C136.802 62.5948 137.474 60.2428 138.818 58.1308C140.162 55.9708 142.202 54.2668 144.938 53.0188C147.674 51.7228 151.034 51.0748 155.018 51.0748C159.002 51.0748 162.338 51.7228 165.026 53.0188C167.762 54.2668 169.802 55.9708 171.146 58.1308C172.49 60.2428 173.162 62.5948 173.162 65.1868C173.162 67.7788 172.538 70.0348 171.29 71.9548C170.09 73.8748 168.458 75.3868 166.394 76.4908C168.986 77.7388 170.978 79.4668 172.37 81.6748C173.762 83.8348 174.458 86.3788 174.458 89.3068C174.458 92.7148 173.594 95.6668 171.866 98.1628C170.138 100.611 167.786 102.483 164.81 103.779C161.882 105.075 158.618 105.723 155.018 105.723C151.418 105.723 148.13 105.075 145.154 103.779C142.226 102.483 139.898 100.611 138.17 98.1628C136.442 95.6668 135.578 92.7148 135.578 89.3068C135.578 86.3308 136.274 83.7628 137.666 81.6028C139.058 79.3948 141.026 77.6908 143.57 76.4908ZM161.21 67.0588C161.21 65.0908 160.634 63.5788 159.482 62.5228C158.378 61.4188 156.89 60.8668 155.018 60.8668C153.146 60.8668 151.634 61.4188 150.482 62.5228C149.378 63.6268 148.826 65.1628 148.826 67.1308C148.826 69.0028 149.402 70.4908 150.554 71.5948C151.706 72.6508 153.194 73.1788 155.018 73.1788C156.842 73.1788 158.33 72.6268 159.482 71.5228C160.634 70.4188 161.21 68.9308 161.21 67.0588ZM155.018 81.8188C152.762 81.8188 150.938 82.4428 149.546 83.6908C148.154 84.8908 147.458 86.5708 147.458 88.7308C147.458 90.7468 148.13 92.4028 149.474 93.6988C150.866 94.9948 152.714 95.6428 155.018 95.6428C157.322 95.6428 159.122 94.9948 160.418 93.6988C161.762 92.4028 162.434 90.7468 162.434 88.7308C162.434 86.6188 161.738 84.9388 160.346 83.6908C159.002 82.4428 157.226 81.8188 155.018 81.8188ZM225.531 36.3148L206.235 118.179H194.355L213.651 36.3148H225.531ZM243.462 63.6028V52.1548H263.406V104.715H250.59V63.6028H243.462ZM271.828 77.7148C271.828 69.4588 273.412 62.9548 276.58 58.2028C279.796 53.4508 284.956 51.0748 292.06 51.0748C299.164 51.0748 304.3 53.4508 307.468 58.2028C310.684 62.9548 312.292 69.4588 312.292 77.7148C312.292 86.0668 310.684 92.6188 307.468 97.3708C304.3 102.123 299.164 104.499 292.06 104.499C284.956 104.499 279.796 102.123 276.58 97.3708C273.412 92.6188 271.828 86.0668 271.828 77.7148ZM300.196 77.7148C300.196 72.8668 299.668 69.1468 298.612 66.5548C297.556 63.9148 295.372 62.5948 292.06 62.5948C288.748 62.5948 286.564 63.9148 285.508 66.5548C284.452 69.1468 283.924 72.8668 283.924 77.7148C283.924 80.9788 284.116 83.6908 284.5 85.8508C284.884 87.9628 285.652 89.6908 286.804 91.0348C288.004 92.3308 289.756 92.9788 292.06 92.9788C294.364 92.9788 296.092 92.3308 297.244 91.0348C298.444 89.6908 299.236 87.9628 299.62 85.8508C300.004 83.6908 300.196 80.9788 300.196 77.7148Z" fill="url(#paint0_linear_2185_4322)"/>
</g>
<defs>
<filter id="filter0_d_2185_4322" x="0.816895" y="-32.6851" width="381.476" height="221.864" filterUnits="userSpaceOnUse" color-interpolation-filters="sRGB">
<feFlood flood-opacity="0" result="BackgroundImageFix"/>
<feColorMatrix in="SourceAlpha" type="matrix" values="0 0 0 0 0 0 0 0 0 0 0 0 0 0 0 0 0 0 127 0" result="hardAlpha"/>
<feOffset dy="1"/>
<feGaussianBlur stdDeviation="35"/>
<feComposite in2="hardAlpha" operator="out"/>
<feColorMatrix type="matrix" values="0 0 0 0 1 0 0 0 0 1 0 0 0 0 1 0 0 0 0.38 0"/>
<feBlend mode="normal" in2="BackgroundImageFix" result="effect1_dropShadow_2185_4322"/>
<feBlend mode="normal" in="SourceGraphic" in2="effect1_dropShadow_2185_4322" result="shape"/>
</filter>
<linearGradient id="paint0_linear_2185_4322" x1="191.315" y1="36.7148" x2="191.315" y2="123.715" gradientUnits="userSpaceOnUse">
<stop stop-color="#F0C21A"/>
<stop offset="0.15" stop-color="#966B28"/>
<stop offset="0.325" stop-color="#D0AD6A"/>
<stop offset="0.5" stop-color="#FDEECA"/>
<stop offset="0.64" stop-color="#EED46A"/>
<stop offset="0.8" stop-color="#966B28"/>
<stop offset="1" stop-color="#EED46A"/>
</linearGradient>
</defs>
</svg>
