<svg width="204" height="139" viewBox="0 0 204 139" fill="none" xmlns="http://www.w3.org/2000/svg">
<g filter="url(#filter0_d_2125_285)">
<path d="M60.688 69.224C60.688 67.592 61.064 66.128 61.816 64.832C62.584 63.536 63.616 62.528 64.912 61.808C66.224 61.072 67.656 60.704 69.208 60.704C70.984 60.704 72.56 61.144 73.936 62.024C75.3281 62.888 76.3361 64.12 76.96 65.72H73.672C73.24 64.84 72.64 64.184 71.872 63.752C71.104 63.32 70.216 63.104 69.208 63.104C68.104 63.104 67.12 63.352 66.256 63.848C65.392 64.344 64.712 65.056 64.216 65.984C63.736 66.912 63.496 67.992 63.496 69.224C63.496 70.456 63.736 71.536 64.216 72.464C64.712 73.392 65.392 74.112 66.256 74.624C67.12 75.12 68.104 75.368 69.208 75.368C70.216 75.368 71.104 75.152 71.872 74.72C72.64 74.288 73.24 73.632 73.672 72.752H76.96C76.3361 74.352 75.3281 75.584 73.936 76.448C72.56 77.312 70.984 77.744 69.208 77.744C67.64 77.744 66.208 77.384 64.912 76.664C63.616 75.928 62.584 74.912 61.816 73.616C61.064 72.32 60.688 70.856 60.688 69.224ZM79.2505 70.928C79.2505 69.6 79.5225 68.424 80.0665 67.4C80.6265 66.376 81.3785 65.584 82.3225 65.024C83.2825 64.448 84.3385 64.16 85.4905 64.16C86.5305 64.16 87.4345 64.368 88.2025 64.784C88.9865 65.184 89.6105 65.688 90.0745 66.296V64.376H92.8345V77.6H90.0745V75.632C89.6105 76.256 88.9785 76.776 88.1785 77.192C87.3785 77.608 86.4665 77.816 85.4425 77.816C84.3065 77.816 83.2665 77.528 82.3225 76.952C81.3785 76.36 80.6265 75.544 80.0665 74.504C79.5225 73.448 79.2505 72.256 79.2505 70.928ZM90.0745 70.976C90.0745 70.064 89.8825 69.272 89.4985 68.6C89.1305 67.928 88.6425 67.416 88.0345 67.064C87.4265 66.712 86.7705 66.536 86.0665 66.536C85.3625 66.536 84.7065 66.712 84.0985 67.064C83.4905 67.4 82.9945 67.904 82.6105 68.576C82.2425 69.232 82.0585 70.016 82.0585 70.928C82.0585 71.84 82.2425 72.64 82.6105 73.328C82.9945 74.016 83.4905 74.544 84.0985 74.912C84.7225 75.264 85.3785 75.44 86.0665 75.44C86.7705 75.44 87.4265 75.264 88.0345 74.912C88.6425 74.56 89.1305 74.048 89.4985 73.376C89.8825 72.688 90.0745 71.888 90.0745 70.976ZM101.228 77.816C100.188 77.816 99.2522 77.632 98.4202 77.264C97.6042 76.88 96.9562 76.368 96.4762 75.728C95.9962 75.072 95.7402 74.344 95.7082 73.544H98.5402C98.5882 74.104 98.8522 74.576 99.3322 74.96C99.8282 75.328 100.444 75.512 101.18 75.512C101.948 75.512 102.54 75.368 102.956 75.08C103.388 74.776 103.604 74.392 103.604 73.928C103.604 73.432 103.364 73.064 102.884 72.824C102.42 72.584 101.676 72.32 100.652 72.032C99.6602 71.76 98.8522 71.496 98.2282 71.24C97.6042 70.984 97.0602 70.592 96.5962 70.064C96.1482 69.536 95.9242 68.84 95.9242 67.976C95.9242 67.272 96.1322 66.632 96.5482 66.056C96.9642 65.464 97.5562 65 98.3242 64.664C99.1082 64.328 100.004 64.16 101.012 64.16C102.516 64.16 103.724 64.544 104.636 65.312C105.564 66.064 106.06 67.096 106.124 68.408H103.388C103.34 67.816 103.1 67.344 102.668 66.992C102.236 66.64 101.652 66.464 100.916 66.464C100.196 66.464 99.6442 66.6 99.2602 66.872C98.8762 67.144 98.6842 67.504 98.6842 67.952C98.6842 68.304 98.8122 68.6 99.0682 68.84C99.3242 69.08 99.6362 69.272 100.004 69.416C100.372 69.544 100.916 69.712 101.636 69.92C102.596 70.176 103.38 70.44 103.988 70.712C104.612 70.968 105.148 71.352 105.596 71.864C106.044 72.376 106.276 73.056 106.292 73.904C106.292 74.656 106.084 75.328 105.668 75.92C105.252 76.512 104.66 76.976 103.892 77.312C103.14 77.648 102.252 77.816 101.228 77.816ZM110.64 62.624C110.144 62.624 109.728 62.456 109.392 62.12C109.056 61.784 108.888 61.368 108.888 60.872C108.888 60.376 109.056 59.96 109.392 59.624C109.728 59.288 110.144 59.12 110.64 59.12C111.12 59.12 111.528 59.288 111.864 59.624C112.2 59.96 112.368 60.376 112.368 60.872C112.368 61.368 112.2 61.784 111.864 62.12C111.528 62.456 111.12 62.624 110.64 62.624ZM111.984 64.376V77.6H109.248V64.376H111.984ZM122.249 64.16C123.289 64.16 124.217 64.376 125.033 64.808C125.865 65.24 126.513 65.88 126.977 66.728C127.441 67.576 127.673 68.6 127.673 69.8V77.6H124.961V70.208C124.961 69.024 124.665 68.12 124.073 67.496C123.481 66.856 122.673 66.536 121.649 66.536C120.625 66.536 119.809 66.856 119.201 67.496C118.609 68.12 118.313 69.024 118.313 70.208V77.6H115.577V64.376H118.313V65.888C118.761 65.344 119.329 64.92 120.017 64.616C120.721 64.312 121.465 64.16 122.249 64.16ZM136.899 77.816C135.651 77.816 134.523 77.536 133.515 76.976C132.507 76.4 131.715 75.6 131.139 74.576C130.563 73.536 130.275 72.336 130.275 70.976C130.275 69.632 130.571 68.44 131.163 67.4C131.755 66.36 132.563 65.56 133.587 65C134.611 64.44 135.755 64.16 137.019 64.16C138.283 64.16 139.427 64.44 140.451 65C141.475 65.56 142.283 66.36 142.875 67.4C143.467 68.44 143.763 69.632 143.763 70.976C143.763 72.32 143.459 73.512 142.851 74.552C142.243 75.592 141.411 76.4 140.355 76.976C139.315 77.536 138.163 77.816 136.899 77.816ZM136.899 75.44C137.603 75.44 138.259 75.272 138.867 74.936C139.491 74.6 139.995 74.096 140.379 73.424C140.763 72.752 140.955 71.936 140.955 70.976C140.955 70.016 140.771 69.208 140.403 68.552C140.035 67.88 139.547 67.376 138.939 67.04C138.331 66.704 137.675 66.536 136.971 66.536C136.267 66.536 135.611 66.704 135.003 67.04C134.411 67.376 133.939 67.88 133.587 68.552C133.235 69.208 133.059 70.016 133.059 70.976C133.059 72.4 133.419 73.504 134.139 74.288C134.875 75.056 135.795 75.44 136.899 75.44Z" fill="#B4FFFF"/>
</g>
<defs>
<filter id="filter0_d_2125_285" x="0.687988" y="0.119995" width="203.074" height="138.696" filterUnits="userSpaceOnUse" color-interpolation-filters="sRGB">
<feFlood flood-opacity="0" result="BackgroundImageFix"/>
<feColorMatrix in="SourceAlpha" type="matrix" values="0 0 0 0 0 0 0 0 0 0 0 0 0 0 0 0 0 0 127 0" result="hardAlpha"/>
<feOffset dy="1"/>
<feGaussianBlur stdDeviation="30"/>
<feComposite in2="hardAlpha" operator="out"/>
<feColorMatrix type="matrix" values="0 0 0 0 0.827451 0 0 0 0 0.87451 0 0 0 0 0.905882 0 0 0 1 0"/>
<feBlend mode="normal" in2="BackgroundImageFix" result="effect1_dropShadow_2125_285"/>
<feBlend mode="normal" in="SourceGraphic" in2="effect1_dropShadow_2125_285" result="shape"/>
</filter>
</defs>
</svg>
