<svg width="531" height="306" viewBox="0 0 531 306" fill="none" xmlns="http://www.w3.org/2000/svg">
<rect x="118" y="117.56" width="294.47" height="70.4" rx="35.2" fill="url(#paint0_linear_2185_3738)"/>
<rect opacity="0.05" x="118" y="117.56" width="294.47" height="70.4637" rx="35.2318" fill="url(#paint1_linear_2185_3738)"/>
<rect x="118" y="117.56" width="294.47" height="70.4" rx="35.2" fill="url(#paint2_linear_2185_3738)"/>
<path d="M139.353 152.052C139.353 150.72 139.641 149.536 140.217 148.5C140.793 147.45 141.593 146.637 142.617 146.061C143.654 145.472 144.825 145.178 146.13 145.178C147.73 145.178 149.1 145.6 150.239 146.445C151.378 147.29 152.14 148.442 152.524 149.901H148.914C148.646 149.338 148.262 148.909 147.762 148.615C147.276 148.32 146.719 148.173 146.092 148.173C145.081 148.173 144.262 148.525 143.634 149.229C143.007 149.933 142.694 150.874 142.694 152.052C142.694 153.229 143.007 154.17 143.634 154.874C144.262 155.578 145.081 155.93 146.092 155.93C146.719 155.93 147.276 155.783 147.762 155.488C148.262 155.194 148.646 154.765 148.914 154.202H152.524C152.14 155.661 151.378 156.813 150.239 157.658C149.1 158.49 147.73 158.906 146.13 158.906C144.825 158.906 143.654 158.618 142.617 158.042C141.593 157.453 140.793 156.64 140.217 155.604C139.641 154.567 139.353 153.383 139.353 152.052ZM157.818 149.882C158.202 149.293 158.682 148.832 159.258 148.5C159.834 148.154 160.474 147.981 161.178 147.981V151.456H160.275C159.456 151.456 158.842 151.636 158.432 151.994C158.023 152.34 157.818 152.954 157.818 153.837V158.81H154.535V148.096H157.818V149.882ZM172.846 153.28C172.846 153.588 172.827 153.908 172.789 154.24H165.358C165.41 154.906 165.621 155.418 165.992 155.776C166.376 156.122 166.843 156.295 167.394 156.295C168.213 156.295 168.782 155.949 169.102 155.258H172.597C172.418 155.962 172.091 156.596 171.618 157.159C171.157 157.722 170.574 158.164 169.87 158.484C169.166 158.804 168.379 158.964 167.509 158.964C166.459 158.964 165.525 158.74 164.706 158.292C163.886 157.844 163.246 157.204 162.786 156.372C162.325 155.54 162.094 154.567 162.094 153.453C162.094 152.34 162.318 151.367 162.766 150.535C163.227 149.703 163.867 149.063 164.686 148.615C165.506 148.167 166.446 147.943 167.509 147.943C168.546 147.943 169.467 148.16 170.274 148.596C171.08 149.031 171.707 149.652 172.155 150.458C172.616 151.264 172.846 152.205 172.846 153.28ZM169.486 152.416C169.486 151.853 169.294 151.405 168.91 151.072C168.526 150.74 168.046 150.573 167.47 150.573C166.92 150.573 166.453 150.733 166.069 151.053C165.698 151.373 165.467 151.828 165.378 152.416H169.486ZM173.926 153.434C173.926 152.333 174.13 151.367 174.54 150.535C174.962 149.703 175.532 149.063 176.249 148.615C176.966 148.167 177.766 147.943 178.649 147.943C179.404 147.943 180.063 148.096 180.626 148.404C181.202 148.711 181.644 149.114 181.951 149.613V148.096H185.234V158.81H181.951V157.293C181.631 157.792 181.183 158.196 180.607 158.503C180.044 158.81 179.385 158.964 178.63 158.964C177.759 158.964 176.966 158.74 176.249 158.292C175.532 157.831 174.962 157.184 174.54 156.352C174.13 155.508 173.926 154.535 173.926 153.434ZM181.951 153.453C181.951 152.634 181.721 151.988 181.26 151.514C180.812 151.04 180.262 150.804 179.609 150.804C178.956 150.804 178.399 151.04 177.938 151.514C177.49 151.975 177.266 152.615 177.266 153.434C177.266 154.253 177.49 154.906 177.938 155.392C178.399 155.866 178.956 156.103 179.609 156.103C180.262 156.103 180.812 155.866 181.26 155.392C181.721 154.919 181.951 154.272 181.951 153.453ZM193.581 156.026V158.81H191.91C190.72 158.81 189.792 158.522 189.126 157.946C188.461 157.357 188.128 156.404 188.128 155.085V150.823H186.822V148.096H188.128V145.485H191.411V148.096H193.562V150.823H191.411V155.124C191.411 155.444 191.488 155.674 191.642 155.815C191.795 155.956 192.051 156.026 192.41 156.026H193.581ZM205.509 153.28C205.509 153.588 205.49 153.908 205.451 154.24H198.021C198.072 154.906 198.283 155.418 198.654 155.776C199.038 156.122 199.506 156.295 200.056 156.295C200.875 156.295 201.445 155.949 201.765 155.258H205.259C205.08 155.962 204.754 156.596 204.28 157.159C203.819 157.722 203.237 158.164 202.533 158.484C201.829 158.804 201.042 158.964 200.171 158.964C199.122 158.964 198.187 158.74 197.368 158.292C196.549 157.844 195.909 157.204 195.448 156.372C194.987 155.54 194.757 154.567 194.757 153.453C194.757 152.34 194.981 151.367 195.429 150.535C195.89 149.703 196.53 149.063 197.349 148.615C198.168 148.167 199.109 147.943 200.171 147.943C201.208 147.943 202.13 148.16 202.936 148.596C203.742 149.031 204.37 149.652 204.818 150.458C205.278 151.264 205.509 152.205 205.509 153.28ZM202.149 152.416C202.149 151.853 201.957 151.405 201.573 151.072C201.189 150.74 200.709 150.573 200.133 150.573C199.582 150.573 199.115 150.733 198.731 151.053C198.36 151.373 198.13 151.828 198.04 152.416H202.149ZM222.868 145.332L218.202 154.356V158.81H214.919V154.356L210.254 145.332H213.978L216.59 150.976L219.182 145.332H222.868ZM229.068 158.964C228.018 158.964 227.071 158.74 226.226 158.292C225.394 157.844 224.735 157.204 224.248 156.372C223.775 155.54 223.538 154.567 223.538 153.453C223.538 152.352 223.781 151.386 224.268 150.554C224.754 149.709 225.42 149.063 226.264 148.615C227.109 148.167 228.056 147.943 229.106 147.943C230.156 147.943 231.103 148.167 231.948 148.615C232.792 149.063 233.458 149.709 233.944 150.554C234.431 151.386 234.674 152.352 234.674 153.453C234.674 154.554 234.424 155.527 233.925 156.372C233.439 157.204 232.767 157.844 231.909 158.292C231.064 158.74 230.117 158.964 229.068 158.964ZM229.068 156.122C229.695 156.122 230.226 155.892 230.661 155.431C231.109 154.97 231.333 154.311 231.333 153.453C231.333 152.596 231.116 151.936 230.68 151.476C230.258 151.015 229.733 150.784 229.106 150.784C228.466 150.784 227.935 151.015 227.512 151.476C227.09 151.924 226.879 152.583 226.879 153.453C226.879 154.311 227.084 154.97 227.493 155.431C227.916 155.892 228.44 156.122 229.068 156.122ZM246.995 148.096V158.81H243.712V157.351C243.379 157.824 242.925 158.208 242.349 158.503C241.785 158.784 241.158 158.925 240.467 158.925C239.648 158.925 238.925 158.746 238.297 158.388C237.67 158.016 237.184 157.485 236.838 156.794C236.493 156.103 236.32 155.29 236.32 154.356V148.096H239.584V153.914C239.584 154.631 239.769 155.188 240.141 155.584C240.512 155.981 241.011 156.18 241.638 156.18C242.278 156.18 242.784 155.981 243.155 155.584C243.526 155.188 243.712 154.631 243.712 153.914V148.096H246.995ZM252.637 149.882C253.021 149.293 253.501 148.832 254.077 148.5C254.653 148.154 255.293 147.981 255.997 147.981V151.456H255.094C254.275 151.456 253.661 151.636 253.251 151.994C252.841 152.34 252.637 152.954 252.637 153.837V158.81H249.353V148.096H252.637V149.882ZM270.025 156.429H264.995L264.188 158.81H260.751L265.628 145.332H269.43L274.307 158.81H270.831L270.025 156.429ZM269.18 153.895L267.51 148.96L265.859 153.895H269.18ZM275.138 153.453C275.138 152.34 275.362 151.367 275.81 150.535C276.271 149.703 276.904 149.063 277.711 148.615C278.53 148.167 279.464 147.943 280.514 147.943C281.858 147.943 282.978 148.295 283.874 148.999C284.783 149.703 285.378 150.695 285.66 151.975H282.165C281.871 151.156 281.301 150.746 280.456 150.746C279.855 150.746 279.375 150.983 279.016 151.456C278.658 151.917 278.479 152.583 278.479 153.453C278.479 154.324 278.658 154.996 279.016 155.469C279.375 155.93 279.855 156.16 280.456 156.16C281.301 156.16 281.871 155.751 282.165 154.932H285.66C285.378 156.186 284.783 157.172 283.874 157.888C282.965 158.605 281.845 158.964 280.514 158.964C279.464 158.964 278.53 158.74 277.711 158.292C276.904 157.844 276.271 157.204 275.81 156.372C275.362 155.54 275.138 154.567 275.138 153.453ZM286.763 153.453C286.763 152.34 286.987 151.367 287.435 150.535C287.896 149.703 288.529 149.063 289.336 148.615C290.155 148.167 291.089 147.943 292.139 147.943C293.483 147.943 294.603 148.295 295.499 148.999C296.408 149.703 297.003 150.695 297.285 151.975H293.79C293.496 151.156 292.926 150.746 292.081 150.746C291.48 150.746 291 150.983 290.641 151.456C290.283 151.917 290.104 152.583 290.104 153.453C290.104 154.324 290.283 154.996 290.641 155.469C291 155.93 291.48 156.16 292.081 156.16C292.926 156.16 293.496 155.751 293.79 154.932H297.285C297.003 156.186 296.408 157.172 295.499 157.888C294.59 158.605 293.47 158.964 292.139 158.964C291.089 158.964 290.155 158.74 289.336 158.292C288.529 157.844 287.896 157.204 287.435 156.372C286.987 155.54 286.763 154.567 286.763 153.453ZM303.918 158.964C302.868 158.964 301.921 158.74 301.076 158.292C300.244 157.844 299.585 157.204 299.098 156.372C298.625 155.54 298.388 154.567 298.388 153.453C298.388 152.352 298.631 151.386 299.118 150.554C299.604 149.709 300.27 149.063 301.114 148.615C301.959 148.167 302.906 147.943 303.956 147.943C305.006 147.943 305.953 148.167 306.798 148.615C307.642 149.063 308.308 149.709 308.794 150.554C309.281 151.386 309.524 152.352 309.524 153.453C309.524 154.554 309.274 155.527 308.775 156.372C308.289 157.204 307.617 157.844 306.759 158.292C305.914 158.74 304.967 158.964 303.918 158.964ZM303.918 156.122C304.545 156.122 305.076 155.892 305.511 155.431C305.959 154.97 306.183 154.311 306.183 153.453C306.183 152.596 305.966 151.936 305.53 151.476C305.108 151.015 304.583 150.784 303.956 150.784C303.316 150.784 302.785 151.015 302.362 151.476C301.94 151.924 301.729 152.583 301.729 153.453C301.729 154.311 301.934 154.97 302.343 155.431C302.766 155.892 303.29 156.122 303.918 156.122ZM321.845 148.096V158.81H318.562V157.351C318.229 157.824 317.775 158.208 317.199 158.503C316.636 158.784 316.008 158.925 315.317 158.925C314.498 158.925 313.775 158.746 313.148 158.388C312.52 158.016 312.034 157.485 311.688 156.794C311.343 156.103 311.17 155.29 311.17 154.356V148.096H314.434V153.914C314.434 154.631 314.62 155.188 314.991 155.584C315.362 155.981 315.861 156.18 316.488 156.18C317.128 156.18 317.634 155.981 318.005 155.584C318.376 155.188 318.562 154.631 318.562 153.914V148.096H321.845ZM330.731 147.981C331.986 147.981 332.984 148.391 333.727 149.21C334.482 150.016 334.859 151.13 334.859 152.551V158.81H331.595V152.992C331.595 152.276 331.41 151.719 331.039 151.322C330.667 150.925 330.168 150.727 329.541 150.727C328.914 150.727 328.415 150.925 328.043 151.322C327.672 151.719 327.487 152.276 327.487 152.992V158.81H324.203V148.096H327.487V149.517C327.819 149.044 328.267 148.672 328.831 148.404C329.394 148.122 330.027 147.981 330.731 147.981ZM343.112 156.026V158.81H341.442C340.251 158.81 339.323 158.522 338.658 157.946C337.992 157.357 337.659 156.404 337.659 155.085V150.823H336.354V148.096H337.659V145.485H340.943V148.096H343.093V150.823H340.943V155.124C340.943 155.444 341.019 155.674 341.173 155.815C341.327 155.956 341.583 156.026 341.941 156.026H343.112Z" fill="#1A1C1E"/>
<a href="https://www.cloudbet.com/en/auth/sign-up">
<rect fill="black" fill-opacity="0" x="0.484367" y="-9.53674e-07" width="205.026" height="28.8"/>
</a>
<g clip-path="url(#clip0_2185_3738)">
<rect x="353.835" y="128.76" width="48" height="48" rx="24" fill="#1A1C1E"/>
<path d="M379.244 144.469L387.57 152.795M387.57 152.795L379.244 161.121M387.57 152.795H367.587" stroke="url(#paint3_linear_2185_3738)" stroke-width="3.48387" stroke-linecap="round" stroke-linejoin="round"/>
</g>
<defs>
<linearGradient id="paint0_linear_2185_3738" x1="265.235" y1="117.56" x2="265.235" y2="187.96" gradientUnits="userSpaceOnUse">
<stop stop-color="#F0C21A"/>
<stop offset="0.15" stop-color="#966B28"/>
<stop offset="0.325" stop-color="#D0AD6A"/>
<stop offset="0.5" stop-color="#FDEECA"/>
<stop offset="0.64" stop-color="#EED46A"/>
<stop offset="0.8" stop-color="#966B28"/>
<stop offset="1" stop-color="#EED46A"/>
</linearGradient>
<linearGradient id="paint1_linear_2185_3738" x1="265.235" y1="117.56" x2="265.235" y2="188.024" gradientUnits="userSpaceOnUse">
<stop stop-color="#F0C21A"/>
<stop offset="0.15" stop-color="#966B28"/>
<stop offset="0.325" stop-color="#D0AD6A"/>
<stop offset="0.5" stop-color="#FDEECA"/>
<stop offset="0.64" stop-color="#EED46A"/>
<stop offset="0.8" stop-color="#966B28"/>
<stop offset="1" stop-color="#EED46A"/>
</linearGradient>
<linearGradient id="paint2_linear_2185_3738" x1="265.235" y1="117.56" x2="265.235" y2="187.96" gradientUnits="userSpaceOnUse">
<stop stop-color="#F0C21A"/>
<stop offset="0.15" stop-color="#966B28"/>
<stop offset="0.325" stop-color="#D0AD6A"/>
<stop offset="0.5" stop-color="#FDEECA"/>
<stop offset="0.64" stop-color="#EED46A"/>
<stop offset="0.8" stop-color="#966B28"/>
<stop offset="1" stop-color="#EED46A"/>
</linearGradient>
<linearGradient id="paint3_linear_2185_3738" x1="377.579" y1="144.469" x2="377.579" y2="161.121" gradientUnits="userSpaceOnUse">
<stop stop-color="#F0C21A"/>
<stop offset="0.15" stop-color="#966B28"/>
<stop offset="0.325" stop-color="#D0AD6A"/>
<stop offset="0.5" stop-color="#FDEECA"/>
<stop offset="0.64" stop-color="#EED46A"/>
<stop offset="0.8" stop-color="#966B28"/>
<stop offset="1" stop-color="#EED46A"/>
</linearGradient>
<clipPath id="clip0_2185_3738">
<rect x="353.835" y="128.76" width="48" height="48" rx="24" fill="white"/>
</clipPath>
</defs>
</svg>
