<svg width="98" height="39" viewBox="0 0 98 39" fill="none" xmlns="http://www.w3.org/2000/svg">
<g clip-path="url(#clip0_2138_436)">
<g clip-path="url(#clip1_2138_436)">
<g clip-path="url(#clip2_2138_436)">
<mask id="mask0_2138_436" style="mask-type:luminance" maskUnits="userSpaceOnUse" x="0" y="5" width="46" height="34">
<path d="M40.5581 5.00098H4.96151C2.42481 5.00098 0.368408 7.05738 0.368408 9.59408V33.7079C0.368408 36.2446 2.42481 38.301 4.96151 38.301H40.5581C43.0948 38.301 45.1512 36.2446 45.1512 33.7079V9.59408C45.1512 7.05738 43.0948 5.00098 40.5581 5.00098Z" fill="white"/>
</mask>
<g mask="url(#mask0_2138_436)">
<path d="M40.5581 5.00098H4.96151C2.42481 5.00098 0.368408 7.05738 0.368408 9.59408V33.7079C0.368408 36.2446 2.42481 38.301 4.96151 38.301H40.5581C43.0948 38.301 45.1512 36.2446 45.1512 33.7079V9.59408C45.1512 7.05738 43.0948 5.00098 40.5581 5.00098Z" fill="#E2E2E6"/>
<mask id="mask1_2138_436" style="mask-type:luminance" maskUnits="userSpaceOnUse" x="2" y="15" width="45" height="13">
<path d="M46.1515 15.5215H2.51929V27.7798H46.1515V15.5215Z" fill="white"/>
</mask>
<g mask="url(#mask1_2138_436)">
<path d="M30.61 16.0256C30.0061 15.786 29.0483 15.5215 27.8639 15.5215C24.8403 15.5215 22.7111 17.1339 22.6981 19.439C22.6729 21.1398 24.2225 22.0844 25.3813 22.6515C26.5659 23.231 26.9686 23.6091 26.9686 24.1257C26.9566 24.919 26.0115 25.2847 25.13 25.2847C23.9075 25.2847 23.2526 25.0961 22.2571 24.6547L21.8541 24.4656L21.4255 27.1237C22.1437 27.4509 23.4667 27.7412 24.8403 27.7538C28.0529 27.7538 30.1445 26.1666 30.1693 23.7099C30.1815 22.362 29.3632 21.3291 27.5992 20.4851C26.5284 19.9433 25.8726 19.578 25.8726 19.0236C25.8851 18.5196 26.4272 18.0035 27.636 18.0035C28.6314 17.9782 29.3628 18.2174 29.9168 18.4568L30.1937 18.5825L30.61 16.0256Z" fill="#1A1F71"/>
<path d="M19.5109 27.5777H16.449L18.3641 15.7363H21.4256L19.5109 27.5777Z" fill="#1A1F71"/>
<path fill-rule="evenodd" clip-rule="evenodd" d="M38.4597 15.7363H36.0915C35.361 15.7363 34.8063 15.9503 34.4911 16.7188L29.9434 27.5774H33.1559C33.1559 27.5774 33.6849 26.1159 33.7985 25.8012H37.7296C37.8174 26.2168 38.0949 27.5774 38.0949 27.5774H40.9298L38.4597 15.7363ZM34.6803 23.3827C34.9325 22.7024 35.9027 20.0696 35.9027 20.0696C35.8977 20.0797 35.9371 19.9703 35.9959 19.8072L35.9967 19.8052L35.9971 19.804C36.085 19.5603 36.2155 19.1986 36.3056 18.9359L36.5197 19.9562C36.5197 19.9562 37.0993 22.7906 37.2253 23.3827H34.6803Z" fill="#1A1F71"/>
<path d="M13.891 15.7363L10.8924 23.811L10.5648 22.1733L9.49391 16.7317C9.31761 15.9754 8.7758 15.7613 8.1081 15.7363H3.18199L3.13159 15.9756C4.33306 16.2828 5.40765 16.7255 6.34921 17.276L9.07818 27.565H12.3159L17.1284 15.7363H13.891Z" fill="#1A1F71"/>
</g>
</g>
</g>
</g>
</g>
<g clip-path="url(#clip3_2138_436)">
<g clip-path="url(#clip4_2138_436)">
<g clip-path="url(#clip5_2138_436)">
<path d="M93.3581 5.00098H57.7616C55.2249 5.00098 53.1685 7.05738 53.1685 9.59408V33.7079C53.1685 36.2446 55.2249 38.301 57.7616 38.301H93.3581C95.8948 38.301 97.9512 36.2446 97.9512 33.7079V9.59408C97.9512 7.05738 95.8948 5.00098 93.3581 5.00098Z" fill="#E2E2E6"/>
<path d="M81.0487 30.0048H71.7495V13.2974H81.0489L81.0487 30.0048Z" fill="#FF5F00"/>
<path d="M72.3394 21.651C72.3394 18.262 73.9266 15.2428 76.3983 13.2972C74.5272 11.8223 72.2132 11.0218 69.8306 11.0254C63.9615 11.0254 59.2036 15.7826 59.2036 21.651C59.2036 27.5194 63.9614 32.2766 69.8306 32.2766C72.2133 32.2802 74.5274 31.4797 76.3985 30.0047C73.927 28.0595 72.3394 25.0403 72.3394 21.651Z" fill="#EB001B"/>
<path d="M93.5968 21.651C93.5968 27.5194 88.839 32.2766 82.9696 32.2766C80.5868 32.2801 78.2725 31.4797 76.4009 30.0047C78.8733 28.0592 80.4606 25.0403 80.4606 21.651C80.4606 18.2617 78.8733 15.2428 76.4009 13.2972C78.2723 11.8223 80.5867 11.0219 82.9695 11.0254C88.8388 11.0254 93.5968 15.7826 93.5968 21.651Z" fill="#F79E1B"/>
</g>
</g>
</g>
<defs>
<clipPath id="clip0_2138_436">
<rect width="44.8" height="33.3" fill="white" transform="translate(0.359863 5.00098)"/>
</clipPath>
<clipPath id="clip1_2138_436">
<rect width="44.8" height="33.3" fill="white" transform="translate(0.359863 5.00098)"/>
</clipPath>
<clipPath id="clip2_2138_436">
<rect width="44.7828" height="33.3" fill="white" transform="translate(0.368408 5.00098)"/>
</clipPath>
<clipPath id="clip3_2138_436">
<rect width="44.8" height="33.3" fill="white" transform="translate(53.1599 5.00098)"/>
</clipPath>
<clipPath id="clip4_2138_436">
<rect width="44.8" height="33.3" fill="white" transform="translate(53.1599 5.00098)"/>
</clipPath>
<clipPath id="clip5_2138_436">
<rect width="44.7828" height="33.3" fill="white" transform="translate(53.1685 5.00098)"/>
</clipPath>
</defs>
</svg>
