<svg width="323" height="189" viewBox="0 0 323 189" fill="none" xmlns="http://www.w3.org/2000/svg">
<rect x="72" y="59.5601" width="178.81" height="70.4" rx="35.2" fill="#81C883"/>
<rect opacity="0.05" x="72" y="59.5601" width="178.81" height="70.4308" rx="35.2154" fill="#81C883"/>
<rect x="72" y="59.5601" width="178.81" height="70.4" rx="35.2" fill="url(#paint0_linear_2185_4261)"/>
<path d="M102.405 87.3317V96.5093C102.405 97.9301 102.002 99.0245 101.195 99.7925C100.402 100.56 99.3264 100.944 97.9696 100.944C96.5488 100.944 95.4096 100.541 94.552 99.7349C93.6944 98.9285 93.2656 97.7829 93.2656 96.2981H96.5296C96.5296 96.8613 96.6448 97.2901 96.8752 97.5845C97.1056 97.8661 97.4384 98.0069 97.8736 98.0069C98.2704 98.0069 98.5776 97.8789 98.7952 97.6229C99.0128 97.3669 99.1216 96.9957 99.1216 96.5093V87.3317H102.405ZM109.934 100.964C108.884 100.964 107.937 100.74 107.092 100.292C106.26 99.8437 105.601 99.2037 105.114 98.3717C104.641 97.5397 104.404 96.5669 104.404 95.4533C104.404 94.3525 104.647 93.3861 105.134 92.5541C105.62 91.7093 106.286 91.0629 107.13 90.6149C107.975 90.1669 108.922 89.9429 109.972 89.9429C111.022 89.9429 111.969 90.1669 112.814 90.6149C113.658 91.0629 114.324 91.7093 114.81 92.5541C115.297 93.3861 115.54 94.3525 115.54 95.4533C115.54 96.5541 115.29 97.5269 114.791 98.3717C114.305 99.2037 113.633 99.8437 112.775 100.292C111.93 100.74 110.983 100.964 109.934 100.964ZM109.934 98.1221C110.561 98.1221 111.092 97.8917 111.527 97.4309C111.975 96.9701 112.199 96.3109 112.199 95.4533C112.199 94.5957 111.982 93.9365 111.546 93.4757C111.124 93.0149 110.599 92.7845 109.972 92.7845C109.332 92.7845 108.801 93.0149 108.378 93.4757C107.956 93.9237 107.745 94.5829 107.745 95.4533C107.745 96.3109 107.95 96.9701 108.359 97.4309C108.782 97.8917 109.306 98.1221 109.934 98.1221ZM118.933 88.9829C118.357 88.9829 117.883 88.8165 117.512 88.4837C117.154 88.1381 116.975 87.7157 116.975 87.2165C116.975 86.7045 117.154 86.2821 117.512 85.9493C117.883 85.6037 118.357 85.4309 118.933 85.4309C119.496 85.4309 119.957 85.6037 120.315 85.9493C120.687 86.2821 120.872 86.7045 120.872 87.2165C120.872 87.7157 120.687 88.1381 120.315 88.4837C119.957 88.8165 119.496 88.9829 118.933 88.9829ZM120.565 90.0965V100.81H117.282V90.0965H120.565ZM129.472 89.9813C130.727 89.9813 131.725 90.3909 132.468 91.2101C133.223 92.0165 133.6 93.1301 133.6 94.5509V100.81H130.336V94.9925C130.336 94.2757 130.151 93.7189 129.78 93.3221C129.408 92.9253 128.909 92.7269 128.282 92.7269C127.655 92.7269 127.156 92.9253 126.784 93.3221C126.413 93.7189 126.228 94.2757 126.228 94.9925V100.81H122.944V90.0965H126.228V91.5173C126.56 91.0437 127.008 90.6725 127.572 90.4037C128.135 90.1221 128.768 89.9813 129.472 89.9813ZM152.008 100.81H148.725L143.234 92.4965V100.81H139.951V87.3317H143.234L148.725 95.6837V87.3317H152.008V100.81ZM159.265 100.964C158.215 100.964 157.268 100.74 156.423 100.292C155.591 99.8437 154.932 99.2037 154.446 98.3717C153.972 97.5397 153.735 96.5669 153.735 95.4533C153.735 94.3525 153.978 93.3861 154.465 92.5541C154.951 91.7093 155.617 91.0629 156.462 90.6149C157.306 90.1669 158.254 89.9429 159.303 89.9429C160.353 89.9429 161.3 90.1669 162.145 90.6149C162.99 91.0629 163.655 91.7093 164.142 92.5541C164.628 93.3861 164.871 94.3525 164.871 95.4533C164.871 96.5541 164.622 97.5269 164.122 98.3717C163.636 99.2037 162.964 99.8437 162.106 100.292C161.262 100.74 160.314 100.964 159.265 100.964ZM159.265 98.1221C159.892 98.1221 160.423 97.8917 160.858 97.4309C161.306 96.9701 161.53 96.3109 161.53 95.4533C161.53 94.5957 161.313 93.9365 160.878 93.4757C160.455 93.0149 159.93 92.7845 159.303 92.7845C158.663 92.7845 158.132 93.0149 157.71 93.4757C157.287 93.9237 157.076 94.5829 157.076 95.4533C157.076 96.3109 157.281 96.9701 157.69 97.4309C158.113 97.8917 158.638 98.1221 159.265 98.1221ZM181.992 90.0965L179.093 100.81H175.464L173.775 93.8597L172.027 100.81H168.418L165.499 90.0965H168.783L170.299 97.7573L172.104 90.0965H175.579L177.403 97.7189L178.901 90.0965H181.992Z" fill="#1A1C1E"/>
<a href="https://www.cloudbet.com/en/auth/sign-up">
<rect fill="black" fill-opacity="0" x="0.356247" y="-9.53674e-07" width="89.2834" height="28.8"/>
</a>
<g clip-path="url(#clip0_2185_4261)">
<rect x="192.01" y="70.7603" width="48" height="48" rx="24" fill="#1A1C1E"/>
<path d="M217.419 86.4688L225.745 94.7951M225.745 94.7951L217.419 103.121M225.745 94.7951H205.762" stroke="url(#paint1_linear_2185_4261)" stroke-width="3.48387" stroke-linecap="round" stroke-linejoin="round"/>
</g>
<defs>
<linearGradient id="paint0_linear_2185_4261" x1="161.405" y1="59.5601" x2="161.405" y2="129.96" gradientUnits="userSpaceOnUse">
<stop stop-color="#F0C21A"/>
<stop offset="0.15" stop-color="#966B28"/>
<stop offset="0.325" stop-color="#D0AD6A"/>
<stop offset="0.5" stop-color="#FDEECA"/>
<stop offset="0.64" stop-color="#EED46A"/>
<stop offset="0.8" stop-color="#966B28"/>
<stop offset="1" stop-color="#EED46A"/>
</linearGradient>
<linearGradient id="paint1_linear_2185_4261" x1="215.754" y1="86.4688" x2="215.754" y2="103.121" gradientUnits="userSpaceOnUse">
<stop stop-color="#F0C21A"/>
<stop offset="0.15" stop-color="#966B28"/>
<stop offset="0.325" stop-color="#D0AD6A"/>
<stop offset="0.5" stop-color="#FDEECA"/>
<stop offset="0.64" stop-color="#EED46A"/>
<stop offset="0.8" stop-color="#966B28"/>
<stop offset="1" stop-color="#EED46A"/>
</linearGradient>
<clipPath id="clip0_2185_4261">
<rect x="192.01" y="70.7603" width="48" height="48" rx="24" fill="white"/>
</clipPath>
</defs>
</svg>
