<svg width="394" height="229" viewBox="0 0 394 229" fill="none" xmlns="http://www.w3.org/2000/svg">
<rect x="87.9551" y="79.47" width="218.39" height="70.4" rx="35.2" fill="#81C883"/>
<rect opacity="0.05" x="87.9551" y="79.47" width="218.39" height="70.4421" rx="35.221" fill="#81C883"/>
<rect x="87.9551" y="79.47" width="218.39" height="70.4" rx="35.2" fill="url(#paint0_linear_2185_2925)"/>
<path d="M118.34 107.242V116.419C118.34 117.84 117.936 118.934 117.13 119.702C116.336 120.47 115.261 120.854 113.904 120.854C112.484 120.854 111.344 120.451 110.487 119.645C109.629 118.838 109.2 117.693 109.2 116.208H112.464C112.464 116.771 112.58 117.2 112.81 117.494C113.04 117.776 113.373 117.917 113.808 117.917C114.205 117.917 114.512 117.789 114.73 117.533C114.948 117.277 115.056 116.906 115.056 116.419V107.242H118.34ZM125.868 120.874C124.819 120.874 123.872 120.65 123.027 120.202C122.195 119.754 121.536 119.114 121.049 118.282C120.576 117.45 120.339 116.477 120.339 115.363C120.339 114.262 120.582 113.296 121.068 112.464C121.555 111.619 122.22 110.973 123.065 110.525C123.91 110.077 124.857 109.853 125.907 109.853C126.956 109.853 127.904 110.077 128.748 110.525C129.593 110.973 130.259 111.619 130.745 112.464C131.232 113.296 131.475 114.262 131.475 115.363C131.475 116.464 131.225 117.437 130.726 118.282C130.24 119.114 129.568 119.754 128.71 120.202C127.865 120.65 126.918 120.874 125.868 120.874ZM125.868 118.032C126.496 118.032 127.027 117.802 127.462 117.341C127.91 116.88 128.134 116.221 128.134 115.363C128.134 114.506 127.916 113.846 127.481 113.386C127.059 112.925 126.534 112.694 125.907 112.694C125.267 112.694 124.736 112.925 124.313 113.386C123.891 113.834 123.68 114.493 123.68 115.363C123.68 116.221 123.884 116.88 124.294 117.341C124.716 117.802 125.241 118.032 125.868 118.032ZM134.868 108.893C134.292 108.893 133.818 108.726 133.447 108.394C133.089 108.048 132.909 107.626 132.909 107.126C132.909 106.614 133.089 106.192 133.447 105.859C133.818 105.514 134.292 105.341 134.868 105.341C135.431 105.341 135.892 105.514 136.25 105.859C136.621 106.192 136.807 106.614 136.807 107.126C136.807 107.626 136.621 108.048 136.25 108.394C135.892 108.726 135.431 108.893 134.868 108.893ZM136.5 110.006V120.72H133.217V110.006H136.5ZM145.407 109.891C146.662 109.891 147.66 110.301 148.402 111.12C149.158 111.926 149.535 113.04 149.535 114.461V120.72H146.271V114.902C146.271 114.186 146.086 113.629 145.714 113.232C145.343 112.835 144.844 112.637 144.217 112.637C143.59 112.637 143.09 112.835 142.719 113.232C142.348 113.629 142.162 114.186 142.162 114.902V120.72H138.879V110.006H142.162V111.427C142.495 110.954 142.943 110.582 143.506 110.314C144.07 110.032 144.703 109.891 145.407 109.891ZM161.857 117.936V120.72H160.186C158.996 120.72 158.068 120.432 157.402 119.856C156.737 119.267 156.404 118.314 156.404 116.995V112.733H155.098V110.006H156.404V107.395H159.687V110.006H161.837V112.733H159.687V117.034C159.687 117.354 159.764 117.584 159.917 117.725C160.071 117.866 160.327 117.936 160.685 117.936H161.857ZM170.271 109.891C171.5 109.891 172.485 110.301 173.228 111.12C173.97 111.926 174.341 113.04 174.341 114.461V120.72H171.077V114.902C171.077 114.186 170.892 113.629 170.521 113.232C170.149 112.835 169.65 112.637 169.023 112.637C168.396 112.637 167.897 112.835 167.525 113.232C167.154 113.629 166.969 114.186 166.969 114.902V120.72H163.685V106.512H166.969V111.446C167.301 110.973 167.756 110.595 168.332 110.314C168.908 110.032 169.554 109.891 170.271 109.891ZM186.722 115.19C186.722 115.498 186.703 115.818 186.665 116.15H179.234C179.285 116.816 179.497 117.328 179.868 117.686C180.252 118.032 180.719 118.205 181.269 118.205C182.089 118.205 182.658 117.859 182.978 117.168H186.473C186.293 117.872 185.967 118.506 185.493 119.069C185.033 119.632 184.45 120.074 183.746 120.394C183.042 120.714 182.255 120.874 181.385 120.874C180.335 120.874 179.401 120.65 178.581 120.202C177.762 119.754 177.122 119.114 176.661 118.282C176.201 117.45 175.97 116.477 175.97 115.363C175.97 114.25 176.194 113.277 176.642 112.445C177.103 111.613 177.743 110.973 178.562 110.525C179.381 110.077 180.322 109.853 181.385 109.853C182.421 109.853 183.343 110.07 184.149 110.506C184.956 110.941 185.583 111.562 186.031 112.368C186.492 113.174 186.722 114.115 186.722 115.19ZM183.362 114.326C183.362 113.763 183.17 113.315 182.786 112.982C182.402 112.65 181.922 112.483 181.346 112.483C180.796 112.483 180.329 112.643 179.945 112.963C179.573 113.283 179.343 113.738 179.253 114.326H183.362ZM191.966 113.962C191.966 112.63 192.254 111.446 192.83 110.41C193.406 109.36 194.206 108.547 195.23 107.971C196.267 107.382 197.438 107.088 198.744 107.088C200.344 107.088 201.713 107.51 202.853 108.355C203.992 109.2 204.753 110.352 205.137 111.811H201.528C201.259 111.248 200.875 110.819 200.376 110.525C199.889 110.23 199.333 110.083 198.705 110.083C197.694 110.083 196.875 110.435 196.248 111.139C195.621 111.843 195.307 112.784 195.307 113.962C195.307 115.139 195.621 116.08 196.248 116.784C196.875 117.488 197.694 117.84 198.705 117.84C199.333 117.84 199.889 117.693 200.376 117.398C200.875 117.104 201.259 116.675 201.528 116.112H205.137C204.753 117.571 203.992 118.723 202.853 119.568C201.713 120.4 200.344 120.816 198.744 120.816C197.438 120.816 196.267 120.528 195.23 119.952C194.206 119.363 193.406 118.55 192.83 117.514C192.254 116.477 191.966 115.293 191.966 113.962ZM210.431 106.512V120.72H207.148V106.512H210.431ZM223.39 110.006V120.72H220.106V119.261C219.774 119.734 219.319 120.118 218.743 120.413C218.18 120.694 217.553 120.835 216.862 120.835C216.042 120.835 215.319 120.656 214.692 120.298C214.065 119.926 213.578 119.395 213.233 118.704C212.887 118.013 212.714 117.2 212.714 116.266V110.006H215.978V115.824C215.978 116.541 216.164 117.098 216.535 117.494C216.906 117.891 217.406 118.09 218.033 118.09C218.673 118.09 219.178 117.891 219.55 117.494C219.921 117.098 220.106 116.541 220.106 115.824V110.006H223.39ZM229.031 111.523C229.338 111.024 229.78 110.621 230.356 110.314C230.932 110.006 231.591 109.853 232.334 109.853C233.217 109.853 234.017 110.077 234.734 110.525C235.45 110.973 236.014 111.613 236.423 112.445C236.846 113.277 237.057 114.243 237.057 115.344C237.057 116.445 236.846 117.418 236.423 118.262C236.014 119.094 235.45 119.741 234.734 120.202C234.017 120.65 233.217 120.874 232.334 120.874C231.578 120.874 230.919 120.726 230.356 120.432C229.793 120.125 229.351 119.722 229.031 119.222V120.72H225.748V106.512H229.031V111.523ZM233.716 115.344C233.716 114.525 233.486 113.885 233.025 113.424C232.577 112.95 232.02 112.714 231.354 112.714C230.702 112.714 230.145 112.95 229.684 113.424C229.236 113.898 229.012 114.544 229.012 115.363C229.012 116.182 229.236 116.829 229.684 117.302C230.145 117.776 230.702 118.013 231.354 118.013C232.007 118.013 232.564 117.776 233.025 117.302C233.486 116.816 233.716 116.163 233.716 115.344Z" fill="#1A1C1E"/>
<g clip-path="url(#clip0_2185_2925)">
<rect x="247.245" y="90.6699" width="48" height="48" rx="24" fill="#1A1C1E"/>
<path d="M272.654 106.378L280.98 114.705M280.98 114.705L272.654 123.031M280.98 114.705H260.997" stroke="url(#paint1_linear_2185_2925)" stroke-width="3.48387" stroke-linecap="round" stroke-linejoin="round"/>
</g>
<defs>
<linearGradient id="paint0_linear_2185_2925" x1="197.15" y1="79.47" x2="197.15" y2="149.87" gradientUnits="userSpaceOnUse">
<stop stop-color="#F0C21A"/>
<stop offset="0.15" stop-color="#966B28"/>
<stop offset="0.325" stop-color="#D0AD6A"/>
<stop offset="0.5" stop-color="#FDEECA"/>
<stop offset="0.64" stop-color="#EED46A"/>
<stop offset="0.8" stop-color="#966B28"/>
<stop offset="1" stop-color="#EED46A"/>
</linearGradient>
<linearGradient id="paint1_linear_2185_2925" x1="270.989" y1="106.378" x2="270.989" y2="123.031" gradientUnits="userSpaceOnUse">
<stop stop-color="#F0C21A"/>
<stop offset="0.15" stop-color="#966B28"/>
<stop offset="0.325" stop-color="#D0AD6A"/>
<stop offset="0.5" stop-color="#FDEECA"/>
<stop offset="0.64" stop-color="#EED46A"/>
<stop offset="0.8" stop-color="#966B28"/>
<stop offset="1" stop-color="#EED46A"/>
</linearGradient>
<clipPath id="clip0_2185_2925">
<rect x="247.245" y="90.6699" width="48" height="48" rx="24" fill="white"/>
</clipPath>
</defs>
</svg>
