<svg width="226" height="113" viewBox="0 0 226 113" fill="none" xmlns="http://www.w3.org/2000/svg">
<rect x="0.280029" y="6.97021" width="225.42" height="100" rx="50" fill="url(#paint0_linear_2675_504)"/>
<rect opacity="0.05" x="0.280029" y="6.97021" width="225.42" height="100.038" rx="50.0188" fill="#81C883"/>
<rect x="8.08008" y="14.77" width="209.82" height="84.4" rx="42.2" fill="url(#paint1_linear_2675_504)"/>
<rect x="8.08008" y="14.77" width="209.82" height="84.4" rx="42.2" stroke="#1A1C1E" stroke-width="6"/>
<path d="M46.6992 61.6086H51.7168V64.5654H42.8688V48.8406H46.6992V61.6086ZM65.3262 58.1142C65.3262 58.4726 65.3038 58.846 65.259 59.2342H56.5902C56.6499 60.0108 56.8963 60.6081 57.3294 61.0262C57.7774 61.4294 58.3224 61.631 58.9646 61.631C59.9203 61.631 60.5848 61.2278 60.9582 60.4214H65.035C64.8259 61.2428 64.4451 61.982 63.8926 62.639C63.355 63.2961 62.6755 63.8113 61.8542 64.1846C61.0328 64.558 60.1144 64.7446 59.099 64.7446C57.8744 64.7446 56.7843 64.4833 55.8286 63.9606C54.8728 63.438 54.1262 62.6913 53.5886 61.7206C53.051 60.75 52.7822 59.615 52.7822 58.3158C52.7822 57.0166 53.0435 55.8817 53.5662 54.911C54.1038 53.9404 54.8504 53.1937 55.8062 52.671C56.7619 52.1484 57.8595 51.887 59.099 51.887C60.3086 51.887 61.3838 52.1409 62.3246 52.6486C63.2654 53.1564 63.9971 53.8806 64.5198 54.8214C65.0574 55.7622 65.3262 56.8598 65.3262 58.1142ZM61.4062 57.1062C61.4062 56.4492 61.1822 55.9265 60.7342 55.5382C60.2862 55.15 59.7262 54.9558 59.0542 54.9558C58.412 54.9558 57.867 55.1425 57.419 55.5158C56.9859 55.8892 56.7171 56.4193 56.6126 57.1062H61.4062ZM74.3133 61.3174V64.5654H72.3645C70.9757 64.5654 69.893 64.2294 69.1165 63.5574C68.34 62.8705 67.9517 61.758 67.9517 60.2198V55.247H66.4285V52.0662H67.9517V49.0198H71.7821V52.0662H74.2909V55.247H71.7821V60.2646C71.7821 60.638 71.8717 60.9068 72.0509 61.071C72.2301 61.2353 72.5288 61.3174 72.9469 61.3174H74.3133ZM79.1125 46.6454L78.8213 51.5958H76.2453L75.9541 46.6454H79.1125ZM86.4755 64.7446C85.3853 64.7446 84.4147 64.558 83.5635 64.1846C82.7123 63.8113 82.0403 63.3036 81.5475 62.6614C81.0547 62.0044 80.7784 61.2726 80.7187 60.4662H84.5043C84.5491 60.8993 84.7507 61.2502 85.1091 61.519C85.4675 61.7878 85.908 61.9222 86.4307 61.9222C86.9085 61.9222 87.2744 61.8326 87.5283 61.6534C87.7971 61.4593 87.9315 61.2129 87.9315 60.9142C87.9315 60.5558 87.7448 60.2945 87.3715 60.1302C86.9981 59.951 86.3933 59.7569 85.5571 59.5478C84.6611 59.3388 83.9144 59.1222 83.3171 58.8982C82.7197 58.6593 82.2045 58.2934 81.7715 57.8006C81.3384 57.2929 81.1219 56.6134 81.1219 55.7622C81.1219 55.0454 81.316 54.3958 81.7043 53.8134C82.1075 53.2161 82.6899 52.7457 83.4515 52.4022C84.228 52.0588 85.1464 51.887 86.2067 51.887C87.7747 51.887 89.0067 52.2753 89.9027 53.0518C90.8136 53.8284 91.3363 54.8588 91.4707 56.143H87.9315C87.8717 55.71 87.6776 55.3665 87.3491 55.1126C87.0355 54.8588 86.6173 54.7318 86.0947 54.7318C85.6467 54.7318 85.3032 54.8214 85.0643 55.0006C84.8253 55.1649 84.7059 55.3964 84.7059 55.695C84.7059 56.0534 84.8925 56.3222 85.2659 56.5014C85.6541 56.6806 86.2515 56.8598 87.0579 57.039C87.9837 57.278 88.7379 57.5169 89.3203 57.7558C89.9027 57.9798 90.4104 58.3532 90.8435 58.8758C91.2915 59.3836 91.5229 60.0705 91.5379 60.9366C91.5379 61.6684 91.3288 62.3254 90.9107 62.9078C90.5075 63.4753 89.9176 63.9233 89.1411 64.2518C88.3795 64.5804 87.4909 64.7446 86.4755 64.7446ZM109.067 53.8134C108.783 53.2908 108.372 52.895 107.835 52.6262C107.312 52.3425 106.692 52.2006 105.975 52.2006C104.736 52.2006 103.743 52.6113 102.996 53.4326C102.249 54.239 101.876 55.3217 101.876 56.6806C101.876 58.1292 102.264 59.2641 103.041 60.0854C103.832 60.8918 104.915 61.295 106.289 61.295C107.23 61.295 108.021 61.0561 108.663 60.5782C109.32 60.1004 109.798 59.4134 110.097 58.5174H105.236V55.695H113.569V59.2566C113.285 60.2124 112.8 61.1009 112.113 61.9222C111.441 62.7436 110.582 63.4081 109.537 63.9158C108.492 64.4236 107.312 64.6774 105.998 64.6774C104.445 64.6774 103.056 64.3414 101.831 63.6694C100.622 62.9825 99.6735 62.0342 98.9866 60.8246C98.3146 59.615 97.9786 58.2337 97.9786 56.6806C97.9786 55.1276 98.3146 53.7462 98.9866 52.5366C99.6735 51.3121 100.622 50.3638 101.831 49.6918C103.041 49.0049 104.422 48.6614 105.975 48.6614C107.857 48.6614 109.44 49.1169 110.724 50.0278C112.023 50.9388 112.882 52.2006 113.3 53.8134H109.067ZM121.38 64.7446C120.156 64.7446 119.051 64.4833 118.065 63.9606C117.094 63.438 116.325 62.6913 115.758 61.7206C115.205 60.75 114.929 59.615 114.929 58.3158C114.929 57.0316 115.213 55.9041 115.78 54.9334C116.348 53.9478 117.124 53.1937 118.11 52.671C119.095 52.1484 120.201 51.887 121.425 51.887C122.65 51.887 123.755 52.1484 124.74 52.671C125.726 53.1937 126.502 53.9478 127.07 54.9334C127.637 55.9041 127.921 57.0316 127.921 58.3158C127.921 59.6001 127.63 60.735 127.047 61.7206C126.48 62.6913 125.696 63.438 124.695 63.9606C123.71 64.4833 122.605 64.7446 121.38 64.7446ZM121.38 61.4294C122.112 61.4294 122.732 61.1606 123.239 60.623C123.762 60.0854 124.023 59.3164 124.023 58.3158C124.023 57.3153 123.77 56.5462 123.262 56.0086C122.769 55.471 122.157 55.2022 121.425 55.2022C120.678 55.2022 120.059 55.471 119.566 56.0086C119.073 56.5313 118.827 57.3004 118.827 58.3158C118.827 59.3164 119.066 60.0854 119.543 60.623C120.036 61.1606 120.649 61.4294 121.38 61.4294Z" fill="#1A1C1E"/>
<g clip-path="url(#clip0_2675_504)">
<rect x="148.68" y="28.9702" width="56" height="56" rx="28" fill="#1A1C1E"/>
<path d="M177.999 46.2603L188.754 57.0152M188.754 57.0152L177.999 67.77M188.754 57.0152H162.943" stroke="url(#paint2_linear_2675_504)" stroke-width="4.5" stroke-linecap="round" stroke-linejoin="round"/>
</g>
<defs>
<linearGradient id="paint0_linear_2675_504" x1="112.99" y1="6.97021" x2="112.99" y2="106.97" gradientUnits="userSpaceOnUse">
<stop stop-color="#F0C21A"/>
<stop offset="0.15" stop-color="#966B28"/>
<stop offset="0.325" stop-color="#D0AD6A"/>
<stop offset="0.5" stop-color="#FDEECA"/>
<stop offset="0.64" stop-color="#EED46A"/>
<stop offset="0.8" stop-color="#966B28"/>
<stop offset="1" stop-color="#EED46A"/>
</linearGradient>
<linearGradient id="paint1_linear_2675_504" x1="112.99" y1="11.77" x2="112.99" y2="102.17" gradientUnits="userSpaceOnUse">
<stop stop-color="#F0C21A"/>
<stop offset="0.15" stop-color="#966B28"/>
<stop offset="0.325" stop-color="#D0AD6A"/>
<stop offset="0.5" stop-color="#FDEECA"/>
<stop offset="0.64" stop-color="#EED46A"/>
<stop offset="0.8" stop-color="#966B28"/>
<stop offset="1" stop-color="#EED46A"/>
</linearGradient>
<linearGradient id="paint2_linear_2675_504" x1="175.848" y1="46.2603" x2="175.848" y2="67.77" gradientUnits="userSpaceOnUse">
<stop stop-color="#F0C21A"/>
<stop offset="0.15" stop-color="#966B28"/>
<stop offset="0.325" stop-color="#D0AD6A"/>
<stop offset="0.5" stop-color="#FDEECA"/>
<stop offset="0.64" stop-color="#EED46A"/>
<stop offset="0.8" stop-color="#966B28"/>
<stop offset="1" stop-color="#EED46A"/>
</linearGradient>
<clipPath id="clip0_2675_504">
<rect x="148.68" y="28.9702" width="56" height="56" rx="28" fill="white"/>
</clipPath>
</defs>
</svg>
