<svg width="1006" height="498" viewBox="0 0 1006 498" fill="none" xmlns="http://www.w3.org/2000/svg">
<g filter="url(#filter0_d_2675_499)">
<path d="M122.003 127.786H138.131V137.29H109.691V86.746H122.003V127.786ZM162.292 137.866C158.356 137.866 154.804 137.026 151.636 135.346C148.516 133.666 146.044 131.266 144.22 128.146C142.444 125.026 141.556 121.378 141.556 117.202C141.556 113.074 142.468 109.45 144.292 106.33C146.116 103.162 148.612 100.738 151.78 99.058C154.948 97.378 158.5 96.538 162.436 96.538C166.372 96.538 169.924 97.378 173.092 99.058C176.26 100.738 178.756 103.162 180.58 106.33C182.404 109.45 183.316 113.074 183.316 117.202C183.316 121.33 182.38 124.978 180.508 128.146C178.684 131.266 176.164 133.666 172.948 135.346C169.78 137.026 166.228 137.866 162.292 137.866ZM162.292 127.21C164.644 127.21 166.636 126.346 168.268 124.618C169.948 122.89 170.788 120.418 170.788 117.202C170.788 113.986 169.972 111.514 168.34 109.786C166.756 108.058 164.788 107.194 162.436 107.194C160.036 107.194 158.044 108.058 156.46 109.786C154.876 111.466 154.084 113.938 154.084 117.202C154.084 120.418 154.852 122.89 156.388 124.618C157.972 126.346 159.94 127.21 162.292 127.21ZM202.159 103.81C203.599 101.602 205.399 99.874 207.559 98.626C209.719 97.33 212.119 96.682 214.759 96.682V109.714H211.375C208.303 109.714 205.999 110.386 204.463 111.73C202.927 113.026 202.159 115.33 202.159 118.642V137.29H189.847V97.114H202.159V103.81ZM258.516 116.554C258.516 117.706 258.444 118.906 258.3 120.154H230.436C230.628 122.65 231.42 124.57 232.812 125.914C234.252 127.21 236.004 127.858 238.068 127.858C241.14 127.858 243.276 126.562 244.476 123.97H257.58C256.908 126.61 255.684 128.986 253.908 131.098C252.18 133.21 249.996 134.866 247.356 136.066C244.716 137.266 241.764 137.866 238.5 137.866C234.564 137.866 231.06 137.026 227.988 135.346C224.916 133.666 222.516 131.266 220.788 128.146C219.06 125.026 218.196 121.378 218.196 117.202C218.196 113.026 219.036 109.378 220.716 106.258C222.444 103.138 224.844 100.738 227.916 99.058C230.988 97.378 234.516 96.538 238.5 96.538C242.388 96.538 245.844 97.354 248.868 98.986C251.892 100.618 254.244 102.946 255.924 105.97C257.652 108.994 258.516 112.522 258.516 116.554ZM245.916 113.314C245.916 111.202 245.196 109.522 243.756 108.274C242.316 107.026 240.516 106.402 238.356 106.402C236.292 106.402 234.54 107.002 233.1 108.202C231.708 109.402 230.844 111.106 230.508 113.314H245.916ZM316.275 96.682C321.267 96.682 325.227 98.194 328.155 101.218C331.131 104.242 332.619 108.442 332.619 113.818V137.29H320.379V115.474C320.379 112.882 319.683 110.89 318.291 109.498C316.947 108.058 315.075 107.338 312.675 107.338C310.275 107.338 308.379 108.058 306.987 109.498C305.643 110.89 304.971 112.882 304.971 115.474V137.29H292.731V115.474C292.731 112.882 292.035 110.89 290.643 109.498C289.299 108.058 287.427 107.338 285.027 107.338C282.627 107.338 280.731 108.058 279.339 109.498C277.995 110.89 277.323 112.882 277.323 115.474V137.29H265.011V97.114H277.323V102.154C278.571 100.474 280.203 99.154 282.219 98.194C284.235 97.186 286.515 96.682 289.059 96.682C292.083 96.682 294.771 97.33 297.123 98.626C299.523 99.922 301.395 101.77 302.739 104.17C304.131 101.962 306.027 100.162 308.427 98.77C310.827 97.378 313.443 96.682 316.275 96.682ZM362.68 92.938C360.52 92.938 358.744 92.314 357.352 91.066C356.008 89.77 355.336 88.186 355.336 86.314C355.336 84.394 356.008 82.81 357.352 81.562C358.744 80.266 360.52 79.618 362.68 79.618C364.792 79.618 366.52 80.266 367.864 81.562C369.256 82.81 369.952 84.394 369.952 86.314C369.952 88.186 369.256 89.77 367.864 91.066C366.52 92.314 364.792 92.938 362.68 92.938ZM368.8 97.114V137.29H356.488V97.114H368.8ZM390.034 102.802C391.234 100.93 392.89 99.418 395.002 98.266C397.114 97.114 399.586 96.538 402.418 96.538C405.73 96.538 408.73 97.378 411.418 99.058C414.106 100.738 416.218 103.138 417.754 106.258C419.338 109.378 420.13 113.002 420.13 117.13C420.13 121.258 419.338 124.906 417.754 128.074C416.218 131.194 414.106 133.618 411.418 135.346C408.73 137.026 405.73 137.866 402.418 137.866C399.634 137.866 397.162 137.29 395.002 136.138C392.89 134.986 391.234 133.498 390.034 131.674V156.442H377.722V97.114H390.034V102.802ZM407.602 117.13C407.602 114.058 406.738 111.658 405.01 109.93C403.33 108.154 401.242 107.266 398.746 107.266C396.298 107.266 394.21 108.154 392.482 109.93C390.802 111.706 389.962 114.13 389.962 117.202C389.962 120.274 390.802 122.698 392.482 124.474C394.21 126.25 396.298 127.138 398.746 127.138C401.194 127.138 403.282 126.25 405.01 124.474C406.738 122.65 407.602 120.202 407.602 117.13ZM442.934 137.866C439.43 137.866 436.31 137.266 433.574 136.066C430.838 134.866 428.678 133.234 427.094 131.17C425.51 129.058 424.622 126.706 424.43 124.114H436.598C436.742 125.506 437.39 126.634 438.542 127.498C439.694 128.362 441.11 128.794 442.79 128.794C444.326 128.794 445.502 128.506 446.318 127.93C447.182 127.306 447.614 126.514 447.614 125.554C447.614 124.402 447.014 123.562 445.814 123.034C444.614 122.458 442.67 121.834 439.982 121.162C437.102 120.49 434.702 119.794 432.782 119.074C430.862 118.306 429.206 117.13 427.814 115.546C426.422 113.914 425.726 111.73 425.726 108.994C425.726 106.69 426.35 104.602 427.598 102.73C428.894 100.81 430.766 99.298 433.214 98.194C435.71 97.09 438.662 96.538 442.07 96.538C447.11 96.538 451.07 97.786 453.95 100.282C456.878 102.778 458.558 106.09 458.99 110.218H447.614C447.422 108.826 446.798 107.722 445.742 106.906C444.734 106.09 443.39 105.682 441.71 105.682C440.27 105.682 439.166 105.97 438.398 106.546C437.63 107.074 437.246 107.818 437.246 108.778C437.246 109.93 437.846 110.794 439.046 111.37C440.294 111.946 442.214 112.522 444.806 113.098C447.782 113.866 450.206 114.634 452.078 115.402C453.95 116.122 455.582 117.322 456.974 119.002C458.414 120.634 459.158 122.842 459.206 125.626C459.206 127.978 458.534 130.09 457.19 131.962C455.894 133.786 453.998 135.226 451.502 136.282C449.054 137.338 446.198 137.866 442.934 137.866ZM506.41 97.114V137.29H494.098V131.818C492.85 133.594 491.146 135.034 488.986 136.138C486.874 137.194 484.522 137.722 481.93 137.722C478.858 137.722 476.146 137.05 473.794 135.706C471.442 134.314 469.618 132.322 468.322 129.73C467.026 127.138 466.378 124.09 466.378 120.586V97.114H478.618V118.93C478.618 121.618 479.314 123.706 480.706 125.194C482.098 126.682 483.97 127.426 486.322 127.426C488.722 127.426 490.618 126.682 492.01 125.194C493.402 123.706 494.098 121.618 494.098 118.93V97.114H506.41ZM566.518 96.682C571.51 96.682 575.47 98.194 578.398 101.218C581.374 104.242 582.862 108.442 582.862 113.818V137.29H570.622V115.474C570.622 112.882 569.926 110.89 568.534 109.498C567.19 108.058 565.318 107.338 562.918 107.338C560.518 107.338 558.622 108.058 557.23 109.498C555.886 110.89 555.214 112.882 555.214 115.474V137.29H542.974V115.474C542.974 112.882 542.278 110.89 540.886 109.498C539.542 108.058 537.67 107.338 535.27 107.338C532.87 107.338 530.974 108.058 529.582 109.498C528.238 110.89 527.566 112.882 527.566 115.474V137.29H515.254V97.114H527.566V102.154C528.814 100.474 530.446 99.154 532.462 98.194C534.478 97.186 536.758 96.682 539.302 96.682C542.326 96.682 545.014 97.33 547.366 98.626C549.766 99.922 551.638 101.77 552.982 104.17C554.374 101.962 556.27 100.162 558.67 98.77C561.07 97.378 563.686 96.682 566.518 96.682ZM604.282 117.13C604.282 113.002 605.05 109.378 606.586 106.258C608.17 103.138 610.306 100.738 612.994 99.058C615.682 97.378 618.682 96.538 621.994 96.538C624.634 96.538 627.034 97.09 629.194 98.194C631.402 99.298 633.13 100.786 634.378 102.658V84.01H646.69V137.29H634.378V131.53C633.226 133.45 631.57 134.986 629.41 136.138C627.298 137.29 624.826 137.866 621.994 137.866C618.682 137.866 615.682 137.026 612.994 135.346C610.306 133.618 608.17 131.194 606.586 128.074C605.05 124.906 604.282 121.258 604.282 117.13ZM634.378 117.202C634.378 114.13 633.514 111.706 631.786 109.93C630.106 108.154 628.042 107.266 625.594 107.266C623.146 107.266 621.058 108.154 619.33 109.93C617.65 111.658 616.81 114.058 616.81 117.13C616.81 120.202 617.65 122.65 619.33 124.474C621.058 126.25 623.146 127.138 625.594 127.138C628.042 127.138 630.106 126.25 631.786 124.474C633.514 122.698 634.378 120.274 634.378 117.202ZM673.885 137.866C669.949 137.866 666.397 137.026 663.229 135.346C660.109 133.666 657.637 131.266 655.813 128.146C654.037 125.026 653.149 121.378 653.149 117.202C653.149 113.074 654.061 109.45 655.885 106.33C657.709 103.162 660.205 100.738 663.373 99.058C666.541 97.378 670.093 96.538 674.029 96.538C677.965 96.538 681.517 97.378 684.685 99.058C687.853 100.738 690.349 103.162 692.173 106.33C693.997 109.45 694.909 113.074 694.909 117.202C694.909 121.33 693.973 124.978 692.101 128.146C690.277 131.266 687.757 133.666 684.541 135.346C681.373 137.026 677.821 137.866 673.885 137.866ZM673.885 127.21C676.237 127.21 678.229 126.346 679.861 124.618C681.541 122.89 682.381 120.418 682.381 117.202C682.381 113.986 681.565 111.514 679.933 109.786C678.349 108.058 676.381 107.194 674.029 107.194C671.629 107.194 669.637 108.058 668.053 109.786C666.469 111.466 665.677 113.938 665.677 117.202C665.677 120.418 666.445 122.89 667.981 124.618C669.565 126.346 671.533 127.21 673.885 127.21ZM713.753 84.01V137.29H701.441V84.01H713.753ZM740.964 137.866C737.028 137.866 733.476 137.026 730.308 135.346C727.188 133.666 724.716 131.266 722.892 128.146C721.116 125.026 720.228 121.378 720.228 117.202C720.228 113.074 721.14 109.45 722.964 106.33C724.788 103.162 727.284 100.738 730.452 99.058C733.62 97.378 737.172 96.538 741.108 96.538C745.044 96.538 748.596 97.378 751.764 99.058C754.932 100.738 757.428 103.162 759.252 106.33C761.076 109.45 761.988 113.074 761.988 117.202C761.988 121.33 761.052 124.978 759.18 128.146C757.356 131.266 754.836 133.666 751.62 135.346C748.452 137.026 744.9 137.866 740.964 137.866ZM740.964 127.21C743.316 127.21 745.308 126.346 746.94 124.618C748.62 122.89 749.46 120.418 749.46 117.202C749.46 113.986 748.644 111.514 747.012 109.786C745.428 108.058 743.46 107.194 741.108 107.194C738.708 107.194 736.716 108.058 735.132 109.786C733.548 111.466 732.756 113.938 732.756 117.202C732.756 120.418 733.524 122.89 735.06 124.618C736.644 126.346 738.612 127.21 740.964 127.21ZM780.831 103.81C782.271 101.602 784.071 99.874 786.231 98.626C788.391 97.33 790.791 96.682 793.431 96.682V109.714H790.047C786.975 109.714 784.671 110.386 783.135 111.73C781.599 113.026 780.831 115.33 780.831 118.642V137.29H768.519V97.114H780.831V103.81ZM830.918 137.866C827.414 137.866 824.294 137.266 821.558 136.066C818.822 134.866 816.662 133.234 815.078 131.17C813.494 129.058 812.606 126.706 812.414 124.114H824.582C824.726 125.506 825.374 126.634 826.526 127.498C827.678 128.362 829.094 128.794 830.774 128.794C832.31 128.794 833.486 128.506 834.302 127.93C835.166 127.306 835.598 126.514 835.598 125.554C835.598 124.402 834.998 123.562 833.798 123.034C832.598 122.458 830.654 121.834 827.966 121.162C825.086 120.49 822.686 119.794 820.766 119.074C818.846 118.306 817.19 117.13 815.798 115.546C814.406 113.914 813.71 111.73 813.71 108.994C813.71 106.69 814.334 104.602 815.582 102.73C816.878 100.81 818.75 99.298 821.198 98.194C823.694 97.09 826.646 96.538 830.054 96.538C835.094 96.538 839.054 97.786 841.934 100.282C844.862 102.778 846.542 106.09 846.974 110.218H835.598C835.406 108.826 834.782 107.722 833.726 106.906C832.718 106.09 831.374 105.682 829.694 105.682C828.254 105.682 827.15 105.97 826.382 106.546C825.614 107.074 825.23 107.818 825.23 108.778C825.23 109.93 825.83 110.794 827.03 111.37C828.278 111.946 830.198 112.522 832.79 113.098C835.766 113.866 838.19 114.634 840.062 115.402C841.934 116.122 843.566 117.322 844.958 119.002C846.398 120.634 847.142 122.842 847.19 125.626C847.19 127.978 846.518 130.09 845.174 131.962C843.878 133.786 841.982 135.226 839.486 136.282C837.038 137.338 834.182 137.866 830.918 137.866ZM860.914 92.938C858.754 92.938 856.978 92.314 855.586 91.066C854.242 89.77 853.57 88.186 853.57 86.314C853.57 84.394 854.242 82.81 855.586 81.562C856.978 80.266 858.754 79.618 860.914 79.618C863.026 79.618 864.754 80.266 866.098 81.562C867.49 82.81 868.186 84.394 868.186 86.314C868.186 88.186 867.49 89.77 866.098 91.066C864.754 92.314 863.026 92.938 860.914 92.938ZM867.034 97.114V137.29H854.722V97.114H867.034ZM898.349 126.85V137.29H892.085C887.621 137.29 884.141 136.21 881.645 134.05C879.149 131.842 877.901 128.266 877.901 123.322V107.338H873.005V97.114H877.901V87.322H890.213V97.114H898.277V107.338H890.213V123.466C890.213 124.666 890.501 125.53 891.077 126.058C891.653 126.586 892.613 126.85 893.957 126.85H898.349ZM163.563 204.13C163.563 200.002 164.331 196.378 165.867 193.258C167.451 190.138 169.587 187.738 172.275 186.058C174.963 184.378 177.963 183.538 181.275 183.538C184.107 183.538 186.579 184.114 188.691 185.266C190.851 186.418 192.507 187.93 193.659 189.802V184.114H205.971V224.29H193.659V218.602C192.459 220.474 190.779 221.986 188.619 223.138C186.507 224.29 184.035 224.866 181.203 224.866C177.939 224.866 174.963 224.026 172.275 222.346C169.587 220.618 167.451 218.194 165.867 215.074C164.331 211.906 163.563 208.258 163.563 204.13ZM193.659 204.202C193.659 201.13 192.795 198.706 191.067 196.93C189.387 195.154 187.323 194.266 184.875 194.266C182.427 194.266 180.339 195.154 178.611 196.93C176.931 198.658 176.091 201.058 176.091 204.13C176.091 207.202 176.931 209.65 178.611 211.474C180.339 213.25 182.427 214.138 184.875 214.138C187.323 214.138 189.387 213.25 191.067 211.474C192.795 209.698 193.659 207.274 193.659 204.202ZM266.143 183.682C271.135 183.682 275.095 185.194 278.023 188.218C280.999 191.242 282.487 195.442 282.487 200.818V224.29H270.247V202.474C270.247 199.882 269.551 197.89 268.159 196.498C266.815 195.058 264.943 194.338 262.543 194.338C260.143 194.338 258.247 195.058 256.855 196.498C255.511 197.89 254.839 199.882 254.839 202.474V224.29H242.599V202.474C242.599 199.882 241.903 197.89 240.511 196.498C239.167 195.058 237.295 194.338 234.895 194.338C232.495 194.338 230.599 195.058 229.207 196.498C227.863 197.89 227.191 199.882 227.191 202.474V224.29H214.879V184.114H227.191V189.154C228.439 187.474 230.071 186.154 232.087 185.194C234.103 184.186 236.383 183.682 238.927 183.682C241.951 183.682 244.639 184.33 246.991 185.626C249.391 186.922 251.263 188.77 252.607 191.17C253.999 188.962 255.895 187.162 258.295 185.77C260.695 184.378 263.311 183.682 266.143 183.682ZM328.969 203.554C328.969 204.706 328.897 205.906 328.753 207.154H300.889C301.081 209.65 301.873 211.57 303.265 212.914C304.705 214.21 306.457 214.858 308.521 214.858C311.593 214.858 313.729 213.562 314.929 210.97H328.033C327.361 213.61 326.137 215.986 324.361 218.098C322.633 220.21 320.449 221.866 317.809 223.066C315.169 224.266 312.217 224.866 308.953 224.866C305.017 224.866 301.513 224.026 298.441 222.346C295.369 220.666 292.969 218.266 291.241 215.146C289.513 212.026 288.649 208.378 288.649 204.202C288.649 200.026 289.489 196.378 291.169 193.258C292.897 190.138 295.297 187.738 298.369 186.058C301.441 184.378 304.969 183.538 308.953 183.538C312.841 183.538 316.297 184.354 319.321 185.986C322.345 187.618 324.697 189.946 326.377 192.97C328.105 195.994 328.969 199.522 328.969 203.554ZM316.369 200.314C316.369 198.202 315.649 196.522 314.209 195.274C312.769 194.026 310.969 193.402 308.809 193.402C306.745 193.402 304.993 194.002 303.553 195.202C302.161 196.402 301.297 198.106 300.961 200.314H316.369ZM357.857 213.85V224.29H351.593C347.129 224.29 343.649 223.21 341.153 221.05C338.657 218.842 337.409 215.266 337.409 210.322V194.338H332.513V184.114H337.409V174.322H349.721V184.114H357.785V194.338H349.721V210.466C349.721 211.666 350.009 212.53 350.585 213.058C351.161 213.586 352.121 213.85 353.465 213.85H357.857ZM377.963 212.914L369.971 233.578H362.123L366.299 212.914H377.963ZM398.196 204.202C398.196 200.026 399.036 196.378 400.716 193.258C402.444 190.138 404.82 187.738 407.844 186.058C410.916 184.378 414.42 183.538 418.356 183.538C423.396 183.538 427.596 184.858 430.956 187.498C434.364 190.138 436.596 193.858 437.652 198.658H424.548C423.444 195.586 421.308 194.05 418.14 194.05C415.884 194.05 414.084 194.938 412.74 196.714C411.396 198.442 410.724 200.938 410.724 204.202C410.724 207.466 411.396 209.986 412.74 211.762C414.084 213.49 415.884 214.354 418.14 214.354C421.308 214.354 423.444 212.818 424.548 209.746H437.652C436.596 214.45 434.364 218.146 430.956 220.834C427.548 223.522 423.348 224.866 418.356 224.866C414.42 224.866 410.916 224.026 407.844 222.346C404.82 220.666 402.444 218.266 400.716 215.146C399.036 212.026 398.196 208.378 398.196 204.202ZM462.526 224.866C458.59 224.866 455.038 224.026 451.87 222.346C448.75 220.666 446.278 218.266 444.454 215.146C442.678 212.026 441.79 208.378 441.79 204.202C441.79 200.074 442.702 196.45 444.526 193.33C446.35 190.162 448.846 187.738 452.014 186.058C455.182 184.378 458.734 183.538 462.67 183.538C466.606 183.538 470.158 184.378 473.326 186.058C476.494 187.738 478.99 190.162 480.814 193.33C482.638 196.45 483.55 200.074 483.55 204.202C483.55 208.33 482.614 211.978 480.742 215.146C478.918 218.266 476.398 220.666 473.182 222.346C470.014 224.026 466.462 224.866 462.526 224.866ZM462.526 214.21C464.878 214.21 466.87 213.346 468.502 211.618C470.182 209.89 471.022 207.418 471.022 204.202C471.022 200.986 470.206 198.514 468.574 196.786C466.99 195.058 465.022 194.194 462.67 194.194C460.27 194.194 458.278 195.058 456.694 196.786C455.11 198.466 454.318 200.938 454.318 204.202C454.318 207.418 455.086 209.89 456.622 211.618C458.206 213.346 460.174 214.21 462.526 214.21ZM514.562 183.682C519.266 183.682 523.01 185.218 525.794 188.29C528.626 191.314 530.042 195.49 530.042 200.818V224.29H517.802V202.474C517.802 199.786 517.106 197.698 515.714 196.21C514.322 194.722 512.45 193.978 510.098 193.978C507.746 193.978 505.874 194.722 504.482 196.21C503.09 197.698 502.394 199.786 502.394 202.474V224.29H490.082V184.114H502.394V189.442C503.642 187.666 505.322 186.274 507.434 185.266C509.546 184.21 511.922 183.682 514.562 183.682ZM554.941 224.866C551.437 224.866 548.317 224.266 545.581 223.066C542.845 221.866 540.685 220.234 539.101 218.17C537.517 216.058 536.629 213.706 536.437 211.114H548.605C548.749 212.506 549.397 213.634 550.549 214.498C551.701 215.362 553.117 215.794 554.797 215.794C556.333 215.794 557.509 215.506 558.325 214.93C559.189 214.306 559.621 213.514 559.621 212.554C559.621 211.402 559.021 210.562 557.821 210.034C556.621 209.458 554.677 208.834 551.989 208.162C549.109 207.49 546.709 206.794 544.789 206.074C542.869 205.306 541.213 204.13 539.821 202.546C538.429 200.914 537.733 198.73 537.733 195.994C537.733 193.69 538.357 191.602 539.605 189.73C540.901 187.81 542.773 186.298 545.221 185.194C547.717 184.09 550.669 183.538 554.077 183.538C559.117 183.538 563.077 184.786 565.957 187.282C568.885 189.778 570.565 193.09 570.997 197.218H559.621C559.429 195.826 558.805 194.722 557.749 193.906C556.741 193.09 555.397 192.682 553.717 192.682C552.277 192.682 551.173 192.97 550.405 193.546C549.637 194.074 549.253 194.818 549.253 195.778C549.253 196.93 549.853 197.794 551.053 198.37C552.301 198.946 554.221 199.522 556.813 200.098C559.789 200.866 562.213 201.634 564.085 202.402C565.957 203.122 567.589 204.322 568.981 206.002C570.421 207.634 571.165 209.842 571.213 212.626C571.213 214.978 570.541 217.09 569.197 218.962C567.901 220.786 566.005 222.226 563.509 223.282C561.061 224.338 558.205 224.866 554.941 224.866ZM616.618 203.554C616.618 204.706 616.546 205.906 616.402 207.154H588.538C588.73 209.65 589.522 211.57 590.914 212.914C592.354 214.21 594.106 214.858 596.17 214.858C599.242 214.858 601.378 213.562 602.578 210.97H615.682C615.01 213.61 613.786 215.986 612.01 218.098C610.282 220.21 608.098 221.866 605.458 223.066C602.818 224.266 599.866 224.866 596.602 224.866C592.666 224.866 589.162 224.026 586.09 222.346C583.018 220.666 580.618 218.266 578.89 215.146C577.162 212.026 576.298 208.378 576.298 204.202C576.298 200.026 577.138 196.378 578.818 193.258C580.546 190.138 582.946 187.738 586.018 186.058C589.09 184.378 592.618 183.538 596.602 183.538C600.49 183.538 603.946 184.354 606.97 185.986C609.994 187.618 612.346 189.946 614.026 192.97C615.754 195.994 616.618 199.522 616.618 203.554ZM604.018 200.314C604.018 198.202 603.298 196.522 601.858 195.274C600.418 194.026 598.618 193.402 596.458 193.402C594.394 193.402 592.642 194.002 591.202 195.202C589.81 196.402 588.946 198.106 588.61 200.314H604.018ZM620.665 204.202C620.665 200.026 621.505 196.378 623.185 193.258C624.913 190.138 627.289 187.738 630.313 186.058C633.385 184.378 636.889 183.538 640.825 183.538C645.865 183.538 650.065 184.858 653.425 187.498C656.833 190.138 659.065 193.858 660.121 198.658H647.017C645.913 195.586 643.777 194.05 640.609 194.05C638.353 194.05 636.553 194.938 635.209 196.714C633.865 198.442 633.193 200.938 633.193 204.202C633.193 207.466 633.865 209.986 635.209 211.762C636.553 213.49 638.353 214.354 640.609 214.354C643.777 214.354 645.913 212.818 647.017 209.746H660.121C659.065 214.45 656.833 218.146 653.425 220.834C650.017 223.522 645.817 224.866 640.825 224.866C636.889 224.866 633.385 224.026 630.313 222.346C627.289 220.666 624.913 218.266 623.185 215.146C621.505 212.026 620.665 208.378 620.665 204.202ZM689.099 213.85V224.29H682.835C678.371 224.29 674.891 223.21 672.395 221.05C669.899 218.842 668.651 215.266 668.651 210.322V194.338H663.755V184.114H668.651V174.322H680.963V184.114H689.027V194.338H680.963V210.466C680.963 211.666 681.251 212.53 681.827 213.058C682.403 213.586 683.363 213.85 684.707 213.85H689.099ZM733.829 203.554C733.829 204.706 733.757 205.906 733.613 207.154H705.749C705.941 209.65 706.733 211.57 708.125 212.914C709.565 214.21 711.317 214.858 713.381 214.858C716.453 214.858 718.589 213.562 719.789 210.97H732.893C732.221 213.61 730.997 215.986 729.221 218.098C727.493 220.21 725.309 221.866 722.669 223.066C720.029 224.266 717.077 224.866 713.813 224.866C709.877 224.866 706.373 224.026 703.301 222.346C700.229 220.666 697.829 218.266 696.101 215.146C694.373 212.026 693.509 208.378 693.509 204.202C693.509 200.026 694.349 196.378 696.029 193.258C697.757 190.138 700.157 187.738 703.229 186.058C706.301 184.378 709.829 183.538 713.813 183.538C717.701 183.538 721.157 184.354 724.181 185.986C727.205 187.618 729.557 189.946 731.237 192.97C732.965 195.994 733.829 199.522 733.829 203.554ZM721.229 200.314C721.229 198.202 720.509 196.522 719.069 195.274C717.629 194.026 715.829 193.402 713.669 193.402C711.605 193.402 709.853 194.002 708.413 195.202C707.021 196.402 706.157 198.106 705.821 200.314H721.229ZM762.716 213.85V224.29H756.452C751.988 224.29 748.508 223.21 746.012 221.05C743.516 218.842 742.268 215.266 742.268 210.322V194.338H737.372V184.114H742.268V174.322H754.58V184.114H762.644V194.338H754.58V210.466C754.58 211.666 754.868 212.53 755.444 213.058C756.02 213.586 756.98 213.85 758.324 213.85H762.716ZM809.246 184.114V224.29H796.934V218.818C795.686 220.594 793.982 222.034 791.822 223.138C789.71 224.194 787.358 224.722 784.766 224.722C781.694 224.722 778.982 224.05 776.63 222.706C774.278 221.314 772.454 219.322 771.158 216.73C769.862 214.138 769.214 211.09 769.214 207.586V184.114H781.454V205.93C781.454 208.618 782.15 210.706 783.542 212.194C784.934 213.682 786.806 214.426 789.158 214.426C791.558 214.426 793.454 213.682 794.846 212.194C796.238 210.706 796.934 208.618 796.934 205.93V184.114H809.246ZM830.402 190.81C831.842 188.602 833.642 186.874 835.802 185.626C837.962 184.33 840.362 183.682 843.002 183.682V196.714H839.618C836.546 196.714 834.242 197.386 832.706 198.73C831.17 200.026 830.402 202.33 830.402 205.642V224.29H818.09V184.114H830.402V190.81ZM225.825 290.13C225.825 286.002 226.593 282.378 228.129 279.258C229.713 276.138 231.849 273.738 234.537 272.058C237.225 270.378 240.225 269.538 243.537 269.538C246.369 269.538 248.841 270.114 250.953 271.266C253.113 272.418 254.769 273.93 255.921 275.802V270.114H268.233V310.29H255.921V304.602C254.721 306.474 253.041 307.986 250.881 309.138C248.769 310.29 246.297 310.866 243.465 310.866C240.201 310.866 237.225 310.026 234.537 308.346C231.849 306.618 229.713 304.194 228.129 301.074C226.593 297.906 225.825 294.258 225.825 290.13ZM255.921 290.202C255.921 287.13 255.057 284.706 253.329 282.93C251.649 281.154 249.585 280.266 247.137 280.266C244.689 280.266 242.601 281.154 240.873 282.93C239.193 284.658 238.353 287.058 238.353 290.13C238.353 293.202 239.193 295.65 240.873 297.474C242.601 299.25 244.689 300.138 247.137 300.138C249.585 300.138 251.649 299.25 253.329 297.474C255.057 295.698 255.921 293.274 255.921 290.202ZM274.692 290.13C274.692 286.002 275.46 282.378 276.996 279.258C278.58 276.138 280.716 273.738 283.404 272.058C286.092 270.378 289.092 269.538 292.404 269.538C295.044 269.538 297.444 270.09 299.604 271.194C301.812 272.298 303.54 273.786 304.788 275.658V257.01H317.1V310.29H304.788V304.53C303.636 306.45 301.98 307.986 299.82 309.138C297.708 310.29 295.236 310.866 292.404 310.866C289.092 310.866 286.092 310.026 283.404 308.346C280.716 306.618 278.58 304.194 276.996 301.074C275.46 297.906 274.692 294.258 274.692 290.13ZM304.788 290.202C304.788 287.13 303.924 284.706 302.196 282.93C300.516 281.154 298.452 280.266 296.004 280.266C293.556 280.266 291.468 281.154 289.74 282.93C288.06 284.658 287.22 287.058 287.22 290.13C287.22 293.202 288.06 295.65 289.74 297.474C291.468 299.25 293.556 300.138 296.004 300.138C298.452 300.138 300.516 299.25 302.196 297.474C303.924 295.698 304.788 293.274 304.788 290.202ZM332.2 265.938C330.04 265.938 328.264 265.314 326.872 264.066C325.528 262.77 324.856 261.186 324.856 259.314C324.856 257.394 325.528 255.81 326.872 254.562C328.264 253.266 330.04 252.618 332.2 252.618C334.312 252.618 336.04 253.266 337.384 254.562C338.776 255.81 339.472 257.394 339.472 259.314C339.472 261.186 338.776 262.77 337.384 264.066C336.04 265.314 334.312 265.938 332.2 265.938ZM338.32 270.114V310.29H326.008V270.114H338.32ZM359.554 275.802C360.754 273.93 362.41 272.418 364.522 271.266C366.634 270.114 369.106 269.538 371.938 269.538C375.25 269.538 378.25 270.378 380.938 272.058C383.626 273.738 385.738 276.138 387.274 279.258C388.858 282.378 389.65 286.002 389.65 290.13C389.65 294.258 388.858 297.906 387.274 301.074C385.738 304.194 383.626 306.618 380.938 308.346C378.25 310.026 375.25 310.866 371.938 310.866C369.154 310.866 366.682 310.29 364.522 309.138C362.41 307.986 360.754 306.498 359.554 304.674V329.442H347.242V270.114H359.554V275.802ZM377.122 290.13C377.122 287.058 376.258 284.658 374.53 282.93C372.85 281.154 370.762 280.266 368.266 280.266C365.818 280.266 363.73 281.154 362.002 282.93C360.322 284.706 359.482 287.13 359.482 290.202C359.482 293.274 360.322 295.698 362.002 297.474C363.73 299.25 365.818 300.138 368.266 300.138C370.714 300.138 372.802 299.25 374.53 297.474C376.258 295.65 377.122 293.202 377.122 290.13ZM402.301 265.938C400.141 265.938 398.365 265.314 396.973 264.066C395.629 262.77 394.957 261.186 394.957 259.314C394.957 257.394 395.629 255.81 396.973 254.562C398.365 253.266 400.141 252.618 402.301 252.618C404.413 252.618 406.141 253.266 407.485 254.562C408.877 255.81 409.573 257.394 409.573 259.314C409.573 261.186 408.877 262.77 407.485 264.066C406.141 265.314 404.413 265.938 402.301 265.938ZM408.421 270.114V310.29H396.109V270.114H408.421ZM433.688 310.866C430.184 310.866 427.064 310.266 424.328 309.066C421.592 307.866 419.432 306.234 417.848 304.17C416.264 302.058 415.376 299.706 415.184 297.114H427.352C427.496 298.506 428.144 299.634 429.296 300.498C430.448 301.362 431.864 301.794 433.544 301.794C435.08 301.794 436.256 301.506 437.072 300.93C437.936 300.306 438.368 299.514 438.368 298.554C438.368 297.402 437.768 296.562 436.568 296.034C435.368 295.458 433.424 294.834 430.736 294.162C427.856 293.49 425.456 292.794 423.536 292.074C421.616 291.306 419.96 290.13 418.568 288.546C417.176 286.914 416.48 284.73 416.48 281.994C416.48 279.69 417.104 277.602 418.352 275.73C419.648 273.81 421.52 272.298 423.968 271.194C426.464 270.09 429.416 269.538 432.824 269.538C437.864 269.538 441.824 270.786 444.704 273.282C447.632 275.778 449.312 279.09 449.744 283.218H438.368C438.176 281.826 437.552 280.722 436.496 279.906C435.488 279.09 434.144 278.682 432.464 278.682C431.024 278.682 429.92 278.97 429.152 279.546C428.384 280.074 428 280.818 428 281.778C428 282.93 428.6 283.794 429.8 284.37C431.048 284.946 432.968 285.522 435.56 286.098C438.536 286.866 440.96 287.634 442.832 288.402C444.704 289.122 446.336 290.322 447.728 292.002C449.168 293.634 449.912 295.842 449.96 298.626C449.96 300.978 449.288 303.09 447.944 304.962C446.648 306.786 444.752 308.226 442.256 309.282C439.808 310.338 436.952 310.866 433.688 310.866ZM455.044 290.202C455.044 286.026 455.884 282.378 457.564 279.258C459.292 276.138 461.668 273.738 464.692 272.058C467.764 270.378 471.268 269.538 475.204 269.538C480.244 269.538 484.444 270.858 487.804 273.498C491.212 276.138 493.444 279.858 494.5 284.658H481.396C480.292 281.586 478.156 280.05 474.988 280.05C472.732 280.05 470.932 280.938 469.588 282.714C468.244 284.442 467.572 286.938 467.572 290.202C467.572 293.466 468.244 295.986 469.588 297.762C470.932 299.49 472.732 300.354 474.988 300.354C478.156 300.354 480.292 298.818 481.396 295.746H494.5C493.444 300.45 491.212 304.146 487.804 306.834C484.396 309.522 480.196 310.866 475.204 310.866C471.268 310.866 467.764 310.026 464.692 308.346C461.668 306.666 459.292 304.266 457.564 301.146C455.884 298.026 455.044 294.378 455.044 290.202ZM507.278 265.938C505.118 265.938 503.342 265.314 501.95 264.066C500.606 262.77 499.934 261.186 499.934 259.314C499.934 257.394 500.606 255.81 501.95 254.562C503.342 253.266 505.118 252.618 507.278 252.618C509.39 252.618 511.118 253.266 512.462 254.562C513.854 255.81 514.55 257.394 514.55 259.314C514.55 261.186 513.854 262.77 512.462 264.066C511.118 265.314 509.39 265.938 507.278 265.938ZM513.398 270.114V310.29H501.086V270.114H513.398ZM546.8 269.682C551.504 269.682 555.248 271.218 558.032 274.29C560.864 277.314 562.28 281.49 562.28 286.818V310.29H550.04V288.474C550.04 285.786 549.344 283.698 547.952 282.21C546.56 280.722 544.688 279.978 542.336 279.978C539.984 279.978 538.112 280.722 536.72 282.21C535.328 283.698 534.632 285.786 534.632 288.474V310.29H522.32V270.114H534.632V275.442C535.88 273.666 537.56 272.274 539.672 271.266C541.784 270.21 544.16 269.682 546.8 269.682ZM586.1 269.538C588.932 269.538 591.404 270.114 593.516 271.266C595.676 272.418 597.332 273.93 598.484 275.802V270.114H610.796V310.218C610.796 313.914 610.052 317.25 608.564 320.226C607.124 323.25 604.892 325.65 601.868 327.426C598.892 329.202 595.172 330.09 590.708 330.09C584.756 330.09 579.932 328.674 576.236 325.842C572.54 323.058 570.428 319.266 569.9 314.466H582.068C582.452 316.002 583.364 317.202 584.804 318.066C586.244 318.978 588.02 319.434 590.132 319.434C592.676 319.434 594.692 318.69 596.18 317.202C597.716 315.762 598.484 313.434 598.484 310.218V304.53C597.284 306.402 595.628 307.938 593.516 309.138C591.404 310.29 588.932 310.866 586.1 310.866C582.788 310.866 579.788 310.026 577.1 308.346C574.412 306.618 572.276 304.194 570.692 301.074C569.156 297.906 568.388 294.258 568.388 290.13C568.388 286.002 569.156 282.378 570.692 279.258C572.276 276.138 574.412 273.738 577.1 272.058C579.788 270.378 582.788 269.538 586.1 269.538ZM598.484 290.202C598.484 287.13 597.62 284.706 595.892 282.93C594.212 281.154 592.148 280.266 589.7 280.266C587.252 280.266 585.164 281.154 583.436 282.93C581.756 284.658 580.916 287.058 580.916 290.13C580.916 293.202 581.756 295.65 583.436 297.474C585.164 299.25 587.252 300.138 589.7 300.138C592.148 300.138 594.212 299.25 595.892 297.474C597.62 295.698 598.484 293.274 598.484 290.202ZM672.833 289.554C672.833 290.706 672.761 291.906 672.617 293.154H644.753C644.945 295.65 645.737 297.57 647.129 298.914C648.569 300.21 650.321 300.858 652.385 300.858C655.457 300.858 657.593 299.562 658.793 296.97H671.897C671.225 299.61 670.001 301.986 668.225 304.098C666.497 306.21 664.313 307.866 661.673 309.066C659.033 310.266 656.081 310.866 652.817 310.866C648.881 310.866 645.377 310.026 642.305 308.346C639.233 306.666 636.833 304.266 635.105 301.146C633.377 298.026 632.513 294.378 632.513 290.202C632.513 286.026 633.353 282.378 635.033 279.258C636.761 276.138 639.161 273.738 642.233 272.058C645.305 270.378 648.833 269.538 652.817 269.538C656.705 269.538 660.161 270.354 663.185 271.986C666.209 273.618 668.561 275.946 670.241 278.97C671.969 281.994 672.833 285.522 672.833 289.554ZM660.233 286.314C660.233 284.202 659.513 282.522 658.073 281.274C656.633 280.026 654.833 279.402 652.673 279.402C650.609 279.402 648.857 280.002 647.417 281.202C646.025 282.402 645.161 284.106 644.825 286.314H660.233ZM691.64 257.01V310.29H679.328V257.01H691.64ZM706.754 265.938C704.594 265.938 702.818 265.314 701.426 264.066C700.082 262.77 699.41 261.186 699.41 259.314C699.41 257.394 700.082 255.81 701.426 254.562C702.818 253.266 704.594 252.618 706.754 252.618C708.866 252.618 710.594 253.266 711.938 254.562C713.33 255.81 714.026 257.394 714.026 259.314C714.026 261.186 713.33 262.77 711.938 264.066C710.594 265.314 708.866 265.938 706.754 265.938ZM712.874 270.114V310.29H700.562V270.114H712.874ZM744.189 299.85V310.29H737.925C733.461 310.29 729.981 309.21 727.485 307.05C724.989 304.842 723.741 301.266 723.741 296.322V280.338H718.845V270.114H723.741V260.322H736.053V270.114H744.117V280.338H736.053V296.466C736.053 297.666 736.341 298.53 736.917 299.058C737.493 299.586 738.453 299.85 739.797 299.85H744.189ZM756.807 310.866C754.647 310.866 752.871 310.242 751.479 308.994C750.135 307.698 749.463 306.114 749.463 304.242C749.463 302.322 750.135 300.714 751.479 299.418C752.871 298.122 754.647 297.474 756.807 297.474C758.919 297.474 760.647 298.122 761.991 299.418C763.383 300.714 764.079 302.322 764.079 304.242C764.079 306.114 763.383 307.698 761.991 308.994C760.647 310.242 758.919 310.866 756.807 310.866ZM224.969 405.93L218.489 397.218C216.569 397.602 214.697 397.794 212.873 397.794C208.121 397.794 203.753 396.69 199.769 394.482C195.833 392.274 192.689 389.202 190.337 385.266C188.033 381.282 186.881 376.818 186.881 371.874C186.881 366.93 188.033 362.49 190.337 358.554C192.689 354.618 195.833 351.546 199.769 349.338C203.753 347.13 208.121 346.026 212.873 346.026C217.625 346.026 221.969 347.13 225.905 349.338C229.889 351.546 233.009 354.618 235.265 358.554C237.569 362.49 238.721 366.93 238.721 371.874C238.721 376.194 237.833 380.154 236.057 383.754C234.329 387.306 231.905 390.258 228.785 392.61L239.873 405.93H224.969ZM199.481 371.874C199.481 376.338 200.681 379.914 203.081 382.602C205.529 385.242 208.793 386.562 212.873 386.562C216.905 386.562 220.121 385.218 222.521 382.53C224.969 379.842 226.193 376.29 226.193 371.874C226.193 367.41 224.969 363.858 222.521 361.218C220.121 358.53 216.905 357.186 212.873 357.186C208.793 357.186 205.529 358.506 203.081 361.146C200.681 363.786 199.481 367.362 199.481 371.874ZM285.383 357.114V397.29H273.071V391.818C271.823 393.594 270.119 395.034 267.959 396.138C265.847 397.194 263.495 397.722 260.903 397.722C257.831 397.722 255.119 397.05 252.767 395.706C250.415 394.314 248.591 392.322 247.295 389.73C245.999 387.138 245.351 384.09 245.351 380.586V357.114H257.591V378.93C257.591 381.618 258.287 383.706 259.679 385.194C261.071 386.682 262.943 387.426 265.295 387.426C267.695 387.426 269.591 386.682 270.983 385.194C272.375 383.706 273.071 381.618 273.071 378.93V357.114H285.383ZM300.418 352.938C298.258 352.938 296.482 352.314 295.09 351.066C293.746 349.77 293.074 348.186 293.074 346.314C293.074 344.394 293.746 342.81 295.09 341.562C296.482 340.266 298.258 339.618 300.418 339.618C302.53 339.618 304.258 340.266 305.602 341.562C306.994 342.81 307.69 344.394 307.69 346.314C307.69 348.186 306.994 349.77 305.602 351.066C304.258 352.314 302.53 352.938 300.418 352.938ZM306.538 357.114V397.29H294.226V357.114H306.538ZM331.805 397.866C328.301 397.866 325.181 397.266 322.445 396.066C319.709 394.866 317.549 393.234 315.965 391.17C314.381 389.058 313.493 386.706 313.301 384.114H325.469C325.613 385.506 326.261 386.634 327.413 387.498C328.565 388.362 329.981 388.794 331.661 388.794C333.197 388.794 334.373 388.506 335.189 387.93C336.053 387.306 336.485 386.514 336.485 385.554C336.485 384.402 335.885 383.562 334.685 383.034C333.485 382.458 331.541 381.834 328.853 381.162C325.973 380.49 323.573 379.794 321.653 379.074C319.733 378.306 318.077 377.13 316.685 375.546C315.293 373.914 314.597 371.73 314.597 368.994C314.597 366.69 315.221 364.602 316.469 362.73C317.765 360.81 319.637 359.298 322.085 358.194C324.581 357.09 327.533 356.538 330.941 356.538C335.981 356.538 339.941 357.786 342.821 360.282C345.749 362.778 347.429 366.09 347.861 370.218H336.485C336.293 368.826 335.669 367.722 334.613 366.906C333.605 366.09 332.261 365.682 330.581 365.682C329.141 365.682 328.037 365.97 327.269 366.546C326.501 367.074 326.117 367.818 326.117 368.778C326.117 369.93 326.717 370.794 327.917 371.37C329.165 371.946 331.085 372.522 333.677 373.098C336.653 373.866 339.077 374.634 340.949 375.402C342.821 376.122 344.453 377.322 345.845 379.002C347.285 380.634 348.029 382.842 348.077 385.626C348.077 387.978 347.405 390.09 346.061 391.962C344.765 393.786 342.869 395.226 340.373 396.282C337.925 397.338 335.069 397.866 331.805 397.866ZM353.161 377.274C353.161 373.29 353.977 369.738 355.609 366.618C357.289 363.498 359.521 361.074 362.305 359.346C365.137 357.57 368.209 356.682 371.521 356.682C374.065 356.682 376.345 357.138 378.361 358.05C380.377 358.914 382.009 360.138 383.257 361.722V357.114H395.569V416.442H383.257V392.25C381.865 393.93 380.161 395.274 378.145 396.282C376.177 397.29 373.921 397.794 371.377 397.794C368.113 397.794 365.089 396.93 362.305 395.202C359.521 393.474 357.289 391.05 355.609 387.93C353.977 384.81 353.161 381.258 353.161 377.274ZM383.257 377.202C383.257 375.042 382.825 373.242 381.961 371.802C381.145 370.314 380.065 369.21 378.721 368.49C377.377 367.722 375.961 367.338 374.473 367.338C373.033 367.338 371.641 367.722 370.297 368.49C368.953 369.21 367.849 370.314 366.985 371.802C366.121 373.29 365.689 375.114 365.689 377.274C365.689 379.434 366.121 381.258 366.985 382.746C367.849 384.186 368.953 385.29 370.297 386.058C371.641 386.778 373.033 387.138 374.473 387.138C375.913 387.138 377.305 386.778 378.649 386.058C380.041 385.29 381.145 384.162 381.961 382.674C382.825 381.186 383.257 379.362 383.257 377.202ZM444.148 357.114V397.29H431.836V391.818C430.588 393.594 428.884 395.034 426.724 396.138C424.612 397.194 422.26 397.722 419.668 397.722C416.596 397.722 413.884 397.05 411.532 395.706C409.18 394.314 407.356 392.322 406.06 389.73C404.764 387.138 404.116 384.09 404.116 380.586V357.114H416.356V378.93C416.356 381.618 417.052 383.706 418.444 385.194C419.836 386.682 421.708 387.426 424.06 387.426C426.46 387.426 428.356 386.682 429.748 385.194C431.14 383.706 431.836 381.618 431.836 378.93V357.114H444.148ZM490.864 376.554C490.864 377.706 490.792 378.906 490.648 380.154H462.784C462.976 382.65 463.768 384.57 465.16 385.914C466.6 387.21 468.352 387.858 470.416 387.858C473.488 387.858 475.624 386.562 476.824 383.97H489.928C489.256 386.61 488.032 388.986 486.256 391.098C484.528 393.21 482.344 394.866 479.704 396.066C477.064 397.266 474.112 397.866 470.848 397.866C466.912 397.866 463.408 397.026 460.336 395.346C457.264 393.666 454.864 391.266 453.136 388.146C451.408 385.026 450.544 381.378 450.544 377.202C450.544 373.026 451.384 369.378 453.064 366.258C454.792 363.138 457.192 360.738 460.264 359.058C463.336 357.378 466.864 356.538 470.848 356.538C474.736 356.538 478.192 357.354 481.216 358.986C484.24 360.618 486.592 362.946 488.272 365.97C490 368.994 490.864 372.522 490.864 376.554ZM478.264 373.314C478.264 371.202 477.544 369.522 476.104 368.274C474.664 367.026 472.864 366.402 470.704 366.402C468.64 366.402 466.888 367.002 465.448 368.202C464.056 369.402 463.192 371.106 462.856 373.314H478.264ZM528.961 397.866C525.457 397.866 522.337 397.266 519.601 396.066C516.865 394.866 514.705 393.234 513.121 391.17C511.537 389.058 510.649 386.706 510.457 384.114H522.625C522.769 385.506 523.417 386.634 524.569 387.498C525.721 388.362 527.137 388.794 528.817 388.794C530.353 388.794 531.529 388.506 532.345 387.93C533.209 387.306 533.641 386.514 533.641 385.554C533.641 384.402 533.041 383.562 531.841 383.034C530.641 382.458 528.697 381.834 526.009 381.162C523.129 380.49 520.729 379.794 518.809 379.074C516.889 378.306 515.233 377.13 513.841 375.546C512.449 373.914 511.753 371.73 511.753 368.994C511.753 366.69 512.377 364.602 513.625 362.73C514.921 360.81 516.793 359.298 519.241 358.194C521.737 357.09 524.689 356.538 528.097 356.538C533.137 356.538 537.097 357.786 539.977 360.282C542.905 362.778 544.585 366.09 545.017 370.218H533.641C533.449 368.826 532.825 367.722 531.769 366.906C530.761 366.09 529.417 365.682 527.737 365.682C526.297 365.682 525.193 365.97 524.425 366.546C523.657 367.074 523.273 367.818 523.273 368.778C523.273 369.93 523.873 370.794 525.073 371.37C526.321 371.946 528.241 372.522 530.833 373.098C533.809 373.866 536.233 374.634 538.105 375.402C539.977 376.122 541.609 377.322 543.001 379.002C544.441 380.634 545.185 382.842 545.233 385.626C545.233 387.978 544.561 390.09 543.217 391.962C541.921 393.786 540.025 395.226 537.529 396.282C535.081 397.338 532.225 397.866 528.961 397.866ZM592.437 357.114V397.29H580.125V391.818C578.877 393.594 577.173 395.034 575.013 396.138C572.901 397.194 570.549 397.722 567.957 397.722C564.885 397.722 562.173 397.05 559.821 395.706C557.469 394.314 555.645 392.322 554.349 389.73C553.053 387.138 552.405 384.09 552.405 380.586V357.114H564.645V378.93C564.645 381.618 565.341 383.706 566.733 385.194C568.125 386.682 569.997 387.426 572.349 387.426C574.749 387.426 576.645 386.682 578.037 385.194C579.429 383.706 580.125 381.618 580.125 378.93V357.114H592.437ZM617.625 397.866C614.121 397.866 611.001 397.266 608.265 396.066C605.529 394.866 603.369 393.234 601.785 391.17C600.201 389.058 599.313 386.706 599.121 384.114H611.289C611.433 385.506 612.081 386.634 613.233 387.498C614.385 388.362 615.801 388.794 617.481 388.794C619.017 388.794 620.193 388.506 621.009 387.93C621.873 387.306 622.305 386.514 622.305 385.554C622.305 384.402 621.705 383.562 620.505 383.034C619.305 382.458 617.361 381.834 614.673 381.162C611.793 380.49 609.393 379.794 607.473 379.074C605.553 378.306 603.897 377.13 602.505 375.546C601.113 373.914 600.417 371.73 600.417 368.994C600.417 366.69 601.041 364.602 602.289 362.73C603.585 360.81 605.457 359.298 607.905 358.194C610.401 357.09 613.353 356.538 616.761 356.538C621.801 356.538 625.761 357.786 628.641 360.282C631.569 362.778 633.249 366.09 633.681 370.218H622.305C622.113 368.826 621.489 367.722 620.433 366.906C619.425 366.09 618.081 365.682 616.401 365.682C614.961 365.682 613.857 365.97 613.089 366.546C612.321 367.074 611.937 367.818 611.937 368.778C611.937 369.93 612.537 370.794 613.737 371.37C614.985 371.946 616.905 372.522 619.497 373.098C622.473 373.866 624.897 374.634 626.769 375.402C628.641 376.122 630.273 377.322 631.665 379.002C633.105 380.634 633.849 382.842 633.897 385.626C633.897 387.978 633.225 390.09 631.881 391.962C630.585 393.786 628.689 395.226 626.193 396.282C623.745 397.338 620.889 397.866 617.625 397.866ZM638.981 377.202C638.981 373.026 639.821 369.378 641.501 366.258C643.229 363.138 645.605 360.738 648.629 359.058C651.701 357.378 655.205 356.538 659.141 356.538C664.181 356.538 668.381 357.858 671.741 360.498C675.149 363.138 677.381 366.858 678.437 371.658H665.333C664.229 368.586 662.093 367.05 658.925 367.05C656.669 367.05 654.869 367.938 653.525 369.714C652.181 371.442 651.509 373.938 651.509 377.202C651.509 380.466 652.181 382.986 653.525 384.762C654.869 386.49 656.669 387.354 658.925 387.354C662.093 387.354 664.229 385.818 665.333 382.746H678.437C677.381 387.45 675.149 391.146 671.741 393.834C668.333 396.522 664.133 397.866 659.141 397.866C655.205 397.866 651.701 397.026 648.629 395.346C645.605 393.666 643.229 391.266 641.501 388.146C639.821 385.026 638.981 381.378 638.981 377.202ZM691.215 352.938C689.055 352.938 687.279 352.314 685.887 351.066C684.543 349.77 683.871 348.186 683.871 346.314C683.871 344.394 684.543 342.81 685.887 341.562C687.279 340.266 689.055 339.618 691.215 339.618C693.327 339.618 695.055 340.266 696.399 341.562C697.791 342.81 698.487 344.394 698.487 346.314C698.487 348.186 697.791 349.77 696.399 351.066C695.055 352.314 693.327 352.938 691.215 352.938ZM697.335 357.114V397.29H685.023V357.114H697.335ZM718.57 362.802C719.77 360.93 721.426 359.418 723.538 358.266C725.65 357.114 728.122 356.538 730.954 356.538C734.266 356.538 737.266 357.378 739.954 359.058C742.642 360.738 744.754 363.138 746.29 366.258C747.874 369.378 748.666 373.002 748.666 377.13C748.666 381.258 747.874 384.906 746.29 388.074C744.754 391.194 742.642 393.618 739.954 395.346C737.266 397.026 734.266 397.866 730.954 397.866C728.17 397.866 725.698 397.29 723.538 396.138C721.426 394.986 719.77 393.498 718.57 391.674V416.442H706.258V357.114H718.57V362.802ZM736.138 377.13C736.138 374.058 735.274 371.658 733.546 369.93C731.866 368.154 729.778 367.266 727.282 367.266C724.834 367.266 722.746 368.154 721.018 369.93C719.338 371.706 718.498 374.13 718.498 377.202C718.498 380.274 719.338 382.698 721.018 384.474C722.746 386.25 724.834 387.138 727.282 387.138C729.73 387.138 731.818 386.25 733.546 384.474C735.274 382.65 736.138 380.202 736.138 377.13ZM761.317 352.938C759.157 352.938 757.381 352.314 755.989 351.066C754.645 349.77 753.973 348.186 753.973 346.314C753.973 344.394 754.645 342.81 755.989 341.562C757.381 340.266 759.157 339.618 761.317 339.618C763.429 339.618 765.157 340.266 766.501 341.562C767.893 342.81 768.589 344.394 768.589 346.314C768.589 348.186 767.893 349.77 766.501 351.066C765.157 352.314 763.429 352.938 761.317 352.938ZM767.437 357.114V397.29H755.125V357.114H767.437ZM798.751 386.85V397.29H792.487C788.023 397.29 784.543 396.21 782.047 394.05C779.551 391.842 778.303 388.266 778.303 383.322V367.338H773.407V357.114H778.303V347.322H790.615V357.114H798.679V367.338H790.615V383.466C790.615 384.666 790.903 385.53 791.479 386.058C792.055 386.586 793.015 386.85 794.359 386.85H798.751ZM811.369 397.866C809.209 397.866 807.433 397.242 806.041 395.994C804.697 394.698 804.025 393.114 804.025 391.242C804.025 389.322 804.697 387.714 806.041 386.418C807.433 385.122 809.209 384.474 811.369 384.474C813.481 384.474 815.209 385.122 816.553 386.418C817.945 387.714 818.641 389.322 818.641 391.242C818.641 393.114 817.945 394.698 816.553 395.994C815.209 397.242 813.481 397.866 811.369 397.866Z" fill="url(#paint0_linear_2675_499)"/>
</g>
<defs>
<filter id="filter0_d_2675_499" x="29.6912" y="0.618164" width="948.658" height="496.824" filterUnits="userSpaceOnUse" color-interpolation-filters="sRGB">
<feFlood flood-opacity="0" result="BackgroundImageFix"/>
<feColorMatrix in="SourceAlpha" type="matrix" values="0 0 0 0 0 0 0 0 0 0 0 0 0 0 0 0 0 0 127 0" result="hardAlpha"/>
<feOffset dy="1"/>
<feGaussianBlur stdDeviation="40"/>
<feComposite in2="hardAlpha" operator="out"/>
<feColorMatrix type="matrix" values="0 0 0 0 0.654902 0 0 0 0 0.933333 0 0 0 0 0.666667 0 0 0 0.75 0"/>
<feBlend mode="normal" in2="BackgroundImageFix" result="effect1_dropShadow_2675_499"/>
<feBlend mode="normal" in="SourceGraphic" in2="effect1_dropShadow_2675_499" result="shape"/>
</filter>
<linearGradient id="paint0_linear_2675_499" x1="502.985" y1="69.29" x2="502.985" y2="415.29" gradientUnits="userSpaceOnUse">
<stop stop-color="#F0C21A"/>
<stop offset="0.15" stop-color="#966B28"/>
<stop offset="0.325" stop-color="#D0AD6A"/>
<stop offset="0.5" stop-color="#FDEECA"/>
<stop offset="0.64" stop-color="#EED46A"/>
<stop offset="0.8" stop-color="#966B28"/>
<stop offset="1" stop-color="#EED46A"/>
</linearGradient>
</defs>
</svg>
