<svg width="439" height="249" viewBox="0 0 439 249" fill="none" xmlns="http://www.w3.org/2000/svg">
<rect x="98" y="92.1599" width="243.2" height="70.4" rx="35.2" fill="url(#paint0_linear_2125_315)"/>
<rect opacity="0.05" x="98" y="92.1599" width="243.2" height="70.4491" rx="35.2246" fill="url(#paint1_linear_2125_315)"/>
<rect x="98" y="92.1599" width="243.2" height="70.4" rx="35.2" fill="url(#paint2_linear_2125_315)"/>
<path d="M130.211 124.271C130.211 125.052 130.032 125.768 129.674 126.421C129.315 127.061 128.765 127.58 128.022 127.976C127.28 128.373 126.358 128.572 125.258 128.572H123.222V133.41H119.939V119.932H125.258C126.333 119.932 127.242 120.117 127.984 120.488C128.726 120.86 129.283 121.372 129.654 122.024C130.026 122.677 130.211 123.426 130.211 124.271ZM125.008 125.96C125.635 125.96 126.102 125.813 126.41 125.519C126.717 125.224 126.87 124.808 126.87 124.271C126.87 123.733 126.717 123.317 126.41 123.023C126.102 122.728 125.635 122.581 125.008 122.581H123.222V125.96H125.008ZM135.204 119.202V133.41H131.92V119.202H135.204ZM136.93 128.034C136.93 126.933 137.135 125.967 137.544 125.135C137.967 124.303 138.536 123.663 139.253 123.215C139.97 122.767 140.77 122.543 141.653 122.543C142.408 122.543 143.068 122.696 143.631 123.004C144.207 123.311 144.648 123.714 144.956 124.213V122.696H148.239V133.41H144.956V131.893C144.636 132.392 144.188 132.796 143.612 133.103C143.048 133.41 142.389 133.564 141.634 133.564C140.764 133.564 139.97 133.34 139.253 132.892C138.536 132.431 137.967 131.784 137.544 130.952C137.135 130.108 136.93 129.135 136.93 128.034ZM144.956 128.053C144.956 127.234 144.725 126.588 144.264 126.114C143.816 125.64 143.266 125.404 142.613 125.404C141.96 125.404 141.404 125.64 140.943 126.114C140.495 126.575 140.271 127.215 140.271 128.034C140.271 128.853 140.495 129.506 140.943 129.992C141.404 130.466 141.96 130.703 142.613 130.703C143.266 130.703 143.816 130.466 144.264 129.992C144.725 129.519 144.956 128.872 144.956 128.053ZM161.558 122.696L154.838 138.498H151.305L153.763 133.045L149.405 122.696H153.072L155.549 129.397L158.006 122.696H161.558ZM168.465 121.583C167.889 121.583 167.416 121.416 167.045 121.084C166.686 120.738 166.507 120.316 166.507 119.816C166.507 119.304 166.686 118.882 167.045 118.549C167.416 118.204 167.889 118.031 168.465 118.031C169.029 118.031 169.489 118.204 169.848 118.549C170.219 118.882 170.405 119.304 170.405 119.816C170.405 120.316 170.219 120.738 169.848 121.084C169.489 121.416 169.029 121.583 168.465 121.583ZM170.097 122.696V133.41H166.814V122.696H170.097ZM179.005 122.581C180.259 122.581 181.257 122.991 182 123.81C182.755 124.616 183.133 125.73 183.133 127.151V133.41H179.869V127.592C179.869 126.876 179.683 126.319 179.312 125.922C178.941 125.525 178.441 125.327 177.814 125.327C177.187 125.327 176.688 125.525 176.317 125.922C175.945 126.319 175.76 126.876 175.76 127.592V133.41H172.477V122.696H175.76V124.117C176.093 123.644 176.541 123.272 177.104 123.004C177.667 122.722 178.301 122.581 179.005 122.581ZM194.36 133.544C193.374 133.544 192.491 133.384 191.71 133.064C190.929 132.744 190.302 132.271 189.828 131.644C189.368 131.016 189.124 130.261 189.099 129.378H192.593C192.644 129.877 192.817 130.261 193.112 130.53C193.406 130.786 193.79 130.914 194.264 130.914C194.75 130.914 195.134 130.805 195.416 130.588C195.697 130.357 195.838 130.044 195.838 129.647C195.838 129.314 195.723 129.039 195.492 128.821C195.275 128.604 195 128.424 194.667 128.284C194.347 128.143 193.886 127.983 193.284 127.804C192.414 127.535 191.704 127.266 191.153 126.997C190.603 126.728 190.129 126.332 189.732 125.807C189.336 125.282 189.137 124.597 189.137 123.752C189.137 122.498 189.592 121.519 190.5 120.815C191.409 120.098 192.593 119.74 194.052 119.74C195.537 119.74 196.734 120.098 197.643 120.815C198.552 121.519 199.038 122.504 199.102 123.772H195.55C195.524 123.336 195.364 122.997 195.07 122.754C194.776 122.498 194.398 122.37 193.937 122.37C193.54 122.37 193.22 122.479 192.977 122.696C192.734 122.901 192.612 123.202 192.612 123.599C192.612 124.034 192.817 124.373 193.227 124.616C193.636 124.86 194.276 125.122 195.147 125.404C196.017 125.698 196.721 125.98 197.259 126.248C197.809 126.517 198.283 126.908 198.68 127.42C199.076 127.932 199.275 128.591 199.275 129.397C199.275 130.165 199.076 130.863 198.68 131.49C198.296 132.117 197.732 132.616 196.99 132.988C196.248 133.359 195.371 133.544 194.36 133.544ZM211.395 127.88C211.395 128.188 211.375 128.508 211.337 128.84H203.907C203.958 129.506 204.169 130.018 204.54 130.376C204.924 130.722 205.391 130.895 205.942 130.895C206.761 130.895 207.331 130.549 207.651 129.858H211.145C210.966 130.562 210.639 131.196 210.166 131.759C209.705 132.322 209.123 132.764 208.419 133.084C207.715 133.404 206.927 133.564 206.057 133.564C205.007 133.564 204.073 133.34 203.254 132.892C202.435 132.444 201.795 131.804 201.334 130.972C200.873 130.14 200.643 129.167 200.643 128.053C200.643 126.94 200.867 125.967 201.315 125.135C201.775 124.303 202.415 123.663 203.235 123.215C204.054 122.767 204.995 122.543 206.057 122.543C207.094 122.543 208.015 122.76 208.822 123.196C209.628 123.631 210.255 124.252 210.703 125.058C211.164 125.864 211.395 126.805 211.395 127.88ZM208.035 127.016C208.035 126.453 207.843 126.005 207.459 125.672C207.075 125.34 206.595 125.173 206.019 125.173C205.468 125.173 205.001 125.333 204.617 125.653C204.246 125.973 204.015 126.428 203.926 127.016H208.035ZM212.474 128.053C212.474 126.94 212.698 125.967 213.146 125.135C213.607 124.303 214.24 123.663 215.047 123.215C215.866 122.767 216.8 122.543 217.85 122.543C219.194 122.543 220.314 122.895 221.21 123.599C222.119 124.303 222.714 125.295 222.995 126.575H219.501C219.207 125.756 218.637 125.346 217.792 125.346C217.191 125.346 216.711 125.583 216.352 126.056C215.994 126.517 215.815 127.183 215.815 128.053C215.815 128.924 215.994 129.596 216.352 130.069C216.711 130.53 217.191 130.76 217.792 130.76C218.637 130.76 219.207 130.351 219.501 129.532H222.995C222.714 130.786 222.119 131.772 221.21 132.488C220.301 133.205 219.181 133.564 217.85 133.564C216.8 133.564 215.866 133.34 215.047 132.892C214.24 132.444 213.607 131.804 213.146 130.972C212.698 130.14 212.474 129.167 212.474 128.053ZM229.628 133.564C228.579 133.564 227.632 133.34 226.787 132.892C225.955 132.444 225.296 131.804 224.809 130.972C224.336 130.14 224.099 129.167 224.099 128.053C224.099 126.952 224.342 125.986 224.828 125.154C225.315 124.309 225.98 123.663 226.825 123.215C227.67 122.767 228.617 122.543 229.667 122.543C230.716 122.543 231.664 122.767 232.508 123.215C233.353 123.663 234.019 124.309 234.505 125.154C234.992 125.986 235.235 126.952 235.235 128.053C235.235 129.154 234.985 130.127 234.486 130.972C234 131.804 233.328 132.444 232.47 132.892C231.625 133.34 230.678 133.564 229.628 133.564ZM229.628 130.722C230.256 130.722 230.787 130.492 231.222 130.031C231.67 129.57 231.894 128.911 231.894 128.053C231.894 127.196 231.676 126.536 231.241 126.076C230.819 125.615 230.294 125.384 229.667 125.384C229.027 125.384 228.496 125.615 228.073 126.076C227.651 126.524 227.44 127.183 227.44 128.053C227.44 128.911 227.644 129.57 228.054 130.031C228.476 130.492 229.001 130.722 229.628 130.722ZM243.505 122.581C244.759 122.581 245.757 122.991 246.5 123.81C247.255 124.616 247.633 125.73 247.633 127.151V133.41H244.369V127.592C244.369 126.876 244.183 126.319 243.812 125.922C243.441 125.525 242.941 125.327 242.314 125.327C241.687 125.327 241.188 125.525 240.817 125.922C240.445 126.319 240.26 126.876 240.26 127.592V133.41H236.977V122.696H240.26V124.117C240.593 123.644 241.041 123.272 241.604 123.004C242.167 122.722 242.801 122.581 243.505 122.581ZM249.261 128.034C249.261 126.933 249.466 125.967 249.876 125.135C250.298 124.303 250.868 123.663 251.585 123.215C252.301 122.767 253.101 122.543 253.985 122.543C254.689 122.543 255.329 122.69 255.905 122.984C256.493 123.279 256.954 123.676 257.287 124.175V119.202H260.57V133.41H257.287V131.874C256.98 132.386 256.538 132.796 255.962 133.103C255.399 133.41 254.74 133.564 253.985 133.564C253.101 133.564 252.301 133.34 251.585 132.892C250.868 132.431 250.298 131.784 249.876 130.952C249.466 130.108 249.261 129.135 249.261 128.034ZM257.287 128.053C257.287 127.234 257.057 126.588 256.596 126.114C256.148 125.64 255.597 125.404 254.945 125.404C254.292 125.404 253.735 125.64 253.274 126.114C252.826 126.575 252.602 127.215 252.602 128.034C252.602 128.853 252.826 129.506 253.274 129.992C253.735 130.466 254.292 130.703 254.945 130.703C255.597 130.703 256.148 130.466 256.596 129.992C257.057 129.519 257.287 128.872 257.287 128.053ZM267.304 133.564C266.369 133.564 265.537 133.404 264.808 133.084C264.078 132.764 263.502 132.328 263.08 131.778C262.657 131.215 262.421 130.588 262.369 129.896H265.614C265.653 130.268 265.825 130.568 266.133 130.799C266.44 131.029 266.817 131.144 267.265 131.144C267.675 131.144 267.989 131.068 268.206 130.914C268.437 130.748 268.552 130.536 268.552 130.28C268.552 129.973 268.392 129.749 268.072 129.608C267.752 129.455 267.233 129.288 266.517 129.109C265.749 128.93 265.109 128.744 264.597 128.552C264.085 128.348 263.643 128.034 263.272 127.612C262.901 127.176 262.715 126.594 262.715 125.864C262.715 125.25 262.881 124.693 263.214 124.194C263.56 123.682 264.059 123.279 264.712 122.984C265.377 122.69 266.165 122.543 267.073 122.543C268.417 122.543 269.473 122.876 270.241 123.541C271.022 124.207 271.47 125.09 271.585 126.191H268.552C268.501 125.82 268.334 125.525 268.053 125.308C267.784 125.09 267.425 124.981 266.977 124.981C266.593 124.981 266.299 125.058 266.094 125.212C265.889 125.352 265.787 125.551 265.787 125.807C265.787 126.114 265.947 126.344 266.267 126.498C266.6 126.652 267.112 126.805 267.803 126.959C268.597 127.164 269.243 127.368 269.742 127.573C270.241 127.765 270.677 128.085 271.048 128.533C271.432 128.968 271.63 129.557 271.643 130.3C271.643 130.927 271.464 131.49 271.105 131.989C270.76 132.476 270.254 132.86 269.589 133.141C268.936 133.423 268.174 133.564 267.304 133.564Z" fill="#1A1C1E"/>
<a href="https://www.cloudbet.com/en/auth/sign-up">
<rect fill="black" fill-opacity="0" x="0.143745" y="-9.53674e-07" width="153.72" height="28.8"/>
</a>
<g clip-path="url(#clip0_2125_315)">
<rect x="282.205" y="103.36" width="48" height="48" rx="24" fill="#1A1C1E"/>
<path d="M307.613 119.068L315.94 127.395M315.94 127.395L307.613 135.721M315.94 127.395H295.957" stroke="url(#paint3_linear_2125_315)" stroke-width="3.48387" stroke-linecap="round" stroke-linejoin="round"/>
</g>
<defs>
<linearGradient id="paint0_linear_2125_315" x1="219.6" y1="92.1599" x2="219.6" y2="162.56" gradientUnits="userSpaceOnUse">
<stop stop-color="#F0C21A"/>
<stop offset="0.15" stop-color="#966B28"/>
<stop offset="0.325" stop-color="#D0AD6A"/>
<stop offset="0.5" stop-color="#FDEECA"/>
<stop offset="0.64" stop-color="#EED46A"/>
<stop offset="0.8" stop-color="#966B28"/>
<stop offset="1" stop-color="#EED46A"/>
</linearGradient>
<linearGradient id="paint1_linear_2125_315" x1="219.6" y1="92.1599" x2="219.6" y2="162.609" gradientUnits="userSpaceOnUse">
<stop stop-color="#F0C21A"/>
<stop offset="0.15" stop-color="#966B28"/>
<stop offset="0.325" stop-color="#D0AD6A"/>
<stop offset="0.5" stop-color="#FDEECA"/>
<stop offset="0.64" stop-color="#EED46A"/>
<stop offset="0.8" stop-color="#966B28"/>
<stop offset="1" stop-color="#EED46A"/>
</linearGradient>
<linearGradient id="paint2_linear_2125_315" x1="219.6" y1="92.1599" x2="219.6" y2="162.56" gradientUnits="userSpaceOnUse">
<stop stop-color="#F0C21A"/>
<stop offset="0.15" stop-color="#966B28"/>
<stop offset="0.325" stop-color="#D0AD6A"/>
<stop offset="0.5" stop-color="#FDEECA"/>
<stop offset="0.64" stop-color="#EED46A"/>
<stop offset="0.8" stop-color="#966B28"/>
<stop offset="1" stop-color="#EED46A"/>
</linearGradient>
<linearGradient id="paint3_linear_2125_315" x1="305.948" y1="119.068" x2="305.948" y2="135.721" gradientUnits="userSpaceOnUse">
<stop stop-color="#F0C21A"/>
<stop offset="0.15" stop-color="#966B28"/>
<stop offset="0.325" stop-color="#D0AD6A"/>
<stop offset="0.5" stop-color="#FDEECA"/>
<stop offset="0.64" stop-color="#EED46A"/>
<stop offset="0.8" stop-color="#966B28"/>
<stop offset="1" stop-color="#EED46A"/>
</linearGradient>
<clipPath id="clip0_2125_315">
<rect x="282.205" y="103.36" width="48" height="48" rx="24" fill="white"/>
</clipPath>
</defs>
</svg>
