<svg width="292" height="66" viewBox="0 0 292 66" fill="none" xmlns="http://www.w3.org/2000/svg">
<g clip-path="url(#clip0_2185_4057)">
<g clip-path="url(#clip1_2185_4057)">
<mask id="mask0_2185_4057" style="mask-type:luminance" maskUnits="userSpaceOnUse" x="1" y="24" width="57" height="18">
<path d="M57.0027 24.1611H1.34375V41.7376H57.0027V24.1611Z" fill="white"/>
</mask>
<g mask="url(#mask0_2185_4057)">
<path d="M41.6219 24.884C40.7559 24.5404 39.3825 24.1611 37.6843 24.1611C33.3489 24.1611 30.296 26.473 30.2773 29.7783C30.2413 32.2169 32.4631 33.5713 34.1248 34.3844C35.8232 35.2153 36.4006 35.7576 36.4006 36.4981C36.3833 37.6356 35.0282 38.1599 33.7643 38.1599C32.0114 38.1599 31.0724 37.8897 29.6451 37.2568L29.0671 36.9856L28.4526 40.7968C29.4823 41.2659 31.3794 41.6823 33.3489 41.7004C37.9553 41.7004 40.9542 39.4244 40.9899 35.902C41.0072 33.9693 39.834 32.4884 37.3048 31.2781C35.7693 30.5014 34.829 29.9775 34.829 29.1826C34.847 28.46 35.6243 27.7199 37.3575 27.7199C38.7848 27.6837 39.8334 28.0267 40.6277 28.37L41.0248 28.5503L41.6219 24.884Z" fill="white"/>
<path d="M25.7071 41.4478H21.3169L24.0628 24.4692H28.4526L25.7071 41.4478Z" fill="white"/>
<path fill-rule="evenodd" clip-rule="evenodd" d="M52.8756 24.4692H49.48C48.4327 24.4692 47.6373 24.7761 47.1855 25.878L40.6646 41.4475H45.2709C45.2709 41.4475 46.0294 39.352 46.1922 38.9007H51.8288C51.9548 39.4967 52.3525 41.4475 52.3525 41.4475H56.4175L52.8756 24.4692ZM47.4566 35.4329C47.8181 34.4575 49.2093 30.6825 49.2093 30.6825C49.2022 30.697 49.2587 30.5401 49.3431 30.3063L49.3442 30.3034L49.3447 30.3016C49.4708 29.9522 49.6579 29.4337 49.787 29.0569L50.0939 30.52C50.0939 30.52 50.9251 34.584 51.1057 35.4329H47.4566Z" fill="white"/>
<path d="M17.6484 24.4692L13.3491 36.047L12.8793 33.6989L12.8788 33.6974L11.3437 25.8965C11.0909 24.8121 10.3141 24.505 9.35671 24.4692H2.29345L2.22119 24.8123C3.9439 25.2529 5.4847 25.8876 6.83475 26.677L10.7477 41.4298H15.3901L22.2905 24.4692H17.6484Z" fill="white"/>
</g>
<path d="M109.182 23.6868C112.418 23.6868 114.672 25.9174 114.672 29.165C114.672 32.4241 112.372 34.6663 109.101 34.6663H105.518V40.3642H102.93V23.6868H109.182ZM105.518 32.4936H108.489C110.743 32.4936 112.025 31.2802 112.025 29.1767C112.025 27.0733 110.743 25.8712 108.5 25.8712H105.518V32.4936ZM115.344 36.9085C115.344 34.7816 116.974 33.4758 119.864 33.3139L123.192 33.1175V32.1815C123.192 30.8291 122.279 30.0202 120.753 30.0202C119.309 30.0202 118.407 30.7135 118.188 31.8H115.83C115.968 29.604 117.841 27.9859 120.846 27.9859C123.793 27.9859 125.677 29.5461 125.677 31.9848V40.364H123.285V38.3646H123.226C122.523 39.7168 120.984 40.572 119.39 40.572C117.009 40.572 115.344 39.0926 115.344 36.9085ZM123.192 35.8105V34.8512L120.199 35.036C118.708 35.1401 117.864 35.7988 117.864 36.839C117.864 37.9022 118.742 38.5958 120.084 38.5958C121.829 38.5958 123.192 37.3937 123.192 35.8105ZM127.938 44.8365V42.8139C128.124 42.8599 128.54 42.8599 128.748 42.8599C129.903 42.8599 130.527 42.3747 130.909 41.1266C130.909 41.1033 131.128 40.3867 131.128 40.3753L126.736 28.2052H129.44L132.515 38.0984H132.561L135.635 28.2052H138.271L133.717 40.9992C132.677 43.9465 131.475 44.8942 128.956 44.8942C128.748 44.8942 128.124 44.871 127.938 44.8365ZM95.2904 25.3143C95.9143 24.534 96.3378 23.4864 96.2261 22.4155C95.3129 22.461 94.1983 23.018 93.553 23.7989C92.9736 24.4678 92.4609 25.5595 92.5946 26.5853C93.6199 26.6742 94.644 26.0728 95.2904 25.3143ZM96.2146 26.7848C94.7258 26.696 93.4599 27.6297 92.7488 27.6297C92.0375 27.6297 90.9486 26.8294 89.7711 26.851C88.2383 26.8736 86.8162 27.74 86.0383 29.1185C84.4386 31.8758 85.6161 35.9659 87.1718 38.2116C87.9274 39.3226 88.8379 40.5459 90.0375 40.5019C91.1711 40.4575 91.6154 39.768 92.9933 39.768C94.3701 39.768 94.7702 40.5019 95.9702 40.4797C97.2145 40.4575 97.9925 39.3681 98.748 38.256C99.6146 36.9895 99.9693 35.7666 99.9917 35.6996C99.9693 35.6772 97.5923 34.7653 97.5703 32.0309C97.5478 29.7413 99.4366 28.6523 99.5255 28.5848C98.4589 27.0072 96.7924 26.8294 96.2146 26.7848Z" fill="white"/>
<mask id="mask1_2185_4057" style="mask-type:luminance" maskUnits="userSpaceOnUse" x="166" y="15" width="47" height="36">
<path d="M212.897 15.0586H166.68V50.8393H212.897V15.0586Z" fill="white"/>
</mask>
<g mask="url(#mask1_2185_4057)">
<path d="M211.772 50.3498V50.4416H211.858C211.874 50.4419 211.89 50.4379 211.903 50.43C211.909 50.426 211.914 50.4208 211.916 50.4146C211.919 50.4084 211.921 50.4017 211.921 50.3948C211.921 50.3881 211.919 50.3815 211.916 50.3754C211.914 50.3695 211.909 50.3643 211.903 50.3606C211.89 50.3522 211.874 50.3481 211.858 50.3488L211.772 50.3498ZM211.859 50.2847C211.895 50.2824 211.932 50.293 211.962 50.3146C211.973 50.3243 211.983 50.3368 211.989 50.351C211.996 50.3651 211.998 50.3806 211.997 50.396C211.998 50.4092 211.996 50.4225 211.99 50.4348C211.986 50.4472 211.978 50.4583 211.969 50.4674C211.946 50.4874 211.917 50.4995 211.886 50.5017L212.002 50.6328H211.913L211.806 50.5026H211.772V50.6328H211.699V50.2849L211.859 50.2847ZM211.835 50.7528C211.874 50.7531 211.913 50.7453 211.948 50.7298C212.018 50.7 212.073 50.6448 212.102 50.5755C212.117 50.5394 212.125 50.5008 212.125 50.4617C212.125 50.4226 212.117 50.384 212.102 50.3479C212.087 50.3136 212.067 50.2824 212.041 50.2559C212.014 50.2295 211.982 50.2083 211.948 50.1936C211.913 50.179 211.874 50.1716 211.835 50.172C211.796 50.1716 211.757 50.179 211.721 50.1936C211.685 50.2082 211.653 50.2294 211.626 50.2559C211.586 50.2976 211.558 50.3503 211.547 50.4075C211.537 50.4648 211.542 50.524 211.565 50.5777C211.579 50.6123 211.599 50.6436 211.626 50.6697C211.653 50.6964 211.685 50.7176 211.721 50.7321C211.757 50.7475 211.796 50.7554 211.835 50.7552M211.835 50.0883C211.937 50.0882 212.034 50.1278 212.106 50.1986C212.14 50.2327 212.169 50.2732 212.187 50.318C212.206 50.364 212.217 50.4135 212.217 50.4635C212.217 50.5135 212.206 50.563 212.187 50.6089C212.167 50.6535 212.14 50.6939 212.106 50.7282C212.07 50.762 212.029 50.7892 211.985 50.8087C211.938 50.8287 211.886 50.8388 211.835 50.8385C211.783 50.8389 211.732 50.8288 211.684 50.8087C211.639 50.7897 211.597 50.7624 211.563 50.7282C211.527 50.6925 211.501 50.6507 211.482 50.6049C211.462 50.559 211.452 50.5095 211.452 50.4594C211.452 50.4095 211.462 50.36 211.482 50.314C211.501 50.2692 211.529 50.2287 211.564 50.1947C211.598 50.1599 211.639 50.1326 211.685 50.1143C211.733 50.0942 211.785 50.0841 211.836 50.0844M176.618 48.7449C176.618 48.0814 177.054 47.5365 177.765 47.5365C178.444 47.5365 178.901 48.0581 178.901 48.7449C178.901 49.4315 178.444 49.9531 177.765 49.9531C177.054 49.9531 176.618 49.4081 176.618 48.7449ZM179.676 48.7449V46.8572H178.854V47.317C178.594 46.9772 178.199 46.7639 177.662 46.7639C176.604 46.7639 175.774 47.5935 175.774 48.7457C175.774 49.8979 176.604 50.7274 177.662 50.7274C178.199 50.7274 178.594 50.514 178.854 50.1745V50.6328H179.674L179.676 48.7449ZM207.41 48.7449C207.41 48.0814 207.845 47.5365 208.556 47.5365C209.235 47.5365 209.693 48.0581 209.693 48.7449C209.693 49.4315 209.235 49.9531 208.556 49.9531C207.845 49.9531 207.41 49.4081 207.41 48.7449ZM210.467 48.7449V45.3418H209.646V47.317C209.386 46.9772 208.99 46.7639 208.453 46.7639C207.396 46.7639 206.565 47.5935 206.565 48.7457C206.565 49.8979 207.395 50.7274 208.453 50.7274C208.99 50.7274 209.386 50.514 209.646 50.1745V50.6328H210.467V48.7449ZM189.863 47.4976C190.392 47.4976 190.731 47.8292 190.818 48.4131H188.859C188.947 47.8681 189.278 47.4976 189.863 47.4976ZM189.88 46.7619C188.774 46.7619 187.999 47.5667 187.999 48.7437C187.999 49.9436 188.804 50.7255 189.935 50.7255C190.503 50.7255 191.024 50.5835 191.482 50.1966L191.08 49.5885C190.763 49.8414 190.36 49.9832 189.982 49.9832C189.452 49.9832 188.97 49.7384 188.852 49.0589H191.655C191.663 48.9569 191.672 48.8538 191.672 48.7434C191.663 47.567 190.936 46.7619 189.88 46.7619ZM199.789 48.7434C199.789 48.0801 200.224 47.5352 200.935 47.5352C201.613 47.5352 202.072 48.0567 202.072 48.7434C202.072 49.4303 201.613 49.9518 200.935 49.9518C200.224 49.9518 199.789 49.4069 199.789 48.7434ZM202.845 48.7434V46.8572H202.025V47.317C201.763 46.9772 201.37 46.7639 200.833 46.7639C199.775 46.7639 198.944 47.5935 198.944 48.7457C198.944 49.8979 199.775 50.7274 200.833 50.7274C201.37 50.7274 201.763 50.514 202.025 50.1745V50.6328H202.845V48.7449V48.7434ZM195.154 48.7434C195.154 49.8882 195.951 50.7252 197.168 50.7252C197.736 50.7252 198.115 50.5987 198.524 50.2753L198.13 49.6118C197.823 49.8334 197.498 49.9518 197.141 49.9518C196.487 49.9437 196.004 49.4701 196.004 48.7434C196.004 48.0169 196.487 47.5434 197.141 47.5352C197.498 47.5352 197.821 47.6535 198.13 47.875L198.524 47.2117C198.114 46.8882 197.736 46.7615 197.168 46.7615C195.951 46.7615 195.154 47.5984 195.154 48.7434ZM205.736 46.7615C205.262 46.7615 204.954 46.9831 204.74 47.3147V46.8572H203.926V50.6307H204.749V48.5153C204.749 47.8909 205.017 47.5438 205.554 47.5438C205.73 47.5413 205.904 47.5736 206.067 47.6388L206.321 46.8653C206.138 46.7938 205.902 46.7615 205.736 46.7615ZM183.734 47.1571C183.338 46.8969 182.794 46.7623 182.194 46.7623C181.238 46.7623 180.622 47.2206 180.622 47.9704C180.622 48.5856 181.08 48.9654 181.925 49.0838L182.312 49.1389C182.762 49.2022 182.975 49.3205 182.975 49.5337C182.975 49.8255 182.675 49.992 182.114 49.992C181.546 49.992 181.136 49.8103 180.858 49.5973L180.473 50.2371C180.923 50.5687 181.491 50.7268 182.107 50.7268C183.198 50.7268 183.83 50.2137 183.83 49.4951C183.83 48.8318 183.333 48.4847 182.511 48.3663L182.123 48.3103C181.768 48.2643 181.483 48.1928 181.483 47.9398C181.483 47.6638 181.752 47.4979 182.202 47.4979C182.685 47.4979 183.151 47.6795 183.379 47.8214L183.735 47.158L183.734 47.1571ZM194.324 46.763C193.851 46.763 193.543 46.9845 193.33 47.316V46.8572H192.518V50.6307H193.338V48.5153C193.338 47.8909 193.607 47.5438 194.143 47.5438C194.319 47.5413 194.492 47.5736 194.656 47.6388L194.909 46.8653C194.728 46.7938 194.491 46.763 194.324 46.763ZM187.32 46.8572H185.978V45.7123H185.147V46.8572H184.383V47.607H185.147V49.3286C185.147 50.2041 185.488 50.7257 186.459 50.7257C186.815 50.7257 187.225 50.6153 187.486 50.4339L187.249 49.7312C187.003 49.873 186.736 49.9446 186.522 49.9446C186.112 49.9446 185.978 49.6918 185.978 49.3129V47.6078H187.32V46.8572ZM175.048 50.6315V48.2633C175.048 47.3715 174.479 46.7713 173.562 46.7633C173.081 46.7551 172.584 46.9052 172.236 47.4347C171.975 47.0163 171.565 46.7633 170.989 46.7633C170.585 46.7633 170.191 46.8818 169.883 47.3236V46.8572H169.062V50.6307H169.889V48.5384C169.889 47.8833 170.253 47.5352 170.814 47.5352C171.359 47.5352 171.635 47.8903 171.635 48.5301V50.6303H172.464V48.5378C172.464 47.8829 172.844 47.5348 173.388 47.5348C173.949 47.5348 174.216 47.8899 174.216 48.5296V50.6298L175.048 50.6315Z" fill="white"/>
<path d="M212.24 38.0811V37.5293H212.097L211.93 37.9079L211.765 37.5293H211.621V38.0811H211.722V37.6654L211.879 38.0241H211.984L212.14 37.6645V38.0811H212.24ZM211.328 38.0811V37.6238H211.512V37.5307H211.042V37.6238H211.226V38.0811H211.328Z" fill="#F79410"/>
<path d="M195.903 40.4464H183.463V18.0972H195.903V40.4464Z" fill="#FF5F00"/>
<path d="M184.251 29.2722C184.251 24.7388 186.375 20.7002 189.681 18.0976C187.178 16.1246 184.082 15.0538 180.895 15.0586C173.045 15.0586 166.68 21.4222 166.68 29.2722C166.68 37.1223 173.045 43.486 180.895 43.486C184.082 43.4908 187.178 42.4199 189.681 40.4468C186.375 37.8448 184.251 33.806 184.251 29.2722Z" fill="#EB001B"/>
<path d="M212.686 29.2722C212.686 37.1223 206.321 43.486 198.47 43.486C195.283 43.4906 192.187 42.4198 189.684 40.4468C192.99 37.8444 195.114 33.806 195.114 29.2722C195.114 24.7384 192.99 20.7002 189.684 18.0976C192.187 16.1247 195.283 15.0539 198.47 15.0586C206.321 15.0586 212.686 21.4222 212.686 29.2722Z" fill="#F79E1B"/>
</g>
<mask id="mask2_2185_4057" style="mask-type:luminance" maskUnits="userSpaceOnUse" x="235" y="21" width="56" height="24">
<path d="M290.659 21.6855H235V44.2141H290.659V21.6855Z" fill="white"/>
</mask>
<g mask="url(#mask2_2185_4057)">
<path d="M261.077 32.4683V38.8823H259.042V23.0435H264.438C265.805 23.0435 266.972 23.4993 267.926 24.4111C268.901 25.3228 269.389 26.436 269.389 27.7506C269.389 29.0971 268.901 30.2102 267.926 31.1113C266.982 32.0124 265.817 32.4578 264.438 32.4578H261.077V32.4683ZM261.077 24.9942V30.5176H264.481C265.286 30.5176 265.965 30.2419 266.494 29.7013C267.036 29.1606 267.312 28.5034 267.312 27.7612C267.312 27.0297 267.036 26.3829 266.494 25.8423C265.965 25.2804 265.297 25.0048 264.481 25.0048H261.077V24.9942ZM274.714 27.6869C276.22 27.6869 277.407 28.0898 278.276 28.8955C279.146 29.7012 279.58 30.8038 279.58 32.2032V38.8822H277.64V37.3768H277.555C276.718 38.6172 275.594 39.2321 274.195 39.2321C272.996 39.2321 271.999 38.8822 271.194 38.172C270.388 37.4616 269.986 36.5817 269.986 35.5215C269.986 34.3977 270.41 33.5071 271.258 32.8499C272.106 32.182 273.241 31.8533 274.651 31.8533C275.859 31.8533 276.855 32.076 277.629 32.5212V32.0547C277.629 31.3444 277.354 30.7507 276.792 30.2525C276.23 29.7542 275.573 29.5103 274.82 29.5103C273.685 29.5103 272.785 29.9874 272.127 30.9522L270.335 29.8284C271.322 28.3972 272.785 27.6869 274.714 27.6869ZM272.085 35.5533C272.085 36.0834 272.308 36.5287 272.763 36.8785C273.209 37.2283 273.739 37.4085 274.343 37.4085C275.202 37.4085 275.965 37.0905 276.633 36.4544C277.301 35.8184 277.64 35.0762 277.64 34.2175C277.004 33.7192 276.124 33.4647 274.99 33.4647C274.163 33.4647 273.474 33.6662 272.923 34.0584C272.361 34.4719 272.085 34.9702 272.085 35.5533ZM290.648 28.0363L283.863 43.642H281.764L284.287 38.1821L279.813 28.0363H282.029L285.252 35.8179H285.295L288.432 28.0363H290.648Z" fill="white"/>
<path d="M252.978 31.1731C252.978 30.5095 252.919 29.8745 252.809 29.2637H244.277V32.7622L249.191 32.7633C248.991 33.9274 248.35 34.9198 247.367 35.5813V37.8512H250.293C252 36.2705 252.978 33.934 252.978 31.1731Z" fill="#4285F4"/>
<path d="M247.362 35.5824C246.549 36.1316 245.499 36.4528 244.273 36.4528C241.903 36.4528 239.894 34.8561 239.174 32.7041H236.157V35.045C237.652 38.0113 240.723 40.0468 244.273 40.0468C246.726 40.0468 248.787 39.24 250.287 37.8512L247.362 35.5824Z" fill="#34A853"/>
<path d="M238.895 30.9666C238.895 30.3624 238.996 29.7782 239.18 29.2291V26.8882H236.162C235.544 28.1148 235.197 29.4993 235.197 30.9666C235.197 32.4339 235.545 33.8184 236.162 35.0452L239.18 32.7043C238.992 32.1442 238.896 31.5573 238.895 30.9666Z" fill="#FABB05"/>
<path d="M244.273 25.4812C245.611 25.4812 246.811 25.9423 247.758 26.8435L250.35 24.2534C248.776 22.7873 246.723 21.8872 244.273 21.8872C240.725 21.8872 237.652 23.9227 236.157 26.8891L239.174 29.23C239.894 27.078 241.903 25.4812 244.273 25.4812Z" fill="#E94235"/>
</g>
</g>
</g>
<defs>
<clipPath id="clip0_2185_4057">
<rect width="290.28" height="48" fill="white" transform="translate(0.85498 8.79004)"/>
</clipPath>
<clipPath id="clip1_2185_4057">
<rect width="290.28" height="48" fill="white" transform="translate(0.85498 8.79004)"/>
</clipPath>
</defs>
</svg>
