<svg width="590" height="208" viewBox="0 0 590 208" fill="none" xmlns="http://www.w3.org/2000/svg">
<g filter="url(#filter0_d_2185_4088)">
<path d="M93.835 113.826C91.371 113.826 89.163 113.426 87.211 112.626C85.259 111.826 83.691 110.642 82.507 109.074C81.355 107.506 80.747 105.618 80.683 103.41H89.419C89.547 104.658 89.979 105.618 90.715 106.29C91.451 106.93 92.411 107.25 93.595 107.25C94.811 107.25 95.771 106.978 96.475 106.434C97.179 105.858 97.531 105.074 97.531 104.082C97.531 103.25 97.243 102.562 96.667 102.018C96.123 101.474 95.435 101.026 94.603 100.674C93.803 100.322 92.651 99.9217 91.147 99.4737C88.971 98.8017 87.195 98.1297 85.819 97.4577C84.443 96.7857 83.259 95.7937 82.267 94.4817C81.275 93.1697 80.779 91.4577 80.779 89.3457C80.779 86.2097 81.915 83.7617 84.187 82.0017C86.459 80.2097 89.419 79.3137 93.067 79.3137C96.779 79.3137 99.771 80.2097 102.043 82.0017C104.315 83.7617 105.531 86.2257 105.691 89.3937H96.811C96.747 88.3057 96.347 87.4577 95.611 86.8497C94.875 86.2097 93.931 85.8897 92.779 85.8897C91.787 85.8897 90.987 86.1617 90.379 86.7057C89.771 87.2177 89.467 87.9697 89.467 88.9617C89.467 90.0497 89.979 90.8977 91.003 91.5057C92.027 92.1137 93.627 92.7697 95.803 93.4737C97.979 94.2097 99.739 94.9137 101.083 95.5857C102.459 96.2577 103.643 97.2337 104.635 98.5137C105.627 99.7937 106.123 101.442 106.123 103.458C106.123 105.378 105.627 107.122 104.635 108.69C103.675 110.258 102.267 111.506 100.411 112.434C98.555 113.362 96.363 113.826 93.835 113.826ZM136.422 99.6657C136.422 100.434 136.374 101.234 136.278 102.066H117.702C117.83 103.73 118.358 105.01 119.286 105.906C120.246 106.77 121.414 107.202 122.79 107.202C124.838 107.202 126.262 106.338 127.062 104.61H135.798C135.35 106.37 134.534 107.954 133.35 109.362C132.198 110.77 130.742 111.874 128.982 112.674C127.222 113.474 125.254 113.874 123.078 113.874C120.454 113.874 118.118 113.314 116.07 112.194C114.022 111.074 112.422 109.474 111.27 107.394C110.118 105.314 109.542 102.882 109.542 100.098C109.542 97.3137 110.102 94.8817 111.222 92.8017C112.374 90.7217 113.974 89.1217 116.022 88.0017C118.07 86.8817 120.422 86.3217 123.078 86.3217C125.67 86.3217 127.974 86.8657 129.99 87.9537C132.006 89.0417 133.574 90.5937 134.694 92.6097C135.846 94.6257 136.422 96.9777 136.422 99.6657ZM128.022 97.5057C128.022 96.0977 127.542 94.9777 126.582 94.1457C125.622 93.3137 124.422 92.8977 122.982 92.8977C121.606 92.8977 120.438 93.2977 119.478 94.0977C118.55 94.8977 117.974 96.0337 117.75 97.5057H128.022ZM139.12 100.098C139.12 97.3137 139.68 94.8817 140.8 92.8017C141.952 90.7217 143.536 89.1217 145.552 88.0017C147.6 86.8817 149.936 86.3217 152.56 86.3217C155.92 86.3217 158.72 87.2017 160.96 88.9617C163.232 90.7217 164.72 93.2017 165.424 96.4017H156.688C155.952 94.3537 154.528 93.3297 152.416 93.3297C150.912 93.3297 149.712 93.9217 148.816 95.1057C147.92 96.2577 147.472 97.9217 147.472 100.098C147.472 102.274 147.92 103.954 148.816 105.138C149.712 106.29 150.912 106.866 152.416 106.866C154.528 106.866 155.952 105.842 156.688 103.794H165.424C164.72 106.93 163.232 109.394 160.96 111.186C158.688 112.978 155.888 113.874 152.56 113.874C149.936 113.874 147.6 113.314 145.552 112.194C143.536 111.074 141.952 109.474 140.8 107.394C139.68 105.314 139.12 102.882 139.12 100.098ZM196.263 86.7057V113.49H188.055V109.842C187.223 111.026 186.087 111.986 184.647 112.722C183.239 113.426 181.671 113.778 179.943 113.778C177.895 113.778 176.087 113.33 174.519 112.434C172.951 111.506 171.735 110.178 170.871 108.45C170.007 106.722 169.575 104.69 169.575 102.354V86.7057H177.735V101.25C177.735 103.042 178.199 104.434 179.127 105.426C180.055 106.418 181.303 106.914 182.871 106.914C184.471 106.914 185.735 106.418 186.663 105.426C187.591 104.434 188.055 103.042 188.055 101.25V86.7057H196.263ZM210.367 91.1697C211.327 89.6977 212.527 88.5457 213.967 87.7137C215.407 86.8497 217.007 86.4177 218.767 86.4177V95.1057H216.511C214.463 95.1057 212.927 95.5537 211.903 96.4497C210.879 97.3137 210.367 98.8497 210.367 101.058V113.49H202.159V86.7057H210.367V91.1697ZM247.938 99.6657C247.938 100.434 247.89 101.234 247.794 102.066H229.218C229.346 103.73 229.874 105.01 230.802 105.906C231.762 106.77 232.93 107.202 234.306 107.202C236.354 107.202 237.778 106.338 238.578 104.61H247.314C246.866 106.37 246.05 107.954 244.866 109.362C243.714 110.77 242.258 111.874 240.498 112.674C238.738 113.474 236.77 113.874 234.594 113.874C231.97 113.874 229.634 113.314 227.586 112.194C225.538 111.074 223.938 109.474 222.786 107.394C221.634 105.314 221.058 102.882 221.058 100.098C221.058 97.3137 221.618 94.8817 222.738 92.8017C223.89 90.7217 225.49 89.1217 227.538 88.0017C229.586 86.8817 231.938 86.3217 234.594 86.3217C237.186 86.3217 239.49 86.8657 241.506 87.9537C243.522 89.0417 245.09 90.5937 246.21 92.6097C247.362 94.6257 247.938 96.9777 247.938 99.6657ZM239.538 97.5057C239.538 96.0977 239.058 94.9777 238.098 94.1457C237.138 93.3137 235.938 92.8977 234.498 92.8977C233.122 92.8977 231.954 93.2977 230.994 94.0977C230.066 94.8977 229.49 96.0337 229.266 97.5057H239.538ZM288.12 90.6417C288.12 92.5937 287.672 94.3857 286.776 96.0177C285.88 97.6177 284.504 98.9137 282.648 99.9057C280.792 100.898 278.488 101.394 275.736 101.394H270.648V113.49H262.44V79.7937H275.736C278.424 79.7937 280.696 80.2577 282.552 81.1857C284.408 82.1137 285.8 83.3937 286.728 85.0257C287.656 86.6577 288.12 88.5297 288.12 90.6417ZM275.112 94.8657C276.68 94.8657 277.848 94.4977 278.616 93.7617C279.384 93.0257 279.768 91.9857 279.768 90.6417C279.768 89.2977 279.384 88.2577 278.616 87.5217C277.848 86.7857 276.68 86.4177 275.112 86.4177H270.648V94.8657H275.112ZM290.761 100.05C290.761 97.2977 291.273 94.8817 292.297 92.8017C293.353 90.7217 294.777 89.1217 296.569 88.0017C298.361 86.8817 300.361 86.3217 302.569 86.3217C304.457 86.3217 306.105 86.7057 307.513 87.4737C308.953 88.2417 310.057 89.2497 310.825 90.4977V86.7057H319.033V113.49H310.825V109.698C310.025 110.946 308.905 111.954 307.465 112.722C306.057 113.49 304.409 113.874 302.521 113.874C300.345 113.874 298.361 113.314 296.569 112.194C294.777 111.042 293.353 109.426 292.297 107.346C291.273 105.234 290.761 102.802 290.761 100.05ZM310.825 100.098C310.825 98.0497 310.249 96.4337 309.097 95.2497C307.977 94.0657 306.601 93.4737 304.969 93.4737C303.337 93.4737 301.945 94.0657 300.793 95.2497C299.673 96.4017 299.113 98.0017 299.113 100.05C299.113 102.098 299.673 103.73 300.793 104.946C301.945 106.13 303.337 106.722 304.969 106.722C306.601 106.722 307.977 106.13 309.097 104.946C310.249 103.762 310.825 102.146 310.825 100.098ZM352.331 86.7057L335.531 126.21H326.699L332.843 112.578L321.947 86.7057H331.115L337.307 103.458L343.451 86.7057H352.331ZM389.475 86.4177C392.803 86.4177 395.443 87.4257 397.395 89.4417C399.379 91.4577 400.371 94.2577 400.371 97.8417V113.49H392.211V98.9457C392.211 97.2177 391.747 95.8897 390.819 94.9617C389.923 94.0017 388.675 93.5217 387.075 93.5217C385.475 93.5217 384.211 94.0017 383.283 94.9617C382.387 95.8897 381.939 97.2177 381.939 98.9457V113.49H373.779V98.9457C373.779 97.2177 373.315 95.8897 372.387 94.9617C371.491 94.0017 370.243 93.5217 368.643 93.5217C367.043 93.5217 365.779 94.0017 364.851 94.9617C363.955 95.8897 363.507 97.2177 363.507 98.9457V113.49H355.299V86.7057H363.507V90.0657C364.339 88.9457 365.427 88.0657 366.771 87.4257C368.115 86.7537 369.635 86.4177 371.331 86.4177C373.347 86.4177 375.139 86.8497 376.707 87.7137C378.307 88.5777 379.555 89.8097 380.451 91.4097C381.379 89.9377 382.643 88.7377 384.243 87.8097C385.843 86.8817 387.587 86.4177 389.475 86.4177ZM431.36 99.6657C431.36 100.434 431.312 101.234 431.216 102.066H412.64C412.768 103.73 413.296 105.01 414.224 105.906C415.184 106.77 416.352 107.202 417.728 107.202C419.776 107.202 421.2 106.338 422 104.61H430.736C430.288 106.37 429.472 107.954 428.288 109.362C427.136 110.77 425.68 111.874 423.92 112.674C422.16 113.474 420.192 113.874 418.016 113.874C415.392 113.874 413.056 113.314 411.008 112.194C408.96 111.074 407.36 109.474 406.208 107.394C405.056 105.314 404.48 102.882 404.48 100.098C404.48 97.3137 405.04 94.8817 406.16 92.8017C407.312 90.7217 408.912 89.1217 410.96 88.0017C413.008 86.8817 415.36 86.3217 418.016 86.3217C420.608 86.3217 422.912 86.8657 424.928 87.9537C426.944 89.0417 428.512 90.5937 429.632 92.6097C430.784 94.6257 431.36 96.9777 431.36 99.6657ZM422.96 97.5057C422.96 96.0977 422.48 94.9777 421.52 94.1457C420.56 93.3137 419.36 92.8977 417.92 92.8977C416.544 92.8977 415.376 93.2977 414.416 94.0977C413.488 94.8977 412.912 96.0337 412.688 97.5057H422.96ZM452.01 86.4177C455.146 86.4177 457.642 87.4417 459.498 89.4897C461.386 91.5057 462.33 94.2897 462.33 97.8417V113.49H454.17V98.9457C454.17 97.1537 453.706 95.7617 452.778 94.7697C451.85 93.7777 450.602 93.2817 449.034 93.2817C447.466 93.2817 446.218 93.7777 445.29 94.7697C444.362 95.7617 443.898 97.1537 443.898 98.9457V113.49H435.69V86.7057H443.898V90.2577C444.73 89.0737 445.85 88.1457 447.258 87.4737C448.666 86.7697 450.25 86.4177 452.01 86.4177ZM482.962 106.53V113.49H478.786C475.81 113.49 473.49 112.77 471.826 111.33C470.162 109.858 469.33 107.474 469.33 104.178V93.5217H466.066V86.7057H469.33V80.1777H477.538V86.7057H482.914V93.5217H477.538V104.274C477.538 105.074 477.73 105.65 478.114 106.002C478.498 106.354 479.138 106.53 480.034 106.53H482.962ZM498.43 113.874C496.094 113.874 494.014 113.474 492.19 112.674C490.366 111.874 488.926 110.786 487.87 109.41C486.814 108.002 486.222 106.434 486.094 104.706H494.206C494.302 105.634 494.734 106.386 495.502 106.962C496.27 107.538 497.214 107.826 498.334 107.826C499.358 107.826 500.142 107.634 500.686 107.25C501.262 106.834 501.55 106.306 501.55 105.666C501.55 104.898 501.15 104.338 500.35 103.986C499.55 103.602 498.254 103.186 496.462 102.738C494.542 102.29 492.942 101.826 491.662 101.346C490.382 100.834 489.278 100.05 488.35 98.9937C487.422 97.9057 486.958 96.4497 486.958 94.6257C486.958 93.0897 487.374 91.6977 488.206 90.4497C489.07 89.1697 490.318 88.1617 491.95 87.4257C493.614 86.6897 495.582 86.3217 497.854 86.3217C501.214 86.3217 503.854 87.1537 505.774 88.8177C507.726 90.4817 508.846 92.6897 509.134 95.4417H501.55C501.422 94.5137 501.006 93.7777 500.302 93.2337C499.63 92.6897 498.734 92.4177 497.614 92.4177C496.654 92.4177 495.918 92.6097 495.406 92.9937C494.894 93.3457 494.638 93.8417 494.638 94.4817C494.638 95.2497 495.038 95.8257 495.838 96.2097C496.67 96.5937 497.95 96.9777 499.678 97.3617C501.662 97.8737 503.278 98.3857 504.526 98.8977C505.774 99.3777 506.862 100.178 507.79 101.298C508.75 102.386 509.246 103.858 509.278 105.714C509.278 107.282 508.83 108.69 507.934 109.938C507.07 111.154 505.806 112.114 504.142 112.818C502.51 113.522 500.606 113.874 498.43 113.874Z" fill="url(#paint0_linear_2185_4088)"/>
</g>
<defs>
<filter id="filter0_d_2185_4088" x="0.683105" y="0.313965" width="588.595" height="206.896" filterUnits="userSpaceOnUse" color-interpolation-filters="sRGB">
<feFlood flood-opacity="0" result="BackgroundImageFix"/>
<feColorMatrix in="SourceAlpha" type="matrix" values="0 0 0 0 0 0 0 0 0 0 0 0 0 0 0 0 0 0 127 0" result="hardAlpha"/>
<feOffset dy="1"/>
<feGaussianBlur stdDeviation="40"/>
<feComposite in2="hardAlpha" operator="out"/>
<feColorMatrix type="matrix" values="0 0 0 0 0.654902 0 0 0 0 0.933333 0 0 0 0 0.666667 0 0 0 0.75 0"/>
<feBlend mode="normal" in2="BackgroundImageFix" result="effect1_dropShadow_2185_4088"/>
<feBlend mode="normal" in="SourceGraphic" in2="effect1_dropShadow_2185_4088" result="shape"/>
</filter>
<linearGradient id="paint0_linear_2185_4088" x1="294.995" y1="63.4897" x2="294.995" y2="131.49" gradientUnits="userSpaceOnUse">
<stop stop-color="#F0C21A"/>
<stop offset="0.15" stop-color="#966B28"/>
<stop offset="0.325" stop-color="#D0AD6A"/>
<stop offset="0.5" stop-color="#FDEECA"/>
<stop offset="0.64" stop-color="#EED46A"/>
<stop offset="0.8" stop-color="#966B28"/>
<stop offset="1" stop-color="#EED46A"/>
</linearGradient>
</defs>
</svg>
