<svg width="689" height="163" viewBox="0 0 689 163" fill="none" xmlns="http://www.w3.org/2000/svg">
<path d="M19.752 58.3438C16.056 58.3438 12.744 57.7438 9.816 56.5438C6.888 55.3438 4.536 53.5678 2.76 51.2158C1.032 48.8638 0.12 46.0318 0.0240002 42.7198H13.128C13.32 44.5918 13.968 46.0318 15.072 47.0398C16.176 47.9998 17.616 48.4798 19.392 48.4798C21.216 48.4798 22.656 48.0718 23.712 47.2558C24.768 46.3918 25.296 45.2158 25.296 43.7278C25.296 42.4798 24.864 41.4478 24 40.6318C23.184 39.8158 22.152 39.1438 20.904 38.6158C19.704 38.0878 17.976 37.4878 15.72 36.8158C12.456 35.8078 9.792 34.7998 7.728 33.7918C5.664 32.7838 3.888 31.2958 2.4 29.3278C0.912 27.3598 0.168 24.7918 0.168 21.6238C0.168 16.9198 1.872 13.2478 5.28 10.6078C8.688 7.91984 13.128 6.57584 18.6 6.57584C24.168 6.57584 28.656 7.91984 32.064 10.6078C35.472 13.2478 37.296 16.9438 37.536 21.6958H24.216C24.12 20.0638 23.52 18.7918 22.416 17.8798C21.312 16.9198 19.896 16.4398 18.168 16.4398C16.68 16.4398 15.48 16.8478 14.568 17.6638C13.656 18.4318 13.2 19.5598 13.2 21.0478C13.2 22.6798 13.968 23.9518 15.504 24.8638C17.04 25.7758 19.44 26.7598 22.704 27.8158C25.968 28.9198 28.608 29.9758 30.624 30.9838C32.688 31.9918 34.464 33.4558 35.952 35.3758C37.44 37.2958 38.184 39.7678 38.184 42.7918C38.184 45.6718 37.44 48.2878 35.952 50.6398C34.512 52.9918 32.4 54.8638 29.616 56.2558C26.832 57.6478 23.544 58.3438 19.752 58.3438ZM58.0729 23.3518C59.2729 21.4798 60.9289 19.9678 63.0409 18.8158C65.1529 17.6638 67.6249 17.0878 70.4569 17.0878C73.7689 17.0878 76.7689 17.9278 79.4569 19.6078C82.1449 21.2878 84.2569 23.6878 85.7929 26.8078C87.3769 29.9278 88.1689 33.5518 88.1689 37.6798C88.1689 41.8078 87.3769 45.4558 85.7929 48.6238C84.2569 51.7438 82.1449 54.1678 79.4569 55.8958C76.7689 57.5758 73.7689 58.4158 70.4569 58.4158C67.6729 58.4158 65.2009 57.8398 63.0409 56.6878C60.9289 55.5358 59.2729 54.0478 58.0729 52.2238V76.9918H45.7609V17.6638H58.0729V23.3518ZM75.6409 37.6798C75.6409 34.6078 74.7769 32.2078 73.0489 30.4798C71.3689 28.7038 69.2809 27.8158 66.7849 27.8158C64.3369 27.8158 62.2489 28.7038 60.5209 30.4798C58.8409 32.2558 58.0009 34.6798 58.0009 37.7518C58.0009 40.8238 58.8409 43.2478 60.5209 45.0238C62.2489 46.7998 64.3369 47.6878 66.7849 47.6878C69.2329 47.6878 71.3209 46.7998 73.0489 45.0238C74.7769 43.1998 75.6409 40.7518 75.6409 37.6798ZM132.5 37.1038C132.5 38.2558 132.428 39.4558 132.284 40.7038H104.42C104.612 43.1998 105.404 45.1198 106.796 46.4638C108.236 47.7598 109.988 48.4078 112.052 48.4078C115.124 48.4078 117.26 47.1118 118.46 44.5198H131.564C130.892 47.1598 129.668 49.5358 127.892 51.6478C126.164 53.7598 123.98 55.4158 121.34 56.6158C118.7 57.8158 115.748 58.4158 112.484 58.4158C108.548 58.4158 105.044 57.5758 101.972 55.8958C98.9001 54.2158 96.5001 51.8158 94.7721 48.6958C93.0441 45.5758 92.1801 41.9278 92.1801 37.7518C92.1801 33.5758 93.0201 29.9278 94.7001 26.8078C96.4281 23.6878 98.8281 21.2878 101.9 19.6078C104.972 17.9278 108.5 17.0878 112.484 17.0878C116.372 17.0878 119.828 17.9038 122.852 19.5358C125.876 21.1678 128.228 23.4958 129.908 26.5198C131.636 29.5438 132.5 33.0718 132.5 37.1038ZM119.9 33.8638C119.9 31.7518 119.18 30.0718 117.74 28.8238C116.3 27.5758 114.5 26.9518 112.34 26.9518C110.276 26.9518 108.524 27.5518 107.084 28.7518C105.692 29.9518 104.828 31.6558 104.492 33.8638H119.9ZM136.547 37.7518C136.547 33.5758 137.387 29.9278 139.067 26.8078C140.795 23.6878 143.171 21.2878 146.195 19.6078C149.267 17.9278 152.771 17.0878 156.707 17.0878C161.747 17.0878 165.947 18.4078 169.307 21.0478C172.715 23.6878 174.947 27.4078 176.003 32.2078H162.899C161.795 29.1358 159.659 27.5998 156.491 27.5998C154.235 27.5998 152.435 28.4878 151.091 30.2638C149.747 31.9918 149.075 34.4878 149.075 37.7518C149.075 41.0158 149.747 43.5358 151.091 45.3118C152.435 47.0398 154.235 47.9038 156.491 47.9038C159.659 47.9038 161.795 46.3678 162.899 43.2958H176.003C174.947 47.9998 172.715 51.6958 169.307 54.3838C165.899 57.0718 161.699 58.4158 156.707 58.4158C152.771 58.4158 149.267 57.5758 146.195 55.8958C143.171 54.2158 140.795 51.8158 139.067 48.6958C137.387 45.5758 136.547 41.9278 136.547 37.7518ZM188.781 13.4878C186.621 13.4878 184.845 12.8638 183.453 11.6158C182.109 10.3198 181.437 8.73584 181.437 6.86384C181.437 4.94384 182.109 3.35984 183.453 2.11184C184.845 0.81584 186.621 0.16784 188.781 0.16784C190.893 0.16784 192.621 0.81584 193.965 2.11184C195.357 3.35984 196.053 4.94384 196.053 6.86384C196.053 8.73584 195.357 10.3198 193.965 11.6158C192.621 12.8638 190.893 13.4878 188.781 13.4878ZM194.901 17.6638V57.8398H182.589V17.6638H194.901ZM201.375 37.6798C201.375 33.5518 202.143 29.9278 203.679 26.8078C205.263 23.6878 207.399 21.2878 210.087 19.6078C212.775 17.9278 215.775 17.0878 219.087 17.0878C221.919 17.0878 224.391 17.6638 226.503 18.8158C228.663 19.9678 230.319 21.4798 231.471 23.3518V17.6638H243.783V57.8398H231.471V52.1518C230.271 54.0238 228.591 55.5358 226.431 56.6878C224.319 57.8398 221.847 58.4158 219.015 58.4158C215.751 58.4158 212.775 57.5758 210.087 55.8958C207.399 54.1678 205.263 51.7438 203.679 48.6238C202.143 45.4558 201.375 41.8078 201.375 37.6798ZM231.471 37.7518C231.471 34.6798 230.607 32.2558 228.879 30.4798C227.199 28.7038 225.135 27.8158 222.687 27.8158C220.239 27.8158 218.151 28.7038 216.423 30.4798C214.743 32.2078 213.903 34.6078 213.903 37.6798C213.903 40.7518 214.743 43.1998 216.423 45.0238C218.151 46.7998 220.239 47.6878 222.687 47.6878C225.135 47.6878 227.199 46.7998 228.879 45.0238C230.607 43.2478 231.471 40.8238 231.471 37.7518ZM265.003 4.55984V57.8398H252.691V4.55984H265.003ZM301.495 17.1598V27.3838H317.983V36.8878H301.495V47.9758H320.143V57.8398H289.183V7.29584H320.143V17.1598H301.495ZM346.208 46.3198L354.92 17.6638H368.024L353.768 57.8398H338.576L324.32 17.6638H337.496L346.208 46.3198ZM411.078 37.1038C411.078 38.2558 411.006 39.4558 410.862 40.7038H382.998C383.19 43.1998 383.982 45.1198 385.374 46.4638C386.814 47.7598 388.566 48.4078 390.63 48.4078C393.702 48.4078 395.838 47.1118 397.038 44.5198H410.142C409.47 47.1598 408.246 49.5358 406.47 51.6478C404.742 53.7598 402.558 55.4158 399.918 56.6158C397.278 57.8158 394.326 58.4158 391.062 58.4158C387.126 58.4158 383.622 57.5758 380.55 55.8958C377.478 54.2158 375.078 51.8158 373.35 48.6958C371.622 45.5758 370.758 41.9278 370.758 37.7518C370.758 33.5758 371.598 29.9278 373.278 26.8078C375.006 23.6878 377.406 21.2878 380.478 19.6078C383.55 17.9278 387.078 17.0878 391.062 17.0878C394.95 17.0878 398.406 17.9038 401.43 19.5358C404.454 21.1678 406.806 23.4958 408.486 26.5198C410.214 29.5438 411.078 33.0718 411.078 37.1038ZM398.478 33.8638C398.478 31.7518 397.758 30.0718 396.318 28.8238C394.878 27.5758 393.078 26.9518 390.918 26.9518C388.854 26.9518 387.102 27.5518 385.662 28.7518C384.27 29.9518 383.406 31.6558 383.07 33.8638H398.478ZM442.053 17.2318C446.757 17.2318 450.501 18.7678 453.285 21.8398C456.117 24.8638 457.533 29.0398 457.533 34.3678V57.8398H445.293V36.0238C445.293 33.3358 444.597 31.2478 443.205 29.7598C441.813 28.2718 439.941 27.5278 437.589 27.5278C435.237 27.5278 433.365 28.2718 431.973 29.7598C430.581 31.2478 429.885 33.3358 429.885 36.0238V57.8398H417.573V17.6638H429.885V22.9918C431.133 21.2158 432.813 19.8238 434.925 18.8158C437.037 17.7598 439.413 17.2318 442.053 17.2318ZM488.481 47.3998V57.8398H482.217C477.753 57.8398 474.273 56.7598 471.777 54.5998C469.281 52.3918 468.033 48.8158 468.033 43.8718V27.8878H463.137V17.6638H468.033V7.87184H480.345V17.6638H488.409V27.8878H480.345V44.0158C480.345 45.2158 480.633 46.0798 481.209 46.6078C481.785 47.1358 482.745 47.3998 484.089 47.3998H488.481ZM511.683 58.4158C508.179 58.4158 505.059 57.8158 502.323 56.6158C499.587 55.4158 497.427 53.7838 495.843 51.7198C494.259 49.6078 493.371 47.2558 493.179 44.6638H505.347C505.491 46.0558 506.139 47.1838 507.291 48.0478C508.443 48.9118 509.859 49.3438 511.539 49.3438C513.075 49.3438 514.251 49.0558 515.067 48.4798C515.931 47.8558 516.363 47.0638 516.363 46.1038C516.363 44.9518 515.763 44.1118 514.563 43.5838C513.363 43.0078 511.419 42.3838 508.731 41.7118C505.851 41.0398 503.451 40.3438 501.531 39.6238C499.611 38.8558 497.955 37.6798 496.563 36.0958C495.171 34.4638 494.475 32.2798 494.475 29.5438C494.475 27.2398 495.099 25.1518 496.347 23.2798C497.643 21.3598 499.515 19.8478 501.963 18.7438C504.459 17.6398 507.411 17.0878 510.819 17.0878C515.859 17.0878 519.819 18.3358 522.699 20.8318C525.627 23.3278 527.307 26.6398 527.739 30.7678H516.363C516.171 29.3758 515.547 28.2718 514.491 27.4558C513.483 26.6398 512.139 26.2318 510.459 26.2318C509.019 26.2318 507.915 26.5198 507.147 27.0958C506.379 27.6238 505.995 28.3678 505.995 29.3278C505.995 30.4798 506.595 31.3438 507.795 31.9198C509.043 32.4958 510.963 33.0718 513.555 33.6478C516.531 34.4158 518.955 35.1838 520.827 35.9518C522.699 36.6718 524.331 37.8718 525.723 39.5518C527.163 41.1838 527.907 43.3918 527.955 46.1758C527.955 48.5278 527.283 50.6398 525.939 52.5118C524.643 54.3358 522.747 55.7758 520.251 56.8318C517.803 57.8878 514.947 58.4158 511.683 58.4158ZM548.297 37.6798C548.297 33.5518 549.065 29.9278 550.601 26.8078C552.185 23.6878 554.321 21.2878 557.009 19.6078C559.697 17.9278 562.697 17.0878 566.009 17.0878C568.841 17.0878 571.313 17.6638 573.425 18.8158C575.585 19.9678 577.241 21.4798 578.393 23.3518V17.6638H590.705V57.8398H578.393V52.1518C577.193 54.0238 575.513 55.5358 573.353 56.6878C571.241 57.8398 568.769 58.4158 565.937 58.4158C562.673 58.4158 559.697 57.5758 557.009 55.8958C554.321 54.1678 552.185 51.7438 550.601 48.6238C549.065 45.4558 548.297 41.8078 548.297 37.6798ZM578.393 37.7518C578.393 34.6798 577.529 32.2558 575.801 30.4798C574.121 28.7038 572.057 27.8158 569.609 27.8158C567.161 27.8158 565.073 28.7038 563.345 30.4798C561.665 32.2078 560.825 34.6078 560.825 37.6798C560.825 40.7518 561.665 43.1998 563.345 45.0238C565.073 46.7998 567.161 47.6878 569.609 47.6878C572.057 47.6878 574.121 46.7998 575.801 45.0238C577.529 43.2478 578.393 40.8238 578.393 37.7518ZM624.092 17.2318C628.796 17.2318 632.54 18.7678 635.324 21.8398C638.156 24.8638 639.572 29.0398 639.572 34.3678V57.8398H627.332V36.0238C627.332 33.3358 626.636 31.2478 625.244 29.7598C623.852 28.2718 621.98 27.5278 619.628 27.5278C617.276 27.5278 615.404 28.2718 614.012 29.7598C612.62 31.2478 611.924 33.3358 611.924 36.0238V57.8398H599.612V17.6638H611.924V22.9918C613.172 21.2158 614.852 19.8238 616.964 18.8158C619.076 17.7598 621.452 17.2318 624.092 17.2318ZM645.68 37.6798C645.68 33.5518 646.448 29.9278 647.984 26.8078C649.568 23.6878 651.704 21.2878 654.392 19.6078C657.08 17.9278 660.08 17.0878 663.392 17.0878C666.032 17.0878 668.432 17.6398 670.592 18.7438C672.8 19.8478 674.528 21.3358 675.776 23.2078V4.55984H688.088V57.8398H675.776V52.0798C674.624 53.9998 672.968 55.5358 670.808 56.6878C668.696 57.8398 666.224 58.4158 663.392 58.4158C660.08 58.4158 657.08 57.5758 654.392 55.8958C651.704 54.1678 649.568 51.7438 647.984 48.6238C646.448 45.4558 645.68 41.8078 645.68 37.6798ZM675.776 37.7518C675.776 34.6798 674.912 32.2558 673.184 30.4798C671.504 28.7038 669.44 27.8158 666.992 27.8158C664.544 27.8158 662.456 28.7038 660.728 30.4798C659.048 32.2078 658.208 34.6078 658.208 37.6798C658.208 40.7518 659.048 43.1998 660.728 45.0238C662.456 46.7998 664.544 47.6878 666.992 47.6878C669.44 47.6878 671.504 46.7998 673.184 45.0238C674.912 43.2478 675.776 40.8238 675.776 37.7518ZM20.4 93.2958C25.728 93.2958 30.384 94.3518 34.368 96.4638C38.352 98.5758 41.424 101.552 43.584 105.392C45.792 109.184 46.896 113.576 46.896 118.568C46.896 123.512 45.792 127.904 43.584 131.744C41.424 135.584 38.328 138.56 34.296 140.672C30.312 142.784 25.68 143.84 20.4 143.84H1.464V93.2958H20.4ZM19.608 133.184C24.264 133.184 27.888 131.912 30.48 129.368C33.072 126.824 34.368 123.224 34.368 118.568C34.368 113.912 33.072 110.288 30.48 107.696C27.888 105.104 24.264 103.808 19.608 103.808H13.776V133.184H19.608ZM51.3285 123.68C51.3285 119.552 52.0965 115.928 53.6325 112.808C55.2165 109.688 57.3525 107.288 60.0405 105.608C62.7285 103.928 65.7285 103.088 69.0405 103.088C71.8725 103.088 74.3445 103.664 76.4565 104.816C78.6165 105.968 80.2725 107.48 81.4245 109.352V103.664H93.7365V143.84H81.4245V138.152C80.2245 140.024 78.5445 141.536 76.3845 142.688C74.2725 143.84 71.8005 144.416 68.9685 144.416C65.7045 144.416 62.7285 143.576 60.0405 141.896C57.3525 140.168 55.2165 137.744 53.6325 134.624C52.0965 131.456 51.3285 127.808 51.3285 123.68ZM81.4245 123.752C81.4245 120.68 80.5605 118.256 78.8325 116.48C77.1525 114.704 75.0885 113.816 72.6405 113.816C70.1925 113.816 68.1045 114.704 66.3765 116.48C64.6965 118.208 63.8565 120.608 63.8565 123.68C63.8565 126.752 64.6965 129.2 66.3765 131.024C68.1045 132.8 70.1925 133.688 72.6405 133.688C75.0885 133.688 77.1525 132.8 78.8325 131.024C80.5605 129.248 81.4245 126.824 81.4245 123.752ZM108.836 99.4878C106.676 99.4878 104.9 98.8638 103.508 97.6158C102.164 96.3198 101.492 94.7358 101.492 92.8638C101.492 90.9438 102.164 89.3598 103.508 88.1118C104.9 86.8158 106.676 86.1678 108.836 86.1678C110.948 86.1678 112.676 86.8158 114.02 88.1118C115.412 89.3598 116.108 90.9438 116.108 92.8638C116.108 94.7358 115.412 96.3198 114.02 97.6158C112.676 98.8638 110.948 99.4878 108.836 99.4878ZM114.956 103.664V143.84H102.644V103.664H114.956ZM136.19 90.5598V143.84H123.878V90.5598H136.19ZM186.152 103.664L160.952 162.92H147.704L156.92 142.472L140.576 103.664H154.328L163.616 128.792L172.832 103.664H186.152ZM244.382 109.568C244.382 112.496 243.71 115.184 242.366 117.632C241.022 120.032 238.958 121.976 236.174 123.464C233.39 124.952 229.934 125.696 225.806 125.696H218.174V143.84H205.862V93.2958H225.806C229.838 93.2958 233.246 93.9918 236.03 95.3838C238.814 96.7758 240.902 98.6958 242.294 101.144C243.686 103.592 244.382 106.4 244.382 109.568ZM224.87 115.904C227.222 115.904 228.974 115.352 230.126 114.248C231.278 113.144 231.854 111.584 231.854 109.568C231.854 107.552 231.278 105.992 230.126 104.888C228.974 103.784 227.222 103.232 224.87 103.232H218.174V115.904H224.87ZM256.984 99.4878C254.824 99.4878 253.048 98.8638 251.656 97.6158C250.312 96.3198 249.64 94.7358 249.64 92.8638C249.64 90.9438 250.312 89.3598 251.656 88.1118C253.048 86.8158 254.824 86.1678 256.984 86.1678C259.096 86.1678 260.824 86.8158 262.168 88.1118C263.56 89.3598 264.256 90.9438 264.256 92.8638C264.256 94.7358 263.56 96.3198 262.168 97.6158C260.824 98.8638 259.096 99.4878 256.984 99.4878ZM263.104 103.664V143.84H250.792V103.664H263.104ZM269.579 123.752C269.579 119.576 270.419 115.928 272.099 112.808C273.827 109.688 276.203 107.288 279.227 105.608C282.299 103.928 285.803 103.088 289.739 103.088C294.779 103.088 298.979 104.408 302.339 107.048C305.747 109.688 307.979 113.408 309.035 118.208H295.931C294.827 115.136 292.691 113.6 289.523 113.6C287.267 113.6 285.467 114.488 284.123 116.264C282.779 117.992 282.107 120.488 282.107 123.752C282.107 127.016 282.779 129.536 284.123 131.312C285.467 133.04 287.267 133.904 289.523 133.904C292.691 133.904 294.827 132.368 295.931 129.296H309.035C307.979 134 305.747 137.696 302.339 140.384C298.931 143.072 294.731 144.416 289.739 144.416C285.803 144.416 282.299 143.576 279.227 141.896C276.203 140.216 273.827 137.816 272.099 134.696C270.419 131.576 269.579 127.928 269.579 123.752ZM340.172 143.84L327.932 126.992V143.84H315.62V90.5598H327.932V120.008L340.1 103.664H355.292L338.588 123.824L355.436 143.84H340.172ZM376.472 144.416C372.968 144.416 369.848 143.816 367.112 142.616C364.376 141.416 362.216 139.784 360.632 137.72C359.048 135.608 358.16 133.256 357.968 130.664H370.136C370.28 132.056 370.928 133.184 372.08 134.048C373.232 134.912 374.648 135.344 376.328 135.344C377.864 135.344 379.04 135.056 379.856 134.48C380.72 133.856 381.152 133.064 381.152 132.104C381.152 130.952 380.552 130.112 379.352 129.584C378.152 129.008 376.208 128.384 373.52 127.712C370.64 127.04 368.24 126.344 366.32 125.624C364.4 124.856 362.744 123.68 361.352 122.096C359.96 120.464 359.264 118.28 359.264 115.544C359.264 113.24 359.888 111.152 361.136 109.28C362.432 107.36 364.304 105.848 366.752 104.744C369.248 103.64 372.2 103.088 375.608 103.088C380.648 103.088 384.608 104.336 387.488 106.832C390.416 109.328 392.096 112.64 392.528 116.768H381.152C380.96 115.376 380.336 114.272 379.28 113.456C378.272 112.64 376.928 112.232 375.248 112.232C373.808 112.232 372.704 112.52 371.936 113.096C371.168 113.624 370.784 114.368 370.784 115.328C370.784 116.48 371.384 117.344 372.584 117.92C373.832 118.496 375.752 119.072 378.344 119.648C381.32 120.416 383.744 121.184 385.616 121.952C387.488 122.672 389.12 123.872 390.512 125.552C391.952 127.184 392.696 129.392 392.744 132.176C392.744 134.528 392.072 136.64 390.728 138.512C389.432 140.336 387.536 141.776 385.04 142.832C382.592 143.888 379.736 144.416 376.472 144.416Z" fill="url(#paint0_linear_2185_4234)"/>
<defs>
<linearGradient id="paint0_linear_2185_4234" x1="390" y1="2.83984" x2="390" y2="147.84" gradientUnits="userSpaceOnUse">
<stop stop-color="#F0C21A"/>
<stop offset="0.15" stop-color="#966B28"/>
<stop offset="0.325" stop-color="#D0AD6A"/>
<stop offset="0.5" stop-color="#FDEECA"/>
<stop offset="0.64" stop-color="#EED46A"/>
<stop offset="0.8" stop-color="#966B28"/>
<stop offset="1" stop-color="#EED46A"/>
</linearGradient>
</defs>
</svg>
