<svg width="960" height="380" viewBox="0 0 960 380" fill="none" xmlns="http://www.w3.org/2000/svg">
<g filter="url(#filter0_d_2185_3710)">
<path d="M149.824 111.861V121.725H136.432V162.405H124.12V121.725H110.728V111.861H149.824ZM180.699 121.797C185.307 121.797 189.003 123.333 191.787 126.405C194.571 129.429 195.963 133.605 195.963 138.933V162.405H183.723V140.589C183.723 137.901 183.027 135.813 181.635 134.325C180.243 132.837 178.371 132.093 176.019 132.093C173.667 132.093 171.795 132.837 170.403 134.325C169.011 135.813 168.315 137.901 168.315 140.589V162.405H156.003V109.125H168.315V127.629C169.563 125.853 171.267 124.437 173.427 123.381C175.587 122.325 178.011 121.797 180.699 121.797ZM242.391 141.669C242.391 142.821 242.319 144.021 242.175 145.269H214.311C214.503 147.765 215.295 149.685 216.687 151.029C218.127 152.325 219.879 152.973 221.943 152.973C225.015 152.973 227.151 151.677 228.351 149.085H241.455C240.783 151.725 239.559 154.101 237.783 156.213C236.055 158.325 233.871 159.981 231.231 161.181C228.591 162.381 225.639 162.981 222.375 162.981C218.439 162.981 214.935 162.141 211.863 160.461C208.791 158.781 206.391 156.381 204.663 153.261C202.935 150.141 202.071 146.493 202.071 142.317C202.071 138.141 202.911 134.493 204.591 131.373C206.319 128.253 208.719 125.853 211.791 124.173C214.863 122.493 218.391 121.653 222.375 121.653C226.263 121.653 229.719 122.469 232.743 124.101C235.767 125.733 238.119 128.061 239.799 131.085C241.527 134.109 242.391 137.637 242.391 141.669ZM229.791 138.429C229.791 136.317 229.071 134.637 227.631 133.389C226.191 132.141 224.391 131.517 222.231 131.517C220.167 131.517 218.415 132.117 216.975 133.317C215.583 134.517 214.719 136.221 214.383 138.429H229.791ZM282.432 162.909C278.736 162.909 275.424 162.309 272.496 161.109C269.568 159.909 267.216 158.133 265.44 155.781C263.712 153.429 262.8 150.597 262.704 147.285H275.808C276 149.157 276.648 150.597 277.752 151.605C278.856 152.565 280.296 153.045 282.072 153.045C283.896 153.045 285.336 152.637 286.392 151.821C287.448 150.957 287.976 149.781 287.976 148.293C287.976 147.045 287.544 146.013 286.68 145.197C285.864 144.381 284.832 143.709 283.584 143.181C282.384 142.653 280.656 142.053 278.4 141.381C275.136 140.373 272.472 139.365 270.408 138.357C268.344 137.349 266.568 135.861 265.08 133.893C263.592 131.925 262.848 129.357 262.848 126.189C262.848 121.485 264.552 117.813 267.96 115.173C271.368 112.485 275.808 111.141 281.28 111.141C286.848 111.141 291.336 112.485 294.744 115.173C298.152 117.813 299.976 121.509 300.216 126.261H286.896C286.8 124.629 286.2 123.357 285.096 122.445C283.992 121.485 282.576 121.005 280.848 121.005C279.36 121.005 278.16 121.413 277.248 122.229C276.336 122.997 275.88 124.125 275.88 125.613C275.88 127.245 276.648 128.517 278.184 129.429C279.72 130.341 282.12 131.325 285.384 132.381C288.648 133.485 291.288 134.541 293.304 135.549C295.368 136.557 297.144 138.021 298.632 139.941C300.12 141.861 300.864 144.333 300.864 147.357C300.864 150.237 300.12 152.853 298.632 155.205C297.192 157.557 295.08 159.429 292.296 160.821C289.512 162.213 286.224 162.909 282.432 162.909ZM320.753 127.917C321.953 126.045 323.609 124.533 325.721 123.381C327.833 122.229 330.305 121.653 333.137 121.653C336.449 121.653 339.449 122.493 342.137 124.173C344.825 125.853 346.937 128.253 348.473 131.373C350.057 134.493 350.849 138.117 350.849 142.245C350.849 146.373 350.057 150.021 348.473 153.189C346.937 156.309 344.825 158.733 342.137 160.461C339.449 162.141 336.449 162.981 333.137 162.981C330.353 162.981 327.881 162.405 325.721 161.253C323.609 160.101 321.953 158.613 320.753 156.789V181.557H308.441V122.229H320.753V127.917ZM338.321 142.245C338.321 139.173 337.457 136.773 335.729 135.045C334.049 133.269 331.961 132.381 329.465 132.381C327.017 132.381 324.929 133.269 323.201 135.045C321.521 136.821 320.681 139.245 320.681 142.317C320.681 145.389 321.521 147.813 323.201 149.589C324.929 151.365 327.017 152.253 329.465 152.253C331.913 152.253 334.001 151.365 335.729 149.589C337.457 147.765 338.321 145.317 338.321 142.245ZM375.596 162.981C371.66 162.981 368.108 162.141 364.94 160.461C361.82 158.781 359.348 156.381 357.524 153.261C355.748 150.141 354.86 146.493 354.86 142.317C354.86 138.189 355.772 134.565 357.596 131.445C359.42 128.277 361.916 125.853 365.084 124.173C368.252 122.493 371.804 121.653 375.74 121.653C379.676 121.653 383.228 122.493 386.396 124.173C389.564 125.853 392.06 128.277 393.884 131.445C395.708 134.565 396.62 138.189 396.62 142.317C396.62 146.445 395.684 150.093 393.812 153.261C391.988 156.381 389.468 158.781 386.252 160.461C383.084 162.141 379.532 162.981 375.596 162.981ZM375.596 152.325C377.948 152.325 379.94 151.461 381.572 149.733C383.252 148.005 384.092 145.533 384.092 142.317C384.092 139.101 383.276 136.629 381.644 134.901C380.06 133.173 378.092 132.309 375.74 132.309C373.34 132.309 371.348 133.173 369.764 134.901C368.18 136.581 367.388 139.053 367.388 142.317C367.388 145.533 368.156 148.005 369.692 149.733C371.276 151.461 373.244 152.325 375.596 152.325ZM415.464 128.925C416.904 126.717 418.704 124.989 420.864 123.741C423.024 122.445 425.424 121.797 428.064 121.797V134.829H424.68C421.608 134.829 419.304 135.501 417.768 136.845C416.232 138.141 415.464 140.445 415.464 143.757V162.405H403.152V122.229H415.464V128.925ZM456.34 151.965V162.405H450.076C445.612 162.405 442.132 161.325 439.636 159.165C437.14 156.957 435.892 153.381 435.892 148.437V132.453H430.996V122.229H435.892V112.437H448.204V122.229H456.268V132.453H448.204V148.581C448.204 149.781 448.492 150.645 449.068 151.173C449.644 151.701 450.604 151.965 451.948 151.965H456.34ZM479.542 162.981C476.038 162.981 472.918 162.381 470.182 161.181C467.446 159.981 465.286 158.349 463.702 156.285C462.118 154.173 461.23 151.821 461.038 149.229H473.206C473.35 150.621 473.998 151.749 475.15 152.613C476.302 153.477 477.718 153.909 479.398 153.909C480.934 153.909 482.11 153.621 482.926 153.045C483.79 152.421 484.222 151.629 484.222 150.669C484.222 149.517 483.622 148.677 482.422 148.149C481.222 147.573 479.278 146.949 476.59 146.277C473.71 145.605 471.31 144.909 469.39 144.189C467.47 143.421 465.814 142.245 464.422 140.661C463.03 139.029 462.334 136.845 462.334 134.109C462.334 131.805 462.958 129.717 464.206 127.845C465.502 125.925 467.374 124.413 469.822 123.309C472.318 122.205 475.27 121.653 478.678 121.653C483.718 121.653 487.678 122.901 490.558 125.397C493.486 127.893 495.166 131.205 495.598 135.333H484.222C484.03 133.941 483.406 132.837 482.35 132.021C481.342 131.205 479.998 130.797 478.318 130.797C476.878 130.797 475.774 131.085 475.006 131.661C474.238 132.189 473.854 132.933 473.854 133.893C473.854 135.045 474.454 135.909 475.654 136.485C476.902 137.061 478.822 137.637 481.414 138.213C484.39 138.981 486.814 139.749 488.686 140.517C490.558 141.237 492.19 142.437 493.582 144.117C495.022 145.749 495.766 147.957 495.814 150.741C495.814 153.093 495.142 155.205 493.798 157.077C492.502 158.901 490.606 160.341 488.11 161.397C485.662 162.453 482.806 162.981 479.542 162.981ZM515.659 127.917C516.811 126.045 518.467 124.533 520.627 123.381C522.787 122.229 525.259 121.653 528.043 121.653C531.355 121.653 534.355 122.493 537.043 124.173C539.731 125.853 541.843 128.253 543.379 131.373C544.963 134.493 545.755 138.117 545.755 142.245C545.755 146.373 544.963 150.021 543.379 153.189C541.843 156.309 539.731 158.733 537.043 160.461C534.355 162.141 531.355 162.981 528.043 162.981C525.211 162.981 522.739 162.429 520.627 161.325C518.515 160.173 516.859 158.661 515.659 156.789V162.405H503.347V109.125H515.659V127.917ZM533.227 142.245C533.227 139.173 532.363 136.773 530.635 135.045C528.955 133.269 526.867 132.381 524.371 132.381C521.923 132.381 519.835 133.269 518.107 135.045C516.427 136.821 515.587 139.245 515.587 142.317C515.587 145.389 516.427 147.813 518.107 149.589C519.835 151.365 521.923 152.253 524.371 152.253C526.819 152.253 528.907 151.365 530.635 149.589C532.363 147.765 533.227 145.317 533.227 142.245ZM570.502 162.981C566.566 162.981 563.014 162.141 559.846 160.461C556.726 158.781 554.254 156.381 552.43 153.261C550.654 150.141 549.766 146.493 549.766 142.317C549.766 138.189 550.678 134.565 552.502 131.445C554.326 128.277 556.822 125.853 559.99 124.173C563.158 122.493 566.71 121.653 570.646 121.653C574.582 121.653 578.134 122.493 581.302 124.173C584.47 125.853 586.966 128.277 588.79 131.445C590.614 134.565 591.526 138.189 591.526 142.317C591.526 146.445 590.59 150.093 588.718 153.261C586.894 156.381 584.374 158.781 581.158 160.461C577.99 162.141 574.438 162.981 570.502 162.981ZM570.502 152.325C572.854 152.325 574.846 151.461 576.478 149.733C578.158 148.005 578.998 145.533 578.998 142.317C578.998 139.101 578.182 136.629 576.55 134.901C574.966 133.173 572.998 132.309 570.646 132.309C568.246 132.309 566.254 133.173 564.67 134.901C563.086 136.581 562.294 139.053 562.294 142.317C562.294 145.533 563.062 148.005 564.598 149.733C566.182 151.461 568.15 152.325 570.502 152.325ZM616.346 162.981C612.41 162.981 608.858 162.141 605.69 160.461C602.57 158.781 600.098 156.381 598.274 153.261C596.498 150.141 595.61 146.493 595.61 142.317C595.61 138.189 596.522 134.565 598.346 131.445C600.17 128.277 602.666 125.853 605.834 124.173C609.002 122.493 612.554 121.653 616.49 121.653C620.426 121.653 623.978 122.493 627.146 124.173C630.314 125.853 632.81 128.277 634.634 131.445C636.458 134.565 637.37 138.189 637.37 142.317C637.37 146.445 636.434 150.093 634.562 153.261C632.738 156.381 630.218 158.781 627.002 160.461C623.834 162.141 620.282 162.981 616.346 162.981ZM616.346 152.325C618.698 152.325 620.69 151.461 622.322 149.733C624.002 148.005 624.842 145.533 624.842 142.317C624.842 139.101 624.026 136.629 622.394 134.901C620.81 133.173 618.842 132.309 616.49 132.309C614.09 132.309 612.098 133.173 610.514 134.901C608.93 136.581 608.138 139.053 608.138 142.317C608.138 145.533 608.906 148.005 610.442 149.733C612.026 151.461 613.994 152.325 616.346 152.325ZM668.454 162.405L656.214 145.557V162.405H643.902V109.125H656.214V138.573L668.382 122.229H683.574L666.87 142.389L683.718 162.405H668.454ZM111.016 229.245C111.016 225.117 111.784 221.493 113.32 218.373C114.904 215.253 117.04 212.853 119.728 211.173C122.416 209.493 125.416 208.653 128.728 208.653C131.56 208.653 134.032 209.229 136.144 210.381C138.304 211.533 139.96 213.045 141.112 214.917V209.229H153.424V249.405H141.112V243.717C139.912 245.589 138.232 247.101 136.072 248.253C133.96 249.405 131.488 249.981 128.656 249.981C125.392 249.981 122.416 249.141 119.728 247.461C117.04 245.733 114.904 243.309 113.32 240.189C111.784 237.021 111.016 233.373 111.016 229.245ZM141.112 229.317C141.112 226.245 140.248 223.821 138.52 222.045C136.84 220.269 134.776 219.381 132.328 219.381C129.88 219.381 127.792 220.269 126.064 222.045C124.384 223.773 123.544 226.173 123.544 229.245C123.544 232.317 124.384 234.765 126.064 236.589C127.792 238.365 129.88 239.253 132.328 239.253C134.776 239.253 136.84 238.365 138.52 236.589C140.248 234.813 141.112 232.389 141.112 229.317ZM174.643 214.917C175.795 213.045 177.451 211.533 179.611 210.381C181.771 209.229 184.243 208.653 187.027 208.653C190.339 208.653 193.339 209.493 196.027 211.173C198.715 212.853 200.827 215.253 202.363 218.373C203.947 221.493 204.739 225.117 204.739 229.245C204.739 233.373 203.947 237.021 202.363 240.189C200.827 243.309 198.715 245.733 196.027 247.461C193.339 249.141 190.339 249.981 187.027 249.981C184.195 249.981 181.723 249.429 179.611 248.325C177.499 247.173 175.843 245.661 174.643 243.789V249.405H162.331V196.125H174.643V214.917ZM192.211 229.245C192.211 226.173 191.347 223.773 189.619 222.045C187.939 220.269 185.851 219.381 183.355 219.381C180.907 219.381 178.819 220.269 177.091 222.045C175.411 223.821 174.571 226.245 174.571 229.317C174.571 232.389 175.411 234.813 177.091 236.589C178.819 238.365 180.907 239.253 183.355 239.253C185.803 239.253 187.891 238.365 189.619 236.589C191.347 234.765 192.211 232.317 192.211 229.245ZM229.486 249.981C225.55 249.981 221.998 249.141 218.83 247.461C215.71 245.781 213.238 243.381 211.414 240.261C209.638 237.141 208.75 233.493 208.75 229.317C208.75 225.189 209.662 221.565 211.486 218.445C213.31 215.277 215.806 212.853 218.974 211.173C222.142 209.493 225.694 208.653 229.63 208.653C233.566 208.653 237.118 209.493 240.286 211.173C243.454 212.853 245.95 215.277 247.774 218.445C249.598 221.565 250.51 225.189 250.51 229.317C250.51 233.445 249.574 237.093 247.702 240.261C245.878 243.381 243.358 245.781 240.142 247.461C236.974 249.141 233.422 249.981 229.486 249.981ZM229.486 239.325C231.838 239.325 233.83 238.461 235.462 236.733C237.142 235.005 237.982 232.533 237.982 229.317C237.982 226.101 237.166 223.629 235.534 221.901C233.95 220.173 231.982 219.309 229.63 219.309C227.23 219.309 225.238 220.173 223.654 221.901C222.07 223.581 221.278 226.053 221.278 229.317C221.278 232.533 222.046 235.005 223.582 236.733C225.166 238.461 227.134 239.325 229.486 239.325ZM275.114 237.885L283.826 209.229H296.93L282.674 249.405H267.482L253.226 209.229H266.402L275.114 237.885ZM339.984 228.669C339.984 229.821 339.912 231.021 339.768 232.269H311.904C312.096 234.765 312.888 236.685 314.28 238.029C315.72 239.325 317.472 239.973 319.536 239.973C322.608 239.973 324.744 238.677 325.944 236.085H339.048C338.376 238.725 337.152 241.101 335.376 243.213C333.648 245.325 331.464 246.981 328.824 248.181C326.184 249.381 323.232 249.981 319.968 249.981C316.032 249.981 312.528 249.141 309.456 247.461C306.384 245.781 303.984 243.381 302.256 240.261C300.528 237.141 299.664 233.493 299.664 229.317C299.664 225.141 300.504 221.493 302.184 218.373C303.912 215.253 306.312 212.853 309.384 211.173C312.456 209.493 315.984 208.653 319.968 208.653C323.856 208.653 327.312 209.469 330.336 211.101C333.36 212.733 335.712 215.061 337.392 218.085C339.12 221.109 339.984 224.637 339.984 228.669ZM327.384 225.429C327.384 223.317 326.664 221.637 325.224 220.389C323.784 219.141 321.984 218.517 319.824 218.517C317.76 218.517 316.008 219.117 314.568 220.317C313.176 221.517 312.312 223.221 311.976 225.429H327.384ZM380.025 249.909C376.329 249.909 373.017 249.309 370.089 248.109C367.161 246.909 364.809 245.133 363.033 242.781C361.305 240.429 360.393 237.597 360.297 234.285H373.401C373.593 236.157 374.241 237.597 375.345 238.605C376.449 239.565 377.889 240.045 379.665 240.045C381.489 240.045 382.929 239.637 383.985 238.821C385.041 237.957 385.569 236.781 385.569 235.293C385.569 234.045 385.137 233.013 384.273 232.197C383.457 231.381 382.425 230.709 381.177 230.181C379.977 229.653 378.249 229.053 375.993 228.381C372.729 227.373 370.065 226.365 368.001 225.357C365.937 224.349 364.161 222.861 362.673 220.893C361.185 218.925 360.441 216.357 360.441 213.189C360.441 208.485 362.145 204.813 365.553 202.173C368.961 199.485 373.401 198.141 378.873 198.141C384.441 198.141 388.929 199.485 392.337 202.173C395.745 204.813 397.569 208.509 397.809 213.261H384.489C384.393 211.629 383.793 210.357 382.689 209.445C381.585 208.485 380.169 208.005 378.441 208.005C376.953 208.005 375.753 208.413 374.841 209.229C373.929 209.997 373.473 211.125 373.473 212.613C373.473 214.245 374.241 215.517 375.777 216.429C377.313 217.341 379.713 218.325 382.977 219.381C386.241 220.485 388.881 221.541 390.897 222.549C392.961 223.557 394.737 225.021 396.225 226.941C397.713 228.861 398.457 231.333 398.457 234.357C398.457 237.237 397.713 239.853 396.225 242.205C394.785 244.557 392.673 246.429 389.889 247.821C387.105 249.213 383.817 249.909 380.025 249.909ZM418.346 214.917C419.546 213.045 421.202 211.533 423.314 210.381C425.426 209.229 427.898 208.653 430.73 208.653C434.042 208.653 437.042 209.493 439.73 211.173C442.418 212.853 444.53 215.253 446.066 218.373C447.65 221.493 448.442 225.117 448.442 229.245C448.442 233.373 447.65 237.021 446.066 240.189C444.53 243.309 442.418 245.733 439.73 247.461C437.042 249.141 434.042 249.981 430.73 249.981C427.946 249.981 425.474 249.405 423.314 248.253C421.202 247.101 419.546 245.613 418.346 243.789V268.557H406.034V209.229H418.346V214.917ZM435.914 229.245C435.914 226.173 435.05 223.773 433.322 222.045C431.642 220.269 429.554 219.381 427.058 219.381C424.61 219.381 422.522 220.269 420.794 222.045C419.114 223.821 418.274 226.245 418.274 229.317C418.274 232.389 419.114 234.813 420.794 236.589C422.522 238.365 424.61 239.253 427.058 239.253C429.506 239.253 431.594 238.365 433.322 236.589C435.05 234.765 435.914 232.317 435.914 229.245ZM473.19 249.981C469.254 249.981 465.702 249.141 462.534 247.461C459.414 245.781 456.942 243.381 455.118 240.261C453.342 237.141 452.454 233.493 452.454 229.317C452.454 225.189 453.366 221.565 455.189 218.445C457.014 215.277 459.51 212.853 462.678 211.173C465.846 209.493 469.398 208.653 473.334 208.653C477.27 208.653 480.822 209.493 483.99 211.173C487.158 212.853 489.654 215.277 491.478 218.445C493.302 221.565 494.214 225.189 494.214 229.317C494.214 233.445 493.278 237.093 491.406 240.261C489.582 243.381 487.062 245.781 483.846 247.461C480.678 249.141 477.126 249.981 473.19 249.981ZM473.19 239.325C475.542 239.325 477.534 238.461 479.166 236.733C480.846 235.005 481.686 232.533 481.686 229.317C481.686 226.101 480.87 223.629 479.238 221.901C477.654 220.173 475.686 219.309 473.334 219.309C470.934 219.309 468.942 220.173 467.358 221.901C465.774 223.581 464.982 226.053 464.982 229.317C464.982 232.533 465.75 235.005 467.286 236.733C468.87 238.461 470.838 239.325 473.19 239.325ZM513.057 215.925C514.497 213.717 516.297 211.989 518.457 210.741C520.617 209.445 523.017 208.797 525.657 208.797V221.829H522.273C519.201 221.829 516.897 222.501 515.361 223.845C513.825 225.141 513.057 227.445 513.057 230.757V249.405H500.745V209.229H513.057V215.925ZM553.934 238.965V249.405H547.67C543.206 249.405 539.726 248.325 537.23 246.165C534.734 243.957 533.486 240.381 533.486 235.437V219.453H528.59V209.229H533.486V199.437H545.798V209.229H553.862V219.453H545.798V235.581C545.798 236.781 546.086 237.645 546.662 238.173C547.238 238.701 548.198 238.965 549.542 238.965H553.934ZM577.136 249.981C573.632 249.981 570.512 249.381 567.776 248.181C565.04 246.981 562.88 245.349 561.296 243.285C559.712 241.173 558.824 238.821 558.632 236.229H570.8C570.944 237.621 571.592 238.749 572.744 239.613C573.896 240.477 575.312 240.909 576.992 240.909C578.528 240.909 579.704 240.621 580.52 240.045C581.384 239.421 581.816 238.629 581.816 237.669C581.816 236.517 581.216 235.677 580.016 235.149C578.816 234.573 576.872 233.949 574.184 233.277C571.304 232.605 568.904 231.909 566.984 231.189C565.064 230.421 563.408 229.245 562.016 227.661C560.624 226.029 559.928 223.845 559.928 221.109C559.928 218.805 560.552 216.717 561.8 214.845C563.096 212.925 564.968 211.413 567.416 210.309C569.912 209.205 572.864 208.653 576.272 208.653C581.312 208.653 585.272 209.901 588.152 212.397C591.08 214.893 592.76 218.205 593.192 222.333H581.816C581.624 220.941 581 219.837 579.944 219.021C578.936 218.205 577.592 217.797 575.912 217.797C574.472 217.797 573.368 218.085 572.6 218.661C571.832 219.189 571.448 219.933 571.448 220.893C571.448 222.045 572.048 222.909 573.248 223.485C574.496 224.061 576.416 224.637 579.008 225.213C581.984 225.981 584.408 226.749 586.28 227.517C588.152 228.237 589.784 229.437 591.176 231.117C592.616 232.749 593.36 234.957 593.408 237.741C593.408 240.093 592.736 242.205 591.392 244.077C590.096 245.901 588.2 247.341 585.704 248.397C583.256 249.453 580.4 249.981 577.136 249.981ZM613.253 214.917C614.405 213.045 616.061 211.533 618.221 210.381C620.381 209.229 622.853 208.653 625.637 208.653C628.949 208.653 631.949 209.493 634.637 211.173C637.325 212.853 639.437 215.253 640.973 218.373C642.557 221.493 643.349 225.117 643.349 229.245C643.349 233.373 642.557 237.021 640.973 240.189C639.437 243.309 637.325 245.733 634.637 247.461C631.949 249.141 628.949 249.981 625.637 249.981C622.805 249.981 620.333 249.429 618.221 248.325C616.109 247.173 614.453 245.661 613.253 243.789V249.405H600.941V196.125H613.253V214.917ZM630.821 229.245C630.821 226.173 629.957 223.773 628.229 222.045C626.549 220.269 624.461 219.381 621.965 219.381C619.517 219.381 617.429 220.269 615.701 222.045C614.021 223.821 613.181 226.245 613.181 229.317C613.181 232.389 614.021 234.813 615.701 236.589C617.429 238.365 619.517 239.253 621.965 239.253C624.413 239.253 626.501 238.365 628.229 236.589C629.957 234.765 630.821 232.317 630.821 229.245ZM668.096 249.981C664.16 249.981 660.608 249.141 657.44 247.461C654.32 245.781 651.848 243.381 650.024 240.261C648.248 237.141 647.36 233.493 647.36 229.317C647.36 225.189 648.272 221.565 650.096 218.445C651.92 215.277 654.416 212.853 657.584 211.173C660.752 209.493 664.304 208.653 668.24 208.653C672.176 208.653 675.728 209.493 678.896 211.173C682.064 212.853 684.56 215.277 686.384 218.445C688.208 221.565 689.12 225.189 689.12 229.317C689.12 233.445 688.184 237.093 686.312 240.261C684.488 243.381 681.968 245.781 678.752 247.461C675.584 249.141 672.032 249.981 668.096 249.981ZM668.096 239.325C670.448 239.325 672.44 238.461 674.072 236.733C675.752 235.005 676.592 232.533 676.592 229.317C676.592 226.101 675.776 223.629 674.144 221.901C672.56 220.173 670.592 219.309 668.24 219.309C665.84 219.309 663.848 220.173 662.264 221.901C660.68 223.581 659.888 226.053 659.888 229.317C659.888 232.533 660.656 235.005 662.192 236.733C663.776 238.461 665.744 239.325 668.096 239.325ZM713.94 249.981C710.004 249.981 706.452 249.141 703.284 247.461C700.164 245.781 697.692 243.381 695.868 240.261C694.092 237.141 693.204 233.493 693.204 229.317C693.204 225.189 694.116 221.565 695.939 218.445C697.764 215.277 700.26 212.853 703.428 211.173C706.596 209.493 710.148 208.653 714.084 208.653C718.02 208.653 721.572 209.493 724.74 211.173C727.908 212.853 730.404 215.277 732.228 218.445C734.052 221.565 734.964 225.189 734.964 229.317C734.964 233.445 734.028 237.093 732.156 240.261C730.332 243.381 727.812 245.781 724.596 247.461C721.428 249.141 717.876 249.981 713.94 249.981ZM713.94 239.325C716.292 239.325 718.284 238.461 719.916 236.733C721.596 235.005 722.436 232.533 722.436 229.317C722.436 226.101 721.62 223.629 719.988 221.901C718.404 220.173 716.436 219.309 714.084 219.309C711.684 219.309 709.692 220.173 708.108 221.901C706.524 223.581 705.732 226.053 705.732 229.317C705.732 232.533 706.5 235.005 708.036 236.733C709.62 238.461 711.588 239.325 713.94 239.325ZM766.047 249.405L753.807 232.557V249.405H741.495V196.125H753.807V225.573L765.975 209.229H781.167L764.463 229.389L781.311 249.405H766.047ZM802.347 249.981C798.843 249.981 795.723 249.381 792.987 248.181C790.251 246.981 788.091 245.349 786.507 243.285C784.923 241.173 784.035 238.821 783.843 236.229H796.011C796.155 237.621 796.803 238.749 797.955 239.613C799.107 240.477 800.523 240.909 802.203 240.909C803.739 240.909 804.915 240.621 805.731 240.045C806.595 239.421 807.027 238.629 807.027 237.669C807.027 236.517 806.427 235.677 805.227 235.149C804.027 234.573 802.083 233.949 799.395 233.277C796.515 232.605 794.115 231.909 792.195 231.189C790.275 230.421 788.619 229.245 787.227 227.661C785.835 226.029 785.139 223.845 785.139 221.109C785.139 218.805 785.763 216.717 787.011 214.845C788.307 212.925 790.179 211.413 792.627 210.309C795.123 209.205 798.075 208.653 801.483 208.653C806.523 208.653 810.483 209.901 813.363 212.397C816.291 214.893 817.971 218.205 818.403 222.333H807.027C806.835 220.941 806.211 219.837 805.155 219.021C804.147 218.205 802.803 217.797 801.123 217.797C799.683 217.797 798.579 218.085 797.811 218.661C797.043 219.189 796.659 219.933 796.659 220.893C796.659 222.045 797.259 222.909 798.459 223.485C799.707 224.061 801.627 224.637 804.219 225.213C807.195 225.981 809.619 226.749 811.491 227.517C813.363 228.237 814.995 229.437 816.387 231.117C817.827 232.749 818.571 234.957 818.619 237.741C818.619 240.093 817.947 242.205 816.603 244.077C815.307 245.901 813.411 247.341 810.915 248.397C808.467 249.453 805.611 249.981 802.347 249.981Z" fill="url(#paint0_linear_2185_3710)"/>
</g>
<g opacity="0.55" filter="url(#filter1_f_2185_3710)">
<g filter="url(#filter2_d_2185_3710)">
<path d="M149.824 111.861V121.725H136.432V162.405H124.12V121.725H110.728V111.861H149.824ZM180.699 121.797C185.307 121.797 189.003 123.333 191.787 126.405C194.571 129.429 195.963 133.605 195.963 138.933V162.405H183.723V140.589C183.723 137.901 183.027 135.813 181.635 134.325C180.243 132.837 178.371 132.093 176.019 132.093C173.667 132.093 171.795 132.837 170.403 134.325C169.011 135.813 168.315 137.901 168.315 140.589V162.405H156.003V109.125H168.315V127.629C169.563 125.853 171.267 124.437 173.427 123.381C175.587 122.325 178.011 121.797 180.699 121.797ZM242.391 141.669C242.391 142.821 242.319 144.021 242.175 145.269H214.311C214.503 147.765 215.295 149.685 216.687 151.029C218.127 152.325 219.879 152.973 221.943 152.973C225.015 152.973 227.151 151.677 228.351 149.085H241.455C240.783 151.725 239.559 154.101 237.783 156.213C236.055 158.325 233.871 159.981 231.231 161.181C228.591 162.381 225.639 162.981 222.375 162.981C218.439 162.981 214.935 162.141 211.863 160.461C208.791 158.781 206.391 156.381 204.663 153.261C202.935 150.141 202.071 146.493 202.071 142.317C202.071 138.141 202.911 134.493 204.591 131.373C206.319 128.253 208.719 125.853 211.791 124.173C214.863 122.493 218.391 121.653 222.375 121.653C226.263 121.653 229.719 122.469 232.743 124.101C235.767 125.733 238.119 128.061 239.799 131.085C241.527 134.109 242.391 137.637 242.391 141.669ZM229.791 138.429C229.791 136.317 229.071 134.637 227.631 133.389C226.191 132.141 224.391 131.517 222.231 131.517C220.167 131.517 218.415 132.117 216.975 133.317C215.583 134.517 214.719 136.221 214.383 138.429H229.791ZM282.432 162.909C278.736 162.909 275.424 162.309 272.496 161.109C269.568 159.909 267.216 158.133 265.44 155.781C263.712 153.429 262.8 150.597 262.704 147.285H275.808C276 149.157 276.648 150.597 277.752 151.605C278.856 152.565 280.296 153.045 282.072 153.045C283.896 153.045 285.336 152.637 286.392 151.821C287.448 150.957 287.976 149.781 287.976 148.293C287.976 147.045 287.544 146.013 286.68 145.197C285.864 144.381 284.832 143.709 283.584 143.181C282.384 142.653 280.656 142.053 278.4 141.381C275.136 140.373 272.472 139.365 270.408 138.357C268.344 137.349 266.568 135.861 265.08 133.893C263.592 131.925 262.848 129.357 262.848 126.189C262.848 121.485 264.552 117.813 267.96 115.173C271.368 112.485 275.808 111.141 281.28 111.141C286.848 111.141 291.336 112.485 294.744 115.173C298.152 117.813 299.976 121.509 300.216 126.261H286.896C286.8 124.629 286.2 123.357 285.096 122.445C283.992 121.485 282.576 121.005 280.848 121.005C279.36 121.005 278.16 121.413 277.248 122.229C276.336 122.997 275.88 124.125 275.88 125.613C275.88 127.245 276.648 128.517 278.184 129.429C279.72 130.341 282.12 131.325 285.384 132.381C288.648 133.485 291.288 134.541 293.304 135.549C295.368 136.557 297.144 138.021 298.632 139.941C300.12 141.861 300.864 144.333 300.864 147.357C300.864 150.237 300.12 152.853 298.632 155.205C297.192 157.557 295.08 159.429 292.296 160.821C289.512 162.213 286.224 162.909 282.432 162.909ZM320.753 127.917C321.953 126.045 323.609 124.533 325.721 123.381C327.833 122.229 330.305 121.653 333.137 121.653C336.449 121.653 339.449 122.493 342.137 124.173C344.825 125.853 346.937 128.253 348.473 131.373C350.057 134.493 350.849 138.117 350.849 142.245C350.849 146.373 350.057 150.021 348.473 153.189C346.937 156.309 344.825 158.733 342.137 160.461C339.449 162.141 336.449 162.981 333.137 162.981C330.353 162.981 327.881 162.405 325.721 161.253C323.609 160.101 321.953 158.613 320.753 156.789V181.557H308.441V122.229H320.753V127.917ZM338.321 142.245C338.321 139.173 337.457 136.773 335.729 135.045C334.049 133.269 331.961 132.381 329.465 132.381C327.017 132.381 324.929 133.269 323.201 135.045C321.521 136.821 320.681 139.245 320.681 142.317C320.681 145.389 321.521 147.813 323.201 149.589C324.929 151.365 327.017 152.253 329.465 152.253C331.913 152.253 334.001 151.365 335.729 149.589C337.457 147.765 338.321 145.317 338.321 142.245ZM375.596 162.981C371.66 162.981 368.108 162.141 364.94 160.461C361.82 158.781 359.348 156.381 357.524 153.261C355.748 150.141 354.86 146.493 354.86 142.317C354.86 138.189 355.772 134.565 357.596 131.445C359.42 128.277 361.916 125.853 365.084 124.173C368.252 122.493 371.804 121.653 375.74 121.653C379.676 121.653 383.228 122.493 386.396 124.173C389.564 125.853 392.06 128.277 393.884 131.445C395.708 134.565 396.62 138.189 396.62 142.317C396.62 146.445 395.684 150.093 393.812 153.261C391.988 156.381 389.468 158.781 386.252 160.461C383.084 162.141 379.532 162.981 375.596 162.981ZM375.596 152.325C377.948 152.325 379.94 151.461 381.572 149.733C383.252 148.005 384.092 145.533 384.092 142.317C384.092 139.101 383.276 136.629 381.644 134.901C380.06 133.173 378.092 132.309 375.74 132.309C373.34 132.309 371.348 133.173 369.764 134.901C368.18 136.581 367.388 139.053 367.388 142.317C367.388 145.533 368.156 148.005 369.692 149.733C371.276 151.461 373.244 152.325 375.596 152.325ZM415.464 128.925C416.904 126.717 418.704 124.989 420.864 123.741C423.024 122.445 425.424 121.797 428.064 121.797V134.829H424.68C421.608 134.829 419.304 135.501 417.768 136.845C416.232 138.141 415.464 140.445 415.464 143.757V162.405H403.152V122.229H415.464V128.925ZM456.34 151.965V162.405H450.076C445.612 162.405 442.132 161.325 439.636 159.165C437.14 156.957 435.892 153.381 435.892 148.437V132.453H430.996V122.229H435.892V112.437H448.204V122.229H456.268V132.453H448.204V148.581C448.204 149.781 448.492 150.645 449.068 151.173C449.644 151.701 450.604 151.965 451.948 151.965H456.34ZM479.542 162.981C476.038 162.981 472.918 162.381 470.182 161.181C467.446 159.981 465.286 158.349 463.702 156.285C462.118 154.173 461.23 151.821 461.038 149.229H473.206C473.35 150.621 473.998 151.749 475.15 152.613C476.302 153.477 477.718 153.909 479.398 153.909C480.934 153.909 482.11 153.621 482.926 153.045C483.79 152.421 484.222 151.629 484.222 150.669C484.222 149.517 483.622 148.677 482.422 148.149C481.222 147.573 479.278 146.949 476.59 146.277C473.71 145.605 471.31 144.909 469.39 144.189C467.47 143.421 465.814 142.245 464.422 140.661C463.03 139.029 462.334 136.845 462.334 134.109C462.334 131.805 462.958 129.717 464.206 127.845C465.502 125.925 467.374 124.413 469.822 123.309C472.318 122.205 475.27 121.653 478.678 121.653C483.718 121.653 487.678 122.901 490.558 125.397C493.486 127.893 495.166 131.205 495.598 135.333H484.222C484.03 133.941 483.406 132.837 482.35 132.021C481.342 131.205 479.998 130.797 478.318 130.797C476.878 130.797 475.774 131.085 475.006 131.661C474.238 132.189 473.854 132.933 473.854 133.893C473.854 135.045 474.454 135.909 475.654 136.485C476.902 137.061 478.822 137.637 481.414 138.213C484.39 138.981 486.814 139.749 488.686 140.517C490.558 141.237 492.19 142.437 493.582 144.117C495.022 145.749 495.766 147.957 495.814 150.741C495.814 153.093 495.142 155.205 493.798 157.077C492.502 158.901 490.606 160.341 488.11 161.397C485.662 162.453 482.806 162.981 479.542 162.981ZM515.659 127.917C516.811 126.045 518.467 124.533 520.627 123.381C522.787 122.229 525.259 121.653 528.043 121.653C531.355 121.653 534.355 122.493 537.043 124.173C539.731 125.853 541.843 128.253 543.379 131.373C544.963 134.493 545.755 138.117 545.755 142.245C545.755 146.373 544.963 150.021 543.379 153.189C541.843 156.309 539.731 158.733 537.043 160.461C534.355 162.141 531.355 162.981 528.043 162.981C525.211 162.981 522.739 162.429 520.627 161.325C518.515 160.173 516.859 158.661 515.659 156.789V162.405H503.347V109.125H515.659V127.917ZM533.227 142.245C533.227 139.173 532.363 136.773 530.635 135.045C528.955 133.269 526.867 132.381 524.371 132.381C521.923 132.381 519.835 133.269 518.107 135.045C516.427 136.821 515.587 139.245 515.587 142.317C515.587 145.389 516.427 147.813 518.107 149.589C519.835 151.365 521.923 152.253 524.371 152.253C526.819 152.253 528.907 151.365 530.635 149.589C532.363 147.765 533.227 145.317 533.227 142.245ZM570.502 162.981C566.566 162.981 563.014 162.141 559.846 160.461C556.726 158.781 554.254 156.381 552.43 153.261C550.654 150.141 549.766 146.493 549.766 142.317C549.766 138.189 550.678 134.565 552.502 131.445C554.326 128.277 556.822 125.853 559.99 124.173C563.158 122.493 566.71 121.653 570.646 121.653C574.582 121.653 578.134 122.493 581.302 124.173C584.47 125.853 586.966 128.277 588.79 131.445C590.614 134.565 591.526 138.189 591.526 142.317C591.526 146.445 590.59 150.093 588.718 153.261C586.894 156.381 584.374 158.781 581.158 160.461C577.99 162.141 574.438 162.981 570.502 162.981ZM570.502 152.325C572.854 152.325 574.846 151.461 576.478 149.733C578.158 148.005 578.998 145.533 578.998 142.317C578.998 139.101 578.182 136.629 576.55 134.901C574.966 133.173 572.998 132.309 570.646 132.309C568.246 132.309 566.254 133.173 564.67 134.901C563.086 136.581 562.294 139.053 562.294 142.317C562.294 145.533 563.062 148.005 564.598 149.733C566.182 151.461 568.15 152.325 570.502 152.325ZM616.346 162.981C612.41 162.981 608.858 162.141 605.69 160.461C602.57 158.781 600.098 156.381 598.274 153.261C596.498 150.141 595.61 146.493 595.61 142.317C595.61 138.189 596.522 134.565 598.346 131.445C600.17 128.277 602.666 125.853 605.834 124.173C609.002 122.493 612.554 121.653 616.49 121.653C620.426 121.653 623.978 122.493 627.146 124.173C630.314 125.853 632.81 128.277 634.634 131.445C636.458 134.565 637.37 138.189 637.37 142.317C637.37 146.445 636.434 150.093 634.562 153.261C632.738 156.381 630.218 158.781 627.002 160.461C623.834 162.141 620.282 162.981 616.346 162.981ZM616.346 152.325C618.698 152.325 620.69 151.461 622.322 149.733C624.002 148.005 624.842 145.533 624.842 142.317C624.842 139.101 624.026 136.629 622.394 134.901C620.81 133.173 618.842 132.309 616.49 132.309C614.09 132.309 612.098 133.173 610.514 134.901C608.93 136.581 608.138 139.053 608.138 142.317C608.138 145.533 608.906 148.005 610.442 149.733C612.026 151.461 613.994 152.325 616.346 152.325ZM668.454 162.405L656.214 145.557V162.405H643.902V109.125H656.214V138.573L668.382 122.229H683.574L666.87 142.389L683.718 162.405H668.454ZM111.016 229.245C111.016 225.117 111.784 221.493 113.32 218.373C114.904 215.253 117.04 212.853 119.728 211.173C122.416 209.493 125.416 208.653 128.728 208.653C131.56 208.653 134.032 209.229 136.144 210.381C138.304 211.533 139.96 213.045 141.112 214.917V209.229H153.424V249.405H141.112V243.717C139.912 245.589 138.232 247.101 136.072 248.253C133.96 249.405 131.488 249.981 128.656 249.981C125.392 249.981 122.416 249.141 119.728 247.461C117.04 245.733 114.904 243.309 113.32 240.189C111.784 237.021 111.016 233.373 111.016 229.245ZM141.112 229.317C141.112 226.245 140.248 223.821 138.52 222.045C136.84 220.269 134.776 219.381 132.328 219.381C129.88 219.381 127.792 220.269 126.064 222.045C124.384 223.773 123.544 226.173 123.544 229.245C123.544 232.317 124.384 234.765 126.064 236.589C127.792 238.365 129.88 239.253 132.328 239.253C134.776 239.253 136.84 238.365 138.52 236.589C140.248 234.813 141.112 232.389 141.112 229.317ZM174.643 214.917C175.795 213.045 177.451 211.533 179.611 210.381C181.771 209.229 184.243 208.653 187.027 208.653C190.339 208.653 193.339 209.493 196.027 211.173C198.715 212.853 200.827 215.253 202.363 218.373C203.947 221.493 204.739 225.117 204.739 229.245C204.739 233.373 203.947 237.021 202.363 240.189C200.827 243.309 198.715 245.733 196.027 247.461C193.339 249.141 190.339 249.981 187.027 249.981C184.195 249.981 181.723 249.429 179.611 248.325C177.499 247.173 175.843 245.661 174.643 243.789V249.405H162.331V196.125H174.643V214.917ZM192.211 229.245C192.211 226.173 191.347 223.773 189.619 222.045C187.939 220.269 185.851 219.381 183.355 219.381C180.907 219.381 178.819 220.269 177.091 222.045C175.411 223.821 174.571 226.245 174.571 229.317C174.571 232.389 175.411 234.813 177.091 236.589C178.819 238.365 180.907 239.253 183.355 239.253C185.803 239.253 187.891 238.365 189.619 236.589C191.347 234.765 192.211 232.317 192.211 229.245ZM229.486 249.981C225.55 249.981 221.998 249.141 218.83 247.461C215.71 245.781 213.238 243.381 211.414 240.261C209.638 237.141 208.75 233.493 208.75 229.317C208.75 225.189 209.662 221.565 211.486 218.445C213.31 215.277 215.806 212.853 218.974 211.173C222.142 209.493 225.694 208.653 229.63 208.653C233.566 208.653 237.118 209.493 240.286 211.173C243.454 212.853 245.95 215.277 247.774 218.445C249.598 221.565 250.51 225.189 250.51 229.317C250.51 233.445 249.574 237.093 247.702 240.261C245.878 243.381 243.358 245.781 240.142 247.461C236.974 249.141 233.422 249.981 229.486 249.981ZM229.486 239.325C231.838 239.325 233.83 238.461 235.462 236.733C237.142 235.005 237.982 232.533 237.982 229.317C237.982 226.101 237.166 223.629 235.534 221.901C233.95 220.173 231.982 219.309 229.63 219.309C227.23 219.309 225.238 220.173 223.654 221.901C222.07 223.581 221.278 226.053 221.278 229.317C221.278 232.533 222.046 235.005 223.582 236.733C225.166 238.461 227.134 239.325 229.486 239.325ZM275.114 237.885L283.826 209.229H296.93L282.674 249.405H267.482L253.226 209.229H266.402L275.114 237.885ZM339.984 228.669C339.984 229.821 339.912 231.021 339.768 232.269H311.904C312.096 234.765 312.888 236.685 314.28 238.029C315.72 239.325 317.472 239.973 319.536 239.973C322.608 239.973 324.744 238.677 325.944 236.085H339.048C338.376 238.725 337.152 241.101 335.376 243.213C333.648 245.325 331.464 246.981 328.824 248.181C326.184 249.381 323.232 249.981 319.968 249.981C316.032 249.981 312.528 249.141 309.456 247.461C306.384 245.781 303.984 243.381 302.256 240.261C300.528 237.141 299.664 233.493 299.664 229.317C299.664 225.141 300.504 221.493 302.184 218.373C303.912 215.253 306.312 212.853 309.384 211.173C312.456 209.493 315.984 208.653 319.968 208.653C323.856 208.653 327.312 209.469 330.336 211.101C333.36 212.733 335.712 215.061 337.392 218.085C339.12 221.109 339.984 224.637 339.984 228.669ZM327.384 225.429C327.384 223.317 326.664 221.637 325.224 220.389C323.784 219.141 321.984 218.517 319.824 218.517C317.76 218.517 316.008 219.117 314.568 220.317C313.176 221.517 312.312 223.221 311.976 225.429H327.384ZM380.025 249.909C376.329 249.909 373.017 249.309 370.089 248.109C367.161 246.909 364.809 245.133 363.033 242.781C361.305 240.429 360.393 237.597 360.297 234.285H373.401C373.593 236.157 374.241 237.597 375.345 238.605C376.449 239.565 377.889 240.045 379.665 240.045C381.489 240.045 382.929 239.637 383.985 238.821C385.041 237.957 385.569 236.781 385.569 235.293C385.569 234.045 385.137 233.013 384.273 232.197C383.457 231.381 382.425 230.709 381.177 230.181C379.977 229.653 378.249 229.053 375.993 228.381C372.729 227.373 370.065 226.365 368.001 225.357C365.937 224.349 364.161 222.861 362.673 220.893C361.185 218.925 360.441 216.357 360.441 213.189C360.441 208.485 362.145 204.813 365.553 202.173C368.961 199.485 373.401 198.141 378.873 198.141C384.441 198.141 388.929 199.485 392.337 202.173C395.745 204.813 397.569 208.509 397.809 213.261H384.489C384.393 211.629 383.793 210.357 382.689 209.445C381.585 208.485 380.169 208.005 378.441 208.005C376.953 208.005 375.753 208.413 374.841 209.229C373.929 209.997 373.473 211.125 373.473 212.613C373.473 214.245 374.241 215.517 375.777 216.429C377.313 217.341 379.713 218.325 382.977 219.381C386.241 220.485 388.881 221.541 390.897 222.549C392.961 223.557 394.737 225.021 396.225 226.941C397.713 228.861 398.457 231.333 398.457 234.357C398.457 237.237 397.713 239.853 396.225 242.205C394.785 244.557 392.673 246.429 389.889 247.821C387.105 249.213 383.817 249.909 380.025 249.909ZM418.346 214.917C419.546 213.045 421.202 211.533 423.314 210.381C425.426 209.229 427.898 208.653 430.73 208.653C434.042 208.653 437.042 209.493 439.73 211.173C442.418 212.853 444.53 215.253 446.066 218.373C447.65 221.493 448.442 225.117 448.442 229.245C448.442 233.373 447.65 237.021 446.066 240.189C444.53 243.309 442.418 245.733 439.73 247.461C437.042 249.141 434.042 249.981 430.73 249.981C427.946 249.981 425.474 249.405 423.314 248.253C421.202 247.101 419.546 245.613 418.346 243.789V268.557H406.034V209.229H418.346V214.917ZM435.914 229.245C435.914 226.173 435.05 223.773 433.322 222.045C431.642 220.269 429.554 219.381 427.058 219.381C424.61 219.381 422.522 220.269 420.794 222.045C419.114 223.821 418.274 226.245 418.274 229.317C418.274 232.389 419.114 234.813 420.794 236.589C422.522 238.365 424.61 239.253 427.058 239.253C429.506 239.253 431.594 238.365 433.322 236.589C435.05 234.765 435.914 232.317 435.914 229.245ZM473.19 249.981C469.254 249.981 465.702 249.141 462.534 247.461C459.414 245.781 456.942 243.381 455.118 240.261C453.342 237.141 452.454 233.493 452.454 229.317C452.454 225.189 453.366 221.565 455.189 218.445C457.014 215.277 459.51 212.853 462.678 211.173C465.846 209.493 469.398 208.653 473.334 208.653C477.27 208.653 480.822 209.493 483.99 211.173C487.158 212.853 489.654 215.277 491.478 218.445C493.302 221.565 494.214 225.189 494.214 229.317C494.214 233.445 493.278 237.093 491.406 240.261C489.582 243.381 487.062 245.781 483.846 247.461C480.678 249.141 477.126 249.981 473.19 249.981ZM473.19 239.325C475.542 239.325 477.534 238.461 479.166 236.733C480.846 235.005 481.686 232.533 481.686 229.317C481.686 226.101 480.87 223.629 479.238 221.901C477.654 220.173 475.686 219.309 473.334 219.309C470.934 219.309 468.942 220.173 467.358 221.901C465.774 223.581 464.982 226.053 464.982 229.317C464.982 232.533 465.75 235.005 467.286 236.733C468.87 238.461 470.838 239.325 473.19 239.325ZM513.057 215.925C514.497 213.717 516.297 211.989 518.457 210.741C520.617 209.445 523.017 208.797 525.657 208.797V221.829H522.273C519.201 221.829 516.897 222.501 515.361 223.845C513.825 225.141 513.057 227.445 513.057 230.757V249.405H500.745V209.229H513.057V215.925ZM553.934 238.965V249.405H547.67C543.206 249.405 539.726 248.325 537.23 246.165C534.734 243.957 533.486 240.381 533.486 235.437V219.453H528.59V209.229H533.486V199.437H545.798V209.229H553.862V219.453H545.798V235.581C545.798 236.781 546.086 237.645 546.662 238.173C547.238 238.701 548.198 238.965 549.542 238.965H553.934ZM577.136 249.981C573.632 249.981 570.512 249.381 567.776 248.181C565.04 246.981 562.88 245.349 561.296 243.285C559.712 241.173 558.824 238.821 558.632 236.229H570.8C570.944 237.621 571.592 238.749 572.744 239.613C573.896 240.477 575.312 240.909 576.992 240.909C578.528 240.909 579.704 240.621 580.52 240.045C581.384 239.421 581.816 238.629 581.816 237.669C581.816 236.517 581.216 235.677 580.016 235.149C578.816 234.573 576.872 233.949 574.184 233.277C571.304 232.605 568.904 231.909 566.984 231.189C565.064 230.421 563.408 229.245 562.016 227.661C560.624 226.029 559.928 223.845 559.928 221.109C559.928 218.805 560.552 216.717 561.8 214.845C563.096 212.925 564.968 211.413 567.416 210.309C569.912 209.205 572.864 208.653 576.272 208.653C581.312 208.653 585.272 209.901 588.152 212.397C591.08 214.893 592.76 218.205 593.192 222.333H581.816C581.624 220.941 581 219.837 579.944 219.021C578.936 218.205 577.592 217.797 575.912 217.797C574.472 217.797 573.368 218.085 572.6 218.661C571.832 219.189 571.448 219.933 571.448 220.893C571.448 222.045 572.048 222.909 573.248 223.485C574.496 224.061 576.416 224.637 579.008 225.213C581.984 225.981 584.408 226.749 586.28 227.517C588.152 228.237 589.784 229.437 591.176 231.117C592.616 232.749 593.36 234.957 593.408 237.741C593.408 240.093 592.736 242.205 591.392 244.077C590.096 245.901 588.2 247.341 585.704 248.397C583.256 249.453 580.4 249.981 577.136 249.981ZM613.253 214.917C614.405 213.045 616.061 211.533 618.221 210.381C620.381 209.229 622.853 208.653 625.637 208.653C628.949 208.653 631.949 209.493 634.637 211.173C637.325 212.853 639.437 215.253 640.973 218.373C642.557 221.493 643.349 225.117 643.349 229.245C643.349 233.373 642.557 237.021 640.973 240.189C639.437 243.309 637.325 245.733 634.637 247.461C631.949 249.141 628.949 249.981 625.637 249.981C622.805 249.981 620.333 249.429 618.221 248.325C616.109 247.173 614.453 245.661 613.253 243.789V249.405H600.941V196.125H613.253V214.917ZM630.821 229.245C630.821 226.173 629.957 223.773 628.229 222.045C626.549 220.269 624.461 219.381 621.965 219.381C619.517 219.381 617.429 220.269 615.701 222.045C614.021 223.821 613.181 226.245 613.181 229.317C613.181 232.389 614.021 234.813 615.701 236.589C617.429 238.365 619.517 239.253 621.965 239.253C624.413 239.253 626.501 238.365 628.229 236.589C629.957 234.765 630.821 232.317 630.821 229.245ZM668.096 249.981C664.16 249.981 660.608 249.141 657.44 247.461C654.32 245.781 651.848 243.381 650.024 240.261C648.248 237.141 647.36 233.493 647.36 229.317C647.36 225.189 648.272 221.565 650.096 218.445C651.92 215.277 654.416 212.853 657.584 211.173C660.752 209.493 664.304 208.653 668.24 208.653C672.176 208.653 675.728 209.493 678.896 211.173C682.064 212.853 684.56 215.277 686.384 218.445C688.208 221.565 689.12 225.189 689.12 229.317C689.12 233.445 688.184 237.093 686.312 240.261C684.488 243.381 681.968 245.781 678.752 247.461C675.584 249.141 672.032 249.981 668.096 249.981ZM668.096 239.325C670.448 239.325 672.44 238.461 674.072 236.733C675.752 235.005 676.592 232.533 676.592 229.317C676.592 226.101 675.776 223.629 674.144 221.901C672.56 220.173 670.592 219.309 668.24 219.309C665.84 219.309 663.848 220.173 662.264 221.901C660.68 223.581 659.888 226.053 659.888 229.317C659.888 232.533 660.656 235.005 662.192 236.733C663.776 238.461 665.744 239.325 668.096 239.325ZM713.94 249.981C710.004 249.981 706.452 249.141 703.284 247.461C700.164 245.781 697.692 243.381 695.868 240.261C694.092 237.141 693.204 233.493 693.204 229.317C693.204 225.189 694.116 221.565 695.939 218.445C697.764 215.277 700.26 212.853 703.428 211.173C706.596 209.493 710.148 208.653 714.084 208.653C718.02 208.653 721.572 209.493 724.74 211.173C727.908 212.853 730.404 215.277 732.228 218.445C734.052 221.565 734.964 225.189 734.964 229.317C734.964 233.445 734.028 237.093 732.156 240.261C730.332 243.381 727.812 245.781 724.596 247.461C721.428 249.141 717.876 249.981 713.94 249.981ZM713.94 239.325C716.292 239.325 718.284 238.461 719.916 236.733C721.596 235.005 722.436 232.533 722.436 229.317C722.436 226.101 721.62 223.629 719.988 221.901C718.404 220.173 716.436 219.309 714.084 219.309C711.684 219.309 709.692 220.173 708.108 221.901C706.524 223.581 705.732 226.053 705.732 229.317C705.732 232.533 706.5 235.005 708.036 236.733C709.62 238.461 711.588 239.325 713.94 239.325ZM766.047 249.405L753.807 232.557V249.405H741.495V196.125H753.807V225.573L765.975 209.229H781.167L764.463 229.389L781.311 249.405H766.047ZM802.347 249.981C798.843 249.981 795.723 249.381 792.987 248.181C790.251 246.981 788.091 245.349 786.507 243.285C784.923 241.173 784.035 238.821 783.843 236.229H796.011C796.155 237.621 796.803 238.749 797.955 239.613C799.107 240.477 800.523 240.909 802.203 240.909C803.739 240.909 804.915 240.621 805.731 240.045C806.595 239.421 807.027 238.629 807.027 237.669C807.027 236.517 806.427 235.677 805.227 235.149C804.027 234.573 802.083 233.949 799.395 233.277C796.515 232.605 794.115 231.909 792.195 231.189C790.275 230.421 788.619 229.245 787.227 227.661C785.835 226.029 785.139 223.845 785.139 221.109C785.139 218.805 785.763 216.717 787.011 214.845C788.307 212.925 790.179 211.413 792.627 210.309C795.123 209.205 798.075 208.653 801.483 208.653C806.523 208.653 810.483 209.901 813.363 212.397C816.291 214.893 817.971 218.205 818.403 222.333H807.027C806.835 220.941 806.211 219.837 805.155 219.021C804.147 218.205 802.803 217.797 801.123 217.797C799.683 217.797 798.579 218.085 797.811 218.661C797.043 219.189 796.659 219.933 796.659 220.893C796.659 222.045 797.259 222.909 798.459 223.485C799.707 224.061 801.627 224.637 804.219 225.213C807.195 225.981 809.619 226.749 811.491 227.517C813.363 228.237 814.995 229.437 816.387 231.117C817.827 232.749 818.571 234.957 818.619 237.741C818.619 240.093 817.947 242.205 816.603 244.077C815.307 245.901 813.411 247.341 810.915 248.397C808.467 249.453 805.611 249.981 802.347 249.981Z" fill="url(#paint1_linear_2185_3710)"/>
</g>
</g>
<defs>
<filter id="filter0_d_2185_3710" x="0.728027" y="0.125" width="927.891" height="379.432" filterUnits="userSpaceOnUse" color-interpolation-filters="sRGB">
<feFlood flood-opacity="0" result="BackgroundImageFix"/>
<feColorMatrix in="SourceAlpha" type="matrix" values="0 0 0 0 0 0 0 0 0 0 0 0 0 0 0 0 0 0 127 0" result="hardAlpha"/>
<feOffset dy="1"/>
<feGaussianBlur stdDeviation="55"/>
<feComposite in2="hardAlpha" operator="out"/>
<feColorMatrix type="matrix" values="0 0 0 0 0.92549 0 0 0 0 0.364706 0 0 0 0 0.556863 0 0 0 0.31 0"/>
<feBlend mode="normal" in2="BackgroundImageFix" result="effect1_dropShadow_2185_3710"/>
<feBlend mode="normal" in="SourceGraphic" in2="effect1_dropShadow_2185_3710" result="shape"/>
</filter>
<filter id="filter1_f_2185_3710" x="37" y="23.1099" width="879" height="317.447" filterUnits="userSpaceOnUse" color-interpolation-filters="sRGB">
<feFlood flood-opacity="0" result="BackgroundImageFix"/>
<feBlend mode="normal" in="SourceGraphic" in2="BackgroundImageFix" result="shape"/>
<feGaussianBlur stdDeviation="36" result="effect1_foregroundBlur_2185_3710"/>
</filter>
<filter id="filter2_d_2185_3710" x="0.728027" y="0.125" width="927.891" height="379.432" filterUnits="userSpaceOnUse" color-interpolation-filters="sRGB">
<feFlood flood-opacity="0" result="BackgroundImageFix"/>
<feColorMatrix in="SourceAlpha" type="matrix" values="0 0 0 0 0 0 0 0 0 0 0 0 0 0 0 0 0 0 127 0" result="hardAlpha"/>
<feOffset dy="1"/>
<feGaussianBlur stdDeviation="55"/>
<feComposite in2="hardAlpha" operator="out"/>
<feColorMatrix type="matrix" values="0 0 0 0 0.92549 0 0 0 0 0.364706 0 0 0 0 0.556863 0 0 0 0.31 0"/>
<feBlend mode="normal" in2="BackgroundImageFix" result="effect1_dropShadow_2185_3710"/>
<feBlend mode="normal" in="SourceGraphic" in2="effect1_dropShadow_2185_3710" result="shape"/>
</filter>
<linearGradient id="paint0_linear_2185_3710" x1="490.365" y1="94.4048" x2="490.365" y2="267.405" gradientUnits="userSpaceOnUse">
<stop stop-color="#F0C21A"/>
<stop offset="0.15" stop-color="#966B28"/>
<stop offset="0.325" stop-color="#D0AD6A"/>
<stop offset="0.5" stop-color="#FDEECA"/>
<stop offset="0.64" stop-color="#EED46A"/>
<stop offset="0.8" stop-color="#966B28"/>
<stop offset="1" stop-color="#EED46A"/>
</linearGradient>
<linearGradient id="paint1_linear_2185_3710" x1="602.65" y1="94.4048" x2="602.65" y2="267.205" gradientUnits="userSpaceOnUse">
<stop stop-color="#F0C21A"/>
<stop offset="0.15" stop-color="#966B28"/>
<stop offset="0.325" stop-color="#D0AD6A"/>
<stop offset="0.5" stop-color="#FDEECA"/>
<stop offset="0.64" stop-color="#EED46A"/>
<stop offset="0.8" stop-color="#966B28"/>
<stop offset="1" stop-color="#EED46A"/>
</linearGradient>
</defs>
</svg>
