<svg width="1284" height="233" viewBox="0 0 1284 233" fill="none" xmlns="http://www.w3.org/2000/svg">
<g filter="url(#filter0_d_2185_2919)">
<path d="M141.657 89.8359L123.729 140.38H108.321L90.3926 89.8359H103.497L116.025 127.996L128.625 89.8359H141.657ZM159.114 89.8359V140.38H146.802V89.8359H159.114ZM206.557 106.108C206.557 109.036 205.885 111.724 204.541 114.172C203.197 116.572 201.133 118.516 198.349 120.004C195.565 121.492 192.109 122.236 187.981 122.236H180.349V140.38H168.037V89.8359H187.981C192.013 89.8359 195.421 90.5319 198.205 91.9239C200.989 93.3159 203.077 95.2359 204.469 97.6839C205.861 100.132 206.557 102.94 206.557 106.108ZM187.045 112.444C189.397 112.444 191.149 111.892 192.301 110.788C193.453 109.684 194.029 108.124 194.029 106.108C194.029 104.092 193.453 102.532 192.301 101.428C191.149 100.324 189.397 99.7719 187.045 99.7719H180.349V112.444H187.045ZM261.128 89.8359V99.6999H240.536V110.356H255.944V119.932H240.536V140.38H228.224V89.8359H261.128ZM279.911 99.6999V109.924H296.399V119.428H279.911V130.516H298.559V140.38H267.599V89.8359H298.559V99.6999H279.911ZM338.016 131.452H319.152L316.128 140.38H303.24L321.528 89.8359H335.784L354.072 140.38H341.04L338.016 131.452ZM334.848 121.948L328.584 103.444L322.392 121.948H334.848ZM395.998 89.8359V99.6999H382.606V140.38H370.294V99.6999H356.902V89.8359H395.998ZM414.273 89.8359V120.076C414.273 123.1 415.017 125.428 416.505 127.06C417.993 128.692 420.177 129.508 423.057 129.508C425.937 129.508 428.145 128.692 429.681 127.06C431.217 125.428 431.985 123.1 431.985 120.076V89.8359H444.297V120.004C444.297 124.516 443.337 128.332 441.417 131.452C439.497 134.572 436.905 136.924 433.641 138.508C430.425 140.092 426.825 140.884 422.841 140.884C418.857 140.884 415.281 140.116 412.113 138.58C408.993 136.996 406.521 134.644 404.697 131.524C402.873 128.356 401.961 124.516 401.961 120.004V89.8359H414.273ZM478.719 140.38L468.207 121.3H465.255V140.38H452.943V89.8359H473.607C477.591 89.8359 480.975 90.5319 483.759 91.9239C486.591 93.3159 488.703 95.2359 490.095 97.6839C491.487 100.084 492.183 102.772 492.183 105.748C492.183 109.108 491.223 112.108 489.303 114.748C487.431 117.388 484.647 119.26 480.951 120.364L492.615 140.38H478.719ZM465.255 112.588H472.887C475.143 112.588 476.823 112.036 477.927 110.932C479.079 109.828 479.655 108.268 479.655 106.252C479.655 104.332 479.079 102.82 477.927 101.716C476.823 100.612 475.143 100.06 472.887 100.06H465.255V112.588ZM512.224 99.6999V109.924H528.712V119.428H512.224V130.516H530.872V140.38H499.912V89.8359H530.872V99.6999H512.224ZM557.153 140.884C553.457 140.884 550.145 140.284 547.217 139.084C544.289 137.884 541.937 136.108 540.161 133.756C538.433 131.404 537.521 128.572 537.425 125.26H550.529C550.721 127.132 551.369 128.572 552.473 129.58C553.577 130.54 555.017 131.02 556.793 131.02C558.617 131.02 560.057 130.612 561.113 129.796C562.169 128.932 562.697 127.756 562.697 126.268C562.697 125.02 562.265 123.988 561.401 123.172C560.585 122.356 559.553 121.684 558.305 121.156C557.105 120.628 555.377 120.028 553.121 119.356C549.857 118.348 547.193 117.34 545.129 116.332C543.065 115.324 541.289 113.836 539.801 111.868C538.313 109.9 537.569 107.332 537.569 104.164C537.569 99.4599 539.273 95.7879 542.681 93.1479C546.089 90.4599 550.529 89.1159 556.001 89.1159C561.569 89.1159 566.057 90.4599 569.465 93.1479C572.873 95.7879 574.697 99.4839 574.937 104.236H561.617C561.521 102.604 560.921 101.332 559.817 100.42C558.713 99.4599 557.297 98.9799 555.569 98.9799C554.081 98.9799 552.881 99.3879 551.969 100.204C551.057 100.972 550.601 102.1 550.601 103.588C550.601 105.22 551.369 106.492 552.905 107.404C554.441 108.316 556.841 109.3 560.105 110.356C563.369 111.46 566.009 112.516 568.025 113.524C570.089 114.532 571.865 115.996 573.353 117.916C574.841 119.836 575.585 122.308 575.585 125.332C575.585 128.212 574.841 130.828 573.353 133.18C571.913 135.532 569.801 137.404 567.017 138.796C564.233 140.188 560.945 140.884 557.153 140.884ZM631.324 89.8359V99.6999H610.732V110.356H626.14V119.932H610.732V140.38H598.42V89.8359H631.324ZM661.699 140.884C656.947 140.884 652.579 139.78 648.595 137.572C644.659 135.364 641.515 132.292 639.163 128.356C636.859 124.372 635.707 119.908 635.707 114.964C635.707 110.02 636.859 105.58 639.163 101.644C641.515 97.7079 644.659 94.6359 648.595 92.4279C652.579 90.2199 656.947 89.1159 661.699 89.1159C666.451 89.1159 670.795 90.2199 674.731 92.4279C678.715 94.6359 681.835 97.7079 684.091 101.644C686.395 105.58 687.547 110.02 687.547 114.964C687.547 119.908 686.395 124.372 684.091 128.356C681.787 132.292 678.667 135.364 674.731 137.572C670.795 139.78 666.451 140.884 661.699 140.884ZM661.699 129.652C665.731 129.652 668.947 128.308 671.347 125.62C673.795 122.932 675.019 119.38 675.019 114.964C675.019 110.5 673.795 106.948 671.347 104.308C668.947 101.62 665.731 100.276 661.699 100.276C657.619 100.276 654.355 101.596 651.907 104.236C649.507 106.876 648.307 110.452 648.307 114.964C648.307 119.428 649.507 123.004 651.907 125.692C654.355 128.332 657.619 129.652 661.699 129.652ZM720.172 140.38L709.66 121.3H706.708V140.38H694.396V89.8359H715.06C719.044 89.8359 722.428 90.5319 725.212 91.9239C728.044 93.3159 730.156 95.2359 731.548 97.6839C732.94 100.084 733.636 102.772 733.636 105.748C733.636 109.108 732.676 112.108 730.756 114.748C728.884 117.388 726.1 119.26 722.404 120.364L734.068 140.38H720.172ZM706.708 112.588H714.34C716.596 112.588 718.276 112.036 719.38 110.932C720.532 109.828 721.108 108.268 721.108 106.252C721.108 104.332 720.532 102.82 719.38 101.716C718.276 100.612 716.596 100.06 714.34 100.06H706.708V112.588ZM804.071 89.8359L786.143 140.38H770.735L752.807 89.8359H765.911L778.439 127.996L791.039 89.8359H804.071ZM821.528 89.8359V140.38H809.216V89.8359H821.528ZM868.971 106.108C868.971 109.036 868.299 111.724 866.955 114.172C865.611 116.572 863.547 118.516 860.763 120.004C857.979 121.492 854.523 122.236 850.395 122.236H842.763V140.38H830.451V89.8359H850.395C854.427 89.8359 857.835 90.5319 860.619 91.9239C863.403 93.3159 865.491 95.2359 866.883 97.6839C868.275 100.132 868.971 102.94 868.971 106.108ZM849.459 112.444C851.811 112.444 853.563 111.892 854.715 110.788C855.867 109.684 856.443 108.124 856.443 106.108C856.443 104.092 855.867 102.532 854.715 101.428C853.563 100.324 851.811 99.7719 849.459 99.7719H842.763V112.444H849.459ZM929.158 106.108C929.158 109.036 928.486 111.724 927.142 114.172C925.798 116.572 923.734 118.516 920.95 120.004C918.166 121.492 914.71 122.236 910.582 122.236H902.95V140.38H890.638V89.8359H910.582C914.614 89.8359 918.022 90.5319 920.806 91.9239C923.59 93.3159 925.678 95.2359 927.07 97.6839C928.462 100.132 929.158 102.94 929.158 106.108ZM909.646 112.444C911.998 112.444 913.75 111.892 914.902 110.788C916.054 109.684 916.63 108.124 916.63 106.108C916.63 104.092 916.054 102.532 914.902 101.428C913.75 100.324 911.998 99.7719 909.646 99.7719H902.95V112.444H909.646ZM947.88 130.876H964.008V140.38H935.568V89.8359H947.88V130.876ZM1001.34 131.452H982.481L979.457 140.38H966.569L984.857 89.8359H999.113L1017.4 140.38H1004.37L1001.34 131.452ZM998.177 121.948L991.913 103.444L985.721 121.948H998.177ZM1066.31 89.8359L1048.81 123.676V140.38H1036.5V123.676L1019.01 89.8359H1032.97L1042.77 111.004L1052.49 89.8359H1066.31ZM1083.58 99.6999V109.924H1100.07V119.428H1083.58V130.516H1102.23V140.38H1071.27V89.8359H1102.23V99.6999H1083.58ZM1136 140.38L1125.49 121.3H1122.54V140.38H1110.22V89.8359H1130.89C1134.87 89.8359 1138.26 90.5319 1141.04 91.9239C1143.87 93.3159 1145.98 95.2359 1147.38 97.6839C1148.77 100.084 1149.46 102.772 1149.46 105.748C1149.46 109.108 1148.5 112.108 1146.58 114.748C1144.71 117.388 1141.93 119.26 1138.23 120.364L1149.9 140.38H1136ZM1122.54 112.588H1130.17C1132.42 112.588 1134.1 112.036 1135.21 110.932C1136.36 109.828 1136.94 108.268 1136.94 106.252C1136.94 104.332 1136.36 102.82 1135.21 101.716C1134.1 100.612 1132.42 100.06 1130.17 100.06H1122.54V112.588ZM1175.48 140.884C1171.79 140.884 1168.47 140.284 1165.55 139.084C1162.62 137.884 1160.27 136.108 1158.49 133.756C1156.76 131.404 1155.85 128.572 1155.75 125.26H1168.86C1169.05 127.132 1169.7 128.572 1170.8 129.58C1171.91 130.54 1173.35 131.02 1175.12 131.02C1176.95 131.02 1178.39 130.612 1179.44 129.796C1180.5 128.932 1181.03 127.756 1181.03 126.268C1181.03 125.02 1180.59 123.988 1179.73 123.172C1178.91 122.356 1177.88 121.684 1176.63 121.156C1175.43 120.628 1173.71 120.028 1171.45 119.356C1168.19 118.348 1165.52 117.34 1163.46 116.332C1161.39 115.324 1159.62 113.836 1158.13 111.868C1156.64 109.9 1155.9 107.332 1155.9 104.164C1155.9 99.4599 1157.6 95.7879 1161.01 93.1479C1164.42 90.4599 1168.86 89.1159 1174.33 89.1159C1179.9 89.1159 1184.39 90.4599 1187.79 93.1479C1191.2 95.7879 1193.03 99.4839 1193.27 104.236H1179.95C1179.85 102.604 1179.25 101.332 1178.15 100.42C1177.04 99.4599 1175.63 98.9799 1173.9 98.9799C1172.41 98.9799 1171.21 99.3879 1170.3 100.204C1169.39 100.972 1168.93 102.1 1168.93 103.588C1168.93 105.22 1169.7 106.492 1171.23 107.404C1172.77 108.316 1175.17 109.3 1178.43 110.356C1181.7 111.46 1184.34 112.516 1186.35 113.524C1188.42 114.532 1190.19 115.996 1191.68 117.916C1193.17 119.836 1193.91 122.308 1193.91 125.332C1193.91 128.212 1193.17 130.828 1191.68 133.18C1190.24 135.532 1188.13 137.404 1185.35 138.796C1182.56 140.188 1179.27 140.884 1175.48 140.884Z" fill="url(#paint0_linear_2185_2919)"/>
</g>
<g opacity="0.63" filter="url(#filter1_f_2185_2919)">
<g filter="url(#filter2_d_2185_2919)">
<path d="M141.326 90.3561L123.398 140.9H107.99L90.0621 90.3561H103.166L115.694 128.516L128.294 90.3561H141.326ZM158.784 90.3561V140.9H146.472V90.3561H158.784ZM206.226 106.628C206.226 109.556 205.554 112.244 204.21 114.692C202.866 117.092 200.802 119.036 198.018 120.524C195.234 122.012 191.778 122.756 187.65 122.756H180.018V140.9H167.706V90.3561H187.65C191.682 90.3561 195.09 91.0521 197.874 92.4441C200.658 93.8361 202.746 95.7561 204.138 98.2041C205.53 100.652 206.226 103.46 206.226 106.628ZM186.714 112.964C189.066 112.964 190.818 112.412 191.97 111.308C193.122 110.204 193.698 108.644 193.698 106.628C193.698 104.612 193.122 103.052 191.97 101.948C190.818 100.844 189.066 100.292 186.714 100.292H180.018V112.964H186.714ZM260.798 90.3561V100.22H240.206V110.876H255.614V120.452H240.206V140.9H227.894V90.3561H260.798ZM279.581 100.22V110.444H296.069V119.948H279.581V131.036H298.229V140.9H267.269V90.3561H298.229V100.22H279.581ZM337.686 131.972H318.822L315.798 140.9H302.91L321.198 90.3561H335.454L353.742 140.9H340.71L337.686 131.972ZM334.518 122.468L328.254 103.964L322.062 122.468H334.518ZM395.668 90.3561V100.22H382.276V140.9H369.964V100.22H356.572V90.3561H395.668ZM413.943 90.3561V120.596C413.943 123.62 414.687 125.948 416.175 127.58C417.663 129.212 419.847 130.028 422.727 130.028C425.607 130.028 427.815 129.212 429.351 127.58C430.887 125.948 431.655 123.62 431.655 120.596V90.3561H443.967V120.524C443.967 125.036 443.007 128.852 441.087 131.972C439.167 135.092 436.575 137.444 433.311 139.028C430.095 140.612 426.495 141.404 422.511 141.404C418.527 141.404 414.951 140.636 411.783 139.1C408.663 137.516 406.191 135.164 404.367 132.044C402.543 128.876 401.631 125.036 401.631 120.524V90.3561H413.943ZM478.388 140.9L467.876 121.82H464.924V140.9H452.612V90.3561H473.276C477.26 90.3561 480.644 91.0521 483.428 92.4441C486.26 93.8361 488.372 95.7561 489.764 98.2041C491.156 100.604 491.852 103.292 491.852 106.268C491.852 109.628 490.892 112.628 488.972 115.268C487.1 117.908 484.316 119.78 480.62 120.884L492.284 140.9H478.388ZM464.924 113.108H472.556C474.812 113.108 476.492 112.556 477.596 111.452C478.748 110.348 479.324 108.788 479.324 106.772C479.324 104.852 478.748 103.34 477.596 102.236C476.492 101.132 474.812 100.58 472.556 100.58H464.924V113.108ZM511.893 100.22V110.444H528.381V119.948H511.893V131.036H530.541V140.9H499.581V90.3561H530.541V100.22H511.893ZM556.822 141.404C553.126 141.404 549.814 140.804 546.886 139.604C543.958 138.404 541.606 136.628 539.83 134.276C538.102 131.924 537.19 129.092 537.094 125.78H550.198C550.39 127.652 551.038 129.092 552.142 130.1C553.246 131.06 554.686 131.54 556.462 131.54C558.286 131.54 559.726 131.132 560.782 130.316C561.838 129.452 562.366 128.276 562.366 126.788C562.366 125.54 561.934 124.508 561.07 123.692C560.254 122.876 559.222 122.204 557.974 121.676C556.774 121.148 555.046 120.548 552.79 119.876C549.526 118.868 546.862 117.86 544.798 116.852C542.734 115.844 540.958 114.356 539.47 112.388C537.982 110.42 537.238 107.852 537.238 104.684C537.238 99.9801 538.942 96.3081 542.35 93.6681C545.758 90.9801 550.198 89.6361 555.67 89.6361C561.238 89.6361 565.726 90.9801 569.134 93.6681C572.542 96.3081 574.366 100.004 574.606 104.756H561.286C561.19 103.124 560.59 101.852 559.486 100.94C558.382 99.9801 556.966 99.5001 555.238 99.5001C553.75 99.5001 552.55 99.9081 551.638 100.724C550.726 101.492 550.27 102.62 550.27 104.108C550.27 105.74 551.038 107.012 552.574 107.924C554.11 108.836 556.51 109.82 559.774 110.876C563.038 111.98 565.678 113.036 567.694 114.044C569.758 115.052 571.534 116.516 573.022 118.436C574.51 120.356 575.254 122.828 575.254 125.852C575.254 128.732 574.51 131.348 573.022 133.7C571.582 136.052 569.47 137.924 566.686 139.316C563.902 140.708 560.614 141.404 556.822 141.404ZM630.993 90.3561V100.22H610.401V110.876H625.809V120.452H610.401V140.9H598.089V90.3561H630.993ZM661.368 141.404C656.616 141.404 652.248 140.3 648.264 138.092C644.328 135.884 641.184 132.812 638.832 128.876C636.528 124.892 635.376 120.428 635.376 115.484C635.376 110.54 636.528 106.1 638.832 102.164C641.184 98.2281 644.328 95.1561 648.264 92.9481C652.248 90.7401 656.616 89.6361 661.368 89.6361C666.12 89.6361 670.464 90.7401 674.4 92.9481C678.384 95.1561 681.504 98.2281 683.76 102.164C686.064 106.1 687.216 110.54 687.216 115.484C687.216 120.428 686.064 124.892 683.76 128.876C681.456 132.812 678.336 135.884 674.4 138.092C670.464 140.3 666.12 141.404 661.368 141.404ZM661.368 130.172C665.4 130.172 668.616 128.828 671.016 126.14C673.464 123.452 674.688 119.9 674.688 115.484C674.688 111.02 673.464 107.468 671.016 104.828C668.616 102.14 665.4 100.796 661.368 100.796C657.288 100.796 654.024 102.116 651.576 104.756C649.176 107.396 647.976 110.972 647.976 115.484C647.976 119.948 649.176 123.524 651.576 126.212C654.024 128.852 657.288 130.172 661.368 130.172ZM719.842 140.9L709.33 121.82H706.378V140.9H694.066V90.3561H714.73C718.714 90.3561 722.098 91.0521 724.882 92.4441C727.714 93.8361 729.826 95.7561 731.218 98.2041C732.61 100.604 733.306 103.292 733.306 106.268C733.306 109.628 732.346 112.628 730.426 115.268C728.554 117.908 725.77 119.78 722.074 120.884L733.738 140.9H719.842ZM706.378 113.108H714.01C716.266 113.108 717.946 112.556 719.05 111.452C720.202 110.348 720.778 108.788 720.778 106.772C720.778 104.852 720.202 103.34 719.05 102.236C717.946 101.132 716.266 100.58 714.01 100.58H706.378V113.108ZM803.74 90.3561L785.812 140.9H770.404L752.476 90.3561H765.58L778.108 128.516L790.708 90.3561H803.74ZM821.198 90.3561V140.9H808.886V90.3561H821.198ZM868.64 106.628C868.64 109.556 867.968 112.244 866.624 114.692C865.28 117.092 863.216 119.036 860.432 120.524C857.648 122.012 854.192 122.756 850.064 122.756H842.432V140.9H830.12V90.3561H850.064C854.096 90.3561 857.504 91.0521 860.288 92.4441C863.072 93.8361 865.16 95.7561 866.552 98.2041C867.944 100.652 868.64 103.46 868.64 106.628ZM849.128 112.964C851.48 112.964 853.232 112.412 854.384 111.308C855.536 110.204 856.112 108.644 856.112 106.628C856.112 104.612 855.536 103.052 854.384 101.948C853.232 100.844 851.48 100.292 849.128 100.292H842.432V112.964H849.128ZM928.828 106.628C928.828 109.556 928.156 112.244 926.812 114.692C925.468 117.092 923.404 119.036 920.62 120.524C917.836 122.012 914.38 122.756 910.252 122.756H902.62V140.9H890.308V90.3561H910.252C914.284 90.3561 917.692 91.0521 920.476 92.4441C923.26 93.8361 925.348 95.7561 926.74 98.2041C928.132 100.652 928.828 103.46 928.828 106.628ZM909.316 112.964C911.668 112.964 913.42 112.412 914.572 111.308C915.724 110.204 916.3 108.644 916.3 106.628C916.3 104.612 915.724 103.052 914.572 101.948C913.42 100.844 911.668 100.292 909.316 100.292H902.62V112.964H909.316ZM947.549 131.396H963.677V140.9H935.237V90.3561H947.549V131.396ZM1001.01 131.972H982.15L979.126 140.9H966.238L984.526 90.3561H998.782L1017.07 140.9H1004.04L1001.01 131.972ZM997.846 122.468L991.582 103.964L985.39 122.468H997.846ZM1065.98 90.3561L1048.48 124.196V140.9H1036.17V124.196L1018.68 90.3561H1032.64L1042.44 111.524L1052.16 90.3561H1065.98ZM1083.25 100.22V110.444H1099.74V119.948H1083.25V131.036H1101.9V140.9H1070.94V90.3561H1101.9V100.22H1083.25ZM1135.67 140.9L1125.16 121.82H1122.21V140.9H1109.89V90.3561H1130.56C1134.54 90.3561 1137.93 91.0521 1140.71 92.4441C1143.54 93.8361 1145.65 95.7561 1147.05 98.2041C1148.44 100.604 1149.13 103.292 1149.13 106.268C1149.13 109.628 1148.17 112.628 1146.25 115.268C1144.38 117.908 1141.6 119.78 1137.9 120.884L1149.57 140.9H1135.67ZM1122.21 113.108H1129.84C1132.09 113.108 1133.77 112.556 1134.88 111.452C1136.03 110.348 1136.61 108.788 1136.61 106.772C1136.61 104.852 1136.03 103.34 1134.88 102.236C1133.77 101.132 1132.09 100.58 1129.84 100.58H1122.21V113.108ZM1175.15 141.404C1171.45 141.404 1168.14 140.804 1165.21 139.604C1162.29 138.404 1159.93 136.628 1158.16 134.276C1156.43 131.924 1155.52 129.092 1155.42 125.78H1168.53C1168.72 127.652 1169.37 129.092 1170.47 130.1C1171.57 131.06 1173.01 131.54 1174.79 131.54C1176.61 131.54 1178.05 131.132 1179.11 130.316C1180.17 129.452 1180.69 128.276 1180.69 126.788C1180.69 125.54 1180.26 124.508 1179.4 123.692C1178.58 122.876 1177.55 122.204 1176.3 121.676C1175.1 121.148 1173.37 120.548 1171.12 119.876C1167.85 118.868 1165.19 117.86 1163.13 116.852C1161.06 115.844 1159.29 114.356 1157.8 112.388C1156.31 110.42 1155.57 107.852 1155.57 104.684C1155.57 99.9801 1157.27 96.3081 1160.68 93.6681C1164.09 90.9801 1168.53 89.6361 1174 89.6361C1179.57 89.6361 1184.05 90.9801 1187.46 93.6681C1190.87 96.3081 1192.69 100.004 1192.93 104.756H1179.61C1179.52 103.124 1178.92 101.852 1177.81 100.94C1176.71 99.9801 1175.29 99.5001 1173.57 99.5001C1172.08 99.5001 1170.88 99.9081 1169.97 100.724C1169.05 101.492 1168.6 102.62 1168.6 104.108C1168.6 105.74 1169.37 107.012 1170.9 107.924C1172.44 108.836 1174.84 109.82 1178.1 110.876C1181.37 111.98 1184.01 113.036 1186.02 114.044C1188.09 115.052 1189.86 116.516 1191.35 118.436C1192.84 120.356 1193.58 122.828 1193.58 125.852C1193.58 128.732 1192.84 131.348 1191.35 133.7C1189.91 136.052 1187.8 137.924 1185.01 139.316C1182.23 140.708 1178.94 141.404 1175.15 141.404Z" fill="#FFF0CE"/>
</g>
</g>
<defs>
<filter id="filter0_d_2185_2919" x="0.392578" y="0.115967" width="1283.52" height="231.768" filterUnits="userSpaceOnUse" color-interpolation-filters="sRGB">
<feFlood flood-opacity="0" result="BackgroundImageFix"/>
<feColorMatrix in="SourceAlpha" type="matrix" values="0 0 0 0 0 0 0 0 0 0 0 0 0 0 0 0 0 0 127 0" result="hardAlpha"/>
<feOffset dy="1"/>
<feGaussianBlur stdDeviation="45"/>
<feComposite in2="hardAlpha" operator="out"/>
<feColorMatrix type="matrix" values="0 0 0 0 0.941176 0 0 0 0 0.713726 0 0 0 0 0.341176 0 0 0 0.27 0"/>
<feBlend mode="normal" in2="BackgroundImageFix" result="effect1_dropShadow_2185_2919"/>
<feBlend mode="normal" in="SourceGraphic" in2="effect1_dropShadow_2185_2919" result="shape"/>
</filter>
<filter id="filter1_f_2185_2919" x="17" y="1.48999" width="1252" height="230" filterUnits="userSpaceOnUse" color-interpolation-filters="sRGB">
<feFlood flood-opacity="0" result="BackgroundImageFix"/>
<feBlend mode="normal" in="SourceGraphic" in2="BackgroundImageFix" result="shape"/>
<feGaussianBlur stdDeviation="36" result="effect1_foregroundBlur_2185_2919"/>
</filter>
<filter id="filter2_d_2185_2919" x="0.0620117" y="0.63623" width="1283.52" height="231.768" filterUnits="userSpaceOnUse" color-interpolation-filters="sRGB">
<feFlood flood-opacity="0" result="BackgroundImageFix"/>
<feColorMatrix in="SourceAlpha" type="matrix" values="0 0 0 0 0 0 0 0 0 0 0 0 0 0 0 0 0 0 127 0" result="hardAlpha"/>
<feOffset dy="1"/>
<feGaussianBlur stdDeviation="45"/>
<feComposite in2="hardAlpha" operator="out"/>
<feColorMatrix type="matrix" values="0 0 0 0 0.941176 0 0 0 0 0.713726 0 0 0 0 0.341176 0 0 0 0.27 0"/>
<feBlend mode="normal" in2="BackgroundImageFix" result="effect1_dropShadow_2185_2919"/>
<feBlend mode="normal" in="SourceGraphic" in2="effect1_dropShadow_2185_2919" result="shape"/>
</filter>
<linearGradient id="paint0_linear_2185_2919" x1="643.385" y1="72.3799" x2="643.385" y2="159.38" gradientUnits="userSpaceOnUse">
<stop stop-color="#F0C21A"/>
<stop offset="0.15" stop-color="#966B28"/>
<stop offset="0.325" stop-color="#D0AD6A"/>
<stop offset="0.5" stop-color="#FDEECA"/>
<stop offset="0.64" stop-color="#EED46A"/>
<stop offset="0.8" stop-color="#966B28"/>
<stop offset="1" stop-color="#EED46A"/>
</linearGradient>
</defs>
</svg>
