<svg width="738" height="199" viewBox="0 0 738 199" fill="none" xmlns="http://www.w3.org/2000/svg">
<g filter="url(#filter0_d_2675_54)">
<path d="M75.4964 83.7937L63.5444 117.49H53.2724L41.3204 83.7937H50.0564L58.4084 109.234L66.8084 83.7937H75.4964ZM87.1349 83.7937V117.49H78.9269V83.7937H87.1349ZM118.763 94.6417C118.763 96.5937 118.315 98.3857 117.419 100.018C116.523 101.618 115.147 102.914 113.291 103.906C111.435 104.898 109.131 105.394 106.379 105.394H101.291V117.49H93.0832V83.7937H106.379C109.067 83.7937 111.339 84.2577 113.195 85.1857C115.051 86.1137 116.443 87.3937 117.371 89.0257C118.299 90.6577 118.763 92.5297 118.763 94.6417ZM105.755 98.8657C107.323 98.8657 108.491 98.4977 109.259 97.7617C110.027 97.0257 110.411 95.9857 110.411 94.6417C110.411 93.2977 110.027 92.2577 109.259 91.5217C108.491 90.7857 107.323 90.4177 105.755 90.4177H101.291V98.8657H105.755ZM137.336 87.9217C135.896 87.9217 134.712 87.5057 133.784 86.6737C132.888 85.8097 132.44 84.7537 132.44 83.5057C132.44 82.2257 132.888 81.1697 133.784 80.3377C134.712 79.4737 135.896 79.0417 137.336 79.0417C138.744 79.0417 139.896 79.4737 140.792 80.3377C141.72 81.1697 142.184 82.2257 142.184 83.5057C142.184 84.7537 141.72 85.8097 140.792 86.6737C139.896 87.5057 138.744 87.9217 137.336 87.9217ZM141.416 90.7057V117.49H133.208V90.7057H141.416ZM158.26 117.874C155.924 117.874 153.844 117.474 152.02 116.674C150.196 115.874 148.756 114.786 147.7 113.41C146.644 112.002 146.052 110.434 145.924 108.706H154.036C154.132 109.634 154.564 110.386 155.332 110.962C156.1 111.538 157.044 111.826 158.164 111.826C159.188 111.826 159.972 111.634 160.516 111.25C161.092 110.834 161.38 110.306 161.38 109.666C161.38 108.898 160.98 108.338 160.18 107.986C159.38 107.602 158.084 107.186 156.292 106.738C154.372 106.29 152.772 105.826 151.492 105.346C150.212 104.834 149.108 104.05 148.18 102.994C147.252 101.906 146.788 100.45 146.788 98.6257C146.788 97.0897 147.204 95.6977 148.036 94.4497C148.9 93.1697 150.148 92.1617 151.78 91.4257C153.444 90.6897 155.412 90.3217 157.684 90.3217C161.044 90.3217 163.684 91.1537 165.604 92.8177C167.556 94.4817 168.676 96.6897 168.964 99.4417H161.38C161.252 98.5137 160.836 97.7777 160.132 97.2337C159.46 96.6897 158.564 96.4177 157.444 96.4177C156.484 96.4177 155.748 96.6097 155.236 96.9937C154.724 97.3457 154.468 97.8417 154.468 98.4817C154.468 99.2497 154.868 99.8257 155.668 100.21C156.5 100.594 157.78 100.978 159.508 101.362C161.492 101.874 163.108 102.386 164.356 102.898C165.604 103.378 166.692 104.178 167.62 105.298C168.58 106.386 169.076 107.858 169.108 109.714C169.108 111.282 168.66 112.69 167.764 113.938C166.9 115.154 165.636 116.114 163.972 116.818C162.34 117.522 160.436 117.874 158.26 117.874ZM195.198 117.874C192.862 117.874 190.782 117.474 188.958 116.674C187.134 115.874 185.694 114.786 184.638 113.41C183.582 112.002 182.99 110.434 182.862 108.706H190.974C191.07 109.634 191.502 110.386 192.27 110.962C193.038 111.538 193.982 111.826 195.102 111.826C196.126 111.826 196.91 111.634 197.454 111.25C198.03 110.834 198.318 110.306 198.318 109.666C198.318 108.898 197.918 108.338 197.118 107.986C196.318 107.602 195.022 107.186 193.23 106.738C191.31 106.29 189.71 105.826 188.43 105.346C187.15 104.834 186.046 104.05 185.118 102.994C184.19 101.906 183.726 100.45 183.726 98.6257C183.726 97.0897 184.142 95.6977 184.974 94.4497C185.838 93.1697 187.086 92.1617 188.718 91.4257C190.382 90.6897 192.35 90.3217 194.622 90.3217C197.982 90.3217 200.622 91.1537 202.542 92.8177C204.494 94.4817 205.614 96.6897 205.902 99.4417H198.318C198.19 98.5137 197.774 97.7777 197.07 97.2337C196.398 96.6897 195.502 96.4177 194.382 96.4177C193.422 96.4177 192.686 96.6097 192.174 96.9937C191.662 97.3457 191.406 97.8417 191.406 98.4817C191.406 99.2497 191.806 99.8257 192.606 100.21C193.438 100.594 194.718 100.978 196.446 101.362C198.43 101.874 200.046 102.386 201.294 102.898C202.542 103.378 203.63 104.178 204.558 105.298C205.518 106.386 206.014 107.858 206.046 109.714C206.046 111.282 205.598 112.69 204.702 113.938C203.838 115.154 202.574 116.114 200.91 116.818C199.278 117.522 197.374 117.874 195.198 117.874ZM236.316 103.666C236.316 104.434 236.268 105.234 236.172 106.066H217.596C217.724 107.73 218.252 109.01 219.18 109.906C220.14 110.77 221.308 111.202 222.684 111.202C224.732 111.202 226.156 110.338 226.956 108.61H235.692C235.244 110.37 234.428 111.954 233.244 113.362C232.092 114.77 230.636 115.874 228.876 116.674C227.116 117.474 225.148 117.874 222.972 117.874C220.348 117.874 218.012 117.314 215.964 116.194C213.916 115.074 212.316 113.474 211.164 111.394C210.012 109.314 209.436 106.882 209.436 104.098C209.436 101.314 209.996 98.8817 211.116 96.8017C212.268 94.7217 213.868 93.1217 215.916 92.0017C217.964 90.8817 220.316 90.3217 222.972 90.3217C225.564 90.3217 227.868 90.8657 229.884 91.9537C231.9 93.0417 233.468 94.5937 234.588 96.6097C235.74 98.6257 236.316 100.978 236.316 103.666ZM227.916 101.506C227.916 100.098 227.436 98.9777 226.476 98.1457C225.516 97.3137 224.316 96.8977 222.876 96.8977C221.5 96.8977 220.332 97.2977 219.372 98.0977C218.444 98.8977 217.868 100.034 217.644 101.506H227.916ZM239.014 104.098C239.014 101.314 239.574 98.8817 240.694 96.8017C241.846 94.7217 243.43 93.1217 245.446 92.0017C247.494 90.8817 249.83 90.3217 252.454 90.3217C255.814 90.3217 258.614 91.2017 260.854 92.9617C263.126 94.7217 264.614 97.2017 265.318 100.402H256.582C255.846 98.3537 254.422 97.3297 252.31 97.3297C250.806 97.3297 249.606 97.9217 248.71 99.1057C247.814 100.258 247.366 101.922 247.366 104.098C247.366 106.274 247.814 107.954 248.71 109.138C249.606 110.29 250.806 110.866 252.31 110.866C254.422 110.866 255.846 109.842 256.582 107.794H265.318C264.614 110.93 263.126 113.394 260.854 115.186C258.582 116.978 255.782 117.874 252.454 117.874C249.83 117.874 247.494 117.314 245.446 116.194C243.43 115.074 241.846 113.474 240.694 111.394C239.574 109.314 239.014 106.882 239.014 104.098ZM296.156 90.7057V117.49H287.948V113.842C287.116 115.026 285.98 115.986 284.54 116.722C283.132 117.426 281.564 117.778 279.836 117.778C277.788 117.778 275.98 117.33 274.412 116.434C272.844 115.506 271.628 114.178 270.764 112.45C269.9 110.722 269.468 108.69 269.468 106.354V90.7057H277.628V105.25C277.628 107.042 278.092 108.434 279.02 109.426C279.948 110.418 281.196 110.914 282.764 110.914C284.364 110.914 285.628 110.418 286.556 109.426C287.484 108.434 287.948 107.042 287.948 105.25V90.7057H296.156ZM310.26 95.1697C311.22 93.6977 312.42 92.5457 313.86 91.7137C315.3 90.8497 316.9 90.4177 318.66 90.4177V99.1057H316.404C314.356 99.1057 312.82 99.5537 311.796 100.45C310.772 101.314 310.26 102.85 310.26 105.058V117.49H302.052V90.7057H310.26V95.1697ZM347.831 103.666C347.831 104.434 347.783 105.234 347.687 106.066H329.111C329.239 107.73 329.767 109.01 330.695 109.906C331.655 110.77 332.823 111.202 334.199 111.202C336.247 111.202 337.671 110.338 338.471 108.61H347.207C346.759 110.37 345.943 111.954 344.759 113.362C343.607 114.77 342.151 115.874 340.391 116.674C338.631 117.474 336.663 117.874 334.487 117.874C331.863 117.874 329.527 117.314 327.479 116.194C325.431 115.074 323.831 113.474 322.679 111.394C321.527 109.314 320.951 106.882 320.951 104.098C320.951 101.314 321.511 98.8817 322.631 96.8017C323.783 94.7217 325.383 93.1217 327.431 92.0017C329.479 90.8817 331.831 90.3217 334.487 90.3217C337.079 90.3217 339.383 90.8657 341.399 91.9537C343.415 93.0417 344.983 94.5937 346.103 96.6097C347.255 98.6257 347.831 100.978 347.831 103.666ZM339.431 101.506C339.431 100.098 338.951 98.9777 337.991 98.1457C337.031 97.3137 335.831 96.8977 334.391 96.8977C333.015 96.8977 331.847 97.2977 330.887 98.0977C329.959 98.8977 329.383 100.034 329.159 101.506H339.431ZM350.529 104.05C350.529 101.298 351.041 98.8817 352.065 96.8017C353.121 94.7217 354.545 93.1217 356.337 92.0017C358.129 90.8817 360.129 90.3217 362.337 90.3217C364.097 90.3217 365.697 90.6897 367.137 91.4257C368.609 92.1617 369.761 93.1537 370.593 94.4017V81.9697H378.801V117.49H370.593V113.65C369.825 114.93 368.721 115.954 367.281 116.722C365.873 117.49 364.225 117.874 362.337 117.874C360.129 117.874 358.129 117.314 356.337 116.194C354.545 115.042 353.121 113.426 352.065 111.346C351.041 109.234 350.529 106.802 350.529 104.05ZM370.593 104.098C370.593 102.05 370.017 100.434 368.865 99.2497C367.745 98.0657 366.369 97.4737 364.737 97.4737C363.105 97.4737 361.713 98.0657 360.561 99.2497C359.441 100.402 358.881 102.002 358.881 104.05C358.881 106.098 359.441 107.73 360.561 108.946C361.713 110.13 363.105 110.722 364.737 110.722C366.369 110.722 367.745 110.13 368.865 108.946C370.017 107.762 370.593 106.146 370.593 104.098ZM403.451 104.05C403.451 101.298 403.963 98.8817 404.987 96.8017C406.043 94.7217 407.467 93.1217 409.259 92.0017C411.051 90.8817 413.051 90.3217 415.259 90.3217C417.147 90.3217 418.795 90.7057 420.203 91.4737C421.643 92.2417 422.747 93.2497 423.515 94.4977V90.7057H431.723V117.49H423.515V113.698C422.715 114.946 421.595 115.954 420.155 116.722C418.747 117.49 417.099 117.874 415.211 117.874C413.035 117.874 411.051 117.314 409.259 116.194C407.467 115.042 406.043 113.426 404.987 111.346C403.963 109.234 403.451 106.802 403.451 104.05ZM423.515 104.098C423.515 102.05 422.939 100.434 421.787 99.2497C420.667 98.0657 419.291 97.4737 417.659 97.4737C416.027 97.4737 414.635 98.0657 413.483 99.2497C412.363 100.402 411.803 102.002 411.803 104.05C411.803 106.098 412.363 107.73 413.483 108.946C414.635 110.13 416.027 110.722 417.659 110.722C419.291 110.722 420.667 110.13 421.787 108.946C422.939 107.762 423.515 106.146 423.515 104.098ZM453.981 90.4177C457.117 90.4177 459.613 91.4417 461.469 93.4897C463.357 95.5057 464.301 98.2897 464.301 101.842V117.49H456.141V102.946C456.141 101.154 455.677 99.7617 454.749 98.7697C453.821 97.7777 452.573 97.2817 451.005 97.2817C449.437 97.2817 448.189 97.7777 447.261 98.7697C446.333 99.7617 445.869 101.154 445.869 102.946V117.49H437.661V90.7057H445.869V94.2577C446.701 93.0737 447.821 92.1457 449.229 91.4737C450.637 90.7697 452.221 90.4177 453.981 90.4177ZM468.373 104.05C468.373 101.298 468.885 98.8817 469.909 96.8017C470.965 94.7217 472.389 93.1217 474.181 92.0017C475.973 90.8817 477.973 90.3217 480.181 90.3217C481.941 90.3217 483.541 90.6897 484.981 91.4257C486.453 92.1617 487.605 93.1537 488.437 94.4017V81.9697H496.645V117.49H488.437V113.65C487.669 114.93 486.565 115.954 485.125 116.722C483.717 117.49 482.069 117.874 480.181 117.874C477.973 117.874 475.973 117.314 474.181 116.194C472.389 115.042 470.965 113.426 469.909 111.346C468.885 109.234 468.373 106.802 468.373 104.05ZM488.437 104.098C488.437 102.05 487.861 100.434 486.709 99.2497C485.589 98.0657 484.213 97.4737 482.581 97.4737C480.949 97.4737 479.557 98.0657 478.405 99.2497C477.285 100.402 476.725 102.002 476.725 104.05C476.725 106.098 477.285 107.73 478.405 108.946C479.557 110.13 480.949 110.722 482.581 110.722C484.213 110.722 485.589 110.13 486.709 108.946C487.861 107.762 488.437 106.146 488.437 104.098ZM520.963 95.1697C521.923 93.6977 523.123 92.5457 524.563 91.7137C526.003 90.8497 527.603 90.4177 529.363 90.4177V99.1057H527.107C525.059 99.1057 523.523 99.5537 522.499 100.45C521.475 101.314 520.963 102.85 520.963 105.058V117.49H512.755V90.7057H520.963V95.1697ZM558.534 103.666C558.534 104.434 558.486 105.234 558.39 106.066H539.814C539.942 107.73 540.47 109.01 541.398 109.906C542.358 110.77 543.526 111.202 544.902 111.202C546.95 111.202 548.374 110.338 549.174 108.61H557.91C557.462 110.37 556.646 111.954 555.462 113.362C554.31 114.77 552.854 115.874 551.094 116.674C549.334 117.474 547.366 117.874 545.19 117.874C542.566 117.874 540.23 117.314 538.182 116.194C536.134 115.074 534.534 113.474 533.382 111.394C532.23 109.314 531.654 106.882 531.654 104.098C531.654 101.314 532.214 98.8817 533.334 96.8017C534.486 94.7217 536.086 93.1217 538.134 92.0017C540.182 90.8817 542.534 90.3217 545.19 90.3217C547.782 90.3217 550.086 90.8657 552.102 91.9537C554.118 93.0417 555.686 94.5937 556.806 96.6097C557.958 98.6257 558.534 100.978 558.534 103.666ZM550.134 101.506C550.134 100.098 549.654 98.9777 548.694 98.1457C547.734 97.3137 546.534 96.8977 545.094 96.8977C543.718 96.8977 542.55 97.2977 541.59 98.0977C540.662 98.8977 540.086 100.034 539.862 101.506H550.134ZM571.072 81.9697V117.49H562.864V81.9697H571.072ZM581.149 87.9217C579.709 87.9217 578.525 87.5057 577.597 86.6737C576.701 85.8097 576.253 84.7537 576.253 83.5057C576.253 82.2257 576.701 81.1697 577.597 80.3377C578.525 79.4737 579.709 79.0417 581.149 79.0417C582.557 79.0417 583.709 79.4737 584.605 80.3377C585.533 81.1697 585.997 82.2257 585.997 83.5057C585.997 84.7537 585.533 85.8097 584.605 86.6737C583.709 87.5057 582.557 87.9217 581.149 87.9217ZM585.229 90.7057V117.49H577.021V90.7057H585.229ZM589.545 104.05C589.545 101.298 590.057 98.8817 591.081 96.8017C592.137 94.7217 593.561 93.1217 595.353 92.0017C597.145 90.8817 599.145 90.3217 601.353 90.3217C603.241 90.3217 604.889 90.7057 606.297 91.4737C607.737 92.2417 608.841 93.2497 609.609 94.4977V90.7057H617.817V117.49H609.609V113.698C608.809 114.946 607.689 115.954 606.249 116.722C604.841 117.49 603.193 117.874 601.305 117.874C599.129 117.874 597.145 117.314 595.353 116.194C593.561 115.042 592.137 113.426 591.081 111.346C590.057 109.234 589.545 106.802 589.545 104.05ZM609.609 104.098C609.609 102.05 609.033 100.434 607.881 99.2497C606.761 98.0657 605.385 97.4737 603.753 97.4737C602.121 97.4737 600.729 98.0657 599.577 99.2497C598.457 100.402 597.897 102.002 597.897 104.05C597.897 106.098 598.457 107.73 599.577 108.946C600.729 110.13 602.121 110.722 603.753 110.722C605.385 110.722 606.761 110.13 607.881 108.946C609.033 107.762 609.609 106.146 609.609 104.098ZM631.963 94.4977C632.731 93.2497 633.835 92.2417 635.275 91.4737C636.715 90.7057 638.363 90.3217 640.219 90.3217C642.427 90.3217 644.427 90.8817 646.219 92.0017C648.011 93.1217 649.419 94.7217 650.443 96.8017C651.499 98.8817 652.027 101.298 652.027 104.05C652.027 106.802 651.499 109.234 650.443 111.346C649.419 113.426 648.011 115.042 646.219 116.194C644.427 117.314 642.427 117.874 640.219 117.874C638.331 117.874 636.683 117.506 635.275 116.77C633.867 116.002 632.763 114.994 631.963 113.746V117.49H623.755V81.9697H631.963V94.4977ZM643.675 104.05C643.675 102.002 643.099 100.402 641.947 99.2497C640.827 98.0657 639.435 97.4737 637.771 97.4737C636.139 97.4737 634.747 98.0657 633.595 99.2497C632.475 100.434 631.915 102.05 631.915 104.098C631.915 106.146 632.475 107.762 633.595 108.946C634.747 110.13 636.139 110.722 637.771 110.722C639.403 110.722 640.795 110.13 641.947 108.946C643.099 107.73 643.675 106.098 643.675 104.05ZM664.541 81.9697V117.49H656.333V81.9697H664.541ZM695.737 103.666C695.737 104.434 695.689 105.234 695.593 106.066H677.017C677.145 107.73 677.673 109.01 678.601 109.906C679.561 110.77 680.729 111.202 682.105 111.202C684.153 111.202 685.577 110.338 686.377 108.61H695.113C694.665 110.37 693.849 111.954 692.665 113.362C691.513 114.77 690.057 115.874 688.297 116.674C686.537 117.474 684.569 117.874 682.393 117.874C679.769 117.874 677.433 117.314 675.385 116.194C673.337 115.074 671.737 113.474 670.585 111.394C669.433 109.314 668.857 106.882 668.857 104.098C668.857 101.314 669.417 98.8817 670.537 96.8017C671.689 94.7217 673.289 93.1217 675.337 92.0017C677.385 90.8817 679.737 90.3217 682.393 90.3217C684.985 90.3217 687.289 90.8657 689.305 91.9537C691.321 93.0417 692.889 94.5937 694.009 96.6097C695.161 98.6257 695.737 100.978 695.737 103.666ZM687.337 101.506C687.337 100.098 686.857 98.9777 685.897 98.1457C684.937 97.3137 683.737 96.8977 682.297 96.8977C680.921 96.8977 679.753 97.2977 678.793 98.0977C677.865 98.8977 677.289 100.034 677.065 101.506H687.337Z" fill="url(#paint0_linear_2675_54)"/>
</g>
<defs>
<filter id="filter0_d_2675_54" x="-38.6796" y="0.0415039" width="814.417" height="198.832" filterUnits="userSpaceOnUse" color-interpolation-filters="sRGB">
<feFlood flood-opacity="0" result="BackgroundImageFix"/>
<feColorMatrix in="SourceAlpha" type="matrix" values="0 0 0 0 0 0 0 0 0 0 0 0 0 0 0 0 0 0 127 0" result="hardAlpha"/>
<feOffset dy="1"/>
<feGaussianBlur stdDeviation="40"/>
<feComposite in2="hardAlpha" operator="out"/>
<feColorMatrix type="matrix" values="0 0 0 0 0.654902 0 0 0 0 0.933333 0 0 0 0 0.666667 0 0 0 0.75 0"/>
<feBlend mode="normal" in2="BackgroundImageFix" result="effect1_dropShadow_2675_54"/>
<feBlend mode="normal" in="SourceGraphic" in2="effect1_dropShadow_2675_54" result="shape"/>
</filter>
<linearGradient id="paint0_linear_2675_54" x1="368.99" y1="67.4897" x2="368.99" y2="135.49" gradientUnits="userSpaceOnUse">
<stop stop-color="#F0C21A"/>
<stop offset="0.15" stop-color="#966B28"/>
<stop offset="0.325" stop-color="#D0AD6A"/>
<stop offset="0.5" stop-color="#FDEECA"/>
<stop offset="0.64" stop-color="#EED46A"/>
<stop offset="0.8" stop-color="#966B28"/>
<stop offset="1" stop-color="#EED46A"/>
</linearGradient>
</defs>
</svg>
