<svg width="1644" height="285" viewBox="0 0 1644 285" fill="none" xmlns="http://www.w3.org/2000/svg">
<path d="M123.912 74.351L105.984 124.895H90.576L72.648 74.351H85.752L98.28 112.511L110.88 74.351H123.912ZM141.37 74.351V124.895H129.058V74.351H141.37ZM188.812 90.623C188.812 93.551 188.14 96.239 186.796 98.687C185.452 101.087 183.388 103.031 180.604 104.519C177.82 106.007 174.364 106.751 170.236 106.751H162.604V124.895H150.292V74.351H170.236C174.268 74.351 177.676 75.047 180.46 76.439C183.244 77.831 185.332 79.751 186.724 82.199C188.116 84.647 188.812 87.455 188.812 90.623ZM169.3 96.959C171.652 96.959 173.404 96.407 174.556 95.303C175.708 94.199 176.284 92.639 176.284 90.623C176.284 88.607 175.708 87.047 174.556 85.943C173.404 84.839 171.652 84.287 169.3 84.287H162.604V96.959H169.3ZM208.392 99.551C208.392 94.559 209.472 90.119 211.632 86.231C213.792 82.295 216.792 79.247 220.632 77.087C224.52 74.879 228.912 73.775 233.808 73.775C239.808 73.775 244.944 75.359 249.216 78.527C253.488 81.695 256.344 86.015 257.784 91.487H244.248C243.24 89.375 241.8 87.767 239.928 86.663C238.104 85.559 236.016 85.007 233.664 85.007C229.872 85.007 226.8 86.327 224.448 88.967C222.096 91.607 220.92 95.135 220.92 99.551C220.92 103.967 222.096 107.495 224.448 110.135C226.8 112.775 229.872 114.095 233.664 114.095C236.016 114.095 238.104 113.543 239.928 112.439C241.8 111.335 243.24 109.727 244.248 107.615H257.784C256.344 113.087 253.488 117.407 249.216 120.575C244.944 123.695 239.808 125.255 233.808 125.255C228.912 125.255 224.52 124.175 220.632 122.015C216.792 119.807 213.792 116.759 211.632 112.871C209.472 108.983 208.392 104.543 208.392 99.551ZM277.635 71.615V124.895H265.323V71.615H277.635ZM326.23 84.719V124.895H313.918V119.423C312.67 121.199 310.966 122.639 308.806 123.743C306.694 124.799 304.342 125.327 301.75 125.327C298.678 125.327 295.966 124.655 293.614 123.311C291.262 121.919 289.438 119.927 288.142 117.335C286.846 114.743 286.198 111.695 286.198 108.191V84.719H298.438V106.535C298.438 109.223 299.134 111.311 300.526 112.799C301.918 114.287 303.79 115.031 306.142 115.031C308.542 115.031 310.438 114.287 311.83 112.799C313.222 111.311 313.918 109.223 313.918 106.535V84.719H326.23ZM347.385 90.407C348.537 88.535 350.193 87.023 352.353 85.871C354.513 84.719 356.985 84.143 359.769 84.143C363.081 84.143 366.081 84.983 368.769 86.663C371.457 88.343 373.569 90.743 375.105 93.863C376.689 96.983 377.481 100.607 377.481 104.735C377.481 108.863 376.689 112.511 375.105 115.679C373.569 118.799 371.457 121.223 368.769 122.951C366.081 124.631 363.081 125.471 359.769 125.471C356.937 125.471 354.465 124.919 352.353 123.815C350.241 122.663 348.585 121.151 347.385 119.279V124.895H335.073V71.615H347.385V90.407ZM364.953 104.735C364.953 101.663 364.089 99.263 362.361 97.535C360.681 95.759 358.593 94.871 356.097 94.871C353.649 94.871 351.561 95.759 349.833 97.535C348.153 99.311 347.313 101.735 347.313 104.807C347.313 107.879 348.153 110.303 349.833 112.079C351.561 113.855 353.649 114.743 356.097 114.743C358.545 114.743 360.633 113.855 362.361 112.079C364.089 110.255 364.953 107.807 364.953 104.735ZM112.824 161.351V171.215H99.432V211.895H87.12V171.215H73.728V161.351H112.824ZM143.699 171.287C148.307 171.287 152.003 172.823 154.787 175.895C157.571 178.919 158.963 183.095 158.963 188.423V211.895H146.723V190.079C146.723 187.391 146.027 185.303 144.635 183.815C143.243 182.327 141.371 181.583 139.019 181.583C136.667 181.583 134.795 182.327 133.403 183.815C132.011 185.303 131.315 187.391 131.315 190.079V211.895H119.003V158.615H131.315V177.119C132.563 175.343 134.267 173.927 136.427 172.871C138.587 171.815 141.011 171.287 143.699 171.287ZM205.391 191.159C205.391 192.311 205.319 193.511 205.175 194.759H177.311C177.503 197.255 178.295 199.175 179.687 200.519C181.127 201.815 182.879 202.463 184.943 202.463C188.015 202.463 190.151 201.167 191.351 198.575H204.455C203.783 201.215 202.559 203.591 200.783 205.703C199.055 207.815 196.871 209.471 194.231 210.671C191.591 211.871 188.639 212.471 185.375 212.471C181.439 212.471 177.935 211.631 174.863 209.951C171.791 208.271 169.391 205.871 167.663 202.751C165.935 199.631 165.071 195.983 165.071 191.807C165.071 187.631 165.911 183.983 167.591 180.863C169.319 177.743 171.719 175.343 174.791 173.663C177.863 171.983 181.391 171.143 185.375 171.143C189.263 171.143 192.719 171.959 195.743 173.591C198.767 175.223 201.119 177.551 202.799 180.575C204.527 183.599 205.391 187.127 205.391 191.159ZM192.791 187.919C192.791 185.807 192.071 184.127 190.631 182.879C189.191 181.631 187.391 181.007 185.231 181.007C183.167 181.007 181.415 181.607 179.975 182.807C178.583 184.007 177.719 185.711 177.383 187.919H192.791ZM257.744 185.975C260.672 186.599 263.024 188.063 264.8 190.367C266.576 192.623 267.464 195.215 267.464 198.143C267.464 202.367 265.976 205.727 263 208.223C260.072 210.671 255.968 211.895 250.688 211.895H227.144V161.351H249.896C255.032 161.351 259.04 162.527 261.92 164.879C264.848 167.231 266.312 170.423 266.312 174.455C266.312 177.431 265.52 179.903 263.936 181.871C262.4 183.839 260.336 185.207 257.744 185.975ZM239.456 181.799H247.52C249.536 181.799 251.072 181.367 252.128 180.503C253.232 179.591 253.784 178.271 253.784 176.543C253.784 174.815 253.232 173.495 252.128 172.583C251.072 171.671 249.536 171.215 247.52 171.215H239.456V181.799ZM248.528 201.959C250.592 201.959 252.176 201.503 253.28 200.591C254.432 199.631 255.008 198.263 255.008 196.487C255.008 194.711 254.408 193.319 253.208 192.311C252.056 191.303 250.448 190.799 248.384 190.799H239.456V201.959H248.528ZM312.477 191.159C312.477 192.311 312.405 193.511 312.261 194.759H284.397C284.589 197.255 285.381 199.175 286.773 200.519C288.213 201.815 289.965 202.463 292.029 202.463C295.101 202.463 297.237 201.167 298.437 198.575H311.541C310.869 201.215 309.645 203.591 307.869 205.703C306.141 207.815 303.957 209.471 301.317 210.671C298.677 211.871 295.725 212.471 292.461 212.471C288.525 212.471 285.021 211.631 281.949 209.951C278.877 208.271 276.477 205.871 274.749 202.751C273.021 199.631 272.157 195.983 272.157 191.807C272.157 187.631 272.997 183.983 274.677 180.863C276.405 177.743 278.805 175.343 281.877 173.663C284.949 171.983 288.477 171.143 292.461 171.143C296.349 171.143 299.805 171.959 302.829 173.591C305.853 175.223 308.205 177.551 309.885 180.575C311.613 183.599 312.477 187.127 312.477 191.159ZM299.877 187.919C299.877 185.807 299.157 184.127 297.717 182.879C296.277 181.631 294.477 181.007 292.317 181.007C290.253 181.007 288.501 181.607 287.061 182.807C285.669 184.007 284.805 185.711 284.469 187.919H299.877ZM335.316 212.471C331.812 212.471 328.692 211.871 325.956 210.671C323.22 209.471 321.06 207.839 319.476 205.775C317.892 203.663 317.004 201.311 316.812 198.719H328.98C329.124 200.111 329.772 201.239 330.924 202.103C332.076 202.967 333.492 203.399 335.172 203.399C336.708 203.399 337.884 203.111 338.7 202.535C339.564 201.911 339.996 201.119 339.996 200.159C339.996 199.007 339.396 198.167 338.196 197.639C336.996 197.063 335.052 196.439 332.364 195.767C329.484 195.095 327.084 194.399 325.164 193.679C323.244 192.911 321.588 191.735 320.196 190.151C318.804 188.519 318.108 186.335 318.108 183.599C318.108 181.295 318.732 179.207 319.98 177.335C321.276 175.415 323.148 173.903 325.596 172.799C328.092 171.695 331.044 171.143 334.452 171.143C339.492 171.143 343.452 172.391 346.332 174.887C349.26 177.383 350.94 180.695 351.372 184.823H339.996C339.804 183.431 339.18 182.327 338.124 181.511C337.116 180.695 335.772 180.287 334.092 180.287C332.652 180.287 331.548 180.575 330.78 181.151C330.012 181.679 329.628 182.423 329.628 183.383C329.628 184.535 330.228 185.399 331.428 185.975C332.676 186.551 334.596 187.127 337.188 187.703C340.164 188.471 342.588 189.239 344.46 190.007C346.332 190.727 347.964 191.927 349.356 193.607C350.796 195.239 351.54 197.447 351.588 200.231C351.588 202.583 350.916 204.695 349.572 206.567C348.276 208.391 346.38 209.831 343.884 210.887C341.436 211.943 338.58 212.471 335.316 212.471ZM381.512 201.455V211.895H375.248C370.784 211.895 367.304 210.815 364.808 208.655C362.312 206.447 361.064 202.871 361.064 197.927V181.943H356.168V171.719H361.064V161.927H373.376V171.719H381.44V181.943H373.376V198.071C373.376 199.271 373.664 200.135 374.24 200.663C374.816 201.191 375.776 201.455 377.12 201.455H381.512ZM401.54 186.551C401.54 181.559 402.62 177.119 404.78 173.231C406.94 169.295 409.94 166.247 413.78 164.087C417.668 161.879 422.06 160.775 426.956 160.775C432.956 160.775 438.092 162.359 442.364 165.527C446.636 168.695 449.492 173.015 450.932 178.487H437.396C436.388 176.375 434.948 174.767 433.076 173.663C431.252 172.559 429.164 172.007 426.812 172.007C423.02 172.007 419.948 173.327 417.596 175.967C415.244 178.607 414.068 182.135 414.068 186.551C414.068 190.967 415.244 194.495 417.596 197.135C419.948 199.775 423.02 201.095 426.812 201.095C429.164 201.095 431.252 200.543 433.076 199.439C434.948 198.335 436.388 196.727 437.396 194.615H450.932C449.492 200.087 446.636 204.407 442.364 207.575C438.092 210.695 432.956 212.255 426.956 212.255C422.06 212.255 417.668 211.175 413.78 209.015C409.94 206.807 406.94 203.759 404.78 199.871C402.62 195.983 401.54 191.543 401.54 186.551ZM456.024 191.735C456.024 187.607 456.792 183.983 458.328 180.863C459.912 177.743 462.048 175.343 464.736 173.663C467.424 171.983 470.424 171.143 473.736 171.143C476.568 171.143 479.04 171.719 481.152 172.871C483.312 174.023 484.968 175.535 486.12 177.407V171.719H498.432V211.895H486.12V206.207C484.92 208.079 483.24 209.591 481.08 210.743C478.968 211.895 476.496 212.471 473.664 212.471C470.4 212.471 467.424 211.631 464.736 209.951C462.048 208.223 459.912 205.799 458.328 202.679C456.792 199.511 456.024 195.863 456.024 191.735ZM486.12 191.807C486.12 188.735 485.256 186.311 483.528 184.535C481.848 182.759 479.784 181.871 477.336 181.871C474.888 181.871 472.8 182.759 471.072 184.535C469.392 186.263 468.552 188.663 468.552 191.735C468.552 194.807 469.392 197.255 471.072 199.079C472.8 200.855 474.888 201.743 477.336 201.743C479.784 201.743 481.848 200.855 483.528 199.079C485.256 197.303 486.12 194.879 486.12 191.807ZM523.683 212.471C520.179 212.471 517.059 211.871 514.323 210.671C511.587 209.471 509.427 207.839 507.843 205.775C506.259 203.663 505.371 201.311 505.179 198.719H517.347C517.491 200.111 518.139 201.239 519.291 202.103C520.443 202.967 521.859 203.399 523.539 203.399C525.075 203.399 526.251 203.111 527.067 202.535C527.931 201.911 528.363 201.119 528.363 200.159C528.363 199.007 527.763 198.167 526.563 197.639C525.363 197.063 523.419 196.439 520.731 195.767C517.851 195.095 515.451 194.399 513.531 193.679C511.611 192.911 509.955 191.735 508.563 190.151C507.171 188.519 506.475 186.335 506.475 183.599C506.475 181.295 507.099 179.207 508.347 177.335C509.643 175.415 511.515 173.903 513.963 172.799C516.459 171.695 519.411 171.143 522.819 171.143C527.859 171.143 531.819 172.391 534.699 174.887C537.627 177.383 539.307 180.695 539.739 184.823H528.363C528.171 183.431 527.547 182.327 526.491 181.511C525.483 180.695 524.139 180.287 522.459 180.287C521.019 180.287 519.915 180.575 519.147 181.151C518.379 181.679 517.995 182.423 517.995 183.383C517.995 184.535 518.595 185.399 519.795 185.975C521.043 186.551 522.963 187.127 525.555 187.703C528.531 188.471 530.955 189.239 532.827 190.007C534.699 190.727 536.331 191.927 537.723 193.607C539.163 195.239 539.907 197.447 539.955 200.231C539.955 202.583 539.283 204.695 537.939 206.567C536.643 208.391 534.747 209.831 532.251 210.887C529.803 211.943 526.947 212.471 523.683 212.471ZM553.679 167.543C551.519 167.543 549.743 166.919 548.351 165.671C547.007 164.375 546.335 162.791 546.335 160.919C546.335 158.999 547.007 157.415 548.351 156.167C549.743 154.871 551.519 154.223 553.679 154.223C555.791 154.223 557.519 154.871 558.863 156.167C560.255 157.415 560.951 158.999 560.951 160.919C560.951 162.791 560.255 164.375 558.863 165.671C557.519 166.919 555.791 167.543 553.679 167.543ZM559.799 171.719V211.895H547.487V171.719H559.799ZM593.202 171.287C597.906 171.287 601.65 172.823 604.434 175.895C607.266 178.919 608.682 183.095 608.682 188.423V211.895H596.442V190.079C596.442 187.391 595.746 185.303 594.354 183.815C592.962 182.327 591.09 181.583 588.738 181.583C586.386 181.583 584.514 182.327 583.122 183.815C581.73 185.303 581.034 187.391 581.034 190.079V211.895H568.722V171.719H581.034V177.047C582.282 175.271 583.962 173.879 586.074 172.871C588.186 171.815 590.562 171.287 593.202 171.287ZM635.525 212.471C631.589 212.471 628.037 211.631 624.869 209.951C621.749 208.271 619.277 205.871 617.453 202.751C615.677 199.631 614.789 195.983 614.789 191.807C614.789 187.679 615.701 184.055 617.525 180.935C619.349 177.767 621.845 175.343 625.013 173.663C628.181 171.983 631.733 171.143 635.669 171.143C639.605 171.143 643.157 171.983 646.325 173.663C649.493 175.343 651.989 177.767 653.813 180.935C655.637 184.055 656.549 187.679 656.549 191.807C656.549 195.935 655.613 199.583 653.741 202.751C651.917 205.871 649.397 208.271 646.181 209.951C643.013 211.631 639.461 212.471 635.525 212.471ZM635.525 201.815C637.877 201.815 639.869 200.951 641.501 199.223C643.181 197.495 644.021 195.023 644.021 191.807C644.021 188.591 643.205 186.119 641.573 184.391C639.989 182.663 638.021 181.799 635.669 181.799C633.269 181.799 631.277 182.663 629.693 184.391C628.109 186.071 627.317 188.543 627.317 191.807C627.317 195.023 628.085 197.495 629.621 199.223C631.205 200.951 633.173 201.815 635.525 201.815ZM702.243 212.399C697.491 212.399 693.123 211.295 689.139 209.087C685.203 206.879 682.059 203.807 679.707 199.871C677.403 195.887 676.251 191.423 676.251 186.479C676.251 181.535 677.403 177.095 679.707 173.159C682.059 169.223 685.203 166.151 689.139 163.943C693.123 161.735 697.491 160.631 702.243 160.631C706.995 160.631 711.339 161.735 715.275 163.943C719.259 166.151 722.379 169.223 724.635 173.159C726.939 177.095 728.091 181.535 728.091 186.479C728.091 191.423 726.939 195.887 724.635 199.871C722.331 203.807 719.211 206.879 715.275 209.087C711.339 211.295 706.995 212.399 702.243 212.399ZM702.243 201.167C706.275 201.167 709.491 199.823 711.891 197.135C714.339 194.447 715.563 190.895 715.563 186.479C715.563 182.015 714.339 178.463 711.891 175.823C709.491 173.135 706.275 171.791 702.243 171.791C698.163 171.791 694.899 173.111 692.451 175.751C690.051 178.391 688.851 181.967 688.851 186.479C688.851 190.943 690.051 194.519 692.451 197.207C694.899 199.847 698.163 201.167 702.243 201.167ZM759.421 171.287C764.125 171.287 767.869 172.823 770.653 175.895C773.485 178.919 774.901 183.095 774.901 188.423V211.895H762.661V190.079C762.661 187.391 761.965 185.303 760.573 183.815C759.181 182.327 757.309 181.583 754.957 181.583C752.605 181.583 750.733 182.327 749.341 183.815C747.949 185.303 747.253 187.391 747.253 190.079V211.895H734.941V171.719H747.253V177.047C748.501 175.271 750.181 173.879 752.293 172.871C754.405 171.815 756.781 171.287 759.421 171.287ZM795.768 158.615V211.895H783.456V158.615H795.768ZM810.883 167.543C808.723 167.543 806.947 166.919 805.555 165.671C804.211 164.375 803.539 162.791 803.539 160.919C803.539 158.999 804.211 157.415 805.555 156.167C806.947 154.871 808.723 154.223 810.883 154.223C812.995 154.223 814.723 154.871 816.067 156.167C817.459 157.415 818.155 158.999 818.155 160.919C818.155 162.791 817.459 164.375 816.067 165.671C814.723 166.919 812.995 167.543 810.883 167.543ZM817.003 171.719V211.895H804.691V171.719H817.003ZM850.405 171.287C855.109 171.287 858.853 172.823 861.637 175.895C864.469 178.919 865.885 183.095 865.885 188.423V211.895H853.645V190.079C853.645 187.391 852.949 185.303 851.557 183.815C850.165 182.327 848.293 181.583 845.941 181.583C843.589 181.583 841.717 182.327 840.325 183.815C838.933 185.303 838.237 187.391 838.237 190.079V211.895H825.925V171.719H838.237V177.047C839.485 175.271 841.165 173.879 843.277 172.871C845.389 171.815 847.765 171.287 850.405 171.287ZM912.313 191.159C912.313 192.311 912.241 193.511 912.097 194.759H884.233C884.425 197.255 885.217 199.175 886.609 200.519C888.049 201.815 889.801 202.463 891.865 202.463C894.937 202.463 897.073 201.167 898.273 198.575H911.377C910.705 201.215 909.481 203.591 907.705 205.703C905.977 207.815 903.793 209.471 901.153 210.671C898.513 211.871 895.561 212.471 892.297 212.471C888.361 212.471 884.857 211.631 881.785 209.951C878.713 208.271 876.313 205.871 874.585 202.751C872.857 199.631 871.993 195.983 871.993 191.807C871.993 187.631 872.833 183.983 874.513 180.863C876.241 177.743 878.641 175.343 881.713 173.663C884.785 171.983 888.313 171.143 892.297 171.143C896.185 171.143 899.641 171.959 902.665 173.591C905.689 175.223 908.041 177.551 909.721 180.575C911.449 183.599 912.313 187.127 912.313 191.159ZM899.713 187.919C899.713 185.807 898.993 184.127 897.553 182.879C896.113 181.631 894.313 181.007 892.153 181.007C890.089 181.007 888.337 181.607 886.897 182.807C885.505 184.007 884.641 185.711 884.305 187.919H899.713Z" fill="url(#paint0_linear_2125_287)"/>
<g opacity="0.8" filter="url(#filter0_f_2125_287)">
<path d="M123.912 75.076L105.984 125.62H90.576L72.648 75.076H85.752L98.28 113.236L110.88 75.076H123.912ZM141.37 75.076V125.62H129.058V75.076H141.37ZM188.812 91.348C188.812 94.276 188.14 96.964 186.796 99.412C185.452 101.812 183.388 103.756 180.604 105.244C177.82 106.732 174.364 107.476 170.236 107.476H162.604V125.62H150.292V75.076H170.236C174.268 75.076 177.676 75.772 180.46 77.164C183.244 78.556 185.332 80.476 186.724 82.924C188.116 85.372 188.812 88.18 188.812 91.348ZM169.3 97.684C171.652 97.684 173.404 97.132 174.556 96.028C175.708 94.924 176.284 93.364 176.284 91.348C176.284 89.332 175.708 87.772 174.556 86.668C173.404 85.564 171.652 85.012 169.3 85.012H162.604V97.684H169.3ZM208.392 100.276C208.392 95.284 209.472 90.844 211.632 86.956C213.792 83.02 216.792 79.972 220.632 77.812C224.52 75.604 228.912 74.5 233.808 74.5C239.808 74.5 244.944 76.084 249.216 79.252C253.488 82.42 256.344 86.74 257.784 92.212H244.248C243.24 90.1 241.8 88.492 239.928 87.388C238.104 86.284 236.016 85.732 233.664 85.732C229.872 85.732 226.8 87.052 224.448 89.692C222.096 92.332 220.92 95.86 220.92 100.276C220.92 104.692 222.096 108.22 224.448 110.86C226.8 113.5 229.872 114.82 233.664 114.82C236.016 114.82 238.104 114.268 239.928 113.164C241.8 112.06 243.24 110.452 244.248 108.34H257.784C256.344 113.812 253.488 118.132 249.216 121.3C244.944 124.42 239.808 125.98 233.808 125.98C228.912 125.98 224.52 124.9 220.632 122.74C216.792 120.532 213.792 117.484 211.632 113.596C209.472 109.708 208.392 105.268 208.392 100.276ZM277.635 72.34V125.62H265.323V72.34H277.635ZM326.23 85.444V125.62H313.918V120.148C312.67 121.924 310.966 123.364 308.806 124.468C306.694 125.524 304.342 126.052 301.75 126.052C298.678 126.052 295.966 125.38 293.614 124.036C291.262 122.644 289.438 120.652 288.142 118.06C286.846 115.468 286.198 112.42 286.198 108.916V85.444H298.438V107.26C298.438 109.948 299.134 112.036 300.526 113.524C301.918 115.012 303.79 115.756 306.142 115.756C308.542 115.756 310.438 115.012 311.83 113.524C313.222 112.036 313.918 109.948 313.918 107.26V85.444H326.23ZM347.385 91.132C348.537 89.26 350.193 87.748 352.353 86.596C354.513 85.444 356.985 84.868 359.769 84.868C363.081 84.868 366.081 85.708 368.769 87.388C371.457 89.068 373.569 91.468 375.105 94.588C376.689 97.708 377.481 101.332 377.481 105.46C377.481 109.588 376.689 113.236 375.105 116.404C373.569 119.524 371.457 121.948 368.769 123.676C366.081 125.356 363.081 126.196 359.769 126.196C356.937 126.196 354.465 125.644 352.353 124.54C350.241 123.388 348.585 121.876 347.385 120.004V125.62H335.073V72.34H347.385V91.132ZM364.953 105.46C364.953 102.388 364.089 99.988 362.361 98.26C360.681 96.484 358.593 95.596 356.097 95.596C353.649 95.596 351.561 96.484 349.833 98.26C348.153 100.036 347.313 102.46 347.313 105.532C347.313 108.604 348.153 111.028 349.833 112.804C351.561 114.58 353.649 115.468 356.097 115.468C358.545 115.468 360.633 114.58 362.361 112.804C364.089 110.98 364.953 108.532 364.953 105.46ZM112.824 161.076V170.94H99.432V211.62H87.12V170.94H73.728V161.076H112.824ZM143.699 171.012C148.307 171.012 152.003 172.548 154.787 175.62C157.571 178.644 158.963 182.82 158.963 188.148V211.62H146.723V189.804C146.723 187.116 146.027 185.028 144.635 183.54C143.243 182.052 141.371 181.308 139.019 181.308C136.667 181.308 134.795 182.052 133.403 183.54C132.011 185.028 131.315 187.116 131.315 189.804V211.62H119.003V158.34H131.315V176.844C132.563 175.068 134.267 173.652 136.427 172.596C138.587 171.54 141.011 171.012 143.699 171.012ZM205.391 190.884C205.391 192.036 205.319 193.236 205.175 194.484H177.311C177.503 196.98 178.295 198.9 179.687 200.244C181.127 201.54 182.879 202.188 184.943 202.188C188.015 202.188 190.151 200.892 191.351 198.3H204.455C203.783 200.94 202.559 203.316 200.783 205.428C199.055 207.54 196.871 209.196 194.231 210.396C191.591 211.596 188.639 212.196 185.375 212.196C181.439 212.196 177.935 211.356 174.863 209.676C171.791 207.996 169.391 205.596 167.663 202.476C165.935 199.356 165.071 195.708 165.071 191.532C165.071 187.356 165.911 183.708 167.591 180.588C169.319 177.468 171.719 175.068 174.791 173.388C177.863 171.708 181.391 170.868 185.375 170.868C189.263 170.868 192.719 171.684 195.743 173.316C198.767 174.948 201.119 177.276 202.799 180.3C204.527 183.324 205.391 186.852 205.391 190.884ZM192.791 187.644C192.791 185.532 192.071 183.852 190.631 182.604C189.191 181.356 187.391 180.732 185.231 180.732C183.167 180.732 181.415 181.332 179.975 182.532C178.583 183.732 177.719 185.436 177.383 187.644H192.791ZM257.744 185.7C260.672 186.324 263.024 187.788 264.8 190.092C266.576 192.348 267.464 194.94 267.464 197.868C267.464 202.092 265.976 205.452 263 207.948C260.072 210.396 255.968 211.62 250.688 211.62H227.144V161.076H249.896C255.032 161.076 259.04 162.252 261.92 164.604C264.848 166.956 266.312 170.148 266.312 174.18C266.312 177.156 265.52 179.628 263.936 181.596C262.4 183.564 260.336 184.932 257.744 185.7ZM239.456 181.524H247.52C249.536 181.524 251.072 181.092 252.128 180.228C253.232 179.316 253.784 177.996 253.784 176.268C253.784 174.54 253.232 173.22 252.128 172.308C251.072 171.396 249.536 170.94 247.52 170.94H239.456V181.524ZM248.528 201.684C250.592 201.684 252.176 201.228 253.28 200.316C254.432 199.356 255.008 197.988 255.008 196.212C255.008 194.436 254.408 193.044 253.208 192.036C252.056 191.028 250.448 190.524 248.384 190.524H239.456V201.684H248.528ZM312.477 190.884C312.477 192.036 312.405 193.236 312.261 194.484H284.397C284.589 196.98 285.381 198.9 286.773 200.244C288.213 201.54 289.965 202.188 292.029 202.188C295.101 202.188 297.237 200.892 298.437 198.3H311.541C310.869 200.94 309.645 203.316 307.869 205.428C306.141 207.54 303.957 209.196 301.317 210.396C298.677 211.596 295.725 212.196 292.461 212.196C288.525 212.196 285.021 211.356 281.949 209.676C278.877 207.996 276.477 205.596 274.749 202.476C273.021 199.356 272.157 195.708 272.157 191.532C272.157 187.356 272.997 183.708 274.677 180.588C276.405 177.468 278.805 175.068 281.877 173.388C284.949 171.708 288.477 170.868 292.461 170.868C296.349 170.868 299.805 171.684 302.829 173.316C305.853 174.948 308.205 177.276 309.885 180.3C311.613 183.324 312.477 186.852 312.477 190.884ZM299.877 187.644C299.877 185.532 299.157 183.852 297.717 182.604C296.277 181.356 294.477 180.732 292.317 180.732C290.253 180.732 288.501 181.332 287.061 182.532C285.669 183.732 284.805 185.436 284.469 187.644H299.877ZM335.316 212.196C331.812 212.196 328.692 211.596 325.956 210.396C323.22 209.196 321.06 207.564 319.476 205.5C317.892 203.388 317.004 201.036 316.812 198.444H328.98C329.124 199.836 329.772 200.964 330.924 201.828C332.076 202.692 333.492 203.124 335.172 203.124C336.708 203.124 337.884 202.836 338.7 202.26C339.564 201.636 339.996 200.844 339.996 199.884C339.996 198.732 339.396 197.892 338.196 197.364C336.996 196.788 335.052 196.164 332.364 195.492C329.484 194.82 327.084 194.124 325.164 193.404C323.244 192.636 321.588 191.46 320.196 189.876C318.804 188.244 318.108 186.06 318.108 183.324C318.108 181.02 318.732 178.932 319.98 177.06C321.276 175.14 323.148 173.628 325.596 172.524C328.092 171.42 331.044 170.868 334.452 170.868C339.492 170.868 343.452 172.116 346.332 174.612C349.26 177.108 350.94 180.42 351.372 184.548H339.996C339.804 183.156 339.18 182.052 338.124 181.236C337.116 180.42 335.772 180.012 334.092 180.012C332.652 180.012 331.548 180.3 330.78 180.876C330.012 181.404 329.628 182.148 329.628 183.108C329.628 184.26 330.228 185.124 331.428 185.7C332.676 186.276 334.596 186.852 337.188 187.428C340.164 188.196 342.588 188.964 344.46 189.732C346.332 190.452 347.964 191.652 349.356 193.332C350.796 194.964 351.54 197.172 351.588 199.956C351.588 202.308 350.916 204.42 349.572 206.292C348.276 208.116 346.38 209.556 343.884 210.612C341.436 211.668 338.58 212.196 335.316 212.196ZM381.512 201.18V211.62H375.248C370.784 211.62 367.304 210.54 364.808 208.38C362.312 206.172 361.064 202.596 361.064 197.652V181.668H356.168V171.444H361.064V161.652H373.376V171.444H381.44V181.668H373.376V197.796C373.376 198.996 373.664 199.86 374.24 200.388C374.816 200.916 375.776 201.18 377.12 201.18H381.512ZM401.54 186.276C401.54 181.284 402.62 176.844 404.78 172.956C406.94 169.02 409.94 165.972 413.78 163.812C417.668 161.604 422.06 160.5 426.956 160.5C432.956 160.5 438.092 162.084 442.364 165.252C446.636 168.42 449.492 172.74 450.932 178.212H437.396C436.388 176.1 434.948 174.492 433.076 173.388C431.252 172.284 429.164 171.732 426.812 171.732C423.02 171.732 419.948 173.052 417.596 175.692C415.244 178.332 414.068 181.86 414.068 186.276C414.068 190.692 415.244 194.22 417.596 196.86C419.948 199.5 423.02 200.82 426.812 200.82C429.164 200.82 431.252 200.268 433.076 199.164C434.948 198.06 436.388 196.452 437.396 194.34H450.932C449.492 199.812 446.636 204.132 442.364 207.3C438.092 210.42 432.956 211.98 426.956 211.98C422.06 211.98 417.668 210.9 413.78 208.74C409.94 206.532 406.94 203.484 404.78 199.596C402.62 195.708 401.54 191.268 401.54 186.276ZM456.024 191.46C456.024 187.332 456.792 183.708 458.328 180.588C459.912 177.468 462.048 175.068 464.736 173.388C467.424 171.708 470.424 170.868 473.736 170.868C476.568 170.868 479.04 171.444 481.152 172.596C483.312 173.748 484.968 175.26 486.12 177.132V171.444H498.432V211.62H486.12V205.932C484.92 207.804 483.24 209.316 481.08 210.468C478.968 211.62 476.496 212.196 473.664 212.196C470.4 212.196 467.424 211.356 464.736 209.676C462.048 207.948 459.912 205.524 458.328 202.404C456.792 199.236 456.024 195.588 456.024 191.46ZM486.12 191.532C486.12 188.46 485.256 186.036 483.528 184.26C481.848 182.484 479.784 181.596 477.336 181.596C474.888 181.596 472.8 182.484 471.072 184.26C469.392 185.988 468.552 188.388 468.552 191.46C468.552 194.532 469.392 196.98 471.072 198.804C472.8 200.58 474.888 201.468 477.336 201.468C479.784 201.468 481.848 200.58 483.528 198.804C485.256 197.028 486.12 194.604 486.12 191.532ZM523.683 212.196C520.179 212.196 517.059 211.596 514.323 210.396C511.587 209.196 509.427 207.564 507.843 205.5C506.259 203.388 505.371 201.036 505.179 198.444H517.347C517.491 199.836 518.139 200.964 519.291 201.828C520.443 202.692 521.859 203.124 523.539 203.124C525.075 203.124 526.251 202.836 527.067 202.26C527.931 201.636 528.363 200.844 528.363 199.884C528.363 198.732 527.763 197.892 526.563 197.364C525.363 196.788 523.419 196.164 520.731 195.492C517.851 194.82 515.451 194.124 513.531 193.404C511.611 192.636 509.955 191.46 508.563 189.876C507.171 188.244 506.475 186.06 506.475 183.324C506.475 181.02 507.099 178.932 508.347 177.06C509.643 175.14 511.515 173.628 513.963 172.524C516.459 171.42 519.411 170.868 522.819 170.868C527.859 170.868 531.819 172.116 534.699 174.612C537.627 177.108 539.307 180.42 539.739 184.548H528.363C528.171 183.156 527.547 182.052 526.491 181.236C525.483 180.42 524.139 180.012 522.459 180.012C521.019 180.012 519.915 180.3 519.147 180.876C518.379 181.404 517.995 182.148 517.995 183.108C517.995 184.26 518.595 185.124 519.795 185.7C521.043 186.276 522.963 186.852 525.555 187.428C528.531 188.196 530.955 188.964 532.827 189.732C534.699 190.452 536.331 191.652 537.723 193.332C539.163 194.964 539.907 197.172 539.955 199.956C539.955 202.308 539.283 204.42 537.939 206.292C536.643 208.116 534.747 209.556 532.251 210.612C529.803 211.668 526.947 212.196 523.683 212.196ZM553.679 167.268C551.519 167.268 549.743 166.644 548.351 165.396C547.007 164.1 546.335 162.516 546.335 160.644C546.335 158.724 547.007 157.14 548.351 155.892C549.743 154.596 551.519 153.948 553.679 153.948C555.791 153.948 557.519 154.596 558.863 155.892C560.255 157.14 560.951 158.724 560.951 160.644C560.951 162.516 560.255 164.1 558.863 165.396C557.519 166.644 555.791 167.268 553.679 167.268ZM559.799 171.444V211.62H547.487V171.444H559.799ZM593.202 171.012C597.906 171.012 601.65 172.548 604.434 175.62C607.266 178.644 608.682 182.82 608.682 188.148V211.62H596.442V189.804C596.442 187.116 595.746 185.028 594.354 183.54C592.962 182.052 591.09 181.308 588.738 181.308C586.386 181.308 584.514 182.052 583.122 183.54C581.73 185.028 581.034 187.116 581.034 189.804V211.62H568.722V171.444H581.034V176.772C582.282 174.996 583.962 173.604 586.074 172.596C588.186 171.54 590.562 171.012 593.202 171.012ZM635.525 212.196C631.589 212.196 628.037 211.356 624.869 209.676C621.749 207.996 619.277 205.596 617.453 202.476C615.677 199.356 614.789 195.708 614.789 191.532C614.789 187.404 615.701 183.78 617.525 180.66C619.349 177.492 621.845 175.068 625.013 173.388C628.181 171.708 631.733 170.868 635.669 170.868C639.605 170.868 643.157 171.708 646.325 173.388C649.493 175.068 651.989 177.492 653.813 180.66C655.637 183.78 656.549 187.404 656.549 191.532C656.549 195.66 655.613 199.308 653.741 202.476C651.917 205.596 649.397 207.996 646.181 209.676C643.013 211.356 639.461 212.196 635.525 212.196ZM635.525 201.54C637.877 201.54 639.869 200.676 641.501 198.948C643.181 197.22 644.021 194.748 644.021 191.532C644.021 188.316 643.205 185.844 641.573 184.116C639.989 182.388 638.021 181.524 635.669 181.524C633.269 181.524 631.277 182.388 629.693 184.116C628.109 185.796 627.317 188.268 627.317 191.532C627.317 194.748 628.085 197.22 629.621 198.948C631.205 200.676 633.173 201.54 635.525 201.54ZM702.243 212.124C697.491 212.124 693.123 211.02 689.139 208.812C685.203 206.604 682.059 203.532 679.707 199.596C677.403 195.612 676.251 191.148 676.251 186.204C676.251 181.26 677.403 176.82 679.707 172.884C682.059 168.948 685.203 165.876 689.139 163.668C693.123 161.46 697.491 160.356 702.243 160.356C706.995 160.356 711.339 161.46 715.275 163.668C719.259 165.876 722.379 168.948 724.635 172.884C726.939 176.82 728.091 181.26 728.091 186.204C728.091 191.148 726.939 195.612 724.635 199.596C722.331 203.532 719.211 206.604 715.275 208.812C711.339 211.02 706.995 212.124 702.243 212.124ZM702.243 200.892C706.275 200.892 709.491 199.548 711.891 196.86C714.339 194.172 715.563 190.62 715.563 186.204C715.563 181.74 714.339 178.188 711.891 175.548C709.491 172.86 706.275 171.516 702.243 171.516C698.163 171.516 694.899 172.836 692.451 175.476C690.051 178.116 688.851 181.692 688.851 186.204C688.851 190.668 690.051 194.244 692.451 196.932C694.899 199.572 698.163 200.892 702.243 200.892ZM759.421 171.012C764.125 171.012 767.869 172.548 770.653 175.62C773.485 178.644 774.901 182.82 774.901 188.148V211.62H762.661V189.804C762.661 187.116 761.965 185.028 760.573 183.54C759.181 182.052 757.309 181.308 754.957 181.308C752.605 181.308 750.733 182.052 749.341 183.54C747.949 185.028 747.253 187.116 747.253 189.804V211.62H734.941V171.444H747.253V176.772C748.501 174.996 750.181 173.604 752.293 172.596C754.405 171.54 756.781 171.012 759.421 171.012ZM795.768 158.34V211.62H783.456V158.34H795.768ZM810.883 167.268C808.723 167.268 806.947 166.644 805.555 165.396C804.211 164.1 803.539 162.516 803.539 160.644C803.539 158.724 804.211 157.14 805.555 155.892C806.947 154.596 808.723 153.948 810.883 153.948C812.995 153.948 814.723 154.596 816.067 155.892C817.459 157.14 818.155 158.724 818.155 160.644C818.155 162.516 817.459 164.1 816.067 165.396C814.723 166.644 812.995 167.268 810.883 167.268ZM817.003 171.444V211.62H804.691V171.444H817.003ZM850.405 171.012C855.109 171.012 858.853 172.548 861.637 175.62C864.469 178.644 865.885 182.82 865.885 188.148V211.62H853.645V189.804C853.645 187.116 852.949 185.028 851.557 183.54C850.165 182.052 848.293 181.308 845.941 181.308C843.589 181.308 841.717 182.052 840.325 183.54C838.933 185.028 838.237 187.116 838.237 189.804V211.62H825.925V171.444H838.237V176.772C839.485 174.996 841.165 173.604 843.277 172.596C845.389 171.54 847.765 171.012 850.405 171.012ZM912.313 190.884C912.313 192.036 912.241 193.236 912.097 194.484H884.233C884.425 196.98 885.217 198.9 886.609 200.244C888.049 201.54 889.801 202.188 891.865 202.188C894.937 202.188 897.073 200.892 898.273 198.3H911.377C910.705 200.94 909.481 203.316 907.705 205.428C905.977 207.54 903.793 209.196 901.153 210.396C898.513 211.596 895.561 212.196 892.297 212.196C888.361 212.196 884.857 211.356 881.785 209.676C878.713 207.996 876.313 205.596 874.585 202.476C872.857 199.356 871.993 195.708 871.993 191.532C871.993 187.356 872.833 183.708 874.513 180.588C876.241 177.468 878.641 175.068 881.713 173.388C884.785 171.708 888.313 170.868 892.297 170.868C896.185 170.868 899.641 171.684 902.665 173.316C905.689 174.948 908.041 177.276 909.721 180.3C911.449 183.324 912.313 186.852 912.313 190.884ZM899.713 187.644C899.713 185.532 898.993 183.852 897.553 182.604C896.113 181.356 894.313 180.732 892.153 180.732C890.089 180.732 888.337 181.332 886.897 182.532C885.505 183.732 884.641 185.436 884.305 187.644H899.713Z" fill="url(#paint1_linear_2125_287)"/>
</g>
<defs>
<filter id="filter0_f_2125_287" x="0" y="-14.4" width="1082.88" height="316.78" filterUnits="userSpaceOnUse" color-interpolation-filters="sRGB">
<feFlood flood-opacity="0" result="BackgroundImageFix"/>
<feBlend mode="normal" in="SourceGraphic" in2="BackgroundImageFix" result="shape"/>
<feGaussianBlur stdDeviation="36" result="effect1_foregroundBlur_2125_287"/>
</filter>
<linearGradient id="paint0_linear_2125_287" x1="510" y1="56.895" x2="510" y2="229.895" gradientUnits="userSpaceOnUse">
<stop stop-color="#F0C21A"/>
<stop offset="0.15" stop-color="#966B28"/>
<stop offset="0.325" stop-color="#D0AD6A"/>
<stop offset="0.5" stop-color="#FDEECA"/>
<stop offset="0.64" stop-color="#EED46A"/>
<stop offset="0.8" stop-color="#966B28"/>
<stop offset="1" stop-color="#EED46A"/>
</linearGradient>
<linearGradient id="paint1_linear_2125_287" x1="515" y1="56.62" x2="515" y2="229.62" gradientUnits="userSpaceOnUse">
<stop stop-color="#F0C21A"/>
<stop offset="0.15" stop-color="#966B28"/>
<stop offset="0.325" stop-color="#D0AD6A"/>
<stop offset="0.5" stop-color="#FDEECA"/>
<stop offset="0.64" stop-color="#EED46A"/>
<stop offset="0.8" stop-color="#966B28"/>
<stop offset="1" stop-color="#EED46A"/>
</linearGradient>
</defs>
</svg>
