<svg width="882" height="138" viewBox="0 0 882 138" fill="none" xmlns="http://www.w3.org/2000/svg">
<path fill-rule="evenodd" clip-rule="evenodd" d="M44.9598 54.9594C45.1645 53.9758 43.9536 53.3384 43.2586 54.0639L31.4898 66.3499C30.8807 66.9858 31.3314 68.0416 32.212 68.0416H34.6384C35.2479 68.0416 35.7157 68.5823 35.628 69.1855L33.8453 81.4459C33.7052 82.409 34.8838 82.9843 35.557 82.2815L47.5767 69.7333C48.1858 69.0974 47.7351 68.0416 46.8545 68.0416H43.466C42.8317 68.0416 42.3577 67.4587 42.487 66.8378L44.9598 54.9594Z" fill="#FFF0CE"/>
<g filter="url(#filter0_d_2185_3704)">
<path d="M75.9758 59.4299L69.7118 76.1099H66.5438L60.2558 59.4299H63.1838L68.1278 73.3019L73.0958 59.4299H75.9758ZM80.9999 59.4299V76.1099H78.2639V59.4299H80.9999ZM96.256 64.3979C96.256 65.2459 96.056 66.0459 95.656 66.7979C95.256 67.5499 94.616 68.1659 93.736 68.6459C92.856 69.1099 91.728 69.3419 90.352 69.3419H87.328V76.1099H84.592V59.4299H90.352C91.632 59.4299 92.712 59.6539 93.592 60.1019C94.488 60.5339 95.152 61.1259 95.584 61.8779C96.032 62.6299 96.256 63.4699 96.256 64.3979ZM90.352 67.1099C91.392 67.1099 92.168 66.8779 92.68 66.4139C93.192 65.9339 93.448 65.2619 93.448 64.3979C93.448 62.5739 92.416 61.6619 90.352 61.6619H87.328V67.1099H90.352ZM104.188 67.7339C104.188 66.1019 104.564 64.6379 105.316 63.3419C106.084 62.0459 107.116 61.0379 108.412 60.3179C109.724 59.5819 111.156 59.2139 112.708 59.2139C114.484 59.2139 116.06 59.6539 117.436 60.5339C118.828 61.3979 119.836 62.6299 120.46 64.2299H117.172C116.74 63.3499 116.14 62.6939 115.372 62.2619C114.604 61.8299 113.716 61.6139 112.708 61.6139C111.604 61.6139 110.62 61.8619 109.756 62.3579C108.892 62.8539 108.212 63.5659 107.716 64.4939C107.236 65.4219 106.996 66.5019 106.996 67.7339C106.996 68.9659 107.236 70.0459 107.716 70.9739C108.212 71.9019 108.892 72.6219 109.756 73.1339C110.62 73.6299 111.604 73.8779 112.708 73.8779C113.716 73.8779 114.604 73.6619 115.372 73.2299C116.14 72.7979 116.74 72.1419 117.172 71.2619H120.46C119.836 72.8619 118.828 74.0939 117.436 74.9579C116.06 75.8219 114.484 76.2539 112.708 76.2539C111.14 76.2539 109.708 75.8939 108.412 75.1739C107.116 74.4379 106.084 73.4219 105.316 72.1259C104.564 70.8299 104.188 69.3659 104.188 67.7339ZM126.398 73.9019H132.038V76.1099H123.662V59.4299H126.398V73.9019ZM137.038 59.4299V70.0619C137.038 71.3259 137.366 72.2779 138.022 72.9179C138.694 73.5579 139.622 73.8779 140.806 73.8779C142.006 73.8779 142.934 73.5579 143.59 72.9179C144.262 72.2779 144.598 71.3259 144.598 70.0619V59.4299H147.334V70.0139C147.334 71.3739 147.038 72.5259 146.446 73.4699C145.854 74.4139 145.062 75.1179 144.07 75.5819C143.078 76.0459 141.982 76.2779 140.782 76.2779C139.582 76.2779 138.486 76.0459 137.494 75.5819C136.518 75.1179 135.742 74.4139 135.166 73.4699C134.59 72.5259 134.302 71.3739 134.302 70.0139V59.4299H137.038ZM159.825 67.5419C160.721 67.7019 161.481 68.1739 162.105 68.9579C162.729 69.7419 163.041 70.6299 163.041 71.6219C163.041 72.4699 162.817 73.2379 162.369 73.9259C161.937 74.5979 161.305 75.1339 160.473 75.5339C159.641 75.9179 158.673 76.1099 157.569 76.1099H150.897V59.4299H157.257C158.393 59.4299 159.369 59.6219 160.185 60.0059C161.001 60.3899 161.617 60.9099 162.033 61.5659C162.449 62.2059 162.657 62.9259 162.657 63.7259C162.657 64.6859 162.401 65.4859 161.889 66.1259C161.377 66.7659 160.689 67.2379 159.825 67.5419ZM153.633 66.4379H157.017C157.913 66.4379 158.609 66.2379 159.105 65.8379C159.617 65.4219 159.873 64.8299 159.873 64.0619C159.873 63.3099 159.617 62.7259 159.105 62.3099C158.609 61.8779 157.913 61.6619 157.017 61.6619H153.633V66.4379ZM157.329 73.8779C158.257 73.8779 158.985 73.6539 159.513 73.2059C160.041 72.7579 160.305 72.1339 160.305 71.3339C160.305 70.5179 160.025 69.8699 159.465 69.3899C158.905 68.9099 158.161 68.6699 157.233 68.6699H153.633V73.8779H157.329ZM177.744 76.2779C176.624 76.2779 175.616 76.0859 174.72 75.7019C173.824 75.3019 173.12 74.7419 172.608 74.0219C172.096 73.3019 171.84 72.4619 171.84 71.5019H174.768C174.832 72.2219 175.112 72.8139 175.608 73.2779C176.12 73.7419 176.832 73.9739 177.744 73.9739C178.688 73.9739 179.424 73.7499 179.952 73.3019C180.48 72.8379 180.744 72.2459 180.744 71.5259C180.744 70.9659 180.576 70.5099 180.24 70.1579C179.92 69.8059 179.512 69.5339 179.016 69.3419C178.536 69.1499 177.864 68.9419 177 68.7179C175.912 68.4299 175.024 68.1419 174.336 67.8539C173.664 67.5499 173.088 67.0859 172.608 66.4619C172.128 65.8379 171.888 65.0059 171.888 63.9659C171.888 63.0059 172.128 62.1659 172.608 61.4459C173.088 60.7259 173.76 60.1739 174.624 59.7899C175.488 59.4059 176.488 59.2139 177.624 59.2139C179.24 59.2139 180.56 59.6219 181.584 60.4379C182.624 61.2379 183.2 62.3419 183.312 63.7499H180.288C180.24 63.1419 179.952 62.6219 179.424 62.1899C178.896 61.7579 178.2 61.5419 177.336 61.5419C176.552 61.5419 175.912 61.7419 175.416 62.1419C174.92 62.5419 174.672 63.1179 174.672 63.8699C174.672 64.3819 174.824 64.8059 175.128 65.1419C175.448 65.4619 175.848 65.7179 176.328 65.9099C176.808 66.1019 177.464 66.3099 178.296 66.5339C179.4 66.8379 180.296 67.1419 180.984 67.4459C181.688 67.7499 182.28 68.2219 182.76 68.8619C183.256 69.4859 183.504 70.3259 183.504 71.3819C183.504 72.2299 183.272 73.0299 182.808 73.7819C182.36 74.5339 181.696 75.1419 180.816 75.6059C179.952 76.0539 178.928 76.2779 177.744 76.2779ZM198.397 64.3979C198.397 65.2459 198.197 66.0459 197.797 66.7979C197.397 67.5499 196.757 68.1659 195.877 68.6459C194.997 69.1099 193.869 69.3419 192.493 69.3419H189.469V76.1099H186.733V59.4299H192.493C193.773 59.4299 194.853 59.6539 195.733 60.1019C196.629 60.5339 197.293 61.1259 197.725 61.8779C198.173 62.6299 198.397 63.4699 198.397 64.3979ZM192.493 67.1099C193.533 67.1099 194.309 66.8779 194.821 66.4139C195.333 65.9339 195.589 65.2619 195.589 64.3979C195.589 62.5739 194.557 61.6619 192.493 61.6619H189.469V67.1099H192.493ZM208.614 76.2779C207.062 76.2779 205.63 75.9179 204.318 75.1979C203.022 74.4619 201.99 73.4459 201.222 72.1499C200.47 70.8379 200.094 69.3659 200.094 67.7339C200.094 66.1019 200.47 64.6379 201.222 63.3419C201.99 62.0459 203.022 61.0379 204.318 60.3179C205.63 59.5819 207.062 59.2139 208.614 59.2139C210.182 59.2139 211.614 59.5819 212.91 60.3179C214.222 61.0379 215.254 62.0459 216.006 63.3419C216.758 64.6379 217.134 66.1019 217.134 67.7339C217.134 69.3659 216.758 70.8379 216.006 72.1499C215.254 73.4459 214.222 74.4619 212.91 75.1979C211.614 75.9179 210.182 76.2779 208.614 76.2779ZM208.614 73.9019C209.718 73.9019 210.702 73.6539 211.566 73.1579C212.43 72.6459 213.102 71.9259 213.582 70.9979C214.078 70.0539 214.326 68.9659 214.326 67.7339C214.326 66.5019 214.078 65.4219 213.582 64.4939C213.102 63.5659 212.43 62.8539 211.566 62.3579C210.702 61.8619 209.718 61.6139 208.614 61.6139C207.51 61.6139 206.526 61.8619 205.662 62.3579C204.798 62.8539 204.118 63.5659 203.622 64.4939C203.142 65.4219 202.902 66.5019 202.902 67.7339C202.902 68.9659 203.142 70.0539 203.622 70.9979C204.118 71.9259 204.798 72.6459 205.662 73.1579C206.526 73.6539 207.51 73.9019 208.614 73.9019ZM228.49 76.1099L224.65 69.4379H222.562V76.1099H219.826V59.4299H225.586C226.866 59.4299 227.946 59.6539 228.826 60.1019C229.722 60.5499 230.386 61.1499 230.818 61.9019C231.266 62.6539 231.49 63.4939 231.49 64.4219C231.49 65.5099 231.17 66.5019 230.53 67.3979C229.906 68.2779 228.938 68.8779 227.626 69.1979L231.754 76.1099H228.49ZM222.562 67.2539H225.586C226.61 67.2539 227.378 66.9979 227.89 66.4859C228.418 65.9739 228.682 65.2859 228.682 64.4219C228.682 63.5579 228.426 62.8859 227.914 62.4059C227.402 61.9099 226.626 61.6619 225.586 61.6619H222.562V67.2539ZM245.766 59.4299V61.6619H241.326V76.1099H238.59V61.6619H234.126V59.4299H245.766ZM254.033 76.2779C252.913 76.2779 251.905 76.0859 251.009 75.7019C250.113 75.3019 249.409 74.7419 248.897 74.0219C248.385 73.3019 248.129 72.4619 248.129 71.5019H251.057C251.121 72.2219 251.401 72.8139 251.897 73.2779C252.409 73.7419 253.121 73.9739 254.033 73.9739C254.977 73.9739 255.713 73.7499 256.241 73.3019C256.769 72.8379 257.033 72.2459 257.033 71.5259C257.033 70.9659 256.865 70.5099 256.529 70.1579C256.209 69.8059 255.801 69.5339 255.305 69.3419C254.825 69.1499 254.153 68.9419 253.289 68.7179C252.201 68.4299 251.313 68.1419 250.625 67.8539C249.953 67.5499 249.377 67.0859 248.897 66.4619C248.417 65.8379 248.177 65.0059 248.177 63.9659C248.177 63.0059 248.417 62.1659 248.897 61.4459C249.377 60.7259 250.049 60.1739 250.913 59.7899C251.777 59.4059 252.777 59.2139 253.913 59.2139C255.529 59.2139 256.849 59.6219 257.873 60.4379C258.913 61.2379 259.489 62.3419 259.601 63.7499H256.577C256.529 63.1419 256.241 62.6219 255.713 62.1899C255.185 61.7579 254.489 61.5419 253.625 61.5419C252.841 61.5419 252.201 61.7419 251.705 62.1419C251.209 62.5419 250.961 63.1179 250.961 63.8699C250.961 64.3819 251.113 64.8059 251.417 65.1419C251.737 65.4619 252.137 65.7179 252.617 65.9099C253.097 66.1019 253.753 66.3099 254.585 66.5339C255.689 66.8379 256.585 67.1419 257.273 67.4459C257.977 67.7499 258.569 68.2219 259.049 68.8619C259.545 69.4859 259.793 70.3259 259.793 71.3819C259.793 72.2299 259.561 73.0299 259.097 73.7819C258.649 74.5339 257.985 75.1419 257.105 75.6059C256.241 76.0539 255.217 76.2779 254.033 76.2779ZM271.95 67.5419C272.846 67.7019 273.606 68.1739 274.23 68.9579C274.854 69.7419 275.166 70.6299 275.166 71.6219C275.166 72.4699 274.942 73.2379 274.494 73.9259C274.062 74.5979 273.43 75.1339 272.598 75.5339C271.766 75.9179 270.798 76.1099 269.694 76.1099H263.022V59.4299H269.382C270.518 59.4299 271.494 59.6219 272.31 60.0059C273.126 60.3899 273.742 60.9099 274.158 61.5659C274.574 62.2059 274.782 62.9259 274.782 63.7259C274.782 64.6859 274.526 65.4859 274.014 66.1259C273.502 66.7659 272.814 67.2379 271.95 67.5419ZM265.758 66.4379H269.142C270.038 66.4379 270.734 66.2379 271.23 65.8379C271.742 65.4219 271.998 64.8299 271.998 64.0619C271.998 63.3099 271.742 62.7259 271.23 62.3099C270.734 61.8779 270.038 61.6619 269.142 61.6619H265.758V66.4379ZM269.454 73.8779C270.382 73.8779 271.11 73.6539 271.638 73.2059C272.166 72.7579 272.43 72.1339 272.43 71.3339C272.43 70.5179 272.15 69.8699 271.59 69.3899C271.03 68.9099 270.286 68.6699 269.358 68.6699H265.758V73.8779H269.454ZM285.747 76.2779C284.195 76.2779 282.763 75.9179 281.451 75.1979C280.155 74.4619 279.123 73.4459 278.355 72.1499C277.603 70.8379 277.227 69.3659 277.227 67.7339C277.227 66.1019 277.603 64.6379 278.355 63.3419C279.123 62.0459 280.155 61.0379 281.451 60.3179C282.763 59.5819 284.195 59.2139 285.747 59.2139C287.315 59.2139 288.747 59.5819 290.043 60.3179C291.355 61.0379 292.387 62.0459 293.139 63.3419C293.891 64.6379 294.267 66.1019 294.267 67.7339C294.267 69.3659 293.891 70.8379 293.139 72.1499C292.387 73.4459 291.355 74.4619 290.043 75.1979C288.747 75.9179 287.315 76.2779 285.747 76.2779ZM285.747 73.9019C286.851 73.9019 287.835 73.6539 288.699 73.1579C289.563 72.6459 290.235 71.9259 290.715 70.9979C291.211 70.0539 291.459 68.9659 291.459 67.7339C291.459 66.5019 291.211 65.4219 290.715 64.4939C290.235 63.5659 289.563 62.8539 288.699 62.3579C287.835 61.8619 286.851 61.6139 285.747 61.6139C284.643 61.6139 283.659 61.8619 282.795 62.3579C281.931 62.8539 281.251 63.5659 280.755 64.4939C280.275 65.4219 280.035 66.5019 280.035 67.7339C280.035 68.9659 280.275 70.0539 280.755 70.9979C281.251 71.9259 281.931 72.6459 282.795 73.1579C283.659 73.6539 284.643 73.9019 285.747 73.9019ZM304.567 76.2779C303.015 76.2779 301.583 75.9179 300.271 75.1979C298.975 74.4619 297.943 73.4459 297.175 72.1499C296.423 70.8379 296.047 69.3659 296.047 67.7339C296.047 66.1019 296.423 64.6379 297.175 63.3419C297.943 62.0459 298.975 61.0379 300.271 60.3179C301.583 59.5819 303.015 59.2139 304.567 59.2139C306.135 59.2139 307.567 59.5819 308.863 60.3179C310.175 61.0379 311.207 62.0459 311.959 63.3419C312.711 64.6379 313.087 66.1019 313.087 67.7339C313.087 69.3659 312.711 70.8379 311.959 72.1499C311.207 73.4459 310.175 74.4619 308.863 75.1979C307.567 75.9179 306.135 76.2779 304.567 76.2779ZM304.567 73.9019C305.671 73.9019 306.655 73.6539 307.519 73.1579C308.383 72.6459 309.055 71.9259 309.535 70.9979C310.031 70.0539 310.279 68.9659 310.279 67.7339C310.279 66.5019 310.031 65.4219 309.535 64.4939C309.055 63.5659 308.383 62.8539 307.519 62.3579C306.655 61.8619 305.671 61.6139 304.567 61.6139C303.463 61.6139 302.479 61.8619 301.615 62.3579C300.751 62.8539 300.071 63.5659 299.575 64.4939C299.095 65.4219 298.855 66.5019 298.855 67.7339C298.855 68.9659 299.095 70.0539 299.575 70.9979C300.071 71.9259 300.751 72.6459 301.615 73.1579C302.479 73.6539 303.463 73.9019 304.567 73.9019ZM324.971 76.1099L318.515 68.6459V76.1099H315.779V59.4299H318.515V67.0379L324.995 59.4299H328.427L321.179 67.7819L328.547 76.1099H324.971Z" fill="#FFF0CE"/>
</g>
<defs>
<filter id="filter0_d_2185_3704" x="0.255859" y="0.213867" width="388.292" height="137.064" filterUnits="userSpaceOnUse" color-interpolation-filters="sRGB">
<feFlood flood-opacity="0" result="BackgroundImageFix"/>
<feColorMatrix in="SourceAlpha" type="matrix" values="0 0 0 0 0 0 0 0 0 0 0 0 0 0 0 0 0 0 127 0" result="hardAlpha"/>
<feOffset dy="1"/>
<feGaussianBlur stdDeviation="30"/>
<feComposite in2="hardAlpha" operator="out"/>
<feColorMatrix type="matrix" values="0 0 0 0 0.92549 0 0 0 0 0.364706 0 0 0 0 0.556863 0 0 0 1 0"/>
<feBlend mode="normal" in2="BackgroundImageFix" result="effect1_dropShadow_2185_3704"/>
<feBlend mode="normal" in="SourceGraphic" in2="effect1_dropShadow_2185_3704" result="shape"/>
</filter>
</defs>
</svg>
