<svg width="67" height="43" viewBox="0 0 67 43" fill="none" xmlns="http://www.w3.org/2000/svg">
<path fill-rule="evenodd" clip-rule="evenodd" d="M14.1956 4.33955C14.4004 3.35598 13.1894 2.71849 12.4945 3.444L0.72565 15.7301C0.116515 16.366 0.567217 17.4218 1.44779 17.4218H3.87421C4.48377 17.4218 4.95152 17.9625 4.86381 18.5657L3.08111 30.8261C2.94107 31.7892 4.11964 32.3645 4.79285 31.6617L16.8125 19.1135C17.4216 18.4776 16.9709 17.4218 16.0904 17.4218H12.7018C12.0676 17.4218 11.5936 16.8389 11.7228 16.218L14.1956 4.33955Z" fill="url(#paint0_linear_2185_2905)"/>
<path d="M45.448 8.80999L39.184 25.49H36.016L29.728 8.80999H32.656L37.6 22.682L42.568 8.80999H45.448ZM50.472 8.80999V25.49H47.736V8.80999H50.472ZM65.7282 13.778C65.7282 14.626 65.5282 15.426 65.1282 16.178C64.7282 16.93 64.0882 17.546 63.2082 18.026C62.3282 18.49 61.2002 18.722 59.8242 18.722H56.8002V25.49H54.0642V8.80999H59.8242C61.1042 8.80999 62.1842 9.03399 63.0642 9.48199C63.9602 9.91399 64.6242 10.506 65.0562 11.258C65.5042 12.01 65.7282 12.85 65.7282 13.778ZM59.8242 16.49C60.8642 16.49 61.6402 16.258 62.1522 15.794C62.6642 15.314 62.9202 14.642 62.9202 13.778C62.9202 11.954 61.8882 11.042 59.8242 11.042H56.8002V16.49H59.8242Z" fill="#F3B859"/>
<defs>
<linearGradient id="paint0_linear_2185_2905" x1="3.94344" y1="7.86253" x2="18.4332" y2="33.9181" gradientUnits="userSpaceOnUse">
<stop stop-color="#F7BB60"/>
<stop offset="1" stop-color="#E38326"/>
</linearGradient>
</defs>
</svg>
